<svg width="243" height="175" viewBox="0 0 243 175" fill="none" xmlns="http://www.w3.org/2000/svg">
<g clipPath="url(#clip0_8092_2294)">
<rect width="243" height="175" rx="12" fill="white"/>
<g clipPath="url(#clip1_8092_2294)">
<rect width="243" height="175" fill="white"/>
<rect width="243" height="175" fill="#6279EF" fill-opacity="0.1"/>
<rect x="12.5" y="14.5" width="217" height="166" rx="5.5" fill="white" stroke="url(#paint0_linear_8092_2294)"/>
<path d="M35.788 43L38.38 34.6H39.4L36.796 43H35.788ZM30.676 43L28.108 34.6H29.128L31.672 43H30.676ZM30.784 43L33.256 34.6H34.228L31.756 43H30.784ZM35.704 43L33.292 34.6H34.264L36.712 43H35.704ZM40.2395 43V34.6H41.1995V43H40.2395ZM44.4635 43V39.928H45.4235V43H44.4635ZM44.4635 39.928C44.4635 39.336 44.3915 38.884 44.2475 38.572C44.1115 38.26 43.9235 38.048 43.6835 37.936C43.4435 37.816 43.1715 37.756 42.8675 37.756C42.3395 37.756 41.9275 37.944 41.6315 38.32C41.3435 38.688 41.1995 39.212 41.1995 39.892H40.7315C40.7315 39.26 40.8235 38.716 41.0075 38.26C41.1995 37.804 41.4715 37.456 41.8235 37.216C42.1755 36.976 42.5995 36.856 43.0955 36.856C43.5595 36.856 43.9675 36.952 44.3195 37.144C44.6715 37.328 44.9435 37.624 45.1355 38.032C45.3355 38.44 45.4315 38.976 45.4235 39.64V39.928H44.4635ZM50.5069 43L50.4589 42.016V39.832C50.4589 39.36 50.4069 38.972 50.3029 38.668C50.1989 38.356 50.0349 38.12 49.8109 37.96C49.5869 37.8 49.2949 37.72 48.9349 37.72C48.6069 37.72 48.3229 37.788 48.0829 37.924C47.8509 38.052 47.6589 38.26 47.5069 38.548L46.6429 38.212C46.7949 37.932 46.9789 37.692 47.1949 37.492C47.4109 37.284 47.6629 37.128 47.9509 37.024C48.2389 36.912 48.5669 36.856 48.9349 36.856C49.4949 36.856 49.9549 36.968 50.3149 37.192C50.6829 37.408 50.9589 37.732 51.1429 38.164C51.3269 38.588 51.4149 39.116 51.4069 39.748L51.3949 43H50.5069ZM48.7069 43.144C48.0029 43.144 47.4509 42.984 47.0509 42.664C46.6589 42.336 46.4629 41.884 46.4629 41.308C46.4629 40.7 46.6629 40.236 47.0629 39.916C47.4709 39.588 48.0389 39.424 48.7669 39.424H50.4829V40.228H48.9829C48.4229 40.228 48.0229 40.32 47.7829 40.504C47.5509 40.688 47.4349 40.952 47.4349 41.296C47.4349 41.608 47.5509 41.856 47.7829 42.04C48.0149 42.216 48.3389 42.304 48.7549 42.304C49.0989 42.304 49.3989 42.232 49.6549 42.088C49.9109 41.936 50.1069 41.724 50.2429 41.452C50.3869 41.172 50.4589 40.844 50.4589 40.468H50.8669C50.8669 41.284 50.6829 41.936 50.3149 42.424C49.9469 42.904 49.4109 43.144 48.7069 43.144ZM55.0641 43.144C54.4801 43.144 54.0281 42.992 53.7081 42.688C53.3881 42.384 53.2281 41.956 53.2281 41.404V35.128H54.1881V41.308C54.1881 41.612 54.2681 41.848 54.4281 42.016C54.5961 42.176 54.8281 42.256 55.1241 42.256C55.2201 42.256 55.3121 42.244 55.4001 42.22C55.4961 42.188 55.6201 42.116 55.7721 42.004L56.1441 42.784C55.9361 42.92 55.7481 43.012 55.5801 43.06C55.4121 43.116 55.2401 43.144 55.0641 43.144ZM52.1841 37.852V37H55.9881V37.852H52.1841ZM56.5993 37.132L57.2833 34.6H58.3633L57.4273 37.132H56.5993ZM60.5627 43.144C60.1227 43.144 59.7387 43.08 59.4107 42.952C59.0827 42.816 58.8067 42.64 58.5827 42.424C58.3667 42.208 58.2107 41.972 58.1147 41.716L58.9547 41.368C59.0907 41.64 59.2947 41.86 59.5667 42.028C59.8387 42.196 60.1387 42.28 60.4667 42.28C60.8427 42.28 61.1587 42.208 61.4147 42.064C61.6707 41.912 61.7987 41.7 61.7987 41.428C61.7987 41.18 61.7027 40.98 61.5107 40.828C61.3267 40.676 61.0507 40.552 60.6827 40.456L60.1067 40.3C59.5627 40.156 59.1387 39.94 58.8347 39.652C58.5307 39.356 58.3787 39.024 58.3787 38.656C58.3787 38.088 58.5627 37.648 58.9307 37.336C59.3067 37.016 59.8627 36.856 60.5987 36.856C60.9507 36.856 61.2707 36.908 61.5587 37.012C61.8467 37.116 62.0947 37.264 62.3027 37.456C62.5107 37.64 62.6627 37.86 62.7587 38.116L61.9187 38.488C61.8147 38.216 61.6427 38.02 61.4027 37.9C61.1627 37.78 60.8707 37.72 60.5267 37.72C60.1587 37.72 59.8707 37.8 59.6627 37.96C59.4547 38.112 59.3507 38.328 59.3507 38.608C59.3507 38.768 59.4347 38.92 59.6027 39.064C59.7787 39.2 60.0347 39.312 60.3707 39.4L60.9707 39.556C61.3627 39.652 61.6907 39.796 61.9547 39.988C62.2187 40.172 62.4187 40.384 62.5547 40.624C62.6907 40.864 62.7587 41.12 62.7587 41.392C62.7587 41.752 62.6627 42.064 62.4707 42.328C62.2787 42.592 62.0187 42.796 61.6907 42.94C61.3627 43.076 60.9867 43.144 60.5627 43.144ZM72.8253 43V34.6H73.8333V43H72.8253ZM67.0533 43V34.6H68.0733V43H67.0533ZM67.9533 39.136V38.212H73.0413V39.136H67.9533ZM79.3651 43L79.3171 42.016V39.832C79.3171 39.36 79.2651 38.972 79.1611 38.668C79.0571 38.356 78.8931 38.12 78.6691 37.96C78.4451 37.8 78.1531 37.72 77.7931 37.72C77.4651 37.72 77.1811 37.788 76.9411 37.924C76.7091 38.052 76.5171 38.26 76.3651 38.548L75.5011 38.212C75.6531 37.932 75.8371 37.692 76.0531 37.492C76.2691 37.284 76.5211 37.128 76.8091 37.024C77.0971 36.912 77.4251 36.856 77.7931 36.856C78.3531 36.856 78.8131 36.968 79.1731 37.192C79.5411 37.408 79.8171 37.732 80.0011 38.164C80.1851 38.588 80.2731 39.116 80.2651 39.748L80.2531 43H79.3651ZM77.5651 43.144C76.8611 43.144 76.3091 42.984 75.9091 42.664C75.5171 42.336 75.3211 41.884 75.3211 41.308C75.3211 40.7 75.5211 40.236 75.9211 39.916C76.3291 39.588 76.8971 39.424 77.6251 39.424H79.3411V40.228H77.8411C77.2811 40.228 76.8811 40.32 76.6411 40.504C76.4091 40.688 76.2931 40.952 76.2931 41.296C76.2931 41.608 76.4091 41.856 76.6411 42.04C76.8731 42.216 77.1971 42.304 77.6131 42.304C77.9571 42.304 78.2571 42.232 78.5131 42.088C78.7691 41.936 78.9651 41.724 79.1011 41.452C79.2451 41.172 79.3171 40.844 79.3171 40.468H79.7251C79.7251 41.284 79.5411 41.936 79.1731 42.424C78.8051 42.904 78.2691 43.144 77.5651 43.144ZM81.7262 45.4V37H82.6262L82.6862 38.104V45.4H81.7262ZM84.7142 43.144C84.2102 43.144 83.7662 43.012 83.3822 42.748C83.0062 42.484 82.7142 42.116 82.5062 41.644C82.2982 41.164 82.1942 40.616 82.1942 40C82.1942 39.376 82.2982 38.828 82.5062 38.356C82.7142 37.884 83.0062 37.516 83.3822 37.252C83.7662 36.988 84.2102 36.856 84.7142 36.856C85.2502 36.856 85.7222 36.988 86.1302 37.252C86.5382 37.516 86.8542 37.884 87.0782 38.356C87.3102 38.828 87.4262 39.376 87.4262 40C87.4262 40.616 87.3102 41.164 87.0782 41.644C86.8542 42.116 86.5382 42.484 86.1302 42.748C85.7222 43.012 85.2502 43.144 84.7142 43.144ZM84.4982 42.268C84.8742 42.268 85.2062 42.172 85.4942 41.98C85.7902 41.788 86.0222 41.52 86.1902 41.176C86.3662 40.832 86.4542 40.44 86.4542 40C86.4542 39.56 86.3702 39.168 86.2022 38.824C86.0422 38.48 85.8142 38.212 85.5182 38.02C85.2222 37.828 84.8862 37.732 84.5102 37.732C84.1582 37.732 83.8422 37.828 83.5622 38.02C83.2902 38.212 83.0742 38.48 82.9142 38.824C82.7622 39.168 82.6862 39.56 82.6862 40C82.6862 40.44 82.7622 40.832 82.9142 41.176C83.0742 41.52 83.2902 41.788 83.5622 41.98C83.8342 42.172 84.1462 42.268 84.4982 42.268ZM88.6961 45.4V37H89.5961L89.6561 38.104V45.4H88.6961ZM91.6841 43.144C91.1801 43.144 90.7361 43.012 90.3521 42.748C89.9761 42.484 89.6841 42.116 89.4761 41.644C89.2681 41.164 89.1641 40.616 89.1641 40C89.1641 39.376 89.2681 38.828 89.4761 38.356C89.6841 37.884 89.9761 37.516 90.3521 37.252C90.7361 36.988 91.1801 36.856 91.6841 36.856C92.2201 36.856 92.6921 36.988 93.1001 37.252C93.5081 37.516 93.8241 37.884 94.0481 38.356C94.2801 38.828 94.3961 39.376 94.3961 40C94.3961 40.616 94.2801 41.164 94.0481 41.644C93.8241 42.116 93.5081 42.484 93.1001 42.748C92.6921 43.012 92.2201 43.144 91.6841 43.144ZM91.4681 42.268C91.8441 42.268 92.1761 42.172 92.4641 41.98C92.7601 41.788 92.9921 41.52 93.1601 41.176C93.3361 40.832 93.4241 40.44 93.4241 40C93.4241 39.56 93.3401 39.168 93.1721 38.824C93.0121 38.48 92.7841 38.212 92.4881 38.02C92.1921 37.828 91.8561 37.732 91.4801 37.732C91.1281 37.732 90.8121 37.828 90.5321 38.02C90.2601 38.212 90.0441 38.48 89.8841 38.824C89.7321 39.168 89.6561 39.56 89.6561 40C89.6561 40.44 89.7321 40.832 89.8841 41.176C90.0441 41.52 90.2601 41.788 90.5321 41.98C90.8041 42.172 91.1161 42.268 91.4681 42.268ZM98.2339 43.144C97.6499 43.144 97.1339 43.012 96.6859 42.748C96.2379 42.476 95.8859 42.104 95.6299 41.632C95.3819 41.16 95.2579 40.616 95.2579 40C95.2579 39.384 95.3819 38.84 95.6299 38.368C95.8859 37.896 96.2339 37.528 96.6739 37.264C97.1219 36.992 97.6339 36.856 98.2099 36.856C98.7699 36.856 99.2539 36.996 99.6619 37.276C100.07 37.548 100.386 37.932 100.61 38.428C100.834 38.924 100.946 39.508 100.946 40.18H95.9899L96.2299 39.976C96.2299 40.456 96.3139 40.868 96.4819 41.212C96.6579 41.556 96.9019 41.82 97.2139 42.004C97.5259 42.18 97.8819 42.268 98.2819 42.268C98.7059 42.268 99.0619 42.168 99.3499 41.968C99.6459 41.768 99.8739 41.504 100.034 41.176L100.862 41.596C100.71 41.908 100.506 42.18 100.25 42.412C100.002 42.644 99.7059 42.824 99.3619 42.952C99.0259 43.08 98.6499 43.144 98.2339 43.144ZM96.2899 39.568L96.0379 39.376H100.178L99.9259 39.58C99.9259 39.196 99.8499 38.864 99.6979 38.584C99.5459 38.304 99.3419 38.088 99.0859 37.936C98.8299 37.784 98.5339 37.708 98.1979 37.708C97.8699 37.708 97.5579 37.784 97.2619 37.936C96.9739 38.088 96.7379 38.304 96.5539 38.584C96.3779 38.856 96.2899 39.184 96.2899 39.568ZM102.037 43V37H102.937L102.997 38.104V43H102.037ZM106.249 43V39.928H107.209V43H106.249ZM106.249 39.928C106.249 39.336 106.181 38.884 106.045 38.572C105.909 38.26 105.721 38.048 105.481 37.936C105.241 37.816 104.969 37.756 104.665 37.756C104.137 37.756 103.725 37.944 103.429 38.32C103.141 38.688 102.997 39.212 102.997 39.892H102.529C102.529 39.26 102.621 38.716 102.805 38.26C102.989 37.804 103.257 37.456 103.609 37.216C103.961 36.976 104.385 36.856 104.881 36.856C105.353 36.856 105.761 36.952 106.105 37.144C106.457 37.328 106.729 37.624 106.921 38.032C107.121 38.44 107.217 38.976 107.209 39.64V39.928H106.249ZM108.668 43V37H109.628V43H108.668ZM109.16 35.608C109 35.608 108.86 35.548 108.74 35.428C108.62 35.308 108.56 35.168 108.56 35.008C108.56 34.84 108.62 34.7 108.74 34.588C108.86 34.468 109 34.408 109.16 34.408C109.328 34.408 109.468 34.468 109.58 34.588C109.7 34.7 109.76 34.84 109.76 35.008C109.76 35.168 109.7 35.308 109.58 35.428C109.468 35.548 109.328 35.608 109.16 35.608ZM111.277 43V37H112.177L112.237 38.104V43H111.277ZM115.489 43V39.928H116.449V43H115.489ZM115.489 39.928C115.489 39.336 115.421 38.884 115.285 38.572C115.149 38.26 114.961 38.048 114.721 37.936C114.481 37.816 114.209 37.756 113.905 37.756C113.377 37.756 112.965 37.944 112.669 38.32C112.381 38.688 112.237 39.212 112.237 39.892H111.769C111.769 39.26 111.861 38.716 112.045 38.26C112.229 37.804 112.497 37.456 112.849 37.216C113.201 36.976 113.625 36.856 114.121 36.856C114.593 36.856 115.001 36.952 115.345 37.144C115.697 37.328 115.969 37.624 116.161 38.032C116.361 38.44 116.457 38.976 116.449 39.64V39.928H115.489ZM120.249 45.544C119.865 45.544 119.513 45.504 119.193 45.424C118.881 45.352 118.613 45.268 118.389 45.172C118.173 45.084 118.017 45.008 117.921 44.944L118.281 44.164C118.385 44.22 118.533 44.288 118.725 44.368C118.917 44.456 119.141 44.528 119.397 44.584C119.661 44.648 119.941 44.68 120.237 44.68C120.621 44.68 120.965 44.6 121.269 44.44C121.581 44.288 121.821 44.044 121.989 43.708C122.165 43.38 122.253 42.956 122.253 42.436V37H123.213V42.424C123.213 43.112 123.085 43.688 122.829 44.152C122.573 44.616 122.221 44.964 121.773 45.196C121.325 45.428 120.817 45.544 120.249 45.544ZM120.213 42.952C119.677 42.952 119.205 42.824 118.797 42.568C118.389 42.312 118.069 41.956 117.837 41.5C117.613 41.036 117.501 40.508 117.501 39.916C117.501 39.308 117.613 38.776 117.837 38.32C118.069 37.856 118.389 37.496 118.797 37.24C119.205 36.984 119.677 36.856 120.213 36.856C120.717 36.856 121.157 36.984 121.533 37.24C121.909 37.496 122.201 37.856 122.409 38.32C122.625 38.776 122.733 39.308 122.733 39.916C122.733 40.516 122.625 41.044 122.409 41.5C122.201 41.956 121.909 42.312 121.533 42.568C121.157 42.824 120.717 42.952 120.213 42.952ZM120.441 42.124C120.793 42.124 121.105 42.028 121.377 41.836C121.649 41.644 121.861 41.384 122.013 41.056C122.165 40.72 122.241 40.332 122.241 39.892C122.241 39.468 122.161 39.092 122.001 38.764C121.849 38.428 121.637 38.168 121.365 37.984C121.101 37.792 120.789 37.696 120.429 37.696C120.053 37.696 119.717 37.792 119.421 37.984C119.133 38.168 118.905 38.428 118.737 38.764C118.577 39.092 118.497 39.468 118.497 39.892C118.497 40.332 118.581 40.72 118.749 41.056C118.917 41.384 119.145 41.644 119.433 41.836C119.729 42.028 120.065 42.124 120.441 42.124ZM126.032 40.744L126.02 38.608L126.644 38.584C127.172 38.576 127.604 38.428 127.94 38.14C128.276 37.844 128.444 37.444 128.444 36.94C128.444 36.484 128.284 36.108 127.964 35.812C127.652 35.508 127.244 35.356 126.74 35.356C126.372 35.356 126.048 35.444 125.768 35.62C125.496 35.788 125.312 36 125.216 36.256L124.316 35.98C124.476 35.532 124.764 35.168 125.18 34.888C125.604 34.6 126.124 34.456 126.74 34.456C127.268 34.456 127.732 34.564 128.132 34.78C128.532 34.988 128.848 35.28 129.08 35.656C129.312 36.032 129.428 36.46 129.428 36.94C129.428 37.396 129.324 37.8 129.116 38.152C128.916 38.504 128.636 38.788 128.276 39.004C127.916 39.212 127.496 39.336 127.016 39.376V40.744H126.032ZM126.524 43.168C126.332 43.168 126.172 43.104 126.044 42.976C125.916 42.848 125.852 42.692 125.852 42.508C125.852 42.316 125.916 42.156 126.044 42.028C126.172 41.9 126.332 41.836 126.524 41.836C126.716 41.836 126.872 41.9 126.992 42.028C127.12 42.156 127.184 42.316 127.184 42.508C127.184 42.692 127.12 42.848 126.992 42.976C126.872 43.104 126.716 43.168 126.524 43.168Z" fill="#121212"/>
<rect x="28" y="79" width="178" height="8" rx="4" fill="white"/>
<rect x="28" y="79" width="178" height="8" rx="4" fill="url(#paint1_linear_8092_2294)" fill-opacity="0.2"/>
<rect x="28" y="93" width="112" height="8" rx="4" fill="white"/>
<rect x="28" y="93" width="112" height="8" rx="4" fill="url(#paint2_linear_8092_2294)" fill-opacity="0.2"/>
<rect x="28" y="107" width="87" height="8" rx="4" fill="white"/>
<rect x="28" y="107" width="87" height="8" rx="4" fill="url(#paint3_linear_8092_2294)" fill-opacity="0.2"/>
<rect x="85.5" y="130.5" width="72" height="23" rx="4.5" stroke="#E5E5E5"/>
<path d="M99.876 146L96.552 137.6H97.752L101.136 146H99.876ZM93.108 146L96.492 137.6H97.692L94.368 146H93.108ZM94.704 143.756V142.7H99.54V143.756H94.704ZM104.178 146.144C103.754 146.144 103.374 146.08 103.038 145.952C102.71 145.824 102.43 145.652 102.198 145.436C101.974 145.22 101.806 144.976 101.694 144.704L102.678 144.272C102.806 144.52 102.998 144.724 103.254 144.884C103.51 145.044 103.794 145.124 104.106 145.124C104.45 145.124 104.734 145.06 104.958 144.932C105.182 144.804 105.294 144.624 105.294 144.392C105.294 144.168 105.21 143.992 105.042 143.864C104.874 143.736 104.63 143.632 104.31 143.552L103.746 143.408C103.186 143.256 102.75 143.028 102.438 142.724C102.134 142.42 101.982 142.076 101.982 141.692C101.982 141.108 102.17 140.656 102.546 140.336C102.922 140.016 103.478 139.856 104.214 139.856C104.574 139.856 104.902 139.908 105.198 140.012C105.502 140.116 105.758 140.264 105.966 140.456C106.182 140.648 106.334 140.876 106.422 141.14L105.462 141.572C105.366 141.332 105.202 141.156 104.97 141.044C104.738 140.924 104.466 140.864 104.154 140.864C103.834 140.864 103.582 140.936 103.398 141.08C103.214 141.216 103.122 141.408 103.122 141.656C103.122 141.792 103.198 141.924 103.35 142.052C103.51 142.172 103.742 142.272 104.046 142.352L104.694 142.508C105.086 142.604 105.41 142.752 105.666 142.952C105.922 143.144 106.114 143.364 106.242 143.612C106.37 143.852 106.434 144.104 106.434 144.368C106.434 144.728 106.334 145.044 106.134 145.316C105.942 145.58 105.674 145.784 105.33 145.928C104.994 146.072 104.61 146.144 104.178 146.144ZM108.724 144.188L108.016 143.408L111.172 140H112.564L108.724 144.188ZM107.62 146V137.6H108.76V146H107.62ZM111.424 146L109.216 142.712L109.96 141.92L112.792 146H111.424ZM116.826 146V137.6H118.074L120.858 141.716L123.63 137.6H124.878V146H123.702V139.496L120.846 143.708L118.002 139.508V146H116.826ZM129.385 146.144C128.801 146.144 128.285 146.012 127.837 145.748C127.389 145.476 127.037 145.104 126.781 144.632C126.525 144.16 126.397 143.616 126.397 143C126.397 142.384 126.525 141.84 126.781 141.368C127.037 140.896 127.389 140.528 127.837 140.264C128.293 139.992 128.813 139.856 129.397 139.856C129.949 139.856 130.433 139.996 130.849 140.276C131.265 140.548 131.589 140.94 131.821 141.452C132.061 141.956 132.181 142.552 132.181 143.24H127.333L127.549 143.06C127.549 143.484 127.633 143.852 127.801 144.164C127.969 144.476 128.197 144.716 128.485 144.884C128.773 145.044 129.101 145.124 129.469 145.124C129.869 145.124 130.201 145.032 130.465 144.848C130.737 144.656 130.949 144.416 131.101 144.128L132.085 144.584C131.925 144.896 131.717 145.172 131.461 145.412C131.205 145.644 130.901 145.824 130.549 145.952C130.205 146.08 129.817 146.144 129.385 146.144ZM127.621 142.52L127.393 142.34H131.185L130.969 142.52C130.969 142.168 130.897 141.868 130.753 141.62C130.609 141.364 130.417 141.172 130.177 141.044C129.937 140.908 129.669 140.84 129.373 140.84C129.085 140.84 128.805 140.908 128.533 141.044C128.269 141.172 128.049 141.36 127.873 141.608C127.705 141.856 127.621 142.16 127.621 142.52Z" fill="#1774FD"/>
<g clipPath="url(#clip2_8092_2294)">
<path d="M138.973 140.658C138.712 140.571 138.71 140.43 138.978 140.341L148.522 137.16C148.786 137.072 148.938 137.22 148.864 137.479L146.137 147.022C146.062 147.286 145.909 147.295 145.797 147.044L144 143L147 139L143 142L138.973 140.658Z" fill="#1774FD"/>
</g>
</g>
</g>
<defs>
<linearGradient id="paint0_linear_8092_2294" x1="121" y1="14" x2="121" y2="181" gradientUnits="userSpaceOnUse">
<stop stop-color="#CA62EF"/>
<stop offset="0.478125" stop-color="#4B92FB"/>
<stop offset="0.972916" stop-color="#F6C0D1"/>
</linearGradient>
<linearGradient id="paint1_linear_8092_2294" x1="30.1602" y1="76.8235" x2="70.0502" y2="8.0492" gradientUnits="userSpaceOnUse">
<stop stop-color="#CA62EF"/>
<stop offset="0.478125" stop-color="#4B92FB"/>
<stop offset="0.941806" stop-color="#F6C0D1"/>
</linearGradient>
<linearGradient id="paint2_linear_8092_2294" x1="29.3592" y1="90.8235" x2="75.1629" y2="41.1346" gradientUnits="userSpaceOnUse">
<stop stop-color="#CA62EF"/>
<stop offset="0.478125" stop-color="#4B92FB"/>
<stop offset="0.941806" stop-color="#F6C0D1"/>
</linearGradient>
<linearGradient id="paint3_linear_8092_2294" x1="29.0558" y1="104.824" x2="74.3462" y2="66.6583" gradientUnits="userSpaceOnUse">
<stop stop-color="#CA62EF"/>
<stop offset="0.478125" stop-color="#4B92FB"/>
<stop offset="0.941806" stop-color="#F6C0D1"/>
</linearGradient>
<clipPath id="clip0_8092_2294">
<rect width="243" height="175" rx="12" fill="white"/>
</clipPath>
<clipPath id="clip1_8092_2294">
<rect width="243" height="175" fill="white"/>
</clipPath>
<clipPath id="clip2_8092_2294">
<rect width="12" height="12" fill="white" transform="translate(138 136)"/>
</clipPath>
</defs>
</svg>
