<svg width="243" height="175" viewBox="0 0 243 175" fill="none" xmlns="http://www.w3.org/2000/svg">
<g clipPath="url(#clip0_8092_2308)">
<rect width="243" height="175" rx="12" fill="white"/>
<g clipPath="url(#clip1_8092_2308)">
<rect width="243" height="175" fill="white"/>
<rect width="243" height="175" fill="#6279EF" fill-opacity="0.1"/>
<rect x="12.5" y="14.5" width="217" height="166" rx="5.5" fill="white" stroke="url(#paint0_linear_8092_2308)"/>
<path d="M34.936 43L31.564 34.6H32.584L36.004 43H34.936ZM28.108 43L31.528 34.6H32.56L29.188 43H28.108ZM29.728 40.612V39.7H34.396V40.612H29.728ZM36.8411 43V37H37.7411L37.8011 38.104V43H36.8411ZM41.0531 43V39.928H42.0131V43H41.0531ZM41.0531 39.928C41.0531 39.336 40.9851 38.884 40.8491 38.572C40.7131 38.26 40.5251 38.048 40.2851 37.936C40.0451 37.816 39.7731 37.756 39.4691 37.756C38.9411 37.756 38.5291 37.944 38.2331 38.32C37.9451 38.688 37.8011 39.212 37.8011 39.892H37.3331C37.3331 39.26 37.4251 38.716 37.6091 38.26C37.7931 37.804 38.0611 37.456 38.4131 37.216C38.7651 36.976 39.1891 36.856 39.6851 36.856C40.1571 36.856 40.5651 36.952 40.9091 37.144C41.2611 37.328 41.5331 37.624 41.7251 38.032C41.9251 38.44 42.0211 38.976 42.0131 39.64V39.928H41.0531ZM43.8588 45.544C43.7068 45.544 43.5308 45.512 43.3308 45.448C43.1308 45.392 42.9188 45.316 42.6948 45.22L43.0548 44.416C43.2388 44.496 43.3988 44.556 43.5348 44.596C43.6788 44.636 43.7908 44.656 43.8708 44.656C44.0868 44.656 44.2628 44.596 44.3988 44.476C44.5428 44.364 44.6628 44.2 44.7588 43.984L45.4428 42.352L47.6628 37H48.6948L45.8148 43.84C45.6628 44.192 45.5028 44.496 45.3348 44.752C45.1748 45.008 44.9788 45.204 44.7468 45.34C44.5148 45.476 44.2188 45.544 43.8588 45.544ZM45.1788 43L42.5868 37H43.6068L45.8388 42.34L46.1268 43H45.1788ZM52.636 43V34.6H53.668L58.672 41.344V34.6H59.692V43H58.672L53.656 36.22V43H52.636ZM64.161 43.144C63.577 43.144 63.061 43.012 62.613 42.748C62.165 42.476 61.813 42.104 61.557 41.632C61.309 41.16 61.185 40.616 61.185 40C61.185 39.384 61.309 38.84 61.557 38.368C61.813 37.896 62.161 37.528 62.601 37.264C63.049 36.992 63.561 36.856 64.137 36.856C64.697 36.856 65.181 36.996 65.589 37.276C65.997 37.548 66.313 37.932 66.537 38.428C66.761 38.924 66.873 39.508 66.873 40.18H61.917L62.157 39.976C62.157 40.456 62.241 40.868 62.409 41.212C62.585 41.556 62.829 41.82 63.141 42.004C63.453 42.18 63.809 42.268 64.209 42.268C64.633 42.268 64.989 42.168 65.277 41.968C65.573 41.768 65.801 41.504 65.961 41.176L66.789 41.596C66.637 41.908 66.433 42.18 66.177 42.412C65.929 42.644 65.633 42.824 65.289 42.952C64.953 43.08 64.577 43.144 64.161 43.144ZM62.217 39.568L61.965 39.376H66.105L65.853 39.58C65.853 39.196 65.777 38.864 65.625 38.584C65.473 38.304 65.269 38.088 65.013 37.936C64.757 37.784 64.461 37.708 64.125 37.708C63.797 37.708 63.485 37.784 63.189 37.936C62.901 38.088 62.665 38.304 62.481 38.584C62.305 38.856 62.217 39.184 62.217 39.568ZM73.2594 43L75.2874 37H76.2594L74.2194 43H73.2594ZM69.1794 43L71.2074 37H72.1074L70.1034 43H69.1794ZM69.1314 43L67.0914 37H68.0634L70.0674 43H69.1314ZM73.2594 43L71.2554 37H72.1674L74.1714 43H73.2594ZM80.2224 43V34.6H81.2424V43H80.2224ZM83.0842 43V37H83.9842L84.0442 38.104V43H83.0842ZM87.2962 43V39.928H88.2562V43H87.2962ZM87.2962 39.928C87.2962 39.336 87.2282 38.884 87.0922 38.572C86.9562 38.26 86.7682 38.048 86.5282 37.936C86.2882 37.816 86.0162 37.756 85.7122 37.756C85.1842 37.756 84.7722 37.944 84.4762 38.32C84.1882 38.688 84.0442 39.212 84.0442 39.892H83.5762C83.5762 39.26 83.6682 38.716 83.8522 38.26C84.0362 37.804 84.3042 37.456 84.6562 37.216C85.0082 36.976 85.4322 36.856 85.9282 36.856C86.4002 36.856 86.8082 36.952 87.1522 37.144C87.5042 37.328 87.7762 37.624 87.9682 38.032C88.1682 38.44 88.2642 38.976 88.2562 39.64V39.928H87.2962ZM91.7556 43.144C91.3156 43.144 90.9316 43.08 90.6036 42.952C90.2756 42.816 89.9996 42.64 89.7756 42.424C89.5596 42.208 89.4036 41.972 89.3076 41.716L90.1476 41.368C90.2836 41.64 90.4876 41.86 90.7596 42.028C91.0316 42.196 91.3316 42.28 91.6596 42.28C92.0356 42.28 92.3516 42.208 92.6076 42.064C92.8636 41.912 92.9916 41.7 92.9916 41.428C92.9916 41.18 92.8956 40.98 92.7036 40.828C92.5196 40.676 92.2436 40.552 91.8756 40.456L91.2996 40.3C90.7556 40.156 90.3316 39.94 90.0276 39.652C89.7236 39.356 89.5716 39.024 89.5716 38.656C89.5716 38.088 89.7556 37.648 90.1236 37.336C90.4996 37.016 91.0556 36.856 91.7916 36.856C92.1436 36.856 92.4636 36.908 92.7516 37.012C93.0396 37.116 93.2876 37.264 93.4956 37.456C93.7036 37.64 93.8556 37.86 93.9516 38.116L93.1116 38.488C93.0076 38.216 92.8356 38.02 92.5956 37.9C92.3556 37.78 92.0636 37.72 91.7196 37.72C91.3516 37.72 91.0636 37.8 90.8556 37.96C90.6476 38.112 90.5436 38.328 90.5436 38.608C90.5436 38.768 90.6276 38.92 90.7956 39.064C90.9716 39.2 91.2276 39.312 91.5636 39.4L92.1636 39.556C92.5556 39.652 92.8836 39.796 93.1476 39.988C93.4116 40.172 93.6116 40.384 93.7476 40.624C93.8836 40.864 93.9516 41.12 93.9516 41.392C93.9516 41.752 93.8556 42.064 93.6636 42.328C93.4716 42.592 93.2116 42.796 92.8836 42.94C92.5556 43.076 92.1796 43.144 91.7556 43.144ZM95.1855 43V37H96.1455V43H95.1855ZM95.6775 35.608C95.5175 35.608 95.3775 35.548 95.2575 35.428C95.1375 35.308 95.0775 35.168 95.0775 35.008C95.0775 34.84 95.1375 34.7 95.2575 34.588C95.3775 34.468 95.5175 34.408 95.6775 34.408C95.8455 34.408 95.9855 34.468 96.0975 34.588C96.2175 34.7 96.2775 34.84 96.2775 35.008C96.2775 35.168 96.2175 35.308 96.0975 35.428C95.9855 35.548 95.8455 35.608 95.6775 35.608ZM100.195 45.544C99.8105 45.544 99.4585 45.504 99.1385 45.424C98.8265 45.352 98.5585 45.268 98.3345 45.172C98.1185 45.084 97.9625 45.008 97.8665 44.944L98.2265 44.164C98.3305 44.22 98.4785 44.288 98.6705 44.368C98.8625 44.456 99.0865 44.528 99.3425 44.584C99.6065 44.648 99.8865 44.68 100.183 44.68C100.567 44.68 100.911 44.6 101.215 44.44C101.527 44.288 101.767 44.044 101.935 43.708C102.111 43.38 102.199 42.956 102.199 42.436V37H103.159V42.424C103.159 43.112 103.031 43.688 102.775 44.152C102.519 44.616 102.167 44.964 101.719 45.196C101.271 45.428 100.763 45.544 100.195 45.544ZM100.159 42.952C99.6225 42.952 99.1505 42.824 98.7425 42.568C98.3345 42.312 98.0145 41.956 97.7825 41.5C97.5585 41.036 97.4465 40.508 97.4465 39.916C97.4465 39.308 97.5585 38.776 97.7825 38.32C98.0145 37.856 98.3345 37.496 98.7425 37.24C99.1505 36.984 99.6225 36.856 100.159 36.856C100.663 36.856 101.103 36.984 101.479 37.24C101.855 37.496 102.147 37.856 102.355 38.32C102.571 38.776 102.679 39.308 102.679 39.916C102.679 40.516 102.571 41.044 102.355 41.5C102.147 41.956 101.855 42.312 101.479 42.568C101.103 42.824 100.663 42.952 100.159 42.952ZM100.387 42.124C100.739 42.124 101.051 42.028 101.323 41.836C101.595 41.644 101.807 41.384 101.959 41.056C102.111 40.72 102.187 40.332 102.187 39.892C102.187 39.468 102.107 39.092 101.947 38.764C101.795 38.428 101.583 38.168 101.311 37.984C101.047 37.792 100.735 37.696 100.375 37.696C99.9985 37.696 99.6625 37.792 99.3665 37.984C99.0785 38.168 98.8505 38.428 98.6825 38.764C98.5225 39.092 98.4425 39.468 98.4425 39.892C98.4425 40.332 98.5265 40.72 98.6945 41.056C98.8625 41.384 99.0905 41.644 99.3785 41.836C99.6745 42.028 100.011 42.124 100.387 42.124ZM104.718 43V34.6H105.678V43H104.718ZM108.942 43V39.928H109.902V43H108.942ZM108.942 39.928C108.942 39.336 108.87 38.884 108.726 38.572C108.59 38.26 108.402 38.048 108.162 37.936C107.922 37.816 107.65 37.756 107.346 37.756C106.818 37.756 106.406 37.944 106.11 38.32C105.822 38.688 105.678 39.212 105.678 39.892H105.21C105.21 39.26 105.302 38.716 105.486 38.26C105.678 37.804 105.95 37.456 106.302 37.216C106.654 36.976 107.078 36.856 107.574 36.856C108.038 36.856 108.446 36.952 108.798 37.144C109.15 37.328 109.422 37.624 109.614 38.032C109.814 38.44 109.91 38.976 109.902 39.64V39.928H108.942ZM113.545 43.144C112.961 43.144 112.509 42.992 112.189 42.688C111.869 42.384 111.709 41.956 111.709 41.404V35.128H112.669V41.308C112.669 41.612 112.749 41.848 112.909 42.016C113.077 42.176 113.309 42.256 113.605 42.256C113.701 42.256 113.793 42.244 113.881 42.22C113.977 42.188 114.101 42.116 114.253 42.004L114.625 42.784C114.417 42.92 114.229 43.012 114.061 43.06C113.893 43.116 113.721 43.144 113.545 43.144ZM110.665 37.852V37H114.469V37.852H110.665ZM117.804 43.144C117.364 43.144 116.98 43.08 116.652 42.952C116.324 42.816 116.048 42.64 115.824 42.424C115.608 42.208 115.452 41.972 115.356 41.716L116.196 41.368C116.332 41.64 116.536 41.86 116.808 42.028C117.08 42.196 117.38 42.28 117.708 42.28C118.084 42.28 118.4 42.208 118.656 42.064C118.912 41.912 119.04 41.7 119.04 41.428C119.04 41.18 118.944 40.98 118.752 40.828C118.568 40.676 118.292 40.552 117.924 40.456L117.348 40.3C116.804 40.156 116.38 39.94 116.076 39.652C115.772 39.356 115.62 39.024 115.62 38.656C115.62 38.088 115.804 37.648 116.172 37.336C116.548 37.016 117.104 36.856 117.84 36.856C118.192 36.856 118.512 36.908 118.8 37.012C119.088 37.116 119.336 37.264 119.544 37.456C119.752 37.64 119.904 37.86 120 38.116L119.16 38.488C119.056 38.216 118.884 38.02 118.644 37.9C118.404 37.78 118.112 37.72 117.768 37.72C117.4 37.72 117.112 37.8 116.904 37.96C116.696 38.112 116.592 38.328 116.592 38.608C116.592 38.768 116.676 38.92 116.844 39.064C117.02 39.2 117.276 39.312 117.612 39.4L118.212 39.556C118.604 39.652 118.932 39.796 119.196 39.988C119.46 40.172 119.66 40.384 119.796 40.624C119.932 40.864 120 41.12 120 41.392C120 41.752 119.904 42.064 119.712 42.328C119.52 42.592 119.26 42.796 118.932 42.94C118.604 43.076 118.228 43.144 117.804 43.144ZM125.987 43V35.524H123.311V34.6H129.671V35.524H126.995V43H125.987ZM132.434 43.144C131.85 43.144 131.33 43.012 130.874 42.748C130.426 42.476 130.074 42.104 129.818 41.632C129.562 41.16 129.434 40.616 129.434 40C129.434 39.384 129.558 38.84 129.806 38.368C130.062 37.896 130.414 37.528 130.862 37.264C131.318 36.992 131.834 36.856 132.41 36.856C133.002 36.856 133.522 36.992 133.97 37.264C134.426 37.528 134.778 37.896 135.026 38.368C135.282 38.84 135.41 39.384 135.41 40C135.41 40.616 135.282 41.16 135.026 41.632C134.778 42.104 134.43 42.476 133.982 42.748C133.534 43.012 133.018 43.144 132.434 43.144ZM132.434 42.256C132.834 42.256 133.182 42.16 133.478 41.968C133.774 41.776 134.006 41.512 134.174 41.176C134.35 40.84 134.438 40.448 134.438 40C134.438 39.552 134.35 39.16 134.174 38.824C134.006 38.488 133.77 38.224 133.466 38.032C133.162 37.84 132.81 37.744 132.41 37.744C132.018 37.744 131.67 37.84 131.366 38.032C131.07 38.224 130.834 38.488 130.658 38.824C130.49 39.16 130.406 39.552 130.406 40C130.406 40.44 130.49 40.832 130.658 41.176C130.834 41.512 131.074 41.776 131.378 41.968C131.69 42.16 132.042 42.256 132.434 42.256ZM141.063 43L141.015 41.884V34.6H141.975V43H141.063ZM138.987 43.144C138.451 43.144 137.979 43.012 137.571 42.748C137.163 42.484 136.843 42.116 136.611 41.644C136.387 41.164 136.275 40.616 136.275 40C136.275 39.376 136.387 38.828 136.611 38.356C136.843 37.884 137.163 37.516 137.571 37.252C137.979 36.988 138.451 36.856 138.987 36.856C139.491 36.856 139.931 36.988 140.307 37.252C140.691 37.516 140.987 37.884 141.195 38.356C141.403 38.828 141.507 39.376 141.507 40C141.507 40.616 141.403 41.164 141.195 41.644C140.987 42.116 140.691 42.484 140.307 42.748C139.931 43.012 139.491 43.144 138.987 43.144ZM139.203 42.268C139.555 42.268 139.867 42.172 140.139 41.98C140.411 41.788 140.623 41.52 140.775 41.176C140.935 40.832 141.015 40.44 141.015 40C141.015 39.56 140.935 39.168 140.775 38.824C140.623 38.48 140.411 38.212 140.139 38.02C139.867 37.828 139.551 37.732 139.191 37.732C138.815 37.732 138.479 37.828 138.183 38.02C137.895 38.212 137.667 38.48 137.499 38.824C137.331 39.168 137.247 39.56 137.247 40C137.247 40.44 137.331 40.832 137.499 41.176C137.667 41.52 137.899 41.788 138.195 41.98C138.491 42.172 138.827 42.268 139.203 42.268ZM147.23 43L147.182 42.016V39.832C147.182 39.36 147.13 38.972 147.026 38.668C146.922 38.356 146.758 38.12 146.534 37.96C146.31 37.8 146.018 37.72 145.658 37.72C145.33 37.72 145.046 37.788 144.806 37.924C144.574 38.052 144.382 38.26 144.23 38.548L143.366 38.212C143.518 37.932 143.702 37.692 143.918 37.492C144.134 37.284 144.386 37.128 144.674 37.024C144.962 36.912 145.29 36.856 145.658 36.856C146.218 36.856 146.678 36.968 147.038 37.192C147.406 37.408 147.682 37.732 147.866 38.164C148.05 38.588 148.138 39.116 148.13 39.748L148.118 43H147.23ZM145.43 43.144C144.726 43.144 144.174 42.984 143.774 42.664C143.382 42.336 143.186 41.884 143.186 41.308C143.186 40.7 143.386 40.236 143.786 39.916C144.194 39.588 144.762 39.424 145.49 39.424H147.206V40.228H145.706C145.146 40.228 144.746 40.32 144.506 40.504C144.274 40.688 144.158 40.952 144.158 41.296C144.158 41.608 144.274 41.856 144.506 42.04C144.738 42.216 145.062 42.304 145.478 42.304C145.822 42.304 146.122 42.232 146.378 42.088C146.634 41.936 146.83 41.724 146.966 41.452C147.11 41.172 147.182 40.844 147.182 40.468H147.59C147.59 41.284 147.406 41.936 147.038 42.424C146.67 42.904 146.134 43.144 145.43 43.144ZM149.977 45.544C149.825 45.544 149.649 45.512 149.449 45.448C149.249 45.392 149.037 45.316 148.813 45.22L149.173 44.416C149.357 44.496 149.517 44.556 149.653 44.596C149.797 44.636 149.909 44.656 149.989 44.656C150.205 44.656 150.381 44.596 150.517 44.476C150.661 44.364 150.781 44.2 150.877 43.984L151.561 42.352L153.781 37H154.813L151.933 43.84C151.781 44.192 151.621 44.496 151.453 44.752C151.293 45.008 151.097 45.204 150.865 45.34C150.633 45.476 150.337 45.544 149.977 45.544ZM151.297 43L148.705 37H149.725L151.957 42.34L152.245 43H151.297ZM156.894 40.744L156.882 38.608L157.506 38.584C158.034 38.576 158.466 38.428 158.802 38.14C159.138 37.844 159.306 37.444 159.306 36.94C159.306 36.484 159.146 36.108 158.826 35.812C158.514 35.508 158.106 35.356 157.602 35.356C157.234 35.356 156.91 35.444 156.63 35.62C156.358 35.788 156.174 36 156.078 36.256L155.178 35.98C155.338 35.532 155.626 35.168 156.042 34.888C156.466 34.6 156.986 34.456 157.602 34.456C158.13 34.456 158.594 34.564 158.994 34.78C159.394 34.988 159.71 35.28 159.942 35.656C160.174 36.032 160.29 36.46 160.29 36.94C160.29 37.396 160.186 37.8 159.978 38.152C159.778 38.504 159.498 38.788 159.138 39.004C158.778 39.212 158.358 39.336 157.878 39.376V40.744H156.894ZM157.386 43.168C157.194 43.168 157.034 43.104 156.906 42.976C156.778 42.848 156.714 42.692 156.714 42.508C156.714 42.316 156.778 42.156 156.906 42.028C157.034 41.9 157.194 41.836 157.386 41.836C157.578 41.836 157.734 41.9 157.854 42.028C157.982 42.156 158.046 42.316 158.046 42.508C158.046 42.692 157.982 42.848 157.854 42.976C157.734 43.104 157.578 43.168 157.386 43.168Z" fill="#121212"/>
<rect x="28" y="79" width="178" height="8" rx="4" fill="white"/>
<rect x="28" y="79" width="178" height="8" rx="4" fill="url(#paint1_linear_8092_2308)" fill-opacity="0.2"/>
<rect x="28" y="93" width="112" height="8" rx="4" fill="white"/>
<rect x="28" y="93" width="112" height="8" rx="4" fill="url(#paint2_linear_8092_2308)" fill-opacity="0.2"/>
<rect x="28" y="107" width="87" height="8" rx="4" fill="white"/>
<rect x="28" y="107" width="87" height="8" rx="4" fill="url(#paint3_linear_8092_2308)" fill-opacity="0.2"/>
<rect x="85.5" y="130.5" width="72" height="23" rx="4.5" stroke="#E5E5E5"/>
<path d="M99.876 146L96.552 137.6H97.752L101.136 146H99.876ZM93.108 146L96.492 137.6H97.692L94.368 146H93.108ZM94.704 143.756V142.7H99.54V143.756H94.704ZM104.178 146.144C103.754 146.144 103.374 146.08 103.038 145.952C102.71 145.824 102.43 145.652 102.198 145.436C101.974 145.22 101.806 144.976 101.694 144.704L102.678 144.272C102.806 144.52 102.998 144.724 103.254 144.884C103.51 145.044 103.794 145.124 104.106 145.124C104.45 145.124 104.734 145.06 104.958 144.932C105.182 144.804 105.294 144.624 105.294 144.392C105.294 144.168 105.21 143.992 105.042 143.864C104.874 143.736 104.63 143.632 104.31 143.552L103.746 143.408C103.186 143.256 102.75 143.028 102.438 142.724C102.134 142.42 101.982 142.076 101.982 141.692C101.982 141.108 102.17 140.656 102.546 140.336C102.922 140.016 103.478 139.856 104.214 139.856C104.574 139.856 104.902 139.908 105.198 140.012C105.502 140.116 105.758 140.264 105.966 140.456C106.182 140.648 106.334 140.876 106.422 141.14L105.462 141.572C105.366 141.332 105.202 141.156 104.97 141.044C104.738 140.924 104.466 140.864 104.154 140.864C103.834 140.864 103.582 140.936 103.398 141.08C103.214 141.216 103.122 141.408 103.122 141.656C103.122 141.792 103.198 141.924 103.35 142.052C103.51 142.172 103.742 142.272 104.046 142.352L104.694 142.508C105.086 142.604 105.41 142.752 105.666 142.952C105.922 143.144 106.114 143.364 106.242 143.612C106.37 143.852 106.434 144.104 106.434 144.368C106.434 144.728 106.334 145.044 106.134 145.316C105.942 145.58 105.674 145.784 105.33 145.928C104.994 146.072 104.61 146.144 104.178 146.144ZM108.724 144.188L108.016 143.408L111.172 140H112.564L108.724 144.188ZM107.62 146V137.6H108.76V146H107.62ZM111.424 146L109.216 142.712L109.96 141.92L112.792 146H111.424ZM116.826 146V137.6H118.074L120.858 141.716L123.63 137.6H124.878V146H123.702V139.496L120.846 143.708L118.002 139.508V146H116.826ZM129.385 146.144C128.801 146.144 128.285 146.012 127.837 145.748C127.389 145.476 127.037 145.104 126.781 144.632C126.525 144.16 126.397 143.616 126.397 143C126.397 142.384 126.525 141.84 126.781 141.368C127.037 140.896 127.389 140.528 127.837 140.264C128.293 139.992 128.813 139.856 129.397 139.856C129.949 139.856 130.433 139.996 130.849 140.276C131.265 140.548 131.589 140.94 131.821 141.452C132.061 141.956 132.181 142.552 132.181 143.24H127.333L127.549 143.06C127.549 143.484 127.633 143.852 127.801 144.164C127.969 144.476 128.197 144.716 128.485 144.884C128.773 145.044 129.101 145.124 129.469 145.124C129.869 145.124 130.201 145.032 130.465 144.848C130.737 144.656 130.949 144.416 131.101 144.128L132.085 144.584C131.925 144.896 131.717 145.172 131.461 145.412C131.205 145.644 130.901 145.824 130.549 145.952C130.205 146.08 129.817 146.144 129.385 146.144ZM127.621 142.52L127.393 142.34H131.185L130.969 142.52C130.969 142.168 130.897 141.868 130.753 141.62C130.609 141.364 130.417 141.172 130.177 141.044C129.937 140.908 129.669 140.84 129.373 140.84C129.085 140.84 128.805 140.908 128.533 141.044C128.269 141.172 128.049 141.36 127.873 141.608C127.705 141.856 127.621 142.16 127.621 142.52Z" fill="#1774FD"/>
<g clipPath="url(#clip2_8092_2308)">
<path d="M138.973 140.658C138.712 140.571 138.71 140.43 138.978 140.341L148.522 137.16C148.786 137.072 148.938 137.22 148.864 137.479L146.137 147.022C146.062 147.286 145.909 147.295 145.797 147.044L144 143L147 139L143 142L138.973 140.658Z" fill="#1774FD"/>
</g>
</g>
</g>
<defs>
<linearGradient id="paint0_linear_8092_2308" x1="121" y1="14" x2="121" y2="181" gradientUnits="userSpaceOnUse">
<stop stop-color="#CA62EF"/>
<stop offset="0.478125" stop-color="#4B92FB"/>
<stop offset="0.972916" stop-color="#F6C0D1"/>
</linearGradient>
<linearGradient id="paint1_linear_8092_2308" x1="30.1602" y1="76.8235" x2="70.0502" y2="8.0492" gradientUnits="userSpaceOnUse">
<stop stop-color="#CA62EF"/>
<stop offset="0.478125" stop-color="#4B92FB"/>
<stop offset="0.941806" stop-color="#F6C0D1"/>
</linearGradient>
<linearGradient id="paint2_linear_8092_2308" x1="29.3592" y1="90.8235" x2="75.1629" y2="41.1346" gradientUnits="userSpaceOnUse">
<stop stop-color="#CA62EF"/>
<stop offset="0.478125" stop-color="#4B92FB"/>
<stop offset="0.941806" stop-color="#F6C0D1"/>
</linearGradient>
<linearGradient id="paint3_linear_8092_2308" x1="29.0558" y1="104.824" x2="74.3462" y2="66.6583" gradientUnits="userSpaceOnUse">
<stop stop-color="#CA62EF"/>
<stop offset="0.478125" stop-color="#4B92FB"/>
<stop offset="0.941806" stop-color="#F6C0D1"/>
</linearGradient>
<clipPath id="clip0_8092_2308">
<rect width="243" height="175" rx="12" fill="white"/>
</clipPath>
<clipPath id="clip1_8092_2308">
<rect width="243" height="175" fill="white"/>
</clipPath>
<clipPath id="clip2_8092_2308">
<rect width="12" height="12" fill="white" transform="translate(138 136)"/>
</clipPath>
</defs>
</svg>
