<svg width="244" height="175" viewBox="0 0 244 175" fill="none" xmlns="http://www.w3.org/2000/svg">
<g clipPath="url(#clip0_2777_41305)">
<rect x="0.5" width="243" height="175" rx="12" fill="white"/>
<g clipPath="url(#clip1_2777_41305)">
<rect width="243" height="175" transform="translate(0.5)" fill="white"/>
<rect width="243" height="175" transform="translate(0.5)" fill="#6279EF" fill-opacity="0.1"/>
<rect x="13" y="14.5" width="217" height="166" rx="5.5" fill="white" stroke="url(#paint0_linear_2777_41305)"/>
<path d="M29.616 43V34.6H30.636V42.076H34.596V43H29.616ZM38.0824 43.144C37.4984 43.144 36.9824 43.012 36.5344 42.748C36.0864 42.476 35.7344 42.104 35.4784 41.632C35.2304 41.16 35.1064 40.616 35.1064 40C35.1064 39.384 35.2304 38.84 35.4784 38.368C35.7344 37.896 36.0824 37.528 36.5224 37.264C36.9704 36.992 37.4824 36.856 38.0584 36.856C38.6184 36.856 39.1024 36.996 39.5104 37.276C39.9184 37.548 40.2344 37.932 40.4584 38.428C40.6824 38.924 40.7944 39.508 40.7944 40.18H35.8384L36.0784 39.976C36.0784 40.456 36.1624 40.868 36.3304 41.212C36.5064 41.556 36.7504 41.82 37.0624 42.004C37.3744 42.18 37.7304 42.268 38.1304 42.268C38.5544 42.268 38.9104 42.168 39.1984 41.968C39.4944 41.768 39.7224 41.504 39.8824 41.176L40.7104 41.596C40.5584 41.908 40.3544 42.18 40.0984 42.412C39.8504 42.644 39.5544 42.824 39.2104 42.952C38.8744 43.08 38.4984 43.144 38.0824 43.144ZM36.1384 39.568L35.8864 39.376H40.0264L39.7744 39.58C39.7744 39.196 39.6984 38.864 39.5464 38.584C39.3944 38.304 39.1904 38.088 38.9344 37.936C38.6784 37.784 38.3824 37.708 38.0464 37.708C37.7184 37.708 37.4064 37.784 37.1104 37.936C36.8224 38.088 36.5864 38.304 36.4024 38.584C36.2264 38.856 36.1384 39.184 36.1384 39.568ZM44.1412 43.144C43.5572 43.144 43.1052 42.992 42.7852 42.688C42.4652 42.384 42.3052 41.956 42.3052 41.404V35.128H43.2652V41.308C43.2652 41.612 43.3452 41.848 43.5052 42.016C43.6732 42.176 43.9052 42.256 44.2012 42.256C44.2972 42.256 44.3892 42.244 44.4772 42.22C44.5732 42.188 44.6972 42.116 44.8492 42.004L45.2212 42.784C45.0132 42.92 44.8252 43.012 44.6572 43.06C44.4892 43.116 44.3172 43.144 44.1412 43.144ZM41.2612 37.852V37H45.0652V37.852H41.2612ZM45.6763 37.132L46.3603 34.6H47.4403L46.5043 37.132H45.6763ZM49.6397 43.144C49.1997 43.144 48.8157 43.08 48.4877 42.952C48.1597 42.816 47.8837 42.64 47.6597 42.424C47.4437 42.208 47.2877 41.972 47.1917 41.716L48.0317 41.368C48.1677 41.64 48.3717 41.86 48.6437 42.028C48.9157 42.196 49.2157 42.28 49.5437 42.28C49.9197 42.28 50.2357 42.208 50.4917 42.064C50.7477 41.912 50.8757 41.7 50.8757 41.428C50.8757 41.18 50.7797 40.98 50.5877 40.828C50.4037 40.676 50.1277 40.552 49.7597 40.456L49.1837 40.3C48.6397 40.156 48.2157 39.94 47.9117 39.652C47.6077 39.356 47.4557 39.024 47.4557 38.656C47.4557 38.088 47.6397 37.648 48.0077 37.336C48.3837 37.016 48.9397 36.856 49.6757 36.856C50.0277 36.856 50.3477 36.908 50.6357 37.012C50.9237 37.116 51.1717 37.264 51.3797 37.456C51.5877 37.64 51.7397 37.86 51.8357 38.116L50.9957 38.488C50.8917 38.216 50.7197 38.02 50.4797 37.9C50.2397 37.78 49.9477 37.72 49.6037 37.72C49.2357 37.72 48.9477 37.8 48.7397 37.96C48.5317 38.112 48.4277 38.328 48.4277 38.608C48.4277 38.768 48.5117 38.92 48.6797 39.064C48.8557 39.2 49.1117 39.312 49.4477 39.4L50.0477 39.556C50.4397 39.652 50.7677 39.796 51.0317 39.988C51.2957 40.172 51.4957 40.384 51.6317 40.624C51.7677 40.864 51.8357 41.12 51.8357 41.392C51.8357 41.752 51.7397 42.064 51.5477 42.328C51.3557 42.592 51.0957 42.796 50.7677 42.94C50.4397 43.076 50.0637 43.144 49.6397 43.144ZM56.1304 43V34.6H58.7824C59.3584 34.6 59.8504 34.688 60.2584 34.864C60.6664 35.04 60.9824 35.3 61.2064 35.644C61.4304 35.98 61.5424 36.392 61.5424 36.88C61.5424 37.288 61.4504 37.648 61.2664 37.96C61.0824 38.264 60.8224 38.512 60.4864 38.704C60.9024 38.904 61.2224 39.172 61.4464 39.508C61.6784 39.844 61.7944 40.244 61.7944 40.708C61.7944 41.196 61.6864 41.612 61.4704 41.956C61.2544 42.292 60.9464 42.552 60.5464 42.736C60.1544 42.912 59.6824 43 59.1304 43H56.1304ZM57.1384 42.088H59.0824C59.6104 42.088 60.0224 41.964 60.3184 41.716C60.6224 41.46 60.7744 41.112 60.7744 40.672C60.7744 40.2 60.6024 39.832 60.2584 39.568C59.9144 39.296 59.4344 39.16 58.8184 39.16H57.1384V42.088ZM57.1384 38.284H59.0344C59.4984 38.284 59.8624 38.16 60.1264 37.912C60.3904 37.664 60.5224 37.32 60.5224 36.88C60.5224 36.424 60.3664 36.076 60.0544 35.836C59.7504 35.588 59.3184 35.464 58.7584 35.464H57.1384V38.284ZM63.5983 39.748C63.5983 39.1 63.7223 38.576 63.9703 38.176C64.2183 37.768 64.5343 37.468 64.9183 37.276C65.3103 37.076 65.7223 36.976 66.1543 36.976V37.876C65.8023 37.876 65.4623 37.936 65.1343 38.056C64.8143 38.168 64.5503 38.356 64.3423 38.62C64.1343 38.884 64.0303 39.244 64.0303 39.7L63.5983 39.748ZM63.0703 43V37H64.0303V43H63.0703ZM70.701 43L70.653 42.016V39.832C70.653 39.36 70.601 38.972 70.497 38.668C70.393 38.356 70.229 38.12 70.005 37.96C69.781 37.8 69.489 37.72 69.129 37.72C68.801 37.72 68.517 37.788 68.277 37.924C68.045 38.052 67.853 38.26 67.701 38.548L66.837 38.212C66.989 37.932 67.173 37.692 67.389 37.492C67.605 37.284 67.857 37.128 68.145 37.024C68.433 36.912 68.761 36.856 69.129 36.856C69.689 36.856 70.149 36.968 70.509 37.192C70.877 37.408 71.153 37.732 71.337 38.164C71.521 38.588 71.609 39.116 71.601 39.748L71.589 43H70.701ZM68.901 43.144C68.197 43.144 67.645 42.984 67.245 42.664C66.853 42.336 66.657 41.884 66.657 41.308C66.657 40.7 66.857 40.236 67.257 39.916C67.665 39.588 68.233 39.424 68.961 39.424H70.677V40.228H69.177C68.617 40.228 68.217 40.32 67.977 40.504C67.745 40.688 67.629 40.952 67.629 41.296C67.629 41.608 67.745 41.856 67.977 42.04C68.209 42.216 68.533 42.304 68.949 42.304C69.293 42.304 69.593 42.232 69.849 42.088C70.105 41.936 70.301 41.724 70.437 41.452C70.581 41.172 70.653 40.844 70.653 40.468H71.061C71.061 41.284 70.877 41.936 70.509 42.424C70.141 42.904 69.605 43.144 68.901 43.144ZM73.0622 43V37H74.0222V43H73.0622ZM73.5542 35.608C73.3942 35.608 73.2542 35.548 73.1342 35.428C73.0142 35.308 72.9542 35.168 72.9542 35.008C72.9542 34.84 73.0142 34.7 73.1342 34.588C73.2542 34.468 73.3942 34.408 73.5542 34.408C73.7222 34.408 73.8622 34.468 73.9742 34.588C74.0942 34.7 74.1542 34.84 74.1542 35.008C74.1542 35.168 74.0942 35.308 73.9742 35.428C73.8622 35.548 73.7222 35.608 73.5542 35.608ZM75.6712 43V37H76.5712L76.6312 38.104V43H75.6712ZM79.8832 43V39.928H80.8432V43H79.8832ZM79.8832 39.928C79.8832 39.336 79.8152 38.884 79.6792 38.572C79.5432 38.26 79.3552 38.048 79.1152 37.936C78.8752 37.816 78.6032 37.756 78.2992 37.756C77.7712 37.756 77.3592 37.944 77.0632 38.32C76.7752 38.688 76.6312 39.212 76.6312 39.892H76.1632C76.1632 39.26 76.2552 38.716 76.4392 38.26C76.6232 37.804 76.8912 37.456 77.2432 37.216C77.5952 36.976 78.0192 36.856 78.5152 36.856C78.9872 36.856 79.3952 36.952 79.7392 37.144C80.0912 37.328 80.3632 37.624 80.5552 38.032C80.7552 38.44 80.8512 38.976 80.8432 39.64V39.928H79.8832ZM84.3427 43.144C83.9027 43.144 83.5187 43.08 83.1907 42.952C82.8627 42.816 82.5867 42.64 82.3627 42.424C82.1467 42.208 81.9907 41.972 81.8947 41.716L82.7347 41.368C82.8707 41.64 83.0747 41.86 83.3467 42.028C83.6187 42.196 83.9187 42.28 84.2467 42.28C84.6227 42.28 84.9387 42.208 85.1947 42.064C85.4507 41.912 85.5787 41.7 85.5787 41.428C85.5787 41.18 85.4827 40.98 85.2907 40.828C85.1067 40.676 84.8307 40.552 84.4627 40.456L83.8867 40.3C83.3427 40.156 82.9187 39.94 82.6147 39.652C82.3107 39.356 82.1587 39.024 82.1587 38.656C82.1587 38.088 82.3427 37.648 82.7107 37.336C83.0867 37.016 83.6427 36.856 84.3787 36.856C84.7307 36.856 85.0507 36.908 85.3387 37.012C85.6267 37.116 85.8747 37.264 86.0827 37.456C86.2907 37.64 86.4427 37.86 86.5387 38.116L85.6987 38.488C85.5947 38.216 85.4227 38.02 85.1827 37.9C84.9427 37.78 84.6507 37.72 84.3067 37.72C83.9387 37.72 83.6507 37.8 83.4427 37.96C83.2347 38.112 83.1307 38.328 83.1307 38.608C83.1307 38.768 83.2147 38.92 83.3827 39.064C83.5587 39.2 83.8147 39.312 84.1507 39.4L84.7507 39.556C85.1427 39.652 85.4707 39.796 85.7347 39.988C85.9987 40.172 86.1987 40.384 86.3347 40.624C86.4707 40.864 86.5387 41.12 86.5387 41.392C86.5387 41.752 86.4427 42.064 86.2507 42.328C86.0587 42.592 85.7987 42.796 85.4707 42.94C85.1427 43.076 84.7667 43.144 84.3427 43.144ZM89.9685 43.144C89.3845 43.144 88.9325 42.992 88.6125 42.688C88.2925 42.384 88.1325 41.956 88.1325 41.404V35.128H89.0925V41.308C89.0925 41.612 89.1725 41.848 89.3325 42.016C89.5005 42.176 89.7325 42.256 90.0285 42.256C90.1245 42.256 90.2165 42.244 90.3045 42.22C90.4005 42.188 90.5245 42.116 90.6765 42.004L91.0485 42.784C90.8405 42.92 90.6525 43.012 90.4845 43.06C90.3165 43.116 90.1445 43.144 89.9685 43.144ZM87.0885 37.852V37H90.8925V37.852H87.0885ZM94.7445 43.144C94.1605 43.144 93.6405 43.012 93.1845 42.748C92.7365 42.476 92.3845 42.104 92.1285 41.632C91.8725 41.16 91.7445 40.616 91.7445 40C91.7445 39.384 91.8685 38.84 92.1165 38.368C92.3725 37.896 92.7245 37.528 93.1725 37.264C93.6285 36.992 94.1445 36.856 94.7205 36.856C95.3125 36.856 95.8325 36.992 96.2805 37.264C96.7365 37.528 97.0885 37.896 97.3365 38.368C97.5925 38.84 97.7205 39.384 97.7205 40C97.7205 40.616 97.5925 41.16 97.3365 41.632C97.0885 42.104 96.7405 42.476 96.2925 42.748C95.8445 43.012 95.3285 43.144 94.7445 43.144ZM94.7445 42.256C95.1445 42.256 95.4925 42.16 95.7885 41.968C96.0845 41.776 96.3165 41.512 96.4845 41.176C96.6605 40.84 96.7485 40.448 96.7485 40C96.7485 39.552 96.6605 39.16 96.4845 38.824C96.3165 38.488 96.0805 38.224 95.7765 38.032C95.4725 37.84 95.1205 37.744 94.7205 37.744C94.3285 37.744 93.9805 37.84 93.6765 38.032C93.3805 38.224 93.1445 38.488 92.9685 38.824C92.8005 39.16 92.7165 39.552 92.7165 40C92.7165 40.44 92.8005 40.832 92.9685 41.176C93.1445 41.512 93.3845 41.776 93.6885 41.968C94.0005 42.16 94.3525 42.256 94.7445 42.256ZM99.4614 39.748C99.4614 39.1 99.5854 38.576 99.8334 38.176C100.081 37.768 100.397 37.468 100.781 37.276C101.173 37.076 101.585 36.976 102.017 36.976V37.876C101.665 37.876 101.325 37.936 100.997 38.056C100.677 38.168 100.413 38.356 100.205 38.62C99.9974 38.884 99.8934 39.244 99.8934 39.7L99.4614 39.748ZM98.9334 43V37H99.8934V43H98.9334ZM102.868 43V37H103.768L103.816 37.84C104 37.52 104.236 37.276 104.524 37.108C104.812 36.94 105.148 36.856 105.532 36.856C106.012 36.856 106.42 36.968 106.756 37.192C107.1 37.416 107.348 37.756 107.5 38.212C107.668 37.772 107.912 37.436 108.232 37.204C108.56 36.972 108.948 36.856 109.396 36.856C110.068 36.856 110.596 37.08 110.98 37.528C111.372 37.976 111.564 38.656 111.556 39.568V43H110.596V39.928C110.596 39.336 110.532 38.884 110.404 38.572C110.284 38.26 110.12 38.048 109.912 37.936C109.704 37.816 109.464 37.756 109.192 37.756C108.72 37.756 108.352 37.944 108.088 38.32C107.824 38.688 107.692 39.212 107.692 39.892V43H106.732V39.928C106.732 39.336 106.668 38.884 106.54 38.572C106.42 38.26 106.252 38.048 106.036 37.936C105.828 37.816 105.588 37.756 105.316 37.756C104.852 37.756 104.488 37.944 104.224 38.32C103.96 38.688 103.828 39.212 103.828 39.892V43H102.868ZM116.076 43V34.6H117.096V43H116.076ZM123.378 43L123.33 41.884V34.6H124.29V43H123.378ZM121.302 43.144C120.766 43.144 120.294 43.012 119.886 42.748C119.478 42.484 119.158 42.116 118.926 41.644C118.702 41.164 118.59 40.616 118.59 40C118.59 39.376 118.702 38.828 118.926 38.356C119.158 37.884 119.478 37.516 119.886 37.252C120.294 36.988 120.766 36.856 121.302 36.856C121.806 36.856 122.246 36.988 122.622 37.252C123.006 37.516 123.302 37.884 123.51 38.356C123.718 38.828 123.822 39.376 123.822 40C123.822 40.616 123.718 41.164 123.51 41.644C123.302 42.116 123.006 42.484 122.622 42.748C122.246 43.012 121.806 43.144 121.302 43.144ZM121.518 42.268C121.87 42.268 122.182 42.172 122.454 41.98C122.726 41.788 122.938 41.52 123.09 41.176C123.25 40.832 123.33 40.44 123.33 40C123.33 39.56 123.25 39.168 123.09 38.824C122.938 38.48 122.726 38.212 122.454 38.02C122.182 37.828 121.866 37.732 121.506 37.732C121.13 37.732 120.794 37.828 120.498 38.02C120.21 38.212 119.982 38.48 119.814 38.824C119.646 39.168 119.562 39.56 119.562 40C119.562 40.44 119.646 40.832 119.814 41.176C119.982 41.52 120.214 41.788 120.51 41.98C120.806 42.172 121.142 42.268 121.518 42.268ZM128.477 43.144C127.893 43.144 127.377 43.012 126.929 42.748C126.481 42.476 126.129 42.104 125.873 41.632C125.625 41.16 125.501 40.616 125.501 40C125.501 39.384 125.625 38.84 125.873 38.368C126.129 37.896 126.477 37.528 126.917 37.264C127.365 36.992 127.877 36.856 128.453 36.856C129.013 36.856 129.497 36.996 129.905 37.276C130.313 37.548 130.629 37.932 130.853 38.428C131.077 38.924 131.189 39.508 131.189 40.18H126.233L126.473 39.976C126.473 40.456 126.557 40.868 126.725 41.212C126.901 41.556 127.145 41.82 127.457 42.004C127.769 42.18 128.125 42.268 128.525 42.268C128.949 42.268 129.305 42.168 129.593 41.968C129.889 41.768 130.117 41.504 130.277 41.176L131.105 41.596C130.953 41.908 130.749 42.18 130.493 42.412C130.245 42.644 129.949 42.824 129.605 42.952C129.269 43.08 128.893 43.144 128.477 43.144ZM126.533 39.568L126.281 39.376H130.421L130.169 39.58C130.169 39.196 130.093 38.864 129.941 38.584C129.789 38.304 129.585 38.088 129.329 37.936C129.073 37.784 128.777 37.708 128.441 37.708C128.113 37.708 127.801 37.784 127.505 37.936C127.217 38.088 126.981 38.304 126.797 38.584C126.621 38.856 126.533 39.184 126.533 39.568ZM135.976 43L135.928 42.016V39.832C135.928 39.36 135.876 38.972 135.772 38.668C135.668 38.356 135.504 38.12 135.28 37.96C135.056 37.8 134.764 37.72 134.404 37.72C134.076 37.72 133.792 37.788 133.552 37.924C133.32 38.052 133.128 38.26 132.976 38.548L132.112 38.212C132.264 37.932 132.448 37.692 132.664 37.492C132.88 37.284 133.132 37.128 133.42 37.024C133.708 36.912 134.036 36.856 134.404 36.856C134.964 36.856 135.424 36.968 135.784 37.192C136.152 37.408 136.428 37.732 136.612 38.164C136.796 38.588 136.884 39.116 136.876 39.748L136.864 43H135.976ZM134.176 43.144C133.472 43.144 132.92 42.984 132.52 42.664C132.128 42.336 131.932 41.884 131.932 41.308C131.932 40.7 132.132 40.236 132.532 39.916C132.94 39.588 133.508 39.424 134.236 39.424H135.952V40.228H134.452C133.892 40.228 133.492 40.32 133.252 40.504C133.02 40.688 132.904 40.952 132.904 41.296C132.904 41.608 133.02 41.856 133.252 42.04C133.484 42.216 133.808 42.304 134.224 42.304C134.568 42.304 134.868 42.232 135.124 42.088C135.38 41.936 135.576 41.724 135.712 41.452C135.856 41.172 135.928 40.844 135.928 40.468H136.336C136.336 41.284 136.152 41.936 135.784 42.424C135.416 42.904 134.88 43.144 134.176 43.144ZM140.377 43.144C139.937 43.144 139.553 43.08 139.225 42.952C138.897 42.816 138.621 42.64 138.397 42.424C138.181 42.208 138.025 41.972 137.929 41.716L138.769 41.368C138.905 41.64 139.109 41.86 139.381 42.028C139.653 42.196 139.953 42.28 140.281 42.28C140.657 42.28 140.973 42.208 141.229 42.064C141.485 41.912 141.613 41.7 141.613 41.428C141.613 41.18 141.517 40.98 141.325 40.828C141.141 40.676 140.865 40.552 140.497 40.456L139.921 40.3C139.377 40.156 138.953 39.94 138.649 39.652C138.345 39.356 138.193 39.024 138.193 38.656C138.193 38.088 138.377 37.648 138.745 37.336C139.121 37.016 139.677 36.856 140.413 36.856C140.765 36.856 141.085 36.908 141.373 37.012C141.661 37.116 141.909 37.264 142.117 37.456C142.325 37.64 142.477 37.86 142.573 38.116L141.733 38.488C141.629 38.216 141.457 38.02 141.217 37.9C140.977 37.78 140.685 37.72 140.341 37.72C139.973 37.72 139.685 37.8 139.477 37.96C139.269 38.112 139.165 38.328 139.165 38.608C139.165 38.768 139.249 38.92 139.417 39.064C139.593 39.2 139.849 39.312 140.185 39.4L140.785 39.556C141.177 39.652 141.505 39.796 141.769 39.988C142.033 40.172 142.233 40.384 142.369 40.624C142.505 40.864 142.573 41.12 142.573 41.392C142.573 41.752 142.477 42.064 142.285 42.328C142.093 42.592 141.833 42.796 141.505 42.94C141.177 43.076 140.801 43.144 140.377 43.144Z" fill="#121212"/>
<rect x="28.5" y="79" width="178" height="8" rx="4" fill="white"/>
<rect x="28.5" y="79" width="178" height="8" rx="4" fill="url(#paint1_linear_2777_41305)" fill-opacity="0.2"/>
<rect x="28.5" y="93" width="112" height="8" rx="4" fill="white"/>
<rect x="28.5" y="93" width="112" height="8" rx="4" fill="url(#paint2_linear_2777_41305)" fill-opacity="0.2"/>
<rect x="28.5" y="107" width="87" height="8" rx="4" fill="white"/>
<rect x="28.5" y="107" width="87" height="8" rx="4" fill="url(#paint3_linear_2777_41305)" fill-opacity="0.2"/>
<rect x="86" y="130.5" width="72" height="23" rx="4.5" stroke="#E5E5E5"/>
<path d="M100.376 146L97.052 137.6H98.252L101.636 146H100.376ZM93.608 146L96.992 137.6H98.192L94.868 146H93.608ZM95.204 143.756V142.7H100.04V143.756H95.204ZM104.678 146.144C104.254 146.144 103.874 146.08 103.538 145.952C103.21 145.824 102.93 145.652 102.698 145.436C102.474 145.22 102.306 144.976 102.194 144.704L103.178 144.272C103.306 144.52 103.498 144.724 103.754 144.884C104.01 145.044 104.294 145.124 104.606 145.124C104.95 145.124 105.234 145.06 105.458 144.932C105.682 144.804 105.794 144.624 105.794 144.392C105.794 144.168 105.71 143.992 105.542 143.864C105.374 143.736 105.13 143.632 104.81 143.552L104.246 143.408C103.686 143.256 103.25 143.028 102.938 142.724C102.634 142.42 102.482 142.076 102.482 141.692C102.482 141.108 102.67 140.656 103.046 140.336C103.422 140.016 103.978 139.856 104.714 139.856C105.074 139.856 105.402 139.908 105.698 140.012C106.002 140.116 106.258 140.264 106.466 140.456C106.682 140.648 106.834 140.876 106.922 141.14L105.962 141.572C105.866 141.332 105.702 141.156 105.47 141.044C105.238 140.924 104.966 140.864 104.654 140.864C104.334 140.864 104.082 140.936 103.898 141.08C103.714 141.216 103.622 141.408 103.622 141.656C103.622 141.792 103.698 141.924 103.85 142.052C104.01 142.172 104.242 142.272 104.546 142.352L105.194 142.508C105.586 142.604 105.91 142.752 106.166 142.952C106.422 143.144 106.614 143.364 106.742 143.612C106.87 143.852 106.934 144.104 106.934 144.368C106.934 144.728 106.834 145.044 106.634 145.316C106.442 145.58 106.174 145.784 105.83 145.928C105.494 146.072 105.11 146.144 104.678 146.144ZM109.224 144.188L108.516 143.408L111.672 140H113.064L109.224 144.188ZM108.12 146V137.6H109.26V146H108.12ZM111.924 146L109.716 142.712L110.46 141.92L113.292 146H111.924ZM117.326 146V137.6H118.574L121.358 141.716L124.13 137.6H125.378V146H124.202V139.496L121.346 143.708L118.502 139.508V146H117.326ZM129.885 146.144C129.301 146.144 128.785 146.012 128.337 145.748C127.889 145.476 127.537 145.104 127.281 144.632C127.025 144.16 126.897 143.616 126.897 143C126.897 142.384 127.025 141.84 127.281 141.368C127.537 140.896 127.889 140.528 128.337 140.264C128.793 139.992 129.313 139.856 129.897 139.856C130.449 139.856 130.933 139.996 131.349 140.276C131.765 140.548 132.089 140.94 132.321 141.452C132.561 141.956 132.681 142.552 132.681 143.24H127.833L128.049 143.06C128.049 143.484 128.133 143.852 128.301 144.164C128.469 144.476 128.697 144.716 128.985 144.884C129.273 145.044 129.601 145.124 129.969 145.124C130.369 145.124 130.701 145.032 130.965 144.848C131.237 144.656 131.449 144.416 131.601 144.128L132.585 144.584C132.425 144.896 132.217 145.172 131.961 145.412C131.705 145.644 131.401 145.824 131.049 145.952C130.705 146.08 130.317 146.144 129.885 146.144ZM128.121 142.52L127.893 142.34H131.685L131.469 142.52C131.469 142.168 131.397 141.868 131.253 141.62C131.109 141.364 130.917 141.172 130.677 141.044C130.437 140.908 130.169 140.84 129.873 140.84C129.585 140.84 129.305 140.908 129.033 141.044C128.769 141.172 128.549 141.36 128.373 141.608C128.205 141.856 128.121 142.16 128.121 142.52Z" fill="#1774FD"/>
<g clipPath="url(#clip2_2777_41305)">
<path d="M139.473 140.658C139.212 140.571 139.21 140.43 139.478 140.341L149.022 137.16C149.286 137.072 149.438 137.22 149.364 137.479L146.637 147.022C146.562 147.286 146.409 147.295 146.297 147.044L144.5 143L147.5 139L143.5 142L139.473 140.658Z" fill="#1774FD"/>
</g>
</g>
</g>
<defs>
<linearGradient id="paint0_linear_2777_41305" x1="121.5" y1="14" x2="121.5" y2="181" gradientUnits="userSpaceOnUse">
<stop stop-color="#CA62EF"/>
<stop offset="0.478125" stop-color="#4B92FB"/>
<stop offset="0.972916" stop-color="#F6C0D1"/>
</linearGradient>
<linearGradient id="paint1_linear_2777_41305" x1="30.6602" y1="76.8235" x2="70.5502" y2="8.0492" gradientUnits="userSpaceOnUse">
<stop stop-color="#CA62EF"/>
<stop offset="0.478125" stop-color="#4B92FB"/>
<stop offset="0.941806" stop-color="#F6C0D1"/>
</linearGradient>
<linearGradient id="paint2_linear_2777_41305" x1="29.8592" y1="90.8235" x2="75.6629" y2="41.1346" gradientUnits="userSpaceOnUse">
<stop stop-color="#CA62EF"/>
<stop offset="0.478125" stop-color="#4B92FB"/>
<stop offset="0.941806" stop-color="#F6C0D1"/>
</linearGradient>
<linearGradient id="paint3_linear_2777_41305" x1="29.5558" y1="104.824" x2="74.8462" y2="66.6583" gradientUnits="userSpaceOnUse">
<stop stop-color="#CA62EF"/>
<stop offset="0.478125" stop-color="#4B92FB"/>
<stop offset="0.941806" stop-color="#F6C0D1"/>
</linearGradient>
<clipPath id="clip0_2777_41305">
<rect x="0.5" width="243" height="175" rx="12" fill="white"/>
</clipPath>
<clipPath id="clip1_2777_41305">
<rect width="243" height="175" fill="white" transform="translate(0.5)"/>
</clipPath>
<clipPath id="clip2_2777_41305">
<rect width="12" height="12" fill="white" transform="translate(138.5 136)"/>
</clipPath>
</defs>
</svg>
