<svg width="291" height="137" viewBox="0 0 291 137" fill="none" xmlns="http://www.w3.org/2000/svg">
<rect width="291" height="137" fill="#FAFAFA"/>
<rect x="15" y="29" width="233" height="34" rx="8" fill="white"/>
<path d="M29.888 50V41.6H30.896V50H29.888ZM24.116 50V41.6H25.136V50H24.116ZM25.016 46.136V45.212H30.104V46.136H25.016ZM35.4797 50.144C34.8957 50.144 34.3797 50.012 33.9317 49.748C33.4837 49.476 33.1317 49.104 32.8757 48.632C32.6277 48.16 32.5037 47.616 32.5037 47C32.5037 46.384 32.6277 45.84 32.8757 45.368C33.1317 44.896 33.4797 44.528 33.9197 44.264C34.3677 43.992 34.8797 43.856 35.4557 43.856C36.0157 43.856 36.4997 43.996 36.9077 44.276C37.3157 44.548 37.6317 44.932 37.8557 45.428C38.0797 45.924 38.1917 46.508 38.1917 47.18H33.2357L33.4757 46.976C33.4757 47.456 33.5597 47.868 33.7277 48.212C33.9037 48.556 34.1477 48.82 34.4597 49.004C34.7717 49.18 35.1277 49.268 35.5277 49.268C35.9517 49.268 36.3077 49.168 36.5957 48.968C36.8917 48.768 37.1197 48.504 37.2797 48.176L38.1077 48.596C37.9557 48.908 37.7517 49.18 37.4957 49.412C37.2477 49.644 36.9517 49.824 36.6077 49.952C36.2717 50.08 35.8957 50.144 35.4797 50.144ZM33.5357 46.568L33.2837 46.376H37.4237L37.1717 46.58C37.1717 46.196 37.0957 45.864 36.9437 45.584C36.7917 45.304 36.5877 45.088 36.3317 44.936C36.0757 44.784 35.7797 44.708 35.4437 44.708C35.1157 44.708 34.8037 44.784 34.5077 44.936C34.2197 45.088 33.9837 45.304 33.7997 45.584C33.6237 45.856 33.5357 46.184 33.5357 46.568ZM39.4025 50V41.6H40.3625V50H39.4025ZM42.0392 50V41.6H42.9992V50H42.0392ZM47.3279 50.144C46.7439 50.144 46.2239 50.012 45.7679 49.748C45.3199 49.476 44.9679 49.104 44.7119 48.632C44.4559 48.16 44.3279 47.616 44.3279 47C44.3279 46.384 44.4519 45.84 44.6999 45.368C44.9559 44.896 45.3079 44.528 45.7559 44.264C46.2119 43.992 46.7279 43.856 47.3039 43.856C47.8959 43.856 48.4159 43.992 48.8639 44.264C49.3199 44.528 49.6719 44.896 49.9199 45.368C50.1759 45.84 50.3039 46.384 50.3039 47C50.3039 47.616 50.1759 48.16 49.9199 48.632C49.6719 49.104 49.3239 49.476 48.8759 49.748C48.4279 50.012 47.9119 50.144 47.3279 50.144ZM47.3279 49.256C47.7279 49.256 48.0759 49.16 48.3719 48.968C48.6679 48.776 48.8999 48.512 49.0679 48.176C49.2439 47.84 49.3319 47.448 49.3319 47C49.3319 46.552 49.2439 46.16 49.0679 45.824C48.8999 45.488 48.6639 45.224 48.3599 45.032C48.0559 44.84 47.7039 44.744 47.3039 44.744C46.9119 44.744 46.5639 44.84 46.2599 45.032C45.9639 45.224 45.7279 45.488 45.5519 45.824C45.3839 46.16 45.2999 46.552 45.2999 47C45.2999 47.44 45.3839 47.832 45.5519 48.176C45.7279 48.512 45.9679 48.776 46.2719 48.968C46.5839 49.16 46.9359 49.256 47.3279 49.256ZM51.2769 51.38L51.9609 48.848H53.0409L52.1049 51.38H51.2769ZM62.7568 50L64.7848 44H65.7568L63.7168 50H62.7568ZM58.6768 50L60.7048 44H61.6048L59.6008 50H58.6768ZM58.6288 50L56.5888 44H57.5608L59.5648 50H58.6288ZM62.7568 50L60.7528 44H61.6648L63.6688 50H62.7568ZM66.7189 50V41.6H67.6789V50H66.7189ZM70.9429 50V46.928H71.9029V50H70.9429ZM70.9429 46.928C70.9429 46.336 70.8709 45.884 70.7269 45.572C70.5909 45.26 70.4029 45.048 70.1629 44.936C69.9229 44.816 69.6509 44.756 69.3469 44.756C68.8189 44.756 68.4069 44.944 68.1109 45.32C67.8229 45.688 67.6789 46.212 67.6789 46.892H67.2109C67.2109 46.26 67.3029 45.716 67.4869 45.26C67.6789 44.804 67.9509 44.456 68.3029 44.216C68.6549 43.976 69.0789 43.856 69.5749 43.856C70.0389 43.856 70.4469 43.952 70.7989 44.144C71.1509 44.328 71.4229 44.624 71.6149 45.032C71.8149 45.44 71.9109 45.976 71.9029 46.64V46.928H70.9429ZM77.1063 50L77.0583 49.016V46.832C77.0583 46.36 77.0063 45.972 76.9023 45.668C76.7983 45.356 76.6343 45.12 76.4103 44.96C76.1863 44.8 75.8943 44.72 75.5343 44.72C75.2063 44.72 74.9223 44.788 74.6823 44.924C74.4503 45.052 74.2583 45.26 74.1063 45.548L73.2423 45.212C73.3943 44.932 73.5783 44.692 73.7943 44.492C74.0103 44.284 74.2623 44.128 74.5503 44.024C74.8383 43.912 75.1663 43.856 75.5343 43.856C76.0943 43.856 76.5543 43.968 76.9143 44.192C77.2823 44.408 77.5583 44.732 77.7423 45.164C77.9263 45.588 78.0143 46.116 78.0063 46.748L77.9943 50H77.1063ZM75.3063 50.144C74.6023 50.144 74.0503 49.984 73.6503 49.664C73.2583 49.336 73.0623 48.884 73.0623 48.308C73.0623 47.7 73.2623 47.236 73.6623 46.916C74.0703 46.588 74.6383 46.424 75.3663 46.424H77.0823V47.228H75.5823C75.0223 47.228 74.6223 47.32 74.3823 47.504C74.1503 47.688 74.0343 47.952 74.0343 48.296C74.0343 48.608 74.1503 48.856 74.3823 49.04C74.6143 49.216 74.9383 49.304 75.3543 49.304C75.6983 49.304 75.9983 49.232 76.2543 49.088C76.5103 48.936 76.7063 48.724 76.8423 48.452C76.9863 48.172 77.0583 47.844 77.0583 47.468H77.4663C77.4663 48.284 77.2823 48.936 76.9143 49.424C76.5463 49.904 76.0103 50.144 75.3063 50.144ZM81.7835 50.144C81.1995 50.144 80.7475 49.992 80.4275 49.688C80.1075 49.384 79.9475 48.956 79.9475 48.404V42.128H80.9075V48.308C80.9075 48.612 80.9875 48.848 81.1475 49.016C81.3155 49.176 81.5475 49.256 81.8435 49.256C81.9395 49.256 82.0315 49.244 82.1195 49.22C82.2155 49.188 82.3395 49.116 82.4915 49.004L82.8635 49.784C82.6555 49.92 82.4675 50.012 82.2995 50.06C82.1315 50.116 81.9595 50.144 81.7835 50.144ZM78.9035 44.852V44H82.7075V44.852H78.9035ZM92.4755 50L94.5035 44H95.4755L93.4355 50H92.4755ZM88.3955 50L90.4235 44H91.3235L89.3195 50H88.3955ZM88.3475 50L86.3075 44H87.2795L89.2835 50H88.3475ZM92.4755 50L90.4715 44H91.3835L93.3875 50H92.4755ZM98.949 50.144C98.365 50.144 97.845 50.012 97.389 49.748C96.941 49.476 96.589 49.104 96.333 48.632C96.077 48.16 95.949 47.616 95.949 47C95.949 46.384 96.073 45.84 96.321 45.368C96.577 44.896 96.929 44.528 97.377 44.264C97.833 43.992 98.349 43.856 98.925 43.856C99.517 43.856 100.037 43.992 100.485 44.264C100.941 44.528 101.293 44.896 101.541 45.368C101.797 45.84 101.925 46.384 101.925 47C101.925 47.616 101.797 48.16 101.541 48.632C101.293 49.104 100.945 49.476 100.497 49.748C100.049 50.012 99.533 50.144 98.949 50.144ZM98.949 49.256C99.349 49.256 99.697 49.16 99.993 48.968C100.289 48.776 100.521 48.512 100.689 48.176C100.865 47.84 100.953 47.448 100.953 47C100.953 46.552 100.865 46.16 100.689 45.824C100.521 45.488 100.285 45.224 99.981 45.032C99.677 44.84 99.325 44.744 98.925 44.744C98.533 44.744 98.185 44.84 97.881 45.032C97.585 45.224 97.349 45.488 97.173 45.824C97.005 46.16 96.921 46.552 96.921 47C96.921 47.44 97.005 47.832 97.173 48.176C97.349 48.512 97.589 48.776 97.893 48.968C98.205 49.16 98.557 49.256 98.949 49.256ZM107.374 50L107.314 48.896V44H108.274V50H107.374ZM103.102 47.072V44H104.062V47.072H103.102ZM104.062 47.072C104.062 47.664 104.13 48.116 104.266 48.428C104.402 48.74 104.59 48.956 104.83 49.076C105.078 49.188 105.354 49.244 105.658 49.244C106.178 49.244 106.582 49.056 106.87 48.68C107.166 48.304 107.314 47.78 107.314 47.108H107.782C107.782 47.74 107.69 48.284 107.506 48.74C107.322 49.196 107.054 49.544 106.702 49.784C106.358 50.024 105.934 50.144 105.43 50.144C104.966 50.144 104.558 50.052 104.206 49.868C103.854 49.676 103.582 49.376 103.39 48.968C103.198 48.552 103.102 48.016 103.102 47.36V47.072H104.062ZM109.949 50V41.6H110.909V50H109.949ZM117.026 50L116.978 48.884V41.6H117.938V50H117.026ZM114.95 50.144C114.414 50.144 113.942 50.012 113.534 49.748C113.126 49.484 112.806 49.116 112.574 48.644C112.35 48.164 112.238 47.616 112.238 47C112.238 46.376 112.35 45.828 112.574 45.356C112.806 44.884 113.126 44.516 113.534 44.252C113.942 43.988 114.414 43.856 114.95 43.856C115.454 43.856 115.894 43.988 116.27 44.252C116.654 44.516 116.95 44.884 117.158 45.356C117.366 45.828 117.47 46.376 117.47 47C117.47 47.616 117.366 48.164 117.158 48.644C116.95 49.116 116.654 49.484 116.27 49.748C115.894 50.012 115.454 50.144 114.95 50.144ZM115.166 49.268C115.518 49.268 115.83 49.172 116.102 48.98C116.374 48.788 116.586 48.52 116.738 48.176C116.898 47.832 116.978 47.44 116.978 47C116.978 46.56 116.898 46.168 116.738 45.824C116.586 45.48 116.374 45.212 116.102 45.02C115.83 44.828 115.514 44.732 115.154 44.732C114.778 44.732 114.442 44.828 114.146 45.02C113.858 45.212 113.63 45.48 113.462 45.824C113.294 46.168 113.21 46.56 113.21 47C113.21 47.44 113.294 47.832 113.462 48.176C113.63 48.52 113.862 48.788 114.158 48.98C114.454 49.172 114.79 49.268 115.166 49.268ZM123.122 52.544C122.97 52.544 122.794 52.512 122.594 52.448C122.394 52.392 122.182 52.316 121.958 52.22L122.318 51.416C122.502 51.496 122.662 51.556 122.798 51.596C122.942 51.636 123.054 51.656 123.134 51.656C123.35 51.656 123.526 51.596 123.662 51.476C123.806 51.364 123.926 51.2 124.022 50.984L124.706 49.352L126.926 44H127.958L125.078 50.84C124.926 51.192 124.766 51.496 124.598 51.752C124.438 52.008 124.242 52.204 124.01 52.34C123.778 52.476 123.482 52.544 123.122 52.544ZM124.442 50L121.85 44H122.87L125.102 49.34L125.39 50H124.442ZM131.41 50.144C130.826 50.144 130.306 50.012 129.85 49.748C129.402 49.476 129.05 49.104 128.794 48.632C128.538 48.16 128.41 47.616 128.41 47C128.41 46.384 128.534 45.84 128.782 45.368C129.038 44.896 129.39 44.528 129.838 44.264C130.294 43.992 130.81 43.856 131.386 43.856C131.978 43.856 132.498 43.992 132.946 44.264C133.402 44.528 133.754 44.896 134.002 45.368C134.258 45.84 134.386 46.384 134.386 47C134.386 47.616 134.258 48.16 134.002 48.632C133.754 49.104 133.406 49.476 132.958 49.748C132.51 50.012 131.994 50.144 131.41 50.144ZM131.41 49.256C131.81 49.256 132.158 49.16 132.454 48.968C132.75 48.776 132.982 48.512 133.15 48.176C133.326 47.84 133.414 47.448 133.414 47C133.414 46.552 133.326 46.16 133.15 45.824C132.982 45.488 132.746 45.224 132.442 45.032C132.138 44.84 131.786 44.744 131.386 44.744C130.994 44.744 130.646 44.84 130.342 45.032C130.046 45.224 129.81 45.488 129.634 45.824C129.466 46.16 129.382 46.552 129.382 47C129.382 47.44 129.466 47.832 129.634 48.176C129.81 48.512 130.05 48.776 130.354 48.968C130.666 49.16 131.018 49.256 131.41 49.256ZM139.835 50L139.775 48.896V44H140.735V50H139.835ZM135.563 47.072V44H136.523V47.072H135.563ZM136.523 47.072C136.523 47.664 136.591 48.116 136.727 48.428C136.863 48.74 137.051 48.956 137.291 49.076C137.539 49.188 137.815 49.244 138.119 49.244C138.639 49.244 139.043 49.056 139.331 48.68C139.627 48.304 139.775 47.78 139.775 47.108H140.243C140.243 47.74 140.151 48.284 139.967 48.74C139.783 49.196 139.515 49.544 139.163 49.784C138.819 50.024 138.395 50.144 137.891 50.144C137.427 50.144 137.019 50.052 136.667 49.868C136.315 49.676 136.043 49.376 135.851 48.968C135.659 48.552 135.563 48.016 135.563 47.36V47.072H136.523ZM145.375 50V41.6H146.335V50H145.375ZM148.072 50V44H149.032V50H148.072ZM148.564 42.608C148.404 42.608 148.264 42.548 148.144 42.428C148.024 42.308 147.964 42.168 147.964 42.008C147.964 41.84 148.024 41.7 148.144 41.588C148.264 41.468 148.404 41.408 148.564 41.408C148.732 41.408 148.872 41.468 148.984 41.588C149.104 41.7 149.164 41.84 149.164 42.008C149.164 42.168 149.104 42.308 148.984 42.428C148.872 42.548 148.732 42.608 148.564 42.608ZM151.737 48.068L151.125 47.408L154.317 44H155.529L151.737 48.068ZM150.801 50V41.6H151.761V50H150.801ZM154.581 50L152.301 46.556L152.925 45.884L155.769 50H154.581ZM159.124 50.144C158.54 50.144 158.024 50.012 157.576 49.748C157.128 49.476 156.776 49.104 156.52 48.632C156.272 48.16 156.148 47.616 156.148 47C156.148 46.384 156.272 45.84 156.52 45.368C156.776 44.896 157.124 44.528 157.564 44.264C158.012 43.992 158.524 43.856 159.1 43.856C159.66 43.856 160.144 43.996 160.552 44.276C160.96 44.548 161.276 44.932 161.5 45.428C161.724 45.924 161.836 46.508 161.836 47.18H156.88L157.12 46.976C157.12 47.456 157.204 47.868 157.372 48.212C157.548 48.556 157.792 48.82 158.104 49.004C158.416 49.18 158.772 49.268 159.172 49.268C159.596 49.268 159.952 49.168 160.24 48.968C160.536 48.768 160.764 48.504 160.924 48.176L161.752 48.596C161.6 48.908 161.396 49.18 161.14 49.412C160.892 49.644 160.596 49.824 160.252 49.952C159.916 50.08 159.54 50.144 159.124 50.144ZM157.18 46.568L156.928 46.376H161.068L160.816 46.58C160.816 46.196 160.74 45.864 160.588 45.584C160.436 45.304 160.232 45.088 159.976 44.936C159.72 44.784 159.424 44.708 159.088 44.708C158.76 44.708 158.448 44.784 158.152 44.936C157.864 45.088 157.628 45.304 157.444 45.584C157.268 45.856 157.18 46.184 157.18 46.568ZM168.268 50.144C167.684 50.144 167.232 49.992 166.912 49.688C166.592 49.384 166.432 48.956 166.432 48.404V42.128H167.392V48.308C167.392 48.612 167.472 48.848 167.632 49.016C167.8 49.176 168.032 49.256 168.328 49.256C168.424 49.256 168.516 49.244 168.604 49.22C168.7 49.188 168.824 49.116 168.976 49.004L169.348 49.784C169.14 49.92 168.952 50.012 168.784 50.06C168.616 50.116 168.444 50.144 168.268 50.144ZM165.388 44.852V44H169.192V44.852H165.388ZM173.164 50.144C172.58 50.144 172.06 50.012 171.604 49.748C171.156 49.476 170.804 49.104 170.548 48.632C170.292 48.16 170.164 47.616 170.164 47C170.164 46.384 170.288 45.84 170.536 45.368C170.792 44.896 171.144 44.528 171.592 44.264C172.048 43.992 172.564 43.856 173.14 43.856C173.732 43.856 174.252 43.992 174.7 44.264C175.156 44.528 175.508 44.896 175.756 45.368C176.012 45.84 176.14 46.384 176.14 47C176.14 47.616 176.012 48.16 175.756 48.632C175.508 49.104 175.16 49.476 174.712 49.748C174.264 50.012 173.748 50.144 173.164 50.144ZM173.164 49.256C173.564 49.256 173.912 49.16 174.208 48.968C174.504 48.776 174.736 48.512 174.904 48.176C175.08 47.84 175.168 47.448 175.168 47C175.168 46.552 175.08 46.16 174.904 45.824C174.736 45.488 174.5 45.224 174.196 45.032C173.892 44.84 173.54 44.744 173.14 44.744C172.748 44.744 172.4 44.84 172.096 45.032C171.8 45.224 171.564 45.488 171.388 45.824C171.22 46.16 171.136 46.552 171.136 47C171.136 47.44 171.22 47.832 171.388 48.176C171.564 48.512 171.804 48.776 172.108 48.968C172.42 49.16 172.772 49.256 173.164 49.256ZM184.878 50L184.83 48.884V41.6H185.79V50H184.878ZM182.802 50.144C182.266 50.144 181.794 50.012 181.386 49.748C180.978 49.484 180.658 49.116 180.426 48.644C180.202 48.164 180.09 47.616 180.09 47C180.09 46.376 180.202 45.828 180.426 45.356C180.658 44.884 180.978 44.516 181.386 44.252C181.794 43.988 182.266 43.856 182.802 43.856C183.306 43.856 183.746 43.988 184.122 44.252C184.506 44.516 184.802 44.884 185.01 45.356C185.218 45.828 185.322 46.376 185.322 47C185.322 47.616 185.218 48.164 185.01 48.644C184.802 49.116 184.506 49.484 184.122 49.748C183.746 50.012 183.306 50.144 182.802 50.144ZM183.018 49.268C183.37 49.268 183.682 49.172 183.954 48.98C184.226 48.788 184.438 48.52 184.59 48.176C184.75 47.832 184.83 47.44 184.83 47C184.83 46.56 184.75 46.168 184.59 45.824C184.438 45.48 184.226 45.212 183.954 45.02C183.682 44.828 183.366 44.732 183.006 44.732C182.63 44.732 182.294 44.828 181.998 45.02C181.71 45.212 181.482 45.48 181.314 45.824C181.146 46.168 181.062 46.56 181.062 47C181.062 47.44 181.146 47.832 181.314 48.176C181.482 48.52 181.714 48.788 182.01 48.98C182.306 49.172 182.642 49.268 183.018 49.268ZM190.121 50.144C189.537 50.144 189.017 50.012 188.561 49.748C188.113 49.476 187.761 49.104 187.505 48.632C187.249 48.16 187.121 47.616 187.121 47C187.121 46.384 187.245 45.84 187.493 45.368C187.749 44.896 188.101 44.528 188.549 44.264C189.005 43.992 189.521 43.856 190.097 43.856C190.689 43.856 191.209 43.992 191.657 44.264C192.113 44.528 192.465 44.896 192.713 45.368C192.969 45.84 193.097 46.384 193.097 47C193.097 47.616 192.969 48.16 192.713 48.632C192.465 49.104 192.117 49.476 191.669 49.748C191.221 50.012 190.705 50.144 190.121 50.144ZM190.121 49.256C190.521 49.256 190.869 49.16 191.165 48.968C191.461 48.776 191.693 48.512 191.861 48.176C192.037 47.84 192.125 47.448 192.125 47C192.125 46.552 192.037 46.16 191.861 45.824C191.693 45.488 191.457 45.224 191.153 45.032C190.849 44.84 190.497 44.744 190.097 44.744C189.705 44.744 189.357 44.84 189.053 45.032C188.757 45.224 188.521 45.488 188.345 45.824C188.177 46.16 188.093 46.552 188.093 47C188.093 47.44 188.177 47.832 188.345 48.176C188.521 48.512 188.761 48.776 189.065 48.968C189.377 49.16 189.729 49.256 190.121 49.256ZM199.651 50.144C199.067 50.144 198.615 49.992 198.295 49.688C197.975 49.384 197.815 48.956 197.815 48.404V42.128H198.775V48.308C198.775 48.612 198.855 48.848 199.015 49.016C199.183 49.176 199.415 49.256 199.711 49.256C199.807 49.256 199.899 49.244 199.987 49.22C200.083 49.188 200.207 49.116 200.359 49.004L200.731 49.784C200.523 49.92 200.335 50.012 200.167 50.06C199.999 50.116 199.827 50.144 199.651 50.144ZM196.771 44.852V44H200.575V44.852H196.771ZM204.547 50.144C203.963 50.144 203.443 50.012 202.987 49.748C202.539 49.476 202.187 49.104 201.931 48.632C201.675 48.16 201.547 47.616 201.547 47C201.547 46.384 201.671 45.84 201.919 45.368C202.175 44.896 202.527 44.528 202.975 44.264C203.431 43.992 203.947 43.856 204.523 43.856C205.115 43.856 205.635 43.992 206.083 44.264C206.539 44.528 206.891 44.896 207.139 45.368C207.395 45.84 207.523 46.384 207.523 47C207.523 47.616 207.395 48.16 207.139 48.632C206.891 49.104 206.543 49.476 206.095 49.748C205.647 50.012 205.131 50.144 204.547 50.144ZM204.547 49.256C204.947 49.256 205.295 49.16 205.591 48.968C205.887 48.776 206.119 48.512 206.287 48.176C206.463 47.84 206.551 47.448 206.551 47C206.551 46.552 206.463 46.16 206.287 45.824C206.119 45.488 205.883 45.224 205.579 45.032C205.275 44.84 204.923 44.744 204.523 44.744C204.131 44.744 203.783 44.84 203.479 45.032C203.183 45.224 202.947 45.488 202.771 45.824C202.603 46.16 202.519 46.552 202.519 47C202.519 47.44 202.603 47.832 202.771 48.176C202.947 48.512 203.187 48.776 203.491 48.968C203.803 49.16 204.155 49.256 204.547 49.256ZM213.296 50L213.248 48.884V41.6H214.208V50H213.296ZM211.22 50.144C210.684 50.144 210.212 50.012 209.804 49.748C209.396 49.484 209.076 49.116 208.844 48.644C208.62 48.164 208.508 47.616 208.508 47C208.508 46.376 208.62 45.828 208.844 45.356C209.076 44.884 209.396 44.516 209.804 44.252C210.212 43.988 210.684 43.856 211.22 43.856C211.724 43.856 212.164 43.988 212.54 44.252C212.924 44.516 213.22 44.884 213.428 45.356C213.636 45.828 213.74 46.376 213.74 47C213.74 47.616 213.636 48.164 213.428 48.644C213.22 49.116 212.924 49.484 212.54 49.748C212.164 50.012 211.724 50.144 211.22 50.144ZM211.436 49.268C211.788 49.268 212.1 49.172 212.372 48.98C212.644 48.788 212.856 48.52 213.008 48.176C213.168 47.832 213.248 47.44 213.248 47C213.248 46.56 213.168 46.168 213.008 45.824C212.856 45.48 212.644 45.212 212.372 45.02C212.1 44.828 211.784 44.732 211.424 44.732C211.048 44.732 210.712 44.828 210.416 45.02C210.128 45.212 209.9 45.48 209.732 45.824C209.564 46.168 209.48 46.56 209.48 47C209.48 47.44 209.564 47.832 209.732 48.176C209.9 48.52 210.132 48.788 210.428 48.98C210.724 49.172 211.06 49.268 211.436 49.268ZM219.583 50L219.535 49.016V46.832C219.535 46.36 219.483 45.972 219.379 45.668C219.275 45.356 219.111 45.12 218.887 44.96C218.663 44.8 218.371 44.72 218.011 44.72C217.683 44.72 217.399 44.788 217.159 44.924C216.927 45.052 216.735 45.26 216.583 45.548L215.719 45.212C215.871 44.932 216.055 44.692 216.271 44.492C216.487 44.284 216.739 44.128 217.027 44.024C217.315 43.912 217.643 43.856 218.011 43.856C218.571 43.856 219.031 43.968 219.391 44.192C219.759 44.408 220.035 44.732 220.219 45.164C220.403 45.588 220.491 46.116 220.483 46.748L220.471 50H219.583ZM217.783 50.144C217.079 50.144 216.527 49.984 216.127 49.664C215.735 49.336 215.539 48.884 215.539 48.308C215.539 47.7 215.739 47.236 216.139 46.916C216.547 46.588 217.115 46.424 217.843 46.424H219.559V47.228H218.059C217.499 47.228 217.099 47.32 216.859 47.504C216.627 47.688 216.511 47.952 216.511 48.296C216.511 48.608 216.627 48.856 216.859 49.04C217.091 49.216 217.415 49.304 217.831 49.304C218.175 49.304 218.475 49.232 218.731 49.088C218.987 48.936 219.183 48.724 219.319 48.452C219.463 48.172 219.535 47.844 219.535 47.468H219.943C219.943 48.284 219.759 48.936 219.391 49.424C219.023 49.904 218.487 50.144 217.783 50.144ZM222.45 52.544C222.298 52.544 222.122 52.512 221.922 52.448C221.722 52.392 221.51 52.316 221.286 52.22L221.646 51.416C221.83 51.496 221.99 51.556 222.126 51.596C222.27 51.636 222.382 51.656 222.462 51.656C222.678 51.656 222.854 51.596 222.99 51.476C223.134 51.364 223.254 51.2 223.35 50.984L224.034 49.352L226.254 44H227.286L224.406 50.84C224.254 51.192 224.094 51.496 223.926 51.752C223.766 52.008 223.57 52.204 223.338 52.34C223.106 52.476 222.81 52.544 222.45 52.544ZM223.77 50L221.178 44H222.198L224.43 49.34L224.718 50H223.77ZM229.487 47.744L229.475 45.608L230.099 45.584C230.627 45.576 231.059 45.428 231.395 45.14C231.731 44.844 231.899 44.444 231.899 43.94C231.899 43.484 231.739 43.108 231.419 42.812C231.107 42.508 230.699 42.356 230.195 42.356C229.827 42.356 229.503 42.444 229.223 42.62C228.951 42.788 228.767 43 228.671 43.256L227.771 42.98C227.931 42.532 228.219 42.168 228.635 41.888C229.059 41.6 229.579 41.456 230.195 41.456C230.723 41.456 231.187 41.564 231.587 41.78C231.987 41.988 232.303 42.28 232.535 42.656C232.767 43.032 232.883 43.46 232.883 43.94C232.883 44.396 232.779 44.8 232.571 45.152C232.371 45.504 232.091 45.788 231.731 46.004C231.371 46.212 230.951 46.336 230.471 46.376V47.744H229.487ZM229.979 50.168C229.787 50.168 229.627 50.104 229.499 49.976C229.371 49.848 229.307 49.692 229.307 49.508C229.307 49.316 229.371 49.156 229.499 49.028C229.627 48.9 229.787 48.836 229.979 48.836C230.171 48.836 230.327 48.9 230.447 49.028C230.575 49.156 230.639 49.316 230.639 49.508C230.639 49.692 230.575 49.848 230.447 49.976C230.327 50.104 230.171 50.168 229.979 50.168Z" fill="#171A16"/>
<rect x="192" y="75" width="84" height="34" rx="8" fill="#D7FAD1"/>
<path d="M203.804 96.144C203.34 96.144 202.928 96.096 202.568 96C202.208 95.896 201.896 95.756 201.632 95.58C201.368 95.396 201.152 95.196 200.984 94.98C200.816 94.756 200.692 94.52 200.612 94.272L201.584 93.936C201.704 94.288 201.944 94.596 202.304 94.86C202.672 95.116 203.12 95.244 203.648 95.244C204.296 95.244 204.804 95.116 205.172 94.86C205.54 94.604 205.724 94.264 205.724 93.84C205.724 93.448 205.56 93.132 205.232 92.892C204.904 92.644 204.472 92.452 203.936 92.316L203.012 92.076C202.636 91.98 202.288 91.84 201.968 91.656C201.656 91.464 201.404 91.224 201.212 90.936C201.028 90.64 200.936 90.288 200.936 89.88C200.936 89.12 201.18 88.528 201.668 88.104C202.164 87.672 202.876 87.456 203.804 87.456C204.356 87.456 204.832 87.548 205.232 87.732C205.632 87.908 205.956 88.136 206.204 88.416C206.46 88.688 206.64 88.984 206.744 89.304L205.784 89.64C205.632 89.24 205.376 88.928 205.016 88.704C204.656 88.472 204.22 88.356 203.708 88.356C203.172 88.356 202.744 88.488 202.424 88.752C202.112 89.008 201.956 89.36 201.956 89.808C201.956 90.192 202.08 90.488 202.328 90.696C202.576 90.896 202.9 91.044 203.3 91.14L204.224 91.368C205.04 91.56 205.664 91.88 206.096 92.328C206.536 92.768 206.756 93.244 206.756 93.756C206.756 94.196 206.644 94.6 206.42 94.968C206.196 95.328 205.864 95.616 205.424 95.832C204.992 96.04 204.452 96.144 203.804 96.144ZM210.839 96.144C210.255 96.144 209.739 96.012 209.291 95.748C208.843 95.476 208.491 95.104 208.235 94.632C207.987 94.16 207.863 93.616 207.863 93C207.863 92.384 207.987 91.84 208.235 91.368C208.491 90.896 208.839 90.528 209.279 90.264C209.727 89.992 210.239 89.856 210.815 89.856C211.375 89.856 211.859 89.996 212.267 90.276C212.675 90.548 212.991 90.932 213.215 91.428C213.439 91.924 213.551 92.508 213.551 93.18H208.595L208.835 92.976C208.835 93.456 208.919 93.868 209.087 94.212C209.263 94.556 209.507 94.82 209.819 95.004C210.131 95.18 210.487 95.268 210.887 95.268C211.311 95.268 211.667 95.168 211.955 94.968C212.251 94.768 212.479 94.504 212.639 94.176L213.467 94.596C213.315 94.908 213.111 95.18 212.855 95.412C212.607 95.644 212.311 95.824 211.967 95.952C211.631 96.08 211.255 96.144 210.839 96.144ZM208.895 92.568L208.643 92.376H212.783L212.531 92.58C212.531 92.196 212.455 91.864 212.303 91.584C212.151 91.304 211.947 91.088 211.691 90.936C211.435 90.784 211.139 90.708 210.803 90.708C210.475 90.708 210.163 90.784 209.867 90.936C209.579 91.088 209.343 91.304 209.159 91.584C208.983 91.856 208.895 92.184 208.895 92.568ZM214.762 96V90H215.662L215.722 91.104V96H214.762ZM218.974 96V92.928H219.934V96H218.974ZM218.974 92.928C218.974 92.336 218.906 91.884 218.77 91.572C218.634 91.26 218.446 91.048 218.206 90.936C217.966 90.816 217.694 90.756 217.39 90.756C216.862 90.756 216.45 90.944 216.154 91.32C215.866 91.688 215.722 92.212 215.722 92.892H215.254C215.254 92.26 215.346 91.716 215.53 91.26C215.714 90.804 215.982 90.456 216.334 90.216C216.686 89.976 217.11 89.856 217.606 89.856C218.078 89.856 218.486 89.952 218.83 90.144C219.182 90.328 219.454 90.624 219.646 91.032C219.846 91.44 219.942 91.976 219.934 92.64V92.928H218.974ZM225.893 96L225.845 94.884V87.6H226.805V96H225.893ZM223.817 96.144C223.281 96.144 222.809 96.012 222.401 95.748C221.993 95.484 221.673 95.116 221.441 94.644C221.217 94.164 221.105 93.616 221.105 93C221.105 92.376 221.217 91.828 221.441 91.356C221.673 90.884 221.993 90.516 222.401 90.252C222.809 89.988 223.281 89.856 223.817 89.856C224.321 89.856 224.761 89.988 225.137 90.252C225.521 90.516 225.817 90.884 226.025 91.356C226.233 91.828 226.337 92.376 226.337 93C226.337 93.616 226.233 94.164 226.025 94.644C225.817 95.116 225.521 95.484 225.137 95.748C224.761 96.012 224.321 96.144 223.817 96.144ZM224.033 95.268C224.385 95.268 224.697 95.172 224.969 94.98C225.241 94.788 225.453 94.52 225.605 94.176C225.765 93.832 225.845 93.44 225.845 93C225.845 92.56 225.765 92.168 225.605 91.824C225.453 91.48 225.241 91.212 224.969 91.02C224.697 90.828 224.381 90.732 224.021 90.732C223.645 90.732 223.309 90.828 223.013 91.02C222.725 91.212 222.497 91.48 222.329 91.824C222.161 92.168 222.077 92.56 222.077 93C222.077 93.44 222.161 93.832 222.329 94.176C222.497 94.52 222.729 94.788 223.025 94.98C223.321 95.172 223.657 95.268 224.033 95.268ZM231.449 96V90H232.349L232.397 90.84C232.581 90.52 232.817 90.276 233.105 90.108C233.393 89.94 233.729 89.856 234.113 89.856C234.593 89.856 235.001 89.968 235.337 90.192C235.681 90.416 235.929 90.756 236.081 91.212C236.249 90.772 236.493 90.436 236.813 90.204C237.141 89.972 237.529 89.856 237.977 89.856C238.649 89.856 239.177 90.08 239.561 90.528C239.953 90.976 240.145 91.656 240.137 92.568V96H239.177V92.928C239.177 92.336 239.113 91.884 238.985 91.572C238.865 91.26 238.701 91.048 238.493 90.936C238.285 90.816 238.045 90.756 237.773 90.756C237.301 90.756 236.933 90.944 236.669 91.32C236.405 91.688 236.273 92.212 236.273 92.892V96H235.313V92.928C235.313 92.336 235.249 91.884 235.121 91.572C235.001 91.26 234.833 91.048 234.617 90.936C234.409 90.816 234.169 90.756 233.897 90.756C233.433 90.756 233.069 90.944 232.805 91.32C232.541 91.688 232.409 92.212 232.409 92.892V96H231.449ZM244.308 96.144C243.724 96.144 243.204 96.012 242.748 95.748C242.3 95.476 241.948 95.104 241.692 94.632C241.436 94.16 241.308 93.616 241.308 93C241.308 92.384 241.432 91.84 241.68 91.368C241.936 90.896 242.288 90.528 242.736 90.264C243.192 89.992 243.708 89.856 244.284 89.856C244.876 89.856 245.396 89.992 245.844 90.264C246.3 90.528 246.652 90.896 246.9 91.368C247.156 91.84 247.284 92.384 247.284 93C247.284 93.616 247.156 94.16 246.9 94.632C246.652 95.104 246.304 95.476 245.856 95.748C245.408 96.012 244.892 96.144 244.308 96.144ZM244.308 95.256C244.708 95.256 245.056 95.16 245.352 94.968C245.648 94.776 245.88 94.512 246.048 94.176C246.224 93.84 246.312 93.448 246.312 93C246.312 92.552 246.224 92.16 246.048 91.824C245.88 91.488 245.644 91.224 245.34 91.032C245.036 90.84 244.684 90.744 244.284 90.744C243.892 90.744 243.544 90.84 243.24 91.032C242.944 91.224 242.708 91.488 242.532 91.824C242.364 92.16 242.28 92.552 242.28 93C242.28 93.44 242.364 93.832 242.532 94.176C242.708 94.512 242.948 94.776 243.252 94.968C243.564 95.16 243.916 95.256 244.308 95.256ZM248.617 96V90H249.517L249.577 91.104V96H248.617ZM252.829 96V92.928H253.789V96H252.829ZM252.829 92.928C252.829 92.336 252.761 91.884 252.625 91.572C252.489 91.26 252.301 91.048 252.061 90.936C251.821 90.816 251.549 90.756 251.245 90.756C250.717 90.756 250.305 90.944 250.009 91.32C249.721 91.688 249.577 92.212 249.577 92.892H249.109C249.109 92.26 249.201 91.716 249.385 91.26C249.569 90.804 249.837 90.456 250.189 90.216C250.541 89.976 250.965 89.856 251.461 89.856C251.933 89.856 252.341 89.952 252.685 90.144C253.037 90.328 253.309 90.624 253.501 91.032C253.701 91.44 253.797 91.976 253.789 92.64V92.928H252.829ZM257.937 96.144C257.353 96.144 256.837 96.012 256.389 95.748C255.941 95.476 255.589 95.104 255.333 94.632C255.085 94.16 254.961 93.616 254.961 93C254.961 92.384 255.085 91.84 255.333 91.368C255.589 90.896 255.937 90.528 256.377 90.264C256.825 89.992 257.337 89.856 257.913 89.856C258.473 89.856 258.957 89.996 259.365 90.276C259.773 90.548 260.089 90.932 260.313 91.428C260.537 91.924 260.649 92.508 260.649 93.18H255.693L255.933 92.976C255.933 93.456 256.017 93.868 256.185 94.212C256.361 94.556 256.605 94.82 256.917 95.004C257.229 95.18 257.585 95.268 257.985 95.268C258.409 95.268 258.765 95.168 259.053 94.968C259.349 94.768 259.577 94.504 259.737 94.176L260.565 94.596C260.413 94.908 260.209 95.18 259.953 95.412C259.705 95.644 259.409 95.824 259.065 95.952C258.729 96.08 258.353 96.144 257.937 96.144ZM255.993 92.568L255.741 92.376H259.881L259.629 92.58C259.629 92.196 259.553 91.864 259.401 91.584C259.249 91.304 259.045 91.088 258.789 90.936C258.533 90.784 258.237 90.708 257.901 90.708C257.573 90.708 257.261 90.784 256.965 90.936C256.677 91.088 256.441 91.304 256.257 91.584C256.081 91.856 255.993 92.184 255.993 92.568ZM262.247 98.544C262.095 98.544 261.919 98.512 261.719 98.448C261.519 98.392 261.307 98.316 261.083 98.22L261.443 97.416C261.627 97.496 261.787 97.556 261.923 97.596C262.067 97.636 262.179 97.656 262.259 97.656C262.475 97.656 262.651 97.596 262.787 97.476C262.931 97.364 263.051 97.2 263.147 96.984L263.831 95.352L266.051 90H267.083L264.203 96.84C264.051 97.192 263.891 97.496 263.723 97.752C263.563 98.008 263.367 98.204 263.135 98.34C262.903 98.476 262.607 98.544 262.247 98.544ZM263.567 96L260.975 90H261.995L264.227 95.34L264.515 96H263.567Z" fill="#171A16"/>
</svg>
