<svg width="32" height="32" viewBox="0 0 32 32" fill="none" xmlns="http://www.w3.org/2000/svg">
<rect width="32" height="32" rx="7.56445" fill="#FF7DA5"/>
<g clipPath="url(#clip0_4991_56522)">
<path d="M16 6.3125C10.4758 6.3125 6 10.6484 6 16C6 21.3516 10.4758 25.6875 16 25.6875C21.5242 25.6875 26 21.3516 26 16C26 10.6484 21.5242 6.3125 16 6.3125ZM19.2258 12.875C19.9395 12.875 20.5161 13.4336 20.5161 14.125C20.5161 14.8164 19.9395 15.375 19.2258 15.375C18.5121 15.375 17.9355 14.8164 17.9355 14.125C17.9355 13.4336 18.5121 12.875 19.2258 12.875ZM12.7742 12.875C13.4879 12.875 14.0645 13.4336 14.0645 14.125C14.0645 14.8164 13.4879 15.375 12.7742 15.375C12.0605 15.375 11.4839 14.8164 11.4839 14.125C11.4839 13.4336 12.0605 12.875 12.7742 12.875ZM19.6371 21.3984C18.7339 20.3516 17.4073 19.75 16 19.75C14.5927 19.75 13.2661 20.3516 12.3629 21.3984C11.8185 22.0352 10.8266 21.2344 11.371 20.5977C12.5202 19.2656 14.2097 18.5 16 18.5C17.7903 18.5 19.4798 19.2656 20.625 20.6016C21.1734 21.2344 20.1815 22.0352 19.6371 21.3984Z" fill="white"/>
</g>
<defs>
<clipPath id="clip0_4991_56522">
<rect width="20" height="20" fill="white" transform="translate(6 6)"/>
</clipPath>
</defs>
</svg>
