<svg width="19" height="14" viewBox="0 0 19 14" fill="none" xmlns="http://www.w3.org/2000/svg">
<path d="M1.81364 7.59431C1.70015 7.41461 1.64341 7.32476 1.61164 7.18618C1.58779 7.08208 1.58779 6.91791 1.61164 6.81382C1.64341 6.67523 1.70015 6.58538 1.81364 6.40568C2.75148 4.9207 5.54304 1.16666 9.79721 1.16666C14.0514 1.16666 16.8429 4.9207 17.7808 6.40568C17.8943 6.58538 17.951 6.67523 17.9828 6.81382C18.0066 6.91791 18.0066 7.08208 17.9828 7.18618C17.951 7.32476 17.8943 7.41461 17.7808 7.59431C16.8429 9.0793 14.0514 12.8333 9.79721 12.8333C5.54304 12.8333 2.75148 9.0793 1.81364 7.59431Z" stroke="#828282" strokeWidth="1.67" strokeLinecap="round" strokeLinejoin="round"/>
<path d="M9.79721 9.5C11.1779 9.5 12.2972 8.38071 12.2972 7C12.2972 5.61929 11.1779 4.5 9.79721 4.5C8.4165 4.5 7.29721 5.61929 7.29721 7C7.29721 8.38071 8.4165 9.5 9.79721 9.5Z" stroke="#828282" strokeWidth="1.67" strokeLinecap="round" strokeLinejoin="round"/>
</svg>
