<svg width="291" height="137" viewBox="0 0 291 137" fill="none" xmlns="http://www.w3.org/2000/svg">
<g clipPath="url(#clip0_1246_7859)">
<rect width="291" height="137" fill="#FAFAFA"/>
<rect x="15" y="-26" width="233" height="52" rx="8" fill="white"/>
<path d="M29.888 -5V-13.4H30.896V-5H29.888ZM24.116 -5V-13.4H25.136V-5H24.116ZM25.016 -8.864V-9.788H30.104V-8.864H25.016ZM35.4797 -4.856C34.8957 -4.856 34.3797 -4.988 33.9317 -5.252C33.4837 -5.524 33.1317 -5.896 32.8757 -6.368C32.6277 -6.84 32.5037 -7.384 32.5037 -8C32.5037 -8.616 32.6277 -9.16 32.8757 -9.632C33.1317 -10.104 33.4797 -10.472 33.9197 -10.736C34.3677 -11.008 34.8797 -11.144 35.4557 -11.144C36.0157 -11.144 36.4997 -11.004 36.9077 -10.724C37.3157 -10.452 37.6317 -10.068 37.8557 -9.572C38.0797 -9.076 38.1917 -8.492 38.1917 -7.82H33.2357L33.4757 -8.024C33.4757 -7.544 33.5597 -7.132 33.7277 -6.788C33.9037 -6.444 34.1477 -6.18 34.4597 -5.996C34.7717 -5.82 35.1277 -5.732 35.5277 -5.732C35.9517 -5.732 36.3077 -5.832 36.5957 -6.032C36.8917 -6.232 37.1197 -6.496 37.2797 -6.824L38.1077 -6.404C37.9557 -6.092 37.7517 -5.82 37.4957 -5.588C37.2477 -5.356 36.9517 -5.176 36.6077 -5.048C36.2717 -4.92 35.8957 -4.856 35.4797 -4.856ZM33.5357 -8.432L33.2837 -8.624H37.4237L37.1717 -8.42C37.1717 -8.804 37.0957 -9.136 36.9437 -9.416C36.7917 -9.696 36.5877 -9.912 36.3317 -10.064C36.0757 -10.216 35.7797 -10.292 35.4437 -10.292C35.1157 -10.292 34.8037 -10.216 34.5077 -10.064C34.2197 -9.912 33.9837 -9.696 33.7997 -9.416C33.6237 -9.144 33.5357 -8.816 33.5357 -8.432ZM39.7902 -2.456C39.6382 -2.456 39.4622 -2.488 39.2622 -2.552C39.0622 -2.608 38.8502 -2.684 38.6262 -2.78L38.9862 -3.584C39.1702 -3.504 39.3302 -3.444 39.4662 -3.404C39.6102 -3.364 39.7222 -3.344 39.8022 -3.344C40.0182 -3.344 40.1942 -3.404 40.3302 -3.524C40.4742 -3.636 40.5942 -3.8 40.6902 -4.016L41.3742 -5.648L43.5942 -11H44.6262L41.7462 -4.16C41.5942 -3.808 41.4342 -3.504 41.2662 -3.248C41.1062 -2.992 40.9102 -2.796 40.6782 -2.66C40.4462 -2.524 40.1502 -2.456 39.7902 -2.456ZM41.1102 -5L38.5182 -11H39.5382L41.7702 -5.66L42.0582 -5H41.1102ZM47.6914 -4.16H59.6914V-16.16H47.6914V-4.16ZM60.1714 -3.62L60.8554 -6.152H61.9354L60.9994 -3.62H60.1714ZM71.6513 -5L73.6793 -11H74.6513L72.6113 -5H71.6513ZM67.5713 -5L69.5993 -11H70.4993L68.4953 -5H67.5713ZM67.5233 -5L65.4833 -11H66.4553L68.4593 -5H67.5233ZM71.6513 -5L69.6473 -11H70.5593L72.5633 -5H71.6513ZM75.6134 -5V-13.4H76.5734V-5H75.6134ZM79.8374 -5V-8.072H80.7974V-5H79.8374ZM79.8374 -8.072C79.8374 -8.664 79.7654 -9.116 79.6214 -9.428C79.4854 -9.74 79.2974 -9.952 79.0574 -10.064C78.8174 -10.184 78.5454 -10.244 78.2414 -10.244C77.7134 -10.244 77.3014 -10.056 77.0054 -9.68C76.7174 -9.312 76.5734 -8.788 76.5734 -8.108H76.1054C76.1054 -8.74 76.1974 -9.284 76.3814 -9.74C76.5734 -10.196 76.8454 -10.544 77.1974 -10.784C77.5494 -11.024 77.9734 -11.144 78.4694 -11.144C78.9334 -11.144 79.3414 -11.048 79.6934 -10.856C80.0454 -10.672 80.3174 -10.376 80.5094 -9.968C80.7094 -9.56 80.8054 -9.024 80.7974 -8.36V-8.072H79.8374ZM86.0008 -5L85.9528 -5.984V-8.168C85.9528 -8.64 85.9008 -9.028 85.7968 -9.332C85.6928 -9.644 85.5288 -9.88 85.3048 -10.04C85.0808 -10.2 84.7888 -10.28 84.4288 -10.28C84.1008 -10.28 83.8168 -10.212 83.5768 -10.076C83.3448 -9.948 83.1528 -9.74 83.0008 -9.452L82.1368 -9.788C82.2888 -10.068 82.4728 -10.308 82.6888 -10.508C82.9048 -10.716 83.1568 -10.872 83.4448 -10.976C83.7328 -11.088 84.0608 -11.144 84.4288 -11.144C84.9888 -11.144 85.4488 -11.032 85.8088 -10.808C86.1768 -10.592 86.4528 -10.268 86.6368 -9.836C86.8208 -9.412 86.9088 -8.884 86.9008 -8.252L86.8888 -5H86.0008ZM84.2008 -4.856C83.4968 -4.856 82.9448 -5.016 82.5448 -5.336C82.1528 -5.664 81.9568 -6.116 81.9568 -6.692C81.9568 -7.3 82.1568 -7.764 82.5568 -8.084C82.9648 -8.412 83.5328 -8.576 84.2608 -8.576H85.9768V-7.772H84.4768C83.9168 -7.772 83.5168 -7.68 83.2768 -7.496C83.0448 -7.312 82.9288 -7.048 82.9288 -6.704C82.9288 -6.392 83.0448 -6.144 83.2768 -5.96C83.5088 -5.784 83.8328 -5.696 84.2488 -5.696C84.5928 -5.696 84.8928 -5.768 85.1488 -5.912C85.4048 -6.064 85.6008 -6.276 85.7368 -6.548C85.8808 -6.828 85.9528 -7.156 85.9528 -7.532H86.3608C86.3608 -6.716 86.1768 -6.064 85.8088 -5.576C85.4408 -5.096 84.9048 -4.856 84.2008 -4.856ZM90.678 -4.856C90.094 -4.856 89.642 -5.008 89.322 -5.312C89.002 -5.616 88.842 -6.044 88.842 -6.596V-12.872H89.802V-6.692C89.802 -6.388 89.882 -6.152 90.042 -5.984C90.21 -5.824 90.442 -5.744 90.738 -5.744C90.834 -5.744 90.926 -5.756 91.014 -5.78C91.11 -5.812 91.234 -5.884 91.386 -5.996L91.758 -5.216C91.55 -5.08 91.362 -4.988 91.194 -4.94C91.026 -4.884 90.854 -4.856 90.678 -4.856ZM87.798 -10.148V-11H91.602V-10.148H87.798ZM101.37 -5L103.398 -11H104.37L102.33 -5H101.37ZM97.29 -5L99.318 -11H100.218L98.214 -5H97.29ZM97.242 -5L95.202 -11H96.174L98.178 -5H97.242ZM101.37 -5L99.366 -11H100.278L102.282 -5H101.37ZM107.844 -4.856C107.26 -4.856 106.74 -4.988 106.284 -5.252C105.836 -5.524 105.484 -5.896 105.228 -6.368C104.972 -6.84 104.844 -7.384 104.844 -8C104.844 -8.616 104.968 -9.16 105.216 -9.632C105.472 -10.104 105.824 -10.472 106.272 -10.736C106.728 -11.008 107.244 -11.144 107.82 -11.144C108.412 -11.144 108.932 -11.008 109.38 -10.736C109.836 -10.472 110.188 -10.104 110.436 -9.632C110.692 -9.16 110.82 -8.616 110.82 -8C110.82 -7.384 110.692 -6.84 110.436 -6.368C110.188 -5.896 109.84 -5.524 109.392 -5.252C108.944 -4.988 108.428 -4.856 107.844 -4.856ZM107.844 -5.744C108.244 -5.744 108.592 -5.84 108.888 -6.032C109.184 -6.224 109.416 -6.488 109.584 -6.824C109.76 -7.16 109.848 -7.552 109.848 -8C109.848 -8.448 109.76 -8.84 109.584 -9.176C109.416 -9.512 109.18 -9.776 108.876 -9.968C108.572 -10.16 108.22 -10.256 107.82 -10.256C107.428 -10.256 107.08 -10.16 106.776 -9.968C106.48 -9.776 106.244 -9.512 106.068 -9.176C105.9 -8.84 105.816 -8.448 105.816 -8C105.816 -7.56 105.9 -7.168 106.068 -6.824C106.244 -6.488 106.484 -6.224 106.788 -6.032C107.1 -5.84 107.452 -5.744 107.844 -5.744ZM116.269 -5L116.209 -6.104V-11H117.169V-5H116.269ZM111.997 -7.928V-11H112.957V-7.928H111.997ZM112.957 -7.928C112.957 -7.336 113.025 -6.884 113.161 -6.572C113.297 -6.26 113.485 -6.044 113.725 -5.924C113.973 -5.812 114.249 -5.756 114.553 -5.756C115.073 -5.756 115.477 -5.944 115.765 -6.32C116.061 -6.696 116.209 -7.22 116.209 -7.892H116.677C116.677 -7.26 116.585 -6.716 116.401 -6.26C116.217 -5.804 115.949 -5.456 115.597 -5.216C115.253 -4.976 114.829 -4.856 114.325 -4.856C113.861 -4.856 113.453 -4.948 113.101 -5.132C112.749 -5.324 112.477 -5.624 112.285 -6.032C112.093 -6.448 111.997 -6.984 111.997 -7.64V-7.928H112.957ZM118.844 -5V-13.4H119.804V-5H118.844ZM125.921 -5L125.873 -6.116V-13.4H126.833V-5H125.921ZM123.845 -4.856C123.309 -4.856 122.837 -4.988 122.429 -5.252C122.021 -5.516 121.701 -5.884 121.469 -6.356C121.245 -6.836 121.133 -7.384 121.133 -8C121.133 -8.624 121.245 -9.172 121.469 -9.644C121.701 -10.116 122.021 -10.484 122.429 -10.748C122.837 -11.012 123.309 -11.144 123.845 -11.144C124.349 -11.144 124.789 -11.012 125.165 -10.748C125.549 -10.484 125.845 -10.116 126.053 -9.644C126.261 -9.172 126.365 -8.624 126.365 -8C126.365 -7.384 126.261 -6.836 126.053 -6.356C125.845 -5.884 125.549 -5.516 125.165 -5.252C124.789 -4.988 124.349 -4.856 123.845 -4.856ZM124.061 -5.732C124.413 -5.732 124.725 -5.828 124.997 -6.02C125.269 -6.212 125.481 -6.48 125.633 -6.824C125.793 -7.168 125.873 -7.56 125.873 -8C125.873 -8.44 125.793 -8.832 125.633 -9.176C125.481 -9.52 125.269 -9.788 124.997 -9.98C124.725 -10.172 124.409 -10.268 124.049 -10.268C123.673 -10.268 123.337 -10.172 123.041 -9.98C122.753 -9.788 122.525 -9.52 122.357 -9.176C122.189 -8.832 122.105 -8.44 122.105 -8C122.105 -7.56 122.189 -7.168 122.357 -6.824C122.525 -6.48 122.757 -6.212 123.053 -6.02C123.349 -5.828 123.685 -5.732 124.061 -5.732ZM132.017 -2.456C131.865 -2.456 131.689 -2.488 131.489 -2.552C131.289 -2.608 131.077 -2.684 130.853 -2.78L131.213 -3.584C131.397 -3.504 131.557 -3.444 131.693 -3.404C131.837 -3.364 131.949 -3.344 132.029 -3.344C132.245 -3.344 132.421 -3.404 132.557 -3.524C132.701 -3.636 132.821 -3.8 132.917 -4.016L133.601 -5.648L135.821 -11H136.853L133.973 -4.16C133.821 -3.808 133.661 -3.504 133.493 -3.248C133.333 -2.992 133.137 -2.796 132.905 -2.66C132.673 -2.524 132.377 -2.456 132.017 -2.456ZM133.337 -5L130.745 -11H131.765L133.997 -5.66L134.285 -5H133.337ZM140.305 -4.856C139.721 -4.856 139.201 -4.988 138.745 -5.252C138.297 -5.524 137.945 -5.896 137.689 -6.368C137.433 -6.84 137.305 -7.384 137.305 -8C137.305 -8.616 137.429 -9.16 137.677 -9.632C137.933 -10.104 138.285 -10.472 138.733 -10.736C139.189 -11.008 139.705 -11.144 140.281 -11.144C140.873 -11.144 141.393 -11.008 141.841 -10.736C142.297 -10.472 142.649 -10.104 142.897 -9.632C143.153 -9.16 143.281 -8.616 143.281 -8C143.281 -7.384 143.153 -6.84 142.897 -6.368C142.649 -5.896 142.301 -5.524 141.853 -5.252C141.405 -4.988 140.889 -4.856 140.305 -4.856ZM140.305 -5.744C140.705 -5.744 141.053 -5.84 141.349 -6.032C141.645 -6.224 141.877 -6.488 142.045 -6.824C142.221 -7.16 142.309 -7.552 142.309 -8C142.309 -8.448 142.221 -8.84 142.045 -9.176C141.877 -9.512 141.641 -9.776 141.337 -9.968C141.033 -10.16 140.681 -10.256 140.281 -10.256C139.889 -10.256 139.541 -10.16 139.237 -9.968C138.941 -9.776 138.705 -9.512 138.529 -9.176C138.361 -8.84 138.277 -8.448 138.277 -8C138.277 -7.56 138.361 -7.168 138.529 -6.824C138.705 -6.488 138.945 -6.224 139.249 -6.032C139.561 -5.84 139.913 -5.744 140.305 -5.744ZM148.729 -5L148.669 -6.104V-11H149.629V-5H148.729ZM144.457 -7.928V-11H145.417V-7.928H144.457ZM145.417 -7.928C145.417 -7.336 145.485 -6.884 145.621 -6.572C145.757 -6.26 145.945 -6.044 146.185 -5.924C146.433 -5.812 146.709 -5.756 147.013 -5.756C147.533 -5.756 147.937 -5.944 148.225 -6.32C148.521 -6.696 148.669 -7.22 148.669 -7.892H149.137C149.137 -7.26 149.045 -6.716 148.861 -6.26C148.677 -5.804 148.409 -5.456 148.057 -5.216C147.713 -4.976 147.289 -4.856 146.785 -4.856C146.321 -4.856 145.913 -4.948 145.561 -5.132C145.209 -5.324 144.937 -5.624 144.745 -6.032C144.553 -6.448 144.457 -6.984 144.457 -7.64V-7.928H145.417ZM154.27 -5V-13.4H155.23V-5H154.27ZM156.966 -5V-11H157.926V-5H156.966ZM157.458 -12.392C157.298 -12.392 157.158 -12.452 157.038 -12.572C156.918 -12.692 156.858 -12.832 156.858 -12.992C156.858 -13.16 156.918 -13.3 157.038 -13.412C157.158 -13.532 157.298 -13.592 157.458 -13.592C157.626 -13.592 157.766 -13.532 157.878 -13.412C157.998 -13.3 158.058 -13.16 158.058 -12.992C158.058 -12.832 157.998 -12.692 157.878 -12.572C157.766 -12.452 157.626 -12.392 157.458 -12.392ZM160.631 -6.932L160.019 -7.592L163.211 -11H164.423L160.631 -6.932ZM159.695 -5V-13.4H160.655V-5H159.695ZM163.475 -5L161.195 -8.444L161.819 -9.116L164.663 -5H163.475ZM168.019 -4.856C167.435 -4.856 166.919 -4.988 166.471 -5.252C166.023 -5.524 165.671 -5.896 165.415 -6.368C165.167 -6.84 165.043 -7.384 165.043 -8C165.043 -8.616 165.167 -9.16 165.415 -9.632C165.671 -10.104 166.019 -10.472 166.459 -10.736C166.907 -11.008 167.419 -11.144 167.995 -11.144C168.555 -11.144 169.039 -11.004 169.447 -10.724C169.855 -10.452 170.171 -10.068 170.395 -9.572C170.619 -9.076 170.731 -8.492 170.731 -7.82H165.775L166.015 -8.024C166.015 -7.544 166.099 -7.132 166.267 -6.788C166.443 -6.444 166.687 -6.18 166.999 -5.996C167.311 -5.82 167.667 -5.732 168.067 -5.732C168.491 -5.732 168.847 -5.832 169.135 -6.032C169.431 -6.232 169.659 -6.496 169.819 -6.824L170.647 -6.404C170.495 -6.092 170.291 -5.82 170.035 -5.588C169.787 -5.356 169.491 -5.176 169.147 -5.048C168.811 -4.92 168.435 -4.856 168.019 -4.856ZM166.075 -8.432L165.823 -8.624H169.963L169.711 -8.42C169.711 -8.804 169.635 -9.136 169.483 -9.416C169.331 -9.696 169.127 -9.912 168.871 -10.064C168.615 -10.216 168.319 -10.292 167.983 -10.292C167.655 -10.292 167.343 -10.216 167.047 -10.064C166.759 -9.912 166.523 -9.696 166.339 -9.416C166.163 -9.144 166.075 -8.816 166.075 -8.432ZM177.162 -4.856C176.578 -4.856 176.126 -5.008 175.806 -5.312C175.486 -5.616 175.326 -6.044 175.326 -6.596V-12.872H176.286V-6.692C176.286 -6.388 176.366 -6.152 176.526 -5.984C176.694 -5.824 176.926 -5.744 177.222 -5.744C177.318 -5.744 177.41 -5.756 177.498 -5.78C177.594 -5.812 177.718 -5.884 177.87 -5.996L178.242 -5.216C178.034 -5.08 177.846 -4.988 177.678 -4.94C177.51 -4.884 177.338 -4.856 177.162 -4.856ZM174.282 -10.148V-11H178.086V-10.148H174.282ZM182.058 -4.856C181.474 -4.856 180.954 -4.988 180.498 -5.252C180.05 -5.524 179.698 -5.896 179.442 -6.368C179.186 -6.84 179.058 -7.384 179.058 -8C179.058 -8.616 179.182 -9.16 179.43 -9.632C179.686 -10.104 180.038 -10.472 180.486 -10.736C180.942 -11.008 181.458 -11.144 182.034 -11.144C182.626 -11.144 183.146 -11.008 183.594 -10.736C184.05 -10.472 184.402 -10.104 184.65 -9.632C184.906 -9.16 185.034 -8.616 185.034 -8C185.034 -7.384 184.906 -6.84 184.65 -6.368C184.402 -5.896 184.054 -5.524 183.606 -5.252C183.158 -4.988 182.642 -4.856 182.058 -4.856ZM182.058 -5.744C182.458 -5.744 182.806 -5.84 183.102 -6.032C183.398 -6.224 183.63 -6.488 183.798 -6.824C183.974 -7.16 184.062 -7.552 184.062 -8C184.062 -8.448 183.974 -8.84 183.798 -9.176C183.63 -9.512 183.394 -9.776 183.09 -9.968C182.786 -10.16 182.434 -10.256 182.034 -10.256C181.642 -10.256 181.294 -10.16 180.99 -9.968C180.694 -9.776 180.458 -9.512 180.282 -9.176C180.114 -8.84 180.03 -8.448 180.03 -8C180.03 -7.56 180.114 -7.168 180.282 -6.824C180.458 -6.488 180.698 -6.224 181.002 -6.032C181.314 -5.84 181.666 -5.744 182.058 -5.744ZM193.772 -5L193.724 -6.116V-13.4H194.684V-5H193.772ZM191.696 -4.856C191.16 -4.856 190.688 -4.988 190.28 -5.252C189.872 -5.516 189.552 -5.884 189.32 -6.356C189.096 -6.836 188.984 -7.384 188.984 -8C188.984 -8.624 189.096 -9.172 189.32 -9.644C189.552 -10.116 189.872 -10.484 190.28 -10.748C190.688 -11.012 191.16 -11.144 191.696 -11.144C192.2 -11.144 192.64 -11.012 193.016 -10.748C193.4 -10.484 193.696 -10.116 193.904 -9.644C194.112 -9.172 194.216 -8.624 194.216 -8C194.216 -7.384 194.112 -6.836 193.904 -6.356C193.696 -5.884 193.4 -5.516 193.016 -5.252C192.64 -4.988 192.2 -4.856 191.696 -4.856ZM191.912 -5.732C192.264 -5.732 192.576 -5.828 192.848 -6.02C193.12 -6.212 193.332 -6.48 193.484 -6.824C193.644 -7.168 193.724 -7.56 193.724 -8C193.724 -8.44 193.644 -8.832 193.484 -9.176C193.332 -9.52 193.12 -9.788 192.848 -9.98C192.576 -10.172 192.26 -10.268 191.9 -10.268C191.524 -10.268 191.188 -10.172 190.892 -9.98C190.604 -9.788 190.376 -9.52 190.208 -9.176C190.04 -8.832 189.956 -8.44 189.956 -8C189.956 -7.56 190.04 -7.168 190.208 -6.824C190.376 -6.48 190.608 -6.212 190.904 -6.02C191.2 -5.828 191.536 -5.732 191.912 -5.732ZM199.015 -4.856C198.431 -4.856 197.911 -4.988 197.455 -5.252C197.007 -5.524 196.655 -5.896 196.399 -6.368C196.143 -6.84 196.015 -7.384 196.015 -8C196.015 -8.616 196.139 -9.16 196.387 -9.632C196.643 -10.104 196.995 -10.472 197.443 -10.736C197.899 -11.008 198.415 -11.144 198.991 -11.144C199.583 -11.144 200.103 -11.008 200.551 -10.736C201.007 -10.472 201.359 -10.104 201.607 -9.632C201.863 -9.16 201.991 -8.616 201.991 -8C201.991 -7.384 201.863 -6.84 201.607 -6.368C201.359 -5.896 201.011 -5.524 200.563 -5.252C200.115 -4.988 199.599 -4.856 199.015 -4.856ZM199.015 -5.744C199.415 -5.744 199.763 -5.84 200.059 -6.032C200.355 -6.224 200.587 -6.488 200.755 -6.824C200.931 -7.16 201.019 -7.552 201.019 -8C201.019 -8.448 200.931 -8.84 200.755 -9.176C200.587 -9.512 200.351 -9.776 200.047 -9.968C199.743 -10.16 199.391 -10.256 198.991 -10.256C198.599 -10.256 198.251 -10.16 197.947 -9.968C197.651 -9.776 197.415 -9.512 197.239 -9.176C197.071 -8.84 196.987 -8.448 196.987 -8C196.987 -7.56 197.071 -7.168 197.239 -6.824C197.415 -6.488 197.655 -6.224 197.959 -6.032C198.271 -5.84 198.623 -5.744 199.015 -5.744ZM26.096 13.144C25.512 13.144 25.06 12.992 24.74 12.688C24.42 12.384 24.26 11.956 24.26 11.404V5.128H25.22V11.308C25.22 11.612 25.3 11.848 25.46 12.016C25.628 12.176 25.86 12.256 26.156 12.256C26.252 12.256 26.344 12.244 26.432 12.22C26.528 12.188 26.652 12.116 26.804 12.004L27.176 12.784C26.968 12.92 26.78 13.012 26.612 13.06C26.444 13.116 26.272 13.144 26.096 13.144ZM23.216 7.852V7H27.02V7.852H23.216ZM30.992 13.144C30.408 13.144 29.888 13.012 29.432 12.748C28.984 12.476 28.632 12.104 28.376 11.632C28.12 11.16 27.992 10.616 27.992 10C27.992 9.384 28.116 8.84 28.364 8.368C28.62 7.896 28.972 7.528 29.42 7.264C29.876 6.992 30.392 6.856 30.968 6.856C31.56 6.856 32.08 6.992 32.528 7.264C32.984 7.528 33.336 7.896 33.584 8.368C33.84 8.84 33.968 9.384 33.968 10C33.968 10.616 33.84 11.16 33.584 11.632C33.336 12.104 32.988 12.476 32.54 12.748C32.092 13.012 31.576 13.144 30.992 13.144ZM30.992 12.256C31.392 12.256 31.74 12.16 32.036 11.968C32.332 11.776 32.564 11.512 32.732 11.176C32.908 10.84 32.996 10.448 32.996 10C32.996 9.552 32.908 9.16 32.732 8.824C32.564 8.488 32.328 8.224 32.024 8.032C31.72 7.84 31.368 7.744 30.968 7.744C30.576 7.744 30.228 7.84 29.924 8.032C29.628 8.224 29.392 8.488 29.216 8.824C29.048 9.16 28.964 9.552 28.964 10C28.964 10.44 29.048 10.832 29.216 11.176C29.392 11.512 29.632 11.776 29.936 11.968C30.248 12.16 30.6 12.256 30.992 12.256ZM39.7409 13L39.6929 11.884V4.6H40.6529V13H39.7409ZM37.6649 13.144C37.1289 13.144 36.6569 13.012 36.2489 12.748C35.8409 12.484 35.5209 12.116 35.2889 11.644C35.0649 11.164 34.9529 10.616 34.9529 10C34.9529 9.376 35.0649 8.828 35.2889 8.356C35.5209 7.884 35.8409 7.516 36.2489 7.252C36.6569 6.988 37.1289 6.856 37.6649 6.856C38.1689 6.856 38.6089 6.988 38.9849 7.252C39.3689 7.516 39.6649 7.884 39.8729 8.356C40.0809 8.828 40.1849 9.376 40.1849 10C40.1849 10.616 40.0809 11.164 39.8729 11.644C39.6649 12.116 39.3689 12.484 38.9849 12.748C38.6089 13.012 38.1689 13.144 37.6649 13.144ZM37.8809 12.268C38.2329 12.268 38.5449 12.172 38.8169 11.98C39.0889 11.788 39.3009 11.52 39.4529 11.176C39.6129 10.832 39.6929 10.44 39.6929 10C39.6929 9.56 39.6129 9.168 39.4529 8.824C39.3009 8.48 39.0889 8.212 38.8169 8.02C38.5449 7.828 38.2289 7.732 37.8689 7.732C37.4929 7.732 37.1569 7.828 36.8609 8.02C36.5729 8.212 36.3449 8.48 36.1769 8.824C36.0089 9.168 35.9249 9.56 35.9249 10C35.9249 10.44 36.0089 10.832 36.1769 11.176C36.3449 11.52 36.5769 11.788 36.8729 11.98C37.1689 12.172 37.5049 12.268 37.8809 12.268ZM46.0282 13L45.9802 12.016V9.832C45.9802 9.36 45.9282 8.972 45.8242 8.668C45.7202 8.356 45.5562 8.12 45.3322 7.96C45.1082 7.8 44.8162 7.72 44.4562 7.72C44.1282 7.72 43.8442 7.788 43.6042 7.924C43.3722 8.052 43.1802 8.26 43.0282 8.548L42.1642 8.212C42.3162 7.932 42.5002 7.692 42.7162 7.492C42.9322 7.284 43.1842 7.128 43.4722 7.024C43.7602 6.912 44.0882 6.856 44.4562 6.856C45.0162 6.856 45.4762 6.968 45.8362 7.192C46.2042 7.408 46.4802 7.732 46.6642 8.164C46.8482 8.588 46.9362 9.116 46.9282 9.748L46.9162 13H46.0282ZM44.2282 13.144C43.5242 13.144 42.9722 12.984 42.5722 12.664C42.1802 12.336 41.9842 11.884 41.9842 11.308C41.9842 10.7 42.1842 10.236 42.5842 9.916C42.9922 9.588 43.5602 9.424 44.2882 9.424H46.0042V10.228H44.5042C43.9442 10.228 43.5442 10.32 43.3042 10.504C43.0722 10.688 42.9562 10.952 42.9562 11.296C42.9562 11.608 43.0722 11.856 43.3042 12.04C43.5362 12.216 43.8602 12.304 44.2762 12.304C44.6202 12.304 44.9202 12.232 45.1762 12.088C45.4322 11.936 45.6282 11.724 45.7642 11.452C45.9082 11.172 45.9802 10.844 45.9802 10.468H46.3882C46.3882 11.284 46.2042 11.936 45.8362 12.424C45.4682 12.904 44.9322 13.144 44.2282 13.144ZM48.8956 15.544C48.7436 15.544 48.5676 15.512 48.3676 15.448C48.1676 15.392 47.9556 15.316 47.7316 15.22L48.0916 14.416C48.2756 14.496 48.4356 14.556 48.5716 14.596C48.7156 14.636 48.8276 14.656 48.9076 14.656C49.1236 14.656 49.2996 14.596 49.4356 14.476C49.5796 14.364 49.6996 14.2 49.7956 13.984L50.4796 12.352L52.6996 7H53.7316L50.8516 13.84C50.6996 14.192 50.5396 14.496 50.3716 14.752C50.2116 15.008 50.0156 15.204 49.7836 15.34C49.5516 15.476 49.2556 15.544 48.8956 15.544ZM50.2156 13L47.6236 7H48.6436L50.8756 12.34L51.1636 13H50.2156ZM55.932 10.744L55.92 8.608L56.544 8.584C57.072 8.576 57.504 8.428 57.84 8.14C58.176 7.844 58.344 7.444 58.344 6.94C58.344 6.484 58.184 6.108 57.864 5.812C57.552 5.508 57.144 5.356 56.64 5.356C56.272 5.356 55.948 5.444 55.668 5.62C55.396 5.788 55.212 6 55.116 6.256L54.216 5.98C54.376 5.532 54.664 5.168 55.08 4.888C55.504 4.6 56.024 4.456 56.64 4.456C57.168 4.456 57.632 4.564 58.032 4.78C58.432 4.988 58.748 5.28 58.98 5.656C59.212 6.032 59.328 6.46 59.328 6.94C59.328 7.396 59.224 7.8 59.016 8.152C58.816 8.504 58.536 8.788 58.176 9.004C57.816 9.212 57.396 9.336 56.916 9.376V10.744H55.932ZM56.424 13.168C56.232 13.168 56.072 13.104 55.944 12.976C55.816 12.848 55.752 12.692 55.752 12.508C55.752 12.316 55.816 12.156 55.944 12.028C56.072 11.9 56.232 11.836 56.424 11.836C56.616 11.836 56.772 11.9 56.892 12.028C57.02 12.156 57.084 12.316 57.084 12.508C57.084 12.692 57.02 12.848 56.892 12.976C56.772 13.104 56.616 13.168 56.424 13.168Z" fill="#171A16"/>
<rect x="192" y="41" width="84" height="34" rx="8" fill="#D7FAD1"/>
<path d="M203.804 62.144C203.34 62.144 202.928 62.096 202.568 62C202.208 61.896 201.896 61.756 201.632 61.58C201.368 61.396 201.152 61.196 200.984 60.98C200.816 60.756 200.692 60.52 200.612 60.272L201.584 59.936C201.704 60.288 201.944 60.596 202.304 60.86C202.672 61.116 203.12 61.244 203.648 61.244C204.296 61.244 204.804 61.116 205.172 60.86C205.54 60.604 205.724 60.264 205.724 59.84C205.724 59.448 205.56 59.132 205.232 58.892C204.904 58.644 204.472 58.452 203.936 58.316L203.012 58.076C202.636 57.98 202.288 57.84 201.968 57.656C201.656 57.464 201.404 57.224 201.212 56.936C201.028 56.64 200.936 56.288 200.936 55.88C200.936 55.12 201.18 54.528 201.668 54.104C202.164 53.672 202.876 53.456 203.804 53.456C204.356 53.456 204.832 53.548 205.232 53.732C205.632 53.908 205.956 54.136 206.204 54.416C206.46 54.688 206.64 54.984 206.744 55.304L205.784 55.64C205.632 55.24 205.376 54.928 205.016 54.704C204.656 54.472 204.22 54.356 203.708 54.356C203.172 54.356 202.744 54.488 202.424 54.752C202.112 55.008 201.956 55.36 201.956 55.808C201.956 56.192 202.08 56.488 202.328 56.696C202.576 56.896 202.9 57.044 203.3 57.14L204.224 57.368C205.04 57.56 205.664 57.88 206.096 58.328C206.536 58.768 206.756 59.244 206.756 59.756C206.756 60.196 206.644 60.6 206.42 60.968C206.196 61.328 205.864 61.616 205.424 61.832C204.992 62.04 204.452 62.144 203.804 62.144ZM210.839 62.144C210.255 62.144 209.739 62.012 209.291 61.748C208.843 61.476 208.491 61.104 208.235 60.632C207.987 60.16 207.863 59.616 207.863 59C207.863 58.384 207.987 57.84 208.235 57.368C208.491 56.896 208.839 56.528 209.279 56.264C209.727 55.992 210.239 55.856 210.815 55.856C211.375 55.856 211.859 55.996 212.267 56.276C212.675 56.548 212.991 56.932 213.215 57.428C213.439 57.924 213.551 58.508 213.551 59.18H208.595L208.835 58.976C208.835 59.456 208.919 59.868 209.087 60.212C209.263 60.556 209.507 60.82 209.819 61.004C210.131 61.18 210.487 61.268 210.887 61.268C211.311 61.268 211.667 61.168 211.955 60.968C212.251 60.768 212.479 60.504 212.639 60.176L213.467 60.596C213.315 60.908 213.111 61.18 212.855 61.412C212.607 61.644 212.311 61.824 211.967 61.952C211.631 62.08 211.255 62.144 210.839 62.144ZM208.895 58.568L208.643 58.376H212.783L212.531 58.58C212.531 58.196 212.455 57.864 212.303 57.584C212.151 57.304 211.947 57.088 211.691 56.936C211.435 56.784 211.139 56.708 210.803 56.708C210.475 56.708 210.163 56.784 209.867 56.936C209.579 57.088 209.343 57.304 209.159 57.584C208.983 57.856 208.895 58.184 208.895 58.568ZM214.762 62V56H215.662L215.722 57.104V62H214.762ZM218.974 62V58.928H219.934V62H218.974ZM218.974 58.928C218.974 58.336 218.906 57.884 218.77 57.572C218.634 57.26 218.446 57.048 218.206 56.936C217.966 56.816 217.694 56.756 217.39 56.756C216.862 56.756 216.45 56.944 216.154 57.32C215.866 57.688 215.722 58.212 215.722 58.892H215.254C215.254 58.26 215.346 57.716 215.53 57.26C215.714 56.804 215.982 56.456 216.334 56.216C216.686 55.976 217.11 55.856 217.606 55.856C218.078 55.856 218.486 55.952 218.83 56.144C219.182 56.328 219.454 56.624 219.646 57.032C219.846 57.44 219.942 57.976 219.934 58.64V58.928H218.974ZM225.893 62L225.845 60.884V53.6H226.805V62H225.893ZM223.817 62.144C223.281 62.144 222.809 62.012 222.401 61.748C221.993 61.484 221.673 61.116 221.441 60.644C221.217 60.164 221.105 59.616 221.105 59C221.105 58.376 221.217 57.828 221.441 57.356C221.673 56.884 221.993 56.516 222.401 56.252C222.809 55.988 223.281 55.856 223.817 55.856C224.321 55.856 224.761 55.988 225.137 56.252C225.521 56.516 225.817 56.884 226.025 57.356C226.233 57.828 226.337 58.376 226.337 59C226.337 59.616 226.233 60.164 226.025 60.644C225.817 61.116 225.521 61.484 225.137 61.748C224.761 62.012 224.321 62.144 223.817 62.144ZM224.033 61.268C224.385 61.268 224.697 61.172 224.969 60.98C225.241 60.788 225.453 60.52 225.605 60.176C225.765 59.832 225.845 59.44 225.845 59C225.845 58.56 225.765 58.168 225.605 57.824C225.453 57.48 225.241 57.212 224.969 57.02C224.697 56.828 224.381 56.732 224.021 56.732C223.645 56.732 223.309 56.828 223.013 57.02C222.725 57.212 222.497 57.48 222.329 57.824C222.161 58.168 222.077 58.56 222.077 59C222.077 59.44 222.161 59.832 222.329 60.176C222.497 60.52 222.729 60.788 223.025 60.98C223.321 61.172 223.657 61.268 224.033 61.268ZM231.449 62V56H232.349L232.397 56.84C232.581 56.52 232.817 56.276 233.105 56.108C233.393 55.94 233.729 55.856 234.113 55.856C234.593 55.856 235.001 55.968 235.337 56.192C235.681 56.416 235.929 56.756 236.081 57.212C236.249 56.772 236.493 56.436 236.813 56.204C237.141 55.972 237.529 55.856 237.977 55.856C238.649 55.856 239.177 56.08 239.561 56.528C239.953 56.976 240.145 57.656 240.137 58.568V62H239.177V58.928C239.177 58.336 239.113 57.884 238.985 57.572C238.865 57.26 238.701 57.048 238.493 56.936C238.285 56.816 238.045 56.756 237.773 56.756C237.301 56.756 236.933 56.944 236.669 57.32C236.405 57.688 236.273 58.212 236.273 58.892V62H235.313V58.928C235.313 58.336 235.249 57.884 235.121 57.572C235.001 57.26 234.833 57.048 234.617 56.936C234.409 56.816 234.169 56.756 233.897 56.756C233.433 56.756 233.069 56.944 232.805 57.32C232.541 57.688 232.409 58.212 232.409 58.892V62H231.449ZM244.308 62.144C243.724 62.144 243.204 62.012 242.748 61.748C242.3 61.476 241.948 61.104 241.692 60.632C241.436 60.16 241.308 59.616 241.308 59C241.308 58.384 241.432 57.84 241.68 57.368C241.936 56.896 242.288 56.528 242.736 56.264C243.192 55.992 243.708 55.856 244.284 55.856C244.876 55.856 245.396 55.992 245.844 56.264C246.3 56.528 246.652 56.896 246.9 57.368C247.156 57.84 247.284 58.384 247.284 59C247.284 59.616 247.156 60.16 246.9 60.632C246.652 61.104 246.304 61.476 245.856 61.748C245.408 62.012 244.892 62.144 244.308 62.144ZM244.308 61.256C244.708 61.256 245.056 61.16 245.352 60.968C245.648 60.776 245.88 60.512 246.048 60.176C246.224 59.84 246.312 59.448 246.312 59C246.312 58.552 246.224 58.16 246.048 57.824C245.88 57.488 245.644 57.224 245.34 57.032C245.036 56.84 244.684 56.744 244.284 56.744C243.892 56.744 243.544 56.84 243.24 57.032C242.944 57.224 242.708 57.488 242.532 57.824C242.364 58.16 242.28 58.552 242.28 59C242.28 59.44 242.364 59.832 242.532 60.176C242.708 60.512 242.948 60.776 243.252 60.968C243.564 61.16 243.916 61.256 244.308 61.256ZM248.617 62V56H249.517L249.577 57.104V62H248.617ZM252.829 62V58.928H253.789V62H252.829ZM252.829 58.928C252.829 58.336 252.761 57.884 252.625 57.572C252.489 57.26 252.301 57.048 252.061 56.936C251.821 56.816 251.549 56.756 251.245 56.756C250.717 56.756 250.305 56.944 250.009 57.32C249.721 57.688 249.577 58.212 249.577 58.892H249.109C249.109 58.26 249.201 57.716 249.385 57.26C249.569 56.804 249.837 56.456 250.189 56.216C250.541 55.976 250.965 55.856 251.461 55.856C251.933 55.856 252.341 55.952 252.685 56.144C253.037 56.328 253.309 56.624 253.501 57.032C253.701 57.44 253.797 57.976 253.789 58.64V58.928H252.829ZM257.937 62.144C257.353 62.144 256.837 62.012 256.389 61.748C255.941 61.476 255.589 61.104 255.333 60.632C255.085 60.16 254.961 59.616 254.961 59C254.961 58.384 255.085 57.84 255.333 57.368C255.589 56.896 255.937 56.528 256.377 56.264C256.825 55.992 257.337 55.856 257.913 55.856C258.473 55.856 258.957 55.996 259.365 56.276C259.773 56.548 260.089 56.932 260.313 57.428C260.537 57.924 260.649 58.508 260.649 59.18H255.693L255.933 58.976C255.933 59.456 256.017 59.868 256.185 60.212C256.361 60.556 256.605 60.82 256.917 61.004C257.229 61.18 257.585 61.268 257.985 61.268C258.409 61.268 258.765 61.168 259.053 60.968C259.349 60.768 259.577 60.504 259.737 60.176L260.565 60.596C260.413 60.908 260.209 61.18 259.953 61.412C259.705 61.644 259.409 61.824 259.065 61.952C258.729 62.08 258.353 62.144 257.937 62.144ZM255.993 58.568L255.741 58.376H259.881L259.629 58.58C259.629 58.196 259.553 57.864 259.401 57.584C259.249 57.304 259.045 57.088 258.789 56.936C258.533 56.784 258.237 56.708 257.901 56.708C257.573 56.708 257.261 56.784 256.965 56.936C256.677 57.088 256.441 57.304 256.257 57.584C256.081 57.856 255.993 58.184 255.993 58.568ZM262.247 64.544C262.095 64.544 261.919 64.512 261.719 64.448C261.519 64.392 261.307 64.316 261.083 64.22L261.443 63.416C261.627 63.496 261.787 63.556 261.923 63.596C262.067 63.636 262.179 63.656 262.259 63.656C262.475 63.656 262.651 63.596 262.787 63.476C262.931 63.364 263.051 63.2 263.147 62.984L263.831 61.352L266.051 56H267.083L264.203 62.84C264.051 63.192 263.891 63.496 263.723 63.752C263.563 64.008 263.367 64.204 263.135 64.34C262.903 64.476 262.607 64.544 262.247 64.544ZM263.567 62L260.975 56H261.995L264.227 61.34L264.515 62H263.567Z" fill="#171A16"/>
<rect x="15" y="90" width="233" height="34" rx="8" fill="white"/>
<path d="M26.804 111.144C26.34 111.144 25.928 111.096 25.568 111C25.208 110.896 24.896 110.756 24.632 110.58C24.368 110.396 24.152 110.196 23.984 109.98C23.816 109.756 23.692 109.52 23.612 109.272L24.584 108.936C24.704 109.288 24.944 109.596 25.304 109.86C25.672 110.116 26.12 110.244 26.648 110.244C27.296 110.244 27.804 110.116 28.172 109.86C28.54 109.604 28.724 109.264 28.724 108.84C28.724 108.448 28.56 108.132 28.232 107.892C27.904 107.644 27.472 107.452 26.936 107.316L26.012 107.076C25.636 106.98 25.288 106.84 24.968 106.656C24.656 106.464 24.404 106.224 24.212 105.936C24.028 105.64 23.936 105.288 23.936 104.88C23.936 104.12 24.18 103.528 24.668 103.104C25.164 102.672 25.876 102.456 26.804 102.456C27.356 102.456 27.832 102.548 28.232 102.732C28.632 102.908 28.956 103.136 29.204 103.416C29.46 103.688 29.64 103.984 29.744 104.304L28.784 104.64C28.632 104.24 28.376 103.928 28.016 103.704C27.656 103.472 27.22 103.356 26.708 103.356C26.172 103.356 25.744 103.488 25.424 103.752C25.112 104.008 24.956 104.36 24.956 104.808C24.956 105.192 25.08 105.488 25.328 105.696C25.576 105.896 25.9 106.044 26.3 106.14L27.224 106.368C28.04 106.56 28.664 106.88 29.096 107.328C29.536 107.768 29.756 108.244 29.756 108.756C29.756 109.196 29.644 109.6 29.42 109.968C29.196 110.328 28.864 110.616 28.424 110.832C27.992 111.04 27.452 111.144 26.804 111.144ZM35.3271 111L35.2671 109.896V105H36.2271V111H35.3271ZM31.0551 108.072V105H32.0151V108.072H31.0551ZM32.0151 108.072C32.0151 108.664 32.0831 109.116 32.2191 109.428C32.3551 109.74 32.5431 109.956 32.7831 110.076C33.0311 110.188 33.3071 110.244 33.6111 110.244C34.1311 110.244 34.5351 110.056 34.8231 109.68C35.1191 109.304 35.2671 108.78 35.2671 108.108H35.7351C35.7351 108.74 35.6431 109.284 35.4591 109.74C35.2751 110.196 35.0071 110.544 34.6551 110.784C34.3111 111.024 33.8871 111.144 33.3831 111.144C32.9191 111.144 32.5111 111.052 32.1591 110.868C31.8071 110.676 31.5351 110.376 31.3431 109.968C31.1511 109.552 31.0551 109.016 31.0551 108.36V108.072H32.0151ZM38.4305 107.748C38.4305 107.1 38.5545 106.576 38.8025 106.176C39.0505 105.768 39.3665 105.468 39.7505 105.276C40.1425 105.076 40.5545 104.976 40.9865 104.976V105.876C40.6345 105.876 40.2945 105.936 39.9665 106.056C39.6465 106.168 39.3825 106.356 39.1745 106.62C38.9665 106.884 38.8625 107.244 38.8625 107.7L38.4305 107.748ZM37.9025 111V105H38.8625V111H37.9025ZM44.5852 111.144C44.0012 111.144 43.4852 111.012 43.0372 110.748C42.5892 110.476 42.2372 110.104 41.9812 109.632C41.7332 109.16 41.6092 108.616 41.6092 108C41.6092 107.384 41.7332 106.84 41.9812 106.368C42.2372 105.896 42.5852 105.528 43.0252 105.264C43.4732 104.992 43.9852 104.856 44.5612 104.856C45.1212 104.856 45.6052 104.996 46.0132 105.276C46.4212 105.548 46.7372 105.932 46.9612 106.428C47.1852 106.924 47.2972 107.508 47.2972 108.18H42.3412L42.5812 107.976C42.5812 108.456 42.6652 108.868 42.8332 109.212C43.0092 109.556 43.2532 109.82 43.5652 110.004C43.8772 110.18 44.2332 110.268 44.6332 110.268C45.0572 110.268 45.4132 110.168 45.7012 109.968C45.9972 109.768 46.2252 109.504 46.3852 109.176L47.2132 109.596C47.0612 109.908 46.8572 110.18 46.6012 110.412C46.3532 110.644 46.0572 110.824 45.7132 110.952C45.3772 111.08 45.0012 111.144 44.5852 111.144ZM42.6412 107.568L42.3892 107.376H46.5292L46.2772 107.58C46.2772 107.196 46.2012 106.864 46.0492 106.584C45.8972 106.304 45.6932 106.088 45.4372 105.936C45.1812 105.784 44.8852 105.708 44.5492 105.708C44.2212 105.708 43.9092 105.784 43.6132 105.936C43.3252 106.088 43.0892 106.304 42.9052 106.584C42.7292 106.856 42.6412 107.184 42.6412 107.568ZM53.7288 111.144C53.1448 111.144 52.6928 110.992 52.3728 110.688C52.0528 110.384 51.8928 109.956 51.8928 109.404V103.128H52.8528V109.308C52.8528 109.612 52.9328 109.848 53.0928 110.016C53.2608 110.176 53.4928 110.256 53.7888 110.256C53.8848 110.256 53.9768 110.244 54.0648 110.22C54.1608 110.188 54.2848 110.116 54.4368 110.004L54.8088 110.784C54.6008 110.92 54.4128 111.012 54.2448 111.06C54.0768 111.116 53.9048 111.144 53.7288 111.144ZM50.8488 105.852V105H54.6528V105.852H50.8488ZM56.008 111V102.6H56.968V111H56.008ZM60.232 111V107.928H61.192V111H60.232ZM60.232 107.928C60.232 107.336 60.16 106.884 60.016 106.572C59.88 106.26 59.692 106.048 59.452 105.936C59.212 105.816 58.94 105.756 58.636 105.756C58.108 105.756 57.696 105.944 57.4 106.32C57.112 106.688 56.968 107.212 56.968 107.892H56.5C56.5 107.26 56.592 106.716 56.776 106.26C56.968 105.804 57.24 105.456 57.592 105.216C57.944 104.976 58.368 104.856 58.864 104.856C59.328 104.856 59.736 104.952 60.088 105.144C60.44 105.328 60.712 105.624 60.904 106.032C61.104 106.44 61.2 106.976 61.192 107.64V107.928H60.232ZM62.7594 111V105H63.7194V111H62.7594ZM63.2514 103.608C63.0914 103.608 62.9514 103.548 62.8314 103.428C62.7114 103.308 62.6514 103.168 62.6514 103.008C62.6514 102.84 62.7114 102.7 62.8314 102.588C62.9514 102.468 63.0914 102.408 63.2514 102.408C63.4194 102.408 63.5594 102.468 63.6714 102.588C63.7914 102.7 63.8514 102.84 63.8514 103.008C63.8514 103.168 63.7914 103.308 63.6714 103.428C63.5594 103.548 63.4194 103.608 63.2514 103.608ZM65.4884 111V105H66.3884L66.4484 106.104V111H65.4884ZM69.7004 111V107.928H70.6604V111H69.7004ZM69.7004 107.928C69.7004 107.336 69.6324 106.884 69.4964 106.572C69.3604 106.26 69.1724 106.048 68.9324 105.936C68.6924 105.816 68.4204 105.756 68.1164 105.756C67.5884 105.756 67.1764 105.944 66.8804 106.32C66.5924 106.688 66.4484 107.212 66.4484 107.892H65.9804C65.9804 107.26 66.0724 106.716 66.2564 106.26C66.4404 105.804 66.7084 105.456 67.0604 105.216C67.4124 104.976 67.8364 104.856 68.3324 104.856C68.8044 104.856 69.2124 104.952 69.5564 105.144C69.9084 105.328 70.1804 105.624 70.3724 106.032C70.5724 106.44 70.6684 106.976 70.6604 107.64V107.928H69.7004ZM74.5798 113.544C74.1958 113.544 73.8438 113.504 73.5238 113.424C73.2118 113.352 72.9438 113.268 72.7198 113.172C72.5038 113.084 72.3478 113.008 72.2518 112.944L72.6118 112.164C72.7158 112.22 72.8638 112.288 73.0558 112.368C73.2478 112.456 73.4718 112.528 73.7278 112.584C73.9918 112.648 74.2718 112.68 74.5678 112.68C74.9518 112.68 75.2958 112.6 75.5998 112.44C75.9118 112.288 76.1518 112.044 76.3198 111.708C76.4958 111.38 76.5838 110.956 76.5838 110.436V105H77.5438V110.424C77.5438 111.112 77.4158 111.688 77.1598 112.152C76.9038 112.616 76.5518 112.964 76.1038 113.196C75.6558 113.428 75.1478 113.544 74.5798 113.544ZM74.5438 110.952C74.0078 110.952 73.5358 110.824 73.1278 110.568C72.7198 110.312 72.3998 109.956 72.1678 109.5C71.9438 109.036 71.8318 108.508 71.8318 107.916C71.8318 107.308 71.9438 106.776 72.1678 106.32C72.3998 105.856 72.7198 105.496 73.1278 105.24C73.5358 104.984 74.0078 104.856 74.5438 104.856C75.0478 104.856 75.4878 104.984 75.8638 105.24C76.2398 105.496 76.5318 105.856 76.7398 106.32C76.9558 106.776 77.0638 107.308 77.0638 107.916C77.0638 108.516 76.9558 109.044 76.7398 109.5C76.5318 109.956 76.2398 110.312 75.8638 110.568C75.4878 110.824 75.0478 110.952 74.5438 110.952ZM74.7718 110.124C75.1238 110.124 75.4358 110.028 75.7078 109.836C75.9798 109.644 76.1918 109.384 76.3438 109.056C76.4958 108.72 76.5718 108.332 76.5718 107.892C76.5718 107.468 76.4918 107.092 76.3318 106.764C76.1798 106.428 75.9678 106.168 75.6958 105.984C75.4318 105.792 75.1198 105.696 74.7598 105.696C74.3838 105.696 74.0478 105.792 73.7518 105.984C73.4638 106.168 73.2358 106.428 73.0678 106.764C72.9078 107.092 72.8278 107.468 72.8278 107.892C72.8278 108.332 72.9118 108.72 73.0798 109.056C73.2478 109.384 73.4758 109.644 73.7638 109.836C74.0598 110.028 74.3958 110.124 74.7718 110.124ZM78.8628 112.38L79.5468 109.848H80.6268L79.6908 112.38H78.8628ZM90.3427 111L92.3707 105H93.3427L91.3027 111H90.3427ZM86.2627 111L88.2907 105H89.1907L87.1867 111H86.2627ZM86.2147 111L84.1747 105H85.1467L87.1507 111H86.2147ZM90.3427 111L88.3387 105H89.2507L91.2547 111H90.3427ZM94.3048 111V102.6H95.2648V111H94.3048ZM98.5288 111V107.928H99.4888V111H98.5288ZM98.5288 107.928C98.5288 107.336 98.4568 106.884 98.3128 106.572C98.1768 106.26 97.9888 106.048 97.7488 105.936C97.5088 105.816 97.2368 105.756 96.9328 105.756C96.4048 105.756 95.9928 105.944 95.6968 106.32C95.4088 106.688 95.2648 107.212 95.2648 107.892H94.7968C94.7968 107.26 94.8888 106.716 95.0728 106.26C95.2648 105.804 95.5368 105.456 95.8888 105.216C96.2408 104.976 96.6648 104.856 97.1608 104.856C97.6248 104.856 98.0328 104.952 98.3848 105.144C98.7368 105.328 99.0088 105.624 99.2008 106.032C99.4008 106.44 99.4968 106.976 99.4888 107.64V107.928H98.5288ZM103.624 111.144C103.04 111.144 102.524 111.012 102.076 110.748C101.628 110.476 101.276 110.104 101.02 109.632C100.772 109.16 100.648 108.616 100.648 108C100.648 107.384 100.772 106.84 101.02 106.368C101.276 105.896 101.624 105.528 102.064 105.264C102.512 104.992 103.024 104.856 103.6 104.856C104.16 104.856 104.644 104.996 105.052 105.276C105.46 105.548 105.776 105.932 106 106.428C106.224 106.924 106.336 107.508 106.336 108.18H101.38L101.62 107.976C101.62 108.456 101.704 108.868 101.872 109.212C102.048 109.556 102.292 109.82 102.604 110.004C102.916 110.18 103.272 110.268 103.672 110.268C104.096 110.268 104.452 110.168 104.74 109.968C105.036 109.768 105.264 109.504 105.424 109.176L106.252 109.596C106.1 109.908 105.896 110.18 105.64 110.412C105.392 110.644 105.096 110.824 104.752 110.952C104.416 111.08 104.04 111.144 103.624 111.144ZM101.68 107.568L101.428 107.376H105.568L105.316 107.58C105.316 107.196 105.24 106.864 105.088 106.584C104.936 106.304 104.732 106.088 104.476 105.936C104.22 105.784 103.924 105.708 103.588 105.708C103.26 105.708 102.948 105.784 102.652 105.936C102.364 106.088 102.128 106.304 101.944 106.584C101.768 106.856 101.68 107.184 101.68 107.568ZM108.075 107.748C108.075 107.1 108.199 106.576 108.447 106.176C108.695 105.768 109.011 105.468 109.395 105.276C109.787 105.076 110.199 104.976 110.631 104.976V105.876C110.279 105.876 109.939 105.936 109.611 106.056C109.291 106.168 109.027 106.356 108.819 106.62C108.611 106.884 108.507 107.244 108.507 107.7L108.075 107.748ZM107.547 111V105H108.507V111H107.547ZM114.23 111.144C113.646 111.144 113.13 111.012 112.682 110.748C112.234 110.476 111.882 110.104 111.626 109.632C111.378 109.16 111.254 108.616 111.254 108C111.254 107.384 111.378 106.84 111.626 106.368C111.882 105.896 112.23 105.528 112.67 105.264C113.118 104.992 113.63 104.856 114.206 104.856C114.766 104.856 115.25 104.996 115.658 105.276C116.066 105.548 116.382 105.932 116.606 106.428C116.83 106.924 116.942 107.508 116.942 108.18H111.986L112.226 107.976C112.226 108.456 112.31 108.868 112.478 109.212C112.654 109.556 112.898 109.82 113.21 110.004C113.522 110.18 113.878 110.268 114.278 110.268C114.702 110.268 115.058 110.168 115.346 109.968C115.642 109.768 115.87 109.504 116.03 109.176L116.858 109.596C116.706 109.908 116.502 110.18 116.246 110.412C115.998 110.644 115.702 110.824 115.358 110.952C115.022 111.08 114.646 111.144 114.23 111.144ZM112.286 107.568L112.034 107.376H116.174L115.922 107.58C115.922 107.196 115.846 106.864 115.694 106.584C115.542 106.304 115.338 106.088 115.082 105.936C114.826 105.784 114.53 105.708 114.194 105.708C113.866 105.708 113.554 105.784 113.258 105.936C112.97 106.088 112.734 106.304 112.55 106.584C112.374 106.856 112.286 107.184 112.286 107.568ZM124.813 111L124.765 110.016V107.832C124.765 107.36 124.713 106.972 124.609 106.668C124.505 106.356 124.341 106.12 124.117 105.96C123.893 105.8 123.601 105.72 123.241 105.72C122.913 105.72 122.629 105.788 122.389 105.924C122.157 106.052 121.965 106.26 121.813 106.548L120.949 106.212C121.101 105.932 121.285 105.692 121.501 105.492C121.717 105.284 121.969 105.128 122.257 105.024C122.545 104.912 122.873 104.856 123.241 104.856C123.801 104.856 124.261 104.968 124.621 105.192C124.989 105.408 125.265 105.732 125.449 106.164C125.633 106.588 125.721 107.116 125.713 107.748L125.701 111H124.813ZM123.013 111.144C122.309 111.144 121.757 110.984 121.357 110.664C120.965 110.336 120.769 109.884 120.769 109.308C120.769 108.7 120.969 108.236 121.369 107.916C121.777 107.588 122.345 107.424 123.073 107.424H124.789V108.228H123.289C122.729 108.228 122.329 108.32 122.089 108.504C121.857 108.688 121.741 108.952 121.741 109.296C121.741 109.608 121.857 109.856 122.089 110.04C122.321 110.216 122.645 110.304 123.061 110.304C123.405 110.304 123.705 110.232 123.961 110.088C124.217 109.936 124.413 109.724 124.549 109.452C124.693 109.172 124.765 108.844 124.765 108.468H125.173C125.173 109.284 124.989 109.936 124.621 110.424C124.253 110.904 123.717 111.144 123.013 111.144ZM127.763 107.748C127.763 107.1 127.887 106.576 128.135 106.176C128.383 105.768 128.699 105.468 129.083 105.276C129.475 105.076 129.887 104.976 130.319 104.976V105.876C129.967 105.876 129.627 105.936 129.299 106.056C128.979 106.168 128.715 106.356 128.507 106.62C128.299 106.884 128.195 107.244 128.195 107.7L127.763 107.748ZM127.235 111V105H128.195V111H127.235ZM133.917 111.144C133.333 111.144 132.817 111.012 132.369 110.748C131.921 110.476 131.569 110.104 131.313 109.632C131.065 109.16 130.941 108.616 130.941 108C130.941 107.384 131.065 106.84 131.313 106.368C131.569 105.896 131.917 105.528 132.357 105.264C132.805 104.992 133.317 104.856 133.893 104.856C134.453 104.856 134.937 104.996 135.345 105.276C135.753 105.548 136.069 105.932 136.293 106.428C136.517 106.924 136.629 107.508 136.629 108.18H131.673L131.913 107.976C131.913 108.456 131.997 108.868 132.165 109.212C132.341 109.556 132.585 109.82 132.897 110.004C133.209 110.18 133.565 110.268 133.965 110.268C134.389 110.268 134.745 110.168 135.033 109.968C135.329 109.768 135.557 109.504 135.717 109.176L136.545 109.596C136.393 109.908 136.189 110.18 135.933 110.412C135.685 110.644 135.389 110.824 135.045 110.952C134.709 111.08 134.333 111.144 133.917 111.144ZM131.973 107.568L131.721 107.376H135.861L135.609 107.58C135.609 107.196 135.533 106.864 135.381 106.584C135.229 106.304 135.025 106.088 134.769 105.936C134.513 105.784 134.217 105.708 133.881 105.708C133.553 105.708 133.241 105.784 132.945 105.936C132.657 106.088 132.421 106.304 132.237 106.584C132.061 106.856 131.973 107.184 131.973 107.568ZM141.345 113.544C141.193 113.544 141.017 113.512 140.817 113.448C140.617 113.392 140.405 113.316 140.181 113.22L140.541 112.416C140.725 112.496 140.885 112.556 141.021 112.596C141.165 112.636 141.277 112.656 141.357 112.656C141.573 112.656 141.749 112.596 141.885 112.476C142.029 112.364 142.149 112.2 142.245 111.984L142.929 110.352L145.149 105H146.181L143.301 111.84C143.149 112.192 142.989 112.496 142.821 112.752C142.661 113.008 142.465 113.204 142.233 113.34C142.001 113.476 141.705 113.544 141.345 113.544ZM142.665 111L140.073 105H141.093L143.325 110.34L143.613 111H142.665ZM149.633 111.144C149.049 111.144 148.529 111.012 148.073 110.748C147.625 110.476 147.273 110.104 147.017 109.632C146.761 109.16 146.633 108.616 146.633 108C146.633 107.384 146.757 106.84 147.005 106.368C147.261 105.896 147.613 105.528 148.061 105.264C148.517 104.992 149.033 104.856 149.609 104.856C150.201 104.856 150.721 104.992 151.169 105.264C151.625 105.528 151.977 105.896 152.225 106.368C152.481 106.84 152.609 107.384 152.609 108C152.609 108.616 152.481 109.16 152.225 109.632C151.977 110.104 151.629 110.476 151.181 110.748C150.733 111.012 150.217 111.144 149.633 111.144ZM149.633 110.256C150.033 110.256 150.381 110.16 150.677 109.968C150.973 109.776 151.205 109.512 151.373 109.176C151.549 108.84 151.637 108.448 151.637 108C151.637 107.552 151.549 107.16 151.373 106.824C151.205 106.488 150.969 106.224 150.665 106.032C150.361 105.84 150.009 105.744 149.609 105.744C149.217 105.744 148.869 105.84 148.565 106.032C148.269 106.224 148.033 106.488 147.857 106.824C147.689 107.16 147.605 107.552 147.605 108C147.605 108.44 147.689 108.832 147.857 109.176C148.033 109.512 148.273 109.776 148.577 109.968C148.889 110.16 149.241 110.256 149.633 110.256ZM158.058 111L157.998 109.896V105H158.958V111H158.058ZM153.786 108.072V105H154.746V108.072H153.786ZM154.746 108.072C154.746 108.664 154.814 109.116 154.95 109.428C155.086 109.74 155.274 109.956 155.514 110.076C155.762 110.188 156.038 110.244 156.342 110.244C156.862 110.244 157.266 110.056 157.554 109.68C157.85 109.304 157.998 108.78 157.998 108.108H158.466C158.466 108.74 158.374 109.284 158.19 109.74C158.006 110.196 157.738 110.544 157.386 110.784C157.042 111.024 156.618 111.144 156.114 111.144C155.65 111.144 155.242 111.052 154.89 110.868C154.538 110.676 154.266 110.376 154.074 109.968C153.882 109.552 153.786 109.016 153.786 108.36V108.072H154.746ZM165.698 111.144C165.258 111.144 164.874 111.08 164.546 110.952C164.218 110.816 163.942 110.64 163.718 110.424C163.502 110.208 163.346 109.972 163.25 109.716L164.09 109.368C164.226 109.64 164.43 109.86 164.702 110.028C164.974 110.196 165.274 110.28 165.602 110.28C165.978 110.28 166.294 110.208 166.55 110.064C166.806 109.912 166.934 109.7 166.934 109.428C166.934 109.18 166.838 108.98 166.646 108.828C166.462 108.676 166.186 108.552 165.818 108.456L165.242 108.3C164.698 108.156 164.274 107.94 163.97 107.652C163.666 107.356 163.514 107.024 163.514 106.656C163.514 106.088 163.698 105.648 164.066 105.336C164.442 105.016 164.998 104.856 165.734 104.856C166.086 104.856 166.406 104.908 166.694 105.012C166.982 105.116 167.23 105.264 167.438 105.456C167.646 105.64 167.798 105.86 167.894 106.116L167.054 106.488C166.95 106.216 166.778 106.02 166.538 105.9C166.298 105.78 166.006 105.72 165.662 105.72C165.294 105.72 165.006 105.8 164.798 105.96C164.59 106.112 164.486 106.328 164.486 106.608C164.486 106.768 164.57 106.92 164.738 107.064C164.914 107.2 165.17 107.312 165.506 107.4L166.106 107.556C166.498 107.652 166.826 107.796 167.09 107.988C167.354 108.172 167.554 108.384 167.69 108.624C167.826 108.864 167.894 109.12 167.894 109.392C167.894 109.752 167.798 110.064 167.606 110.328C167.414 110.592 167.154 110.796 166.826 110.94C166.498 111.076 166.122 111.144 165.698 111.144ZM171.816 111.144C171.232 111.144 170.716 111.012 170.268 110.748C169.82 110.476 169.468 110.104 169.212 109.632C168.964 109.16 168.84 108.616 168.84 108C168.84 107.384 168.964 106.84 169.212 106.368C169.468 105.896 169.816 105.528 170.256 105.264C170.704 104.992 171.216 104.856 171.792 104.856C172.352 104.856 172.836 104.996 173.244 105.276C173.652 105.548 173.968 105.932 174.192 106.428C174.416 106.924 174.528 107.508 174.528 108.18H169.572L169.812 107.976C169.812 108.456 169.896 108.868 170.064 109.212C170.24 109.556 170.484 109.82 170.796 110.004C171.108 110.18 171.464 110.268 171.864 110.268C172.288 110.268 172.644 110.168 172.932 109.968C173.228 109.768 173.456 109.504 173.616 109.176L174.444 109.596C174.292 109.908 174.088 110.18 173.832 110.412C173.584 110.644 173.288 110.824 172.944 110.952C172.608 111.08 172.232 111.144 171.816 111.144ZM169.872 107.568L169.62 107.376H173.76L173.508 107.58C173.508 107.196 173.432 106.864 173.28 106.584C173.128 106.304 172.924 106.088 172.668 105.936C172.412 105.784 172.116 105.708 171.78 105.708C171.452 105.708 171.14 105.784 170.844 105.936C170.556 106.088 170.32 106.304 170.136 106.584C169.96 106.856 169.872 107.184 169.872 107.568ZM175.738 111V105H176.638L176.698 106.104V111H175.738ZM179.95 111V107.928H180.91V111H179.95ZM179.95 107.928C179.95 107.336 179.882 106.884 179.746 106.572C179.61 106.26 179.422 106.048 179.182 105.936C178.942 105.816 178.67 105.756 178.366 105.756C177.838 105.756 177.426 105.944 177.13 106.32C176.842 106.688 176.698 107.212 176.698 107.892H176.23C176.23 107.26 176.322 106.716 176.506 106.26C176.69 105.804 176.958 105.456 177.31 105.216C177.662 104.976 178.086 104.856 178.582 104.856C179.054 104.856 179.462 104.952 179.806 105.144C180.158 105.328 180.43 105.624 180.622 106.032C180.822 106.44 180.918 106.976 180.91 107.64V107.928H179.95ZM186.87 111L186.822 109.884V102.6H187.782V111H186.87ZM184.794 111.144C184.258 111.144 183.786 111.012 183.378 110.748C182.97 110.484 182.65 110.116 182.418 109.644C182.194 109.164 182.082 108.616 182.082 108C182.082 107.376 182.194 106.828 182.418 106.356C182.65 105.884 182.97 105.516 183.378 105.252C183.786 104.988 184.258 104.856 184.794 104.856C185.298 104.856 185.738 104.988 186.114 105.252C186.498 105.516 186.794 105.884 187.002 106.356C187.21 106.828 187.314 107.376 187.314 108C187.314 108.616 187.21 109.164 187.002 109.644C186.794 110.116 186.498 110.484 186.114 110.748C185.738 111.012 185.298 111.144 184.794 111.144ZM185.01 110.268C185.362 110.268 185.674 110.172 185.946 109.98C186.218 109.788 186.43 109.52 186.582 109.176C186.742 108.832 186.822 108.44 186.822 108C186.822 107.56 186.742 107.168 186.582 106.824C186.43 106.48 186.218 106.212 185.946 106.02C185.674 105.828 185.358 105.732 184.998 105.732C184.622 105.732 184.286 105.828 183.99 106.02C183.702 106.212 183.474 106.48 183.306 106.824C183.138 107.168 183.054 107.56 183.054 108C183.054 108.44 183.138 108.832 183.306 109.176C183.474 109.52 183.706 109.788 184.002 109.98C184.298 110.172 184.634 110.268 185.01 110.268ZM189.521 111V105H190.481V111H189.521ZM190.013 103.608C189.853 103.608 189.713 103.548 189.593 103.428C189.473 103.308 189.413 103.168 189.413 103.008C189.413 102.84 189.473 102.7 189.593 102.588C189.713 102.468 189.853 102.408 190.013 102.408C190.181 102.408 190.321 102.468 190.433 102.588C190.553 102.7 190.613 102.84 190.613 103.008C190.613 103.168 190.553 103.308 190.433 103.428C190.321 103.548 190.181 103.608 190.013 103.608ZM192.25 111V105H193.15L193.21 106.104V111H192.25ZM196.462 111V107.928H197.422V111H196.462ZM196.462 107.928C196.462 107.336 196.394 106.884 196.258 106.572C196.122 106.26 195.934 106.048 195.694 105.936C195.454 105.816 195.182 105.756 194.878 105.756C194.35 105.756 193.938 105.944 193.642 106.32C193.354 106.688 193.21 107.212 193.21 107.892H192.742C192.742 107.26 192.834 106.716 193.018 106.26C193.202 105.804 193.47 105.456 193.822 105.216C194.174 104.976 194.598 104.856 195.094 104.856C195.566 104.856 195.974 104.952 196.318 105.144C196.67 105.328 196.942 105.624 197.134 106.032C197.334 106.44 197.43 106.976 197.422 107.64V107.928H196.462ZM201.342 113.544C200.958 113.544 200.606 113.504 200.286 113.424C199.974 113.352 199.706 113.268 199.482 113.172C199.266 113.084 199.11 113.008 199.014 112.944L199.374 112.164C199.478 112.22 199.626 112.288 199.818 112.368C200.01 112.456 200.234 112.528 200.49 112.584C200.754 112.648 201.034 112.68 201.33 112.68C201.714 112.68 202.058 112.6 202.362 112.44C202.674 112.288 202.914 112.044 203.082 111.708C203.258 111.38 203.346 110.956 203.346 110.436V105H204.306V110.424C204.306 111.112 204.178 111.688 203.922 112.152C203.666 112.616 203.314 112.964 202.866 113.196C202.418 113.428 201.91 113.544 201.342 113.544ZM201.306 110.952C200.77 110.952 200.298 110.824 199.89 110.568C199.482 110.312 199.162 109.956 198.93 109.5C198.706 109.036 198.594 108.508 198.594 107.916C198.594 107.308 198.706 106.776 198.93 106.32C199.162 105.856 199.482 105.496 199.89 105.24C200.298 104.984 200.77 104.856 201.306 104.856C201.81 104.856 202.25 104.984 202.626 105.24C203.002 105.496 203.294 105.856 203.502 106.32C203.718 106.776 203.826 107.308 203.826 107.916C203.826 108.516 203.718 109.044 203.502 109.5C203.294 109.956 203.002 110.312 202.626 110.568C202.25 110.824 201.81 110.952 201.306 110.952ZM201.534 110.124C201.886 110.124 202.198 110.028 202.47 109.836C202.742 109.644 202.954 109.384 203.106 109.056C203.258 108.72 203.334 108.332 203.334 107.892C203.334 107.468 203.254 107.092 203.094 106.764C202.942 106.428 202.73 106.168 202.458 105.984C202.194 105.792 201.882 105.696 201.522 105.696C201.146 105.696 200.81 105.792 200.514 105.984C200.226 106.168 199.998 106.428 199.83 106.764C199.67 107.092 199.59 107.468 199.59 107.892C199.59 108.332 199.674 108.72 199.842 109.056C200.01 109.384 200.238 109.644 200.526 109.836C200.822 110.028 201.158 110.124 201.534 110.124ZM211.205 111.144C210.621 111.144 210.169 110.992 209.849 110.688C209.529 110.384 209.369 109.956 209.369 109.404V103.128H210.329V109.308C210.329 109.612 210.409 109.848 210.569 110.016C210.737 110.176 210.969 110.256 211.265 110.256C211.361 110.256 211.453 110.244 211.541 110.22C211.637 110.188 211.761 110.116 211.913 110.004L212.285 110.784C212.077 110.92 211.889 111.012 211.721 111.06C211.553 111.116 211.381 111.144 211.205 111.144ZM208.325 105.852V105H212.129V105.852H208.325ZM216.101 111.144C215.517 111.144 214.997 111.012 214.541 110.748C214.093 110.476 213.741 110.104 213.485 109.632C213.229 109.16 213.101 108.616 213.101 108C213.101 107.384 213.225 106.84 213.473 106.368C213.729 105.896 214.081 105.528 214.529 105.264C214.985 104.992 215.501 104.856 216.077 104.856C216.669 104.856 217.189 104.992 217.637 105.264C218.093 105.528 218.445 105.896 218.693 106.368C218.949 106.84 219.077 107.384 219.077 108C219.077 108.616 218.949 109.16 218.693 109.632C218.445 110.104 218.097 110.476 217.649 110.748C217.201 111.012 216.685 111.144 216.101 111.144ZM216.101 110.256C216.501 110.256 216.849 110.16 217.145 109.968C217.441 109.776 217.673 109.512 217.841 109.176C218.017 108.84 218.105 108.448 218.105 108C218.105 107.552 218.017 107.16 217.841 106.824C217.673 106.488 217.437 106.224 217.133 106.032C216.829 105.84 216.477 105.744 216.077 105.744C215.685 105.744 215.337 105.84 215.033 106.032C214.737 106.224 214.501 106.488 214.325 106.824C214.157 107.16 214.073 107.552 214.073 108C214.073 108.44 214.157 108.832 214.325 109.176C214.501 109.512 214.741 109.776 215.045 109.968C215.357 110.16 215.709 110.256 216.101 110.256ZM221.67 108.744L221.658 106.608L222.282 106.584C222.81 106.576 223.242 106.428 223.578 106.14C223.914 105.844 224.082 105.444 224.082 104.94C224.082 104.484 223.922 104.108 223.602 103.812C223.29 103.508 222.882 103.356 222.378 103.356C222.01 103.356 221.686 103.444 221.406 103.62C221.134 103.788 220.95 104 220.854 104.256L219.954 103.98C220.114 103.532 220.402 103.168 220.818 102.888C221.242 102.6 221.762 102.456 222.378 102.456C222.906 102.456 223.37 102.564 223.77 102.78C224.17 102.988 224.486 103.28 224.718 103.656C224.95 104.032 225.066 104.46 225.066 104.94C225.066 105.396 224.962 105.8 224.754 106.152C224.554 106.504 224.274 106.788 223.914 107.004C223.554 107.212 223.134 107.336 222.654 107.376V108.744H221.67ZM222.162 111.168C221.97 111.168 221.81 111.104 221.682 110.976C221.554 110.848 221.49 110.692 221.49 110.508C221.49 110.316 221.554 110.156 221.682 110.028C221.81 109.9 221.97 109.836 222.162 109.836C222.354 109.836 222.51 109.9 222.63 110.028C222.758 110.156 222.822 110.316 222.822 110.508C222.822 110.692 222.758 110.848 222.63 110.976C222.51 111.104 222.354 111.168 222.162 111.168Z" fill="#171A16"/>
</g>
<defs>
<clipPath id="clip0_1246_7859">
<rect width="291" height="137" fill="white"/>
</clipPath>
</defs>
</svg>
