<svg width="19" height="20" viewBox="0 0 19 20" fill="none" xmlns="http://www.w3.org/2000/svg">
<path d="M8.53061 2.3335C8.9623 5.05625 9.42143 6.47119 10.8347 8.68979C12.3288 9.75794 13.9267 10.2348 17.0612 11.0418C13.9737 11.4368 12.4369 11.8132 10.8347 13.3939C9.1961 15.6577 8.74296 17.0698 8.53061 19.7502C8.36704 17.3297 7.88927 15.8883 6.22657 13.3939C3.71006 11.631 2.36953 11.3507 0 11.0418C2.91847 10.7819 4.36297 10.376 6.22657 8.68979C7.63954 6.73286 8.06465 5.26425 8.53061 2.3335Z" fill="url(#paint0_linear_5963_1479)"/>
<path d="M14.735 0.75C14.9509 2.11138 15.1804 2.81885 15.8871 3.92815C16.6341 4.46222 17.4331 4.70063 19.0003 5.10417C17.4566 5.30164 16.6882 5.48983 15.8871 6.28019C15.0678 7.41212 14.8412 8.11816 14.735 9.45833C14.6532 8.2481 14.4144 7.52741 13.583 6.28019C12.3248 5.39875 11.6545 5.25862 10.4697 5.10417C11.929 4.97421 12.6512 4.77125 13.583 3.92815C14.2895 2.94968 14.5021 2.21538 14.735 0.75Z" fill="url(#paint1_linear_5963_1479)"/>
<defs>
<linearGradient id="paint0_linear_5963_1479" x1="8.53061" y1="2.3335" x2="8.53061" y2="19.7502" gradientUnits="userSpaceOnUse">
<stop stop-color="#CA62EF"/>
<stop offset="0.478125" stop-color="#4B92FB"/>
<stop offset="0.972916" stop-color="#F6C0D1"/>
</linearGradient>
<linearGradient id="paint1_linear_5963_1479" x1="14.735" y1="0.75" x2="14.735" y2="9.45833" gradientUnits="userSpaceOnUse">
<stop stop-color="#CA62EF"/>
<stop offset="0.478125" stop-color="#4B92FB"/>
<stop offset="0.972916" stop-color="#F6C0D1"/>
</linearGradient>
</defs>
</svg>
