<svg width="291" height="137" viewBox="0 0 291 137" fill="none" xmlns="http://www.w3.org/2000/svg">
<rect width="291" height="137" fill="#FAFAFA"/>
<rect x="15" y="66" width="261" height="52" rx="8" fill="white"/>
<path d="M30.616 87V78.6H33.352C33.896 78.6 34.376 78.712 34.792 78.936C35.216 79.16 35.544 79.472 35.776 79.872C36.016 80.272 36.136 80.736 36.136 81.264C36.136 81.776 36.028 82.232 35.812 82.632C35.596 83.032 35.3 83.348 34.924 83.58C34.548 83.804 34.112 83.916 33.616 83.916H31.636V87H30.616ZM31.636 82.992H33.616C34.056 82.992 34.416 82.832 34.696 82.512C34.984 82.184 35.128 81.768 35.128 81.264C35.128 80.744 34.96 80.324 34.624 80.004C34.288 79.684 33.86 79.524 33.34 79.524H31.636V82.992ZM37.2892 87V78.6H38.2492V87H37.2892ZM42.5539 87.144C41.9699 87.144 41.4539 87.012 41.0059 86.748C40.5579 86.476 40.2059 86.104 39.9499 85.632C39.7019 85.16 39.5779 84.616 39.5779 84C39.5779 83.384 39.7019 82.84 39.9499 82.368C40.2059 81.896 40.5539 81.528 40.9939 81.264C41.4419 80.992 41.9539 80.856 42.5299 80.856C43.0899 80.856 43.5739 80.996 43.9819 81.276C44.3899 81.548 44.7059 81.932 44.9299 82.428C45.1539 82.924 45.2659 83.508 45.2659 84.18H40.3099L40.5499 83.976C40.5499 84.456 40.6339 84.868 40.8019 85.212C40.9779 85.556 41.2219 85.82 41.5339 86.004C41.8459 86.18 42.2019 86.268 42.6019 86.268C43.0259 86.268 43.3819 86.168 43.6699 85.968C43.9659 85.768 44.1939 85.504 44.3539 85.176L45.1819 85.596C45.0299 85.908 44.8259 86.18 44.5699 86.412C44.3219 86.644 44.0259 86.824 43.6819 86.952C43.3459 87.08 42.9699 87.144 42.5539 87.144ZM40.6099 83.568L40.3579 83.376H44.4979L44.2459 83.58C44.2459 83.196 44.1699 82.864 44.0179 82.584C43.8659 82.304 43.6619 82.088 43.4059 81.936C43.1499 81.784 42.8539 81.708 42.5179 81.708C42.1899 81.708 41.8779 81.784 41.5819 81.936C41.2939 82.088 41.0579 82.304 40.8739 82.584C40.6979 82.856 40.6099 83.184 40.6099 83.568ZM50.1727 87L50.1247 86.016V83.832C50.1247 83.36 50.0727 82.972 49.9687 82.668C49.8647 82.356 49.7007 82.12 49.4767 81.96C49.2527 81.8 48.9607 81.72 48.6007 81.72C48.2727 81.72 47.9887 81.788 47.7487 81.924C47.5167 82.052 47.3247 82.26 47.1727 82.548L46.3087 82.212C46.4607 81.932 46.6447 81.692 46.8607 81.492C47.0767 81.284 47.3287 81.128 47.6167 81.024C47.9047 80.912 48.2327 80.856 48.6007 80.856C49.1607 80.856 49.6207 80.968 49.9807 81.192C50.3487 81.408 50.6247 81.732 50.8087 82.164C50.9927 82.588 51.0807 83.116 51.0727 83.748L51.0607 87H50.1727ZM48.3727 87.144C47.6687 87.144 47.1167 86.984 46.7167 86.664C46.3247 86.336 46.1287 85.884 46.1287 85.308C46.1287 84.7 46.3287 84.236 46.7287 83.916C47.1367 83.588 47.7047 83.424 48.4327 83.424H50.1487V84.228H48.6487C48.0887 84.228 47.6887 84.32 47.4487 84.504C47.2167 84.688 47.1007 84.952 47.1007 85.296C47.1007 85.608 47.2167 85.856 47.4487 86.04C47.6807 86.216 48.0047 86.304 48.4207 86.304C48.7647 86.304 49.0647 86.232 49.3207 86.088C49.5767 85.936 49.7727 85.724 49.9087 85.452C50.0527 85.172 50.1247 84.844 50.1247 84.468H50.5327C50.5327 85.284 50.3487 85.936 49.9807 86.424C49.6127 86.904 49.0767 87.144 48.3727 87.144ZM54.6939 87.144C54.2539 87.144 53.8699 87.08 53.5419 86.952C53.2139 86.816 52.9379 86.64 52.7139 86.424C52.4979 86.208 52.3419 85.972 52.2459 85.716L53.0859 85.368C53.2219 85.64 53.4259 85.86 53.6979 86.028C53.9699 86.196 54.2699 86.28 54.5979 86.28C54.9739 86.28 55.2899 86.208 55.5459 86.064C55.8019 85.912 55.9299 85.7 55.9299 85.428C55.9299 85.18 55.8339 84.98 55.6419 84.828C55.4579 84.676 55.1819 84.552 54.8139 84.456L54.2379 84.3C53.6939 84.156 53.2699 83.94 52.9659 83.652C52.6619 83.356 52.5099 83.024 52.5099 82.656C52.5099 82.088 52.6939 81.648 53.0619 81.336C53.4379 81.016 53.9939 80.856 54.7299 80.856C55.0819 80.856 55.4019 80.908 55.6899 81.012C55.9779 81.116 56.2259 81.264 56.4339 81.456C56.6419 81.64 56.7939 81.86 56.8899 82.116L56.0499 82.488C55.9459 82.216 55.7739 82.02 55.5339 81.9C55.2939 81.78 55.0019 81.72 54.6579 81.72C54.2899 81.72 54.0019 81.8 53.7939 81.96C53.5859 82.112 53.4819 82.328 53.4819 82.608C53.4819 82.768 53.5659 82.92 53.7339 83.064C53.9099 83.2 54.1659 83.312 54.5019 83.4L55.1019 83.556C55.4939 83.652 55.8219 83.796 56.0859 83.988C56.3499 84.172 56.5499 84.384 56.6859 84.624C56.8219 84.864 56.8899 85.12 56.8899 85.392C56.8899 85.752 56.7939 86.064 56.6019 86.328C56.4099 86.592 56.1499 86.796 55.8219 86.94C55.4939 87.076 55.1179 87.144 54.6939 87.144ZM60.8118 87.144C60.2278 87.144 59.7118 87.012 59.2638 86.748C58.8158 86.476 58.4638 86.104 58.2078 85.632C57.9598 85.16 57.8358 84.616 57.8358 84C57.8358 83.384 57.9598 82.84 58.2078 82.368C58.4638 81.896 58.8118 81.528 59.2518 81.264C59.6998 80.992 60.2118 80.856 60.7878 80.856C61.3478 80.856 61.8318 80.996 62.2398 81.276C62.6478 81.548 62.9638 81.932 63.1878 82.428C63.4118 82.924 63.5238 83.508 63.5238 84.18H58.5678L58.8078 83.976C58.8078 84.456 58.8918 84.868 59.0598 85.212C59.2358 85.556 59.4798 85.82 59.7918 86.004C60.1038 86.18 60.4598 86.268 60.8598 86.268C61.2838 86.268 61.6398 86.168 61.9278 85.968C62.2238 85.768 62.4518 85.504 62.6118 85.176L63.4398 85.596C63.2878 85.908 63.0838 86.18 62.8278 86.412C62.5798 86.644 62.2838 86.824 61.9398 86.952C61.6038 87.08 61.2278 87.144 60.8118 87.144ZM58.8678 83.568L58.6158 83.376H62.7558L62.5038 83.58C62.5038 83.196 62.4278 82.864 62.2758 82.584C62.1238 82.304 61.9198 82.088 61.6638 81.936C61.4078 81.784 61.1118 81.708 60.7758 81.708C60.4478 81.708 60.1358 81.784 59.8398 81.936C59.5518 82.088 59.3158 82.304 59.1318 82.584C58.9558 82.856 58.8678 83.184 58.8678 83.568ZM69.7994 87.144C69.3594 87.144 68.9754 87.08 68.6474 86.952C68.3194 86.816 68.0434 86.64 67.8194 86.424C67.6034 86.208 67.4474 85.972 67.3514 85.716L68.1914 85.368C68.3274 85.64 68.5314 85.86 68.8034 86.028C69.0754 86.196 69.3754 86.28 69.7034 86.28C70.0794 86.28 70.3954 86.208 70.6514 86.064C70.9074 85.912 71.0354 85.7 71.0354 85.428C71.0354 85.18 70.9394 84.98 70.7474 84.828C70.5634 84.676 70.2874 84.552 69.9194 84.456L69.3434 84.3C68.7994 84.156 68.3754 83.94 68.0714 83.652C67.7674 83.356 67.6154 83.024 67.6154 82.656C67.6154 82.088 67.7994 81.648 68.1674 81.336C68.5434 81.016 69.0994 80.856 69.8354 80.856C70.1874 80.856 70.5074 80.908 70.7954 81.012C71.0834 81.116 71.3314 81.264 71.5394 81.456C71.7474 81.64 71.8994 81.86 71.9954 82.116L71.1554 82.488C71.0514 82.216 70.8794 82.02 70.6394 81.9C70.3994 81.78 70.1074 81.72 69.7634 81.72C69.3954 81.72 69.1074 81.8 68.8994 81.96C68.6914 82.112 68.5874 82.328 68.5874 82.608C68.5874 82.768 68.6714 82.92 68.8394 83.064C69.0154 83.2 69.2714 83.312 69.6074 83.4L70.2074 83.556C70.5994 83.652 70.9274 83.796 71.1914 83.988C71.4554 84.172 71.6554 84.384 71.7914 84.624C71.9274 84.864 71.9954 85.12 71.9954 85.392C71.9954 85.752 71.8994 86.064 71.7074 86.328C71.5154 86.592 71.2554 86.796 70.9274 86.94C70.5994 87.076 70.2234 87.144 69.7994 87.144ZM73.2892 87V78.6H74.2492V87H73.2892ZM77.5132 87V83.928H78.4732V87H77.5132ZM77.5132 83.928C77.5132 83.336 77.4412 82.884 77.2972 82.572C77.1612 82.26 76.9732 82.048 76.7332 81.936C76.4932 81.816 76.2212 81.756 75.9172 81.756C75.3892 81.756 74.9772 81.944 74.6812 82.32C74.3932 82.688 74.2492 83.212 74.2492 83.892H73.7812C73.7812 83.26 73.8732 82.716 74.0572 82.26C74.2492 81.804 74.5212 81.456 74.8732 81.216C75.2252 80.976 75.6492 80.856 76.1452 80.856C76.6092 80.856 77.0172 80.952 77.3692 81.144C77.7212 81.328 77.9932 81.624 78.1852 82.032C78.3852 82.44 78.4812 82.976 78.4732 83.64V83.928H77.5132ZM83.6766 87L83.6286 86.016V83.832C83.6286 83.36 83.5766 82.972 83.4726 82.668C83.3686 82.356 83.2046 82.12 82.9806 81.96C82.7566 81.8 82.4646 81.72 82.1046 81.72C81.7766 81.72 81.4926 81.788 81.2526 81.924C81.0206 82.052 80.8286 82.26 80.6766 82.548L79.8126 82.212C79.9646 81.932 80.1486 81.692 80.3646 81.492C80.5806 81.284 80.8326 81.128 81.1206 81.024C81.4086 80.912 81.7366 80.856 82.1046 80.856C82.6646 80.856 83.1246 80.968 83.4846 81.192C83.8526 81.408 84.1286 81.732 84.3126 82.164C84.4966 82.588 84.5846 83.116 84.5766 83.748L84.5646 87H83.6766ZM81.8766 87.144C81.1726 87.144 80.6206 86.984 80.2206 86.664C79.8286 86.336 79.6326 85.884 79.6326 85.308C79.6326 84.7 79.8326 84.236 80.2326 83.916C80.6406 83.588 81.2086 83.424 81.9366 83.424H83.6526V84.228H82.1526C81.5926 84.228 81.1926 84.32 80.9526 84.504C80.7206 84.688 80.6046 84.952 80.6046 85.296C80.6046 85.608 80.7206 85.856 80.9526 86.04C81.1846 86.216 81.5086 86.304 81.9246 86.304C82.2686 86.304 82.5686 86.232 82.8246 86.088C83.0806 85.936 83.2766 85.724 83.4126 85.452C83.5566 85.172 83.6286 84.844 83.6286 84.468H84.0366C84.0366 85.284 83.8526 85.936 83.4846 86.424C83.1166 86.904 82.5806 87.144 81.8766 87.144ZM86.6258 83.748C86.6258 83.1 86.7498 82.576 86.9978 82.176C87.2458 81.768 87.5618 81.468 87.9458 81.276C88.3378 81.076 88.7498 80.976 89.1818 80.976V81.876C88.8298 81.876 88.4898 81.936 88.1618 82.056C87.8418 82.168 87.5778 82.356 87.3698 82.62C87.1618 82.884 87.0578 83.244 87.0578 83.7L86.6258 83.748ZM86.0978 87V81H87.0578V87H86.0978ZM92.7805 87.144C92.1965 87.144 91.6805 87.012 91.2325 86.748C90.7845 86.476 90.4325 86.104 90.1765 85.632C89.9285 85.16 89.8045 84.616 89.8045 84C89.8045 83.384 89.9285 82.84 90.1765 82.368C90.4325 81.896 90.7805 81.528 91.2205 81.264C91.6685 80.992 92.1805 80.856 92.7565 80.856C93.3165 80.856 93.8005 80.996 94.2085 81.276C94.6165 81.548 94.9325 81.932 95.1565 82.428C95.3805 82.924 95.4925 83.508 95.4925 84.18H90.5365L90.7765 83.976C90.7765 84.456 90.8605 84.868 91.0285 85.212C91.2045 85.556 91.4485 85.82 91.7605 86.004C92.0725 86.18 92.4285 86.268 92.8285 86.268C93.2525 86.268 93.6085 86.168 93.8965 85.968C94.1925 85.768 94.4205 85.504 94.5805 85.176L95.4085 85.596C95.2565 85.908 95.0525 86.18 94.7965 86.412C94.5485 86.644 94.2525 86.824 93.9085 86.952C93.5725 87.08 93.1965 87.144 92.7805 87.144ZM90.8365 83.568L90.5845 83.376H94.7245L94.4725 83.58C94.4725 83.196 94.3965 82.864 94.2445 82.584C94.0925 82.304 93.8885 82.088 93.6325 81.936C93.3765 81.784 93.0805 81.708 92.7445 81.708C92.4165 81.708 92.1045 81.784 91.8085 81.936C91.5205 82.088 91.2845 82.304 91.1005 82.584C90.9245 82.856 90.8365 83.184 90.8365 83.568ZM101.924 87.144C101.34 87.144 100.888 86.992 100.568 86.688C100.248 86.384 100.088 85.956 100.088 85.404V79.128H101.048V85.308C101.048 85.612 101.128 85.848 101.288 86.016C101.456 86.176 101.688 86.256 101.984 86.256C102.08 86.256 102.172 86.244 102.26 86.22C102.356 86.188 102.48 86.116 102.632 86.004L103.004 86.784C102.796 86.92 102.608 87.012 102.44 87.06C102.272 87.116 102.1 87.144 101.924 87.144ZM99.0441 81.852V81H102.848V81.852H99.0441ZM104.203 87V78.6H105.163V87H104.203ZM108.427 87V83.928H109.387V87H108.427ZM108.427 83.928C108.427 83.336 108.355 82.884 108.211 82.572C108.075 82.26 107.887 82.048 107.647 81.936C107.407 81.816 107.135 81.756 106.831 81.756C106.303 81.756 105.891 81.944 105.595 82.32C105.307 82.688 105.163 83.212 105.163 83.892H104.695C104.695 83.26 104.787 82.716 104.971 82.26C105.163 81.804 105.435 81.456 105.787 81.216C106.139 80.976 106.563 80.856 107.059 80.856C107.523 80.856 107.931 80.952 108.283 81.144C108.635 81.328 108.907 81.624 109.099 82.032C109.299 82.44 109.395 82.976 109.387 83.64V83.928H108.427ZM113.523 87.144C112.939 87.144 112.423 87.012 111.975 86.748C111.527 86.476 111.175 86.104 110.919 85.632C110.671 85.16 110.547 84.616 110.547 84C110.547 83.384 110.671 82.84 110.919 82.368C111.175 81.896 111.523 81.528 111.963 81.264C112.411 80.992 112.923 80.856 113.499 80.856C114.059 80.856 114.543 80.996 114.951 81.276C115.359 81.548 115.675 81.932 115.899 82.428C116.123 82.924 116.235 83.508 116.235 84.18H111.279L111.519 83.976C111.519 84.456 111.603 84.868 111.771 85.212C111.947 85.556 112.191 85.82 112.503 86.004C112.815 86.18 113.171 86.268 113.571 86.268C113.995 86.268 114.351 86.168 114.639 85.968C114.935 85.768 115.163 85.504 115.323 85.176L116.151 85.596C115.999 85.908 115.795 86.18 115.539 86.412C115.291 86.644 114.995 86.824 114.651 86.952C114.315 87.08 113.939 87.144 113.523 87.144ZM111.579 83.568L111.327 83.376H115.467L115.215 83.58C115.215 83.196 115.139 82.864 114.987 82.584C114.835 82.304 114.631 82.088 114.375 81.936C114.119 81.784 113.823 81.708 113.487 81.708C113.159 81.708 112.847 81.784 112.551 81.936C112.263 82.088 112.027 82.304 111.843 82.584C111.667 82.856 111.579 83.184 111.579 83.568ZM124.85 87L124.802 85.884V78.6H125.762V87H124.85ZM122.774 87.144C122.238 87.144 121.766 87.012 121.358 86.748C120.95 86.484 120.63 86.116 120.398 85.644C120.174 85.164 120.062 84.616 120.062 84C120.062 83.376 120.174 82.828 120.398 82.356C120.63 81.884 120.95 81.516 121.358 81.252C121.766 80.988 122.238 80.856 122.774 80.856C123.278 80.856 123.718 80.988 124.094 81.252C124.478 81.516 124.774 81.884 124.982 82.356C125.19 82.828 125.294 83.376 125.294 84C125.294 84.616 125.19 85.164 124.982 85.644C124.774 86.116 124.478 86.484 124.094 86.748C123.718 87.012 123.278 87.144 122.774 87.144ZM122.99 86.268C123.342 86.268 123.654 86.172 123.926 85.98C124.198 85.788 124.41 85.52 124.562 85.176C124.722 84.832 124.802 84.44 124.802 84C124.802 83.56 124.722 83.168 124.562 82.824C124.41 82.48 124.198 82.212 123.926 82.02C123.654 81.828 123.338 81.732 122.978 81.732C122.602 81.732 122.266 81.828 121.97 82.02C121.682 82.212 121.454 82.48 121.286 82.824C121.118 83.168 121.034 83.56 121.034 84C121.034 84.44 121.118 84.832 121.286 85.176C121.454 85.52 121.686 85.788 121.982 85.98C122.278 86.172 122.614 86.268 122.99 86.268ZM130.07 87.144C129.486 87.144 128.97 87.012 128.522 86.748C128.074 86.476 127.722 86.104 127.466 85.632C127.218 85.16 127.094 84.616 127.094 84C127.094 83.384 127.218 82.84 127.466 82.368C127.722 81.896 128.07 81.528 128.51 81.264C128.958 80.992 129.47 80.856 130.046 80.856C130.606 80.856 131.09 80.996 131.498 81.276C131.906 81.548 132.222 81.932 132.446 82.428C132.67 82.924 132.782 83.508 132.782 84.18H127.826L128.066 83.976C128.066 84.456 128.15 84.868 128.318 85.212C128.494 85.556 128.738 85.82 129.05 86.004C129.362 86.18 129.718 86.268 130.118 86.268C130.542 86.268 130.898 86.168 131.186 85.968C131.482 85.768 131.71 85.504 131.87 85.176L132.698 85.596C132.546 85.908 132.342 86.18 132.086 86.412C131.838 86.644 131.542 86.824 131.198 86.952C130.862 87.08 130.486 87.144 130.07 87.144ZM128.126 83.568L127.874 83.376H132.014L131.762 83.58C131.762 83.196 131.686 82.864 131.534 82.584C131.382 82.304 131.178 82.088 130.922 81.936C130.666 81.784 130.37 81.708 130.034 81.708C129.706 81.708 129.394 81.784 129.098 81.936C128.81 82.088 128.574 82.304 128.39 82.584C128.214 82.856 128.126 83.184 128.126 83.568ZM136.248 87.144C135.664 87.144 135.212 86.992 134.892 86.688C134.572 86.384 134.412 85.956 134.412 85.404V79.128H135.372V85.308C135.372 85.612 135.452 85.848 135.612 86.016C135.78 86.176 136.012 86.256 136.308 86.256C136.404 86.256 136.496 86.244 136.584 86.22C136.68 86.188 136.804 86.116 136.956 86.004L137.328 86.784C137.12 86.92 136.932 87.012 136.764 87.06C136.596 87.116 136.424 87.144 136.248 87.144ZM133.368 81.852V81H137.172V81.852H133.368ZM142.188 87L142.14 86.016V83.832C142.14 83.36 142.088 82.972 141.984 82.668C141.88 82.356 141.716 82.12 141.492 81.96C141.268 81.8 140.976 81.72 140.616 81.72C140.288 81.72 140.004 81.788 139.764 81.924C139.532 82.052 139.34 82.26 139.188 82.548L138.324 82.212C138.476 81.932 138.66 81.692 138.876 81.492C139.092 81.284 139.344 81.128 139.632 81.024C139.92 80.912 140.248 80.856 140.616 80.856C141.176 80.856 141.636 80.968 141.996 81.192C142.364 81.408 142.64 81.732 142.824 82.164C143.008 82.588 143.096 83.116 143.088 83.748L143.076 87H142.188ZM140.388 87.144C139.684 87.144 139.132 86.984 138.732 86.664C138.34 86.336 138.144 85.884 138.144 85.308C138.144 84.7 138.344 84.236 138.744 83.916C139.152 83.588 139.72 83.424 140.448 83.424H142.164V84.228H140.664C140.104 84.228 139.704 84.32 139.464 84.504C139.232 84.688 139.116 84.952 139.116 85.296C139.116 85.608 139.232 85.856 139.464 86.04C139.696 86.216 140.02 86.304 140.436 86.304C140.78 86.304 141.08 86.232 141.336 86.088C141.592 85.936 141.788 85.724 141.924 85.452C142.068 85.172 142.14 84.844 142.14 84.468H142.548C142.548 85.284 142.364 85.936 141.996 86.424C141.628 86.904 141.092 87.144 140.388 87.144ZM144.67 87V81H145.63V87H144.67ZM145.162 79.608C145.002 79.608 144.862 79.548 144.742 79.428C144.622 79.308 144.562 79.168 144.562 79.008C144.562 78.84 144.622 78.7 144.742 78.588C144.862 78.468 145.002 78.408 145.162 78.408C145.33 78.408 145.47 78.468 145.582 78.588C145.702 78.7 145.762 78.84 145.762 79.008C145.762 79.168 145.702 79.308 145.582 79.428C145.47 79.548 145.33 79.608 145.162 79.608ZM147.399 87V78.6H148.359V87H147.399ZM152.135 87.144C151.695 87.144 151.311 87.08 150.983 86.952C150.655 86.816 150.379 86.64 150.155 86.424C149.939 86.208 149.783 85.972 149.687 85.716L150.527 85.368C150.663 85.64 150.867 85.86 151.139 86.028C151.411 86.196 151.711 86.28 152.039 86.28C152.415 86.28 152.731 86.208 152.987 86.064C153.243 85.912 153.371 85.7 153.371 85.428C153.371 85.18 153.275 84.98 153.083 84.828C152.899 84.676 152.623 84.552 152.255 84.456L151.679 84.3C151.135 84.156 150.711 83.94 150.407 83.652C150.103 83.356 149.951 83.024 149.951 82.656C149.951 82.088 150.135 81.648 150.503 81.336C150.879 81.016 151.435 80.856 152.171 80.856C152.523 80.856 152.843 80.908 153.131 81.012C153.419 81.116 153.667 81.264 153.875 81.456C154.083 81.64 154.235 81.86 154.331 82.116L153.491 82.488C153.387 82.216 153.215 82.02 152.975 81.9C152.735 81.78 152.443 81.72 152.099 81.72C151.731 81.72 151.443 81.8 151.235 81.96C151.027 82.112 150.923 82.328 150.923 82.608C150.923 82.768 151.007 82.92 151.175 83.064C151.351 83.2 151.607 83.312 151.943 83.4L152.543 83.556C152.935 83.652 153.263 83.796 153.527 83.988C153.791 84.172 153.991 84.384 154.127 84.624C154.263 84.864 154.331 85.12 154.331 85.392C154.331 85.752 154.235 86.064 154.043 86.328C153.851 86.592 153.591 86.796 153.263 86.94C152.935 87.076 152.559 87.144 152.135 87.144ZM161.242 87.144C160.658 87.144 160.138 87.012 159.682 86.748C159.234 86.476 158.882 86.104 158.626 85.632C158.37 85.16 158.242 84.616 158.242 84C158.242 83.384 158.366 82.84 158.614 82.368C158.87 81.896 159.222 81.528 159.67 81.264C160.126 80.992 160.642 80.856 161.218 80.856C161.81 80.856 162.33 80.992 162.778 81.264C163.234 81.528 163.586 81.896 163.834 82.368C164.09 82.84 164.218 83.384 164.218 84C164.218 84.616 164.09 85.16 163.834 85.632C163.586 86.104 163.238 86.476 162.79 86.748C162.342 87.012 161.826 87.144 161.242 87.144ZM161.242 86.256C161.642 86.256 161.99 86.16 162.286 85.968C162.582 85.776 162.814 85.512 162.982 85.176C163.158 84.84 163.246 84.448 163.246 84C163.246 83.552 163.158 83.16 162.982 82.824C162.814 82.488 162.578 82.224 162.274 82.032C161.97 81.84 161.618 81.744 161.218 81.744C160.826 81.744 160.478 81.84 160.174 82.032C159.878 82.224 159.642 82.488 159.466 82.824C159.298 83.16 159.214 83.552 159.214 84C159.214 84.44 159.298 84.832 159.466 85.176C159.642 85.512 159.882 85.776 160.186 85.968C160.498 86.16 160.85 86.256 161.242 86.256ZM166.151 87V80.316C166.151 79.692 166.295 79.224 166.583 78.912C166.879 78.592 167.327 78.432 167.927 78.432C168.087 78.432 168.267 78.46 168.467 78.516C168.667 78.572 168.879 78.652 169.103 78.756L168.743 79.512C168.559 79.44 168.403 79.384 168.275 79.344C168.147 79.304 168.039 79.284 167.951 79.284C167.671 79.284 167.459 79.376 167.315 79.56C167.179 79.736 167.111 80.012 167.111 80.388V87H166.151ZM165.047 81.828V81H168.851V81.828H165.047ZM173.485 89.544C173.333 89.544 173.157 89.512 172.957 89.448C172.757 89.392 172.545 89.316 172.321 89.22L172.681 88.416C172.865 88.496 173.025 88.556 173.161 88.596C173.305 88.636 173.417 88.656 173.497 88.656C173.713 88.656 173.889 88.596 174.025 88.476C174.169 88.364 174.289 88.2 174.385 87.984L175.069 86.352L177.289 81H178.321L175.441 87.84C175.289 88.192 175.129 88.496 174.961 88.752C174.801 89.008 174.605 89.204 174.373 89.34C174.141 89.476 173.845 89.544 173.485 89.544ZM174.805 87L172.213 81H173.233L175.465 86.34L175.753 87H174.805ZM181.773 87.144C181.189 87.144 180.669 87.012 180.213 86.748C179.765 86.476 179.413 86.104 179.157 85.632C178.901 85.16 178.773 84.616 178.773 84C178.773 83.384 178.897 82.84 179.145 82.368C179.401 81.896 179.753 81.528 180.201 81.264C180.657 80.992 181.173 80.856 181.749 80.856C182.341 80.856 182.861 80.992 183.309 81.264C183.765 81.528 184.117 81.896 184.365 82.368C184.621 82.84 184.749 83.384 184.749 84C184.749 84.616 184.621 85.16 184.365 85.632C184.117 86.104 183.769 86.476 183.321 86.748C182.873 87.012 182.357 87.144 181.773 87.144ZM181.773 86.256C182.173 86.256 182.521 86.16 182.817 85.968C183.113 85.776 183.345 85.512 183.513 85.176C183.689 84.84 183.777 84.448 183.777 84C183.777 83.552 183.689 83.16 183.513 82.824C183.345 82.488 183.109 82.224 182.805 82.032C182.501 81.84 182.149 81.744 181.749 81.744C181.357 81.744 181.009 81.84 180.705 82.032C180.409 82.224 180.173 82.488 179.997 82.824C179.829 83.16 179.745 83.552 179.745 84C179.745 84.44 179.829 84.832 179.997 85.176C180.173 85.512 180.413 85.776 180.717 85.968C181.029 86.16 181.381 86.256 181.773 86.256ZM190.198 87L190.138 85.896V81H191.098V87H190.198ZM185.926 84.072V81H186.886V84.072H185.926ZM186.886 84.072C186.886 84.664 186.954 85.116 187.09 85.428C187.226 85.74 187.414 85.956 187.654 86.076C187.902 86.188 188.178 86.244 188.482 86.244C189.002 86.244 189.406 86.056 189.694 85.68C189.99 85.304 190.138 84.78 190.138 84.108H190.606C190.606 84.74 190.514 85.284 190.33 85.74C190.146 86.196 189.878 86.544 189.526 86.784C189.182 87.024 188.758 87.144 188.254 87.144C187.79 87.144 187.382 87.052 187.03 86.868C186.678 86.676 186.406 86.376 186.214 85.968C186.022 85.552 185.926 85.016 185.926 84.36V84.072H186.886ZM193.302 83.748C193.302 83.1 193.426 82.576 193.674 82.176C193.922 81.768 194.238 81.468 194.622 81.276C195.014 81.076 195.426 80.976 195.858 80.976V81.876C195.506 81.876 195.166 81.936 194.838 82.056C194.518 82.168 194.254 82.356 194.046 82.62C193.838 82.884 193.734 83.244 193.734 83.7L193.302 83.748ZM192.774 87V81H193.734V87H192.774ZM202.469 87.144C201.877 87.144 201.353 87.012 200.897 86.748C200.441 86.476 200.085 86.104 199.829 85.632C199.573 85.16 199.445 84.616 199.445 84C199.445 83.384 199.569 82.84 199.817 82.368C200.073 81.896 200.429 81.528 200.885 81.264C201.341 80.992 201.861 80.856 202.445 80.856C203.021 80.856 203.537 80.988 203.993 81.252C204.449 81.516 204.797 81.888 205.037 82.368L204.161 82.764C204.001 82.444 203.769 82.196 203.465 82.02C203.161 81.836 202.813 81.744 202.421 81.744C202.029 81.744 201.681 81.84 201.377 82.032C201.081 82.224 200.845 82.492 200.669 82.836C200.501 83.172 200.417 83.56 200.417 84C200.417 84.44 200.501 84.832 200.669 85.176C200.845 85.512 201.085 85.776 201.389 85.968C201.701 86.16 202.053 86.256 202.445 86.256C202.837 86.256 203.185 86.156 203.489 85.956C203.801 85.756 204.037 85.476 204.197 85.116L205.073 85.512C204.833 86.024 204.485 86.424 204.029 86.712C203.573 87 203.053 87.144 202.469 87.144ZM208.937 87.144C208.353 87.144 207.833 87.012 207.377 86.748C206.929 86.476 206.577 86.104 206.321 85.632C206.065 85.16 205.937 84.616 205.937 84C205.937 83.384 206.061 82.84 206.309 82.368C206.565 81.896 206.917 81.528 207.365 81.264C207.821 80.992 208.337 80.856 208.913 80.856C209.505 80.856 210.025 80.992 210.473 81.264C210.929 81.528 211.281 81.896 211.529 82.368C211.785 82.84 211.913 83.384 211.913 84C211.913 84.616 211.785 85.16 211.529 85.632C211.281 86.104 210.933 86.476 210.485 86.748C210.037 87.012 209.521 87.144 208.937 87.144ZM208.937 86.256C209.337 86.256 209.685 86.16 209.981 85.968C210.277 85.776 210.509 85.512 210.677 85.176C210.853 84.84 210.941 84.448 210.941 84C210.941 83.552 210.853 83.16 210.677 82.824C210.509 82.488 210.273 82.224 209.969 82.032C209.665 81.84 209.313 81.744 208.913 81.744C208.521 81.744 208.173 81.84 207.869 82.032C207.573 82.224 207.337 82.488 207.161 82.824C206.993 83.16 206.909 83.552 206.909 84C206.909 84.44 206.993 84.832 207.161 85.176C207.337 85.512 207.577 85.776 207.881 85.968C208.193 86.16 208.545 86.256 208.937 86.256ZM213.246 87V81H214.146L214.194 81.84C214.378 81.52 214.614 81.276 214.902 81.108C215.19 80.94 215.526 80.856 215.91 80.856C216.39 80.856 216.798 80.968 217.134 81.192C217.478 81.416 217.726 81.756 217.878 82.212C218.046 81.772 218.29 81.436 218.61 81.204C218.938 80.972 219.326 80.856 219.774 80.856C220.446 80.856 220.974 81.08 221.358 81.528C221.75 81.976 221.942 82.656 221.934 83.568V87H220.974V83.928C220.974 83.336 220.91 82.884 220.782 82.572C220.662 82.26 220.498 82.048 220.29 81.936C220.082 81.816 219.842 81.756 219.57 81.756C219.098 81.756 218.73 81.944 218.466 82.32C218.202 82.688 218.07 83.212 218.07 83.892V87H217.11V83.928C217.11 83.336 217.046 82.884 216.918 82.572C216.798 82.26 216.63 82.048 216.414 81.936C216.206 81.816 215.966 81.756 215.694 81.756C215.23 81.756 214.866 81.944 214.602 82.32C214.338 82.688 214.206 83.212 214.206 83.892V87H213.246ZM223.513 89.4V81H224.413L224.473 82.104V89.4H223.513ZM226.501 87.144C225.997 87.144 225.553 87.012 225.169 86.748C224.793 86.484 224.501 86.116 224.293 85.644C224.085 85.164 223.981 84.616 223.981 84C223.981 83.376 224.085 82.828 224.293 82.356C224.501 81.884 224.793 81.516 225.169 81.252C225.553 80.988 225.997 80.856 226.501 80.856C227.037 80.856 227.509 80.988 227.917 81.252C228.325 81.516 228.641 81.884 228.865 82.356C229.097 82.828 229.213 83.376 229.213 84C229.213 84.616 229.097 85.164 228.865 85.644C228.641 86.116 228.325 86.484 227.917 86.748C227.509 87.012 227.037 87.144 226.501 87.144ZM226.285 86.268C226.661 86.268 226.993 86.172 227.281 85.98C227.577 85.788 227.809 85.52 227.977 85.176C228.153 84.832 228.241 84.44 228.241 84C228.241 83.56 228.157 83.168 227.989 82.824C227.829 82.48 227.601 82.212 227.305 82.02C227.009 81.828 226.673 81.732 226.297 81.732C225.945 81.732 225.629 81.828 225.349 82.02C225.077 82.212 224.861 82.48 224.701 82.824C224.549 83.168 224.473 83.56 224.473 84C224.473 84.44 224.549 84.832 224.701 85.176C224.861 85.52 225.077 85.788 225.349 85.98C225.621 86.172 225.933 86.268 226.285 86.268ZM230.543 87V78.6H231.503V87H230.543ZM236.876 87L236.828 86.016V83.832C236.828 83.36 236.776 82.972 236.672 82.668C236.568 82.356 236.404 82.12 236.18 81.96C235.956 81.8 235.664 81.72 235.304 81.72C234.976 81.72 234.692 81.788 234.452 81.924C234.22 82.052 234.028 82.26 233.876 82.548L233.012 82.212C233.164 81.932 233.348 81.692 233.564 81.492C233.78 81.284 234.032 81.128 234.32 81.024C234.608 80.912 234.936 80.856 235.304 80.856C235.864 80.856 236.324 80.968 236.684 81.192C237.052 81.408 237.328 81.732 237.512 82.164C237.696 82.588 237.784 83.116 237.776 83.748L237.764 87H236.876ZM235.076 87.144C234.372 87.144 233.82 86.984 233.42 86.664C233.028 86.336 232.832 85.884 232.832 85.308C232.832 84.7 233.032 84.236 233.432 83.916C233.84 83.588 234.408 83.424 235.136 83.424H236.852V84.228H235.352C234.792 84.228 234.392 84.32 234.152 84.504C233.92 84.688 233.804 84.952 233.804 85.296C233.804 85.608 233.92 85.856 234.152 86.04C234.384 86.216 234.708 86.304 235.124 86.304C235.468 86.304 235.768 86.232 236.024 86.088C236.28 85.936 236.476 85.724 236.612 85.452C236.756 85.172 236.828 84.844 236.828 84.468H237.236C237.236 85.284 237.052 85.936 236.684 86.424C236.316 86.904 235.78 87.144 235.076 87.144ZM239.357 87V81H240.317V87H239.357ZM239.849 79.608C239.689 79.608 239.549 79.548 239.429 79.428C239.309 79.308 239.249 79.168 239.249 79.008C239.249 78.84 239.309 78.7 239.429 78.588C239.549 78.468 239.689 78.408 239.849 78.408C240.017 78.408 240.157 78.468 240.269 78.588C240.389 78.7 240.449 78.84 240.449 79.008C240.449 79.168 240.389 79.308 240.269 79.428C240.157 79.548 240.017 79.608 239.849 79.608ZM242.086 87V81H242.986L243.046 82.104V87H242.086ZM246.298 87V83.928H247.258V87H246.298ZM246.298 83.928C246.298 83.336 246.23 82.884 246.094 82.572C245.958 82.26 245.77 82.048 245.53 81.936C245.29 81.816 245.018 81.756 244.714 81.756C244.186 81.756 243.774 81.944 243.478 82.32C243.19 82.688 243.046 83.212 243.046 83.892H242.578C242.578 83.26 242.67 82.716 242.854 82.26C243.038 81.804 243.306 81.456 243.658 81.216C244.01 80.976 244.434 80.856 244.93 80.856C245.402 80.856 245.81 80.952 246.154 81.144C246.506 81.328 246.778 81.624 246.97 82.032C247.17 82.44 247.266 82.976 247.258 83.64V83.928H246.298ZM251.034 87.144C250.45 87.144 249.998 86.992 249.678 86.688C249.358 86.384 249.198 85.956 249.198 85.404V79.128H250.158V85.308C250.158 85.612 250.238 85.848 250.398 86.016C250.566 86.176 250.798 86.256 251.094 86.256C251.19 86.256 251.282 86.244 251.37 86.22C251.466 86.188 251.59 86.116 251.742 86.004L252.114 86.784C251.906 86.92 251.718 87.012 251.55 87.06C251.382 87.116 251.21 87.144 251.034 87.144ZM248.154 81.852V81H251.958V81.852H248.154ZM252.953 88.38L253.637 85.848H254.717L253.781 88.38H252.953ZM34.036 105L33.988 104.016V101.832C33.988 101.36 33.936 100.972 33.832 100.668C33.728 100.356 33.564 100.12 33.34 99.96C33.116 99.8 32.824 99.72 32.464 99.72C32.136 99.72 31.852 99.788 31.612 99.924C31.38 100.052 31.188 100.26 31.036 100.548L30.172 100.212C30.324 99.932 30.508 99.692 30.724 99.492C30.94 99.284 31.192 99.128 31.48 99.024C31.768 98.912 32.096 98.856 32.464 98.856C33.024 98.856 33.484 98.968 33.844 99.192C34.212 99.408 34.488 99.732 34.672 100.164C34.856 100.588 34.944 101.116 34.936 101.748L34.924 105H34.036ZM32.236 105.144C31.532 105.144 30.98 104.984 30.58 104.664C30.188 104.336 29.992 103.884 29.992 103.308C29.992 102.7 30.192 102.236 30.592 101.916C31 101.588 31.568 101.424 32.296 101.424H34.012V102.228H32.512C31.952 102.228 31.552 102.32 31.312 102.504C31.08 102.688 30.964 102.952 30.964 103.296C30.964 103.608 31.08 103.856 31.312 104.04C31.544 104.216 31.868 104.304 32.284 104.304C32.628 104.304 32.928 104.232 33.184 104.088C33.44 103.936 33.636 103.724 33.772 103.452C33.916 103.172 33.988 102.844 33.988 102.468H34.396C34.396 103.284 34.212 103.936 33.844 104.424C33.476 104.904 32.94 105.144 32.236 105.144ZM36.4572 105V99H37.3572L37.4172 100.104V105H36.4572ZM40.6692 105V101.928H41.6292V105H40.6692ZM40.6692 101.928C40.6692 101.336 40.6012 100.884 40.4652 100.572C40.3292 100.26 40.1412 100.048 39.9012 99.936C39.6612 99.816 39.3892 99.756 39.0852 99.756C38.5572 99.756 38.1452 99.944 37.8492 100.32C37.5612 100.688 37.4172 101.212 37.4172 101.892H36.9492C36.9492 101.26 37.0412 100.716 37.2252 100.26C37.4092 99.804 37.6772 99.456 38.0292 99.216C38.3812 98.976 38.8052 98.856 39.3012 98.856C39.7732 98.856 40.1812 98.952 40.5252 99.144C40.8772 99.328 41.1492 99.624 41.3412 100.032C41.5412 100.44 41.6372 100.976 41.6292 101.64V101.928H40.6692ZM47.5886 105L47.5406 103.884V96.6H48.5006V105H47.5886ZM45.5126 105.144C44.9766 105.144 44.5046 105.012 44.0966 104.748C43.6886 104.484 43.3686 104.116 43.1366 103.644C42.9126 103.164 42.8006 102.616 42.8006 102C42.8006 101.376 42.9126 100.828 43.1366 100.356C43.3686 99.884 43.6886 99.516 44.0966 99.252C44.5046 98.988 44.9766 98.856 45.5126 98.856C46.0166 98.856 46.4566 98.988 46.8326 99.252C47.2166 99.516 47.5126 99.884 47.7206 100.356C47.9286 100.828 48.0326 101.376 48.0326 102C48.0326 102.616 47.9286 103.164 47.7206 103.644C47.5126 104.116 47.2166 104.484 46.8326 104.748C46.4566 105.012 46.0166 105.144 45.5126 105.144ZM45.7286 104.268C46.0806 104.268 46.3926 104.172 46.6646 103.98C46.9366 103.788 47.1486 103.52 47.3006 103.176C47.4606 102.832 47.5406 102.44 47.5406 102C47.5406 101.56 47.4606 101.168 47.3006 100.824C47.1486 100.48 46.9366 100.212 46.6646 100.02C46.3926 99.828 46.0766 99.732 45.7166 99.732C45.3406 99.732 45.0046 99.828 44.7086 100.02C44.4206 100.212 44.1926 100.48 44.0246 100.824C43.8566 101.168 43.7726 101.56 43.7726 102C43.7726 102.44 43.8566 102.832 44.0246 103.176C44.1926 103.52 44.4246 103.788 44.7206 103.98C45.0166 104.172 45.3526 104.268 45.7286 104.268ZM53.4207 105V96.6H54.4407V105H53.4207ZM64.8153 105L66.8433 99H67.8153L65.7753 105H64.8153ZM60.7353 105L62.7633 99H63.6633L61.6593 105H60.7353ZM60.6873 105L58.6473 99H59.6193L61.6233 105H60.6873ZM64.8153 105L62.8113 99H63.7233L65.7273 105H64.8153ZM68.8375 105V99H69.7975V105H68.8375ZM69.3295 97.608C69.1695 97.608 69.0295 97.548 68.9095 97.428C68.7895 97.308 68.7295 97.168 68.7295 97.008C68.7295 96.84 68.7895 96.7 68.9095 96.588C69.0295 96.468 69.1695 96.408 69.3295 96.408C69.4975 96.408 69.6375 96.468 69.7495 96.588C69.8695 96.7 69.9295 96.84 69.9295 97.008C69.9295 97.168 69.8695 97.308 69.7495 97.428C69.6375 97.548 69.4975 97.608 69.3295 97.608ZM71.5666 105V96.6H72.5266V105H71.5666ZM74.2033 105V96.6H75.1633V105H74.2033ZM84.2448 105L84.1968 103.884V96.6H85.1568V105H84.2448ZM82.1688 105.144C81.6328 105.144 81.1608 105.012 80.7528 104.748C80.3448 104.484 80.0248 104.116 79.7928 103.644C79.5688 103.164 79.4568 102.616 79.4568 102C79.4568 101.376 79.5688 100.828 79.7928 100.356C80.0248 99.884 80.3448 99.516 80.7528 99.252C81.1608 98.988 81.6328 98.856 82.1688 98.856C82.6728 98.856 83.1128 98.988 83.4888 99.252C83.8728 99.516 84.1688 99.884 84.3768 100.356C84.5848 100.828 84.6888 101.376 84.6888 102C84.6888 102.616 84.5848 103.164 84.3768 103.644C84.1688 104.116 83.8728 104.484 83.4888 104.748C83.1128 105.012 82.6728 105.144 82.1688 105.144ZM82.3848 104.268C82.7368 104.268 83.0488 104.172 83.3208 103.98C83.5928 103.788 83.8048 103.52 83.9568 103.176C84.1168 102.832 84.1968 102.44 84.1968 102C84.1968 101.56 84.1168 101.168 83.9568 100.824C83.8048 100.48 83.5928 100.212 83.3208 100.02C83.0488 99.828 82.7328 99.732 82.3728 99.732C81.9968 99.732 81.6608 99.828 81.3648 100.02C81.0768 100.212 80.8488 100.48 80.6808 100.824C80.5128 101.168 80.4288 101.56 80.4288 102C80.4288 102.44 80.5128 102.832 80.6808 103.176C80.8488 103.52 81.0808 103.788 81.3768 103.98C81.6728 104.172 82.0088 104.268 82.3848 104.268ZM89.4881 105.144C88.9041 105.144 88.3841 105.012 87.9281 104.748C87.4801 104.476 87.1281 104.104 86.8721 103.632C86.6161 103.16 86.4881 102.616 86.4881 102C86.4881 101.384 86.6121 100.84 86.8601 100.368C87.1161 99.896 87.4681 99.528 87.9161 99.264C88.3721 98.992 88.8881 98.856 89.4641 98.856C90.0561 98.856 90.5761 98.992 91.0241 99.264C91.4801 99.528 91.8321 99.896 92.0801 100.368C92.3361 100.84 92.4641 101.384 92.4641 102C92.4641 102.616 92.3361 103.16 92.0801 103.632C91.8321 104.104 91.4841 104.476 91.0361 104.748C90.5881 105.012 90.0721 105.144 89.4881 105.144ZM89.4881 104.256C89.8881 104.256 90.2361 104.16 90.5321 103.968C90.8281 103.776 91.0601 103.512 91.2281 103.176C91.4041 102.84 91.4921 102.448 91.4921 102C91.4921 101.552 91.4041 101.16 91.2281 100.824C91.0601 100.488 90.8241 100.224 90.5201 100.032C90.2161 99.84 89.8641 99.744 89.4641 99.744C89.0721 99.744 88.7241 99.84 88.4201 100.032C88.1241 100.224 87.8881 100.488 87.7121 100.824C87.5441 101.16 87.4601 101.552 87.4601 102C87.4601 102.44 87.5441 102.832 87.7121 103.176C87.8881 103.512 88.1281 103.776 88.4321 103.968C88.7441 104.16 89.0961 104.256 89.4881 104.256ZM96.7619 105V99H97.6619L97.7099 99.84C97.8939 99.52 98.1299 99.276 98.4179 99.108C98.7059 98.94 99.0419 98.856 99.4259 98.856C99.9059 98.856 100.314 98.968 100.65 99.192C100.994 99.416 101.242 99.756 101.394 100.212C101.562 99.772 101.806 99.436 102.126 99.204C102.454 98.972 102.842 98.856 103.29 98.856C103.962 98.856 104.49 99.08 104.874 99.528C105.266 99.976 105.458 100.656 105.45 101.568V105H104.49V101.928C104.49 101.336 104.426 100.884 104.298 100.572C104.178 100.26 104.014 100.048 103.806 99.936C103.598 99.816 103.358 99.756 103.086 99.756C102.614 99.756 102.246 99.944 101.982 100.32C101.718 100.688 101.586 101.212 101.586 101.892V105H100.626V101.928C100.626 101.336 100.562 100.884 100.434 100.572C100.314 100.26 100.146 100.048 99.9299 99.936C99.7219 99.816 99.4819 99.756 99.2099 99.756C98.7459 99.756 98.3819 99.944 98.1179 100.32C97.8539 100.688 97.7219 101.212 97.7219 101.892V105H96.7619ZM107.415 107.544C107.263 107.544 107.087 107.512 106.887 107.448C106.687 107.392 106.475 107.316 106.251 107.22L106.611 106.416C106.795 106.496 106.955 106.556 107.091 106.596C107.235 106.636 107.347 106.656 107.427 106.656C107.643 106.656 107.819 106.596 107.955 106.476C108.099 106.364 108.219 106.2 108.315 105.984L108.999 104.352L111.219 99H112.251L109.371 105.84C109.219 106.192 109.059 106.496 108.891 106.752C108.731 107.008 108.535 107.204 108.303 107.34C108.071 107.476 107.775 107.544 107.415 107.544ZM108.735 105L106.143 99H107.163L109.395 104.34L109.683 105H108.735ZM120.272 105L120.212 103.896V99H121.172V105H120.272ZM116 102.072V99H116.96V102.072H116ZM116.96 102.072C116.96 102.664 117.028 103.116 117.164 103.428C117.3 103.74 117.488 103.956 117.728 104.076C117.976 104.188 118.252 104.244 118.556 104.244C119.076 104.244 119.48 104.056 119.768 103.68C120.064 103.304 120.212 102.78 120.212 102.108H120.68C120.68 102.74 120.588 103.284 120.404 103.74C120.22 104.196 119.952 104.544 119.6 104.784C119.256 105.024 118.832 105.144 118.328 105.144C117.864 105.144 117.456 105.052 117.104 104.868C116.752 104.676 116.48 104.376 116.288 103.968C116.096 103.552 116 103.016 116 102.36V102.072H116.96ZM125.104 105.144C124.52 105.144 124.068 104.992 123.748 104.688C123.428 104.384 123.268 103.956 123.268 103.404V97.128H124.228V103.308C124.228 103.612 124.308 103.848 124.468 104.016C124.636 104.176 124.868 104.256 125.164 104.256C125.26 104.256 125.352 104.244 125.44 104.22C125.536 104.188 125.66 104.116 125.812 104.004L126.184 104.784C125.976 104.92 125.788 105.012 125.62 105.06C125.452 105.116 125.28 105.144 125.104 105.144ZM122.224 99.852V99H126.028V99.852H122.224ZM127.383 105V99H128.283L128.331 99.84C128.515 99.52 128.751 99.276 129.039 99.108C129.327 98.94 129.663 98.856 130.047 98.856C130.527 98.856 130.935 98.968 131.271 99.192C131.615 99.416 131.863 99.756 132.015 100.212C132.183 99.772 132.427 99.436 132.747 99.204C133.075 98.972 133.463 98.856 133.911 98.856C134.583 98.856 135.111 99.08 135.495 99.528C135.887 99.976 136.079 100.656 136.071 101.568V105H135.111V101.928C135.111 101.336 135.047 100.884 134.919 100.572C134.799 100.26 134.635 100.048 134.427 99.936C134.219 99.816 133.979 99.756 133.707 99.756C133.235 99.756 132.867 99.944 132.603 100.32C132.339 100.688 132.207 101.212 132.207 101.892V105H131.247V101.928C131.247 101.336 131.183 100.884 131.055 100.572C130.935 100.26 130.767 100.048 130.551 99.936C130.343 99.816 130.103 99.756 129.831 99.756C129.367 99.756 129.003 99.944 128.739 100.32C128.475 100.688 128.343 101.212 128.343 101.892V105H127.383ZM140.242 105.144C139.658 105.144 139.138 105.012 138.682 104.748C138.234 104.476 137.882 104.104 137.626 103.632C137.37 103.16 137.242 102.616 137.242 102C137.242 101.384 137.366 100.84 137.614 100.368C137.87 99.896 138.222 99.528 138.67 99.264C139.126 98.992 139.642 98.856 140.218 98.856C140.81 98.856 141.33 98.992 141.778 99.264C142.234 99.528 142.586 99.896 142.834 100.368C143.09 100.84 143.218 101.384 143.218 102C143.218 102.616 143.09 103.16 142.834 103.632C142.586 104.104 142.238 104.476 141.79 104.748C141.342 105.012 140.826 105.144 140.242 105.144ZM140.242 104.256C140.642 104.256 140.99 104.16 141.286 103.968C141.582 103.776 141.814 103.512 141.982 103.176C142.158 102.84 142.246 102.448 142.246 102C142.246 101.552 142.158 101.16 141.982 100.824C141.814 100.488 141.578 100.224 141.274 100.032C140.97 99.84 140.618 99.744 140.218 99.744C139.826 99.744 139.478 99.84 139.174 100.032C138.878 100.224 138.642 100.488 138.466 100.824C138.298 101.16 138.214 101.552 138.214 102C138.214 102.44 138.298 102.832 138.466 103.176C138.642 103.512 138.882 103.776 139.186 103.968C139.498 104.16 139.85 104.256 140.242 104.256ZM146.651 105.144C146.211 105.144 145.827 105.08 145.499 104.952C145.171 104.816 144.895 104.64 144.671 104.424C144.455 104.208 144.299 103.972 144.203 103.716L145.043 103.368C145.179 103.64 145.383 103.86 145.655 104.028C145.927 104.196 146.227 104.28 146.555 104.28C146.931 104.28 147.247 104.208 147.503 104.064C147.759 103.912 147.887 103.7 147.887 103.428C147.887 103.18 147.791 102.98 147.599 102.828C147.415 102.676 147.139 102.552 146.771 102.456L146.195 102.3C145.651 102.156 145.227 101.94 144.923 101.652C144.619 101.356 144.467 101.024 144.467 100.656C144.467 100.088 144.651 99.648 145.019 99.336C145.395 99.016 145.951 98.856 146.687 98.856C147.039 98.856 147.359 98.908 147.647 99.012C147.935 99.116 148.183 99.264 148.391 99.456C148.599 99.64 148.751 99.86 148.847 100.116L148.007 100.488C147.903 100.216 147.731 100.02 147.491 99.9C147.251 99.78 146.959 99.72 146.615 99.72C146.247 99.72 145.959 99.8 145.751 99.96C145.543 100.112 145.439 100.328 145.439 100.608C145.439 100.768 145.523 100.92 145.691 101.064C145.867 101.2 146.123 101.312 146.459 101.4L147.059 101.556C147.451 101.652 147.779 101.796 148.043 101.988C148.307 102.172 148.507 102.384 148.643 102.624C148.779 102.864 148.847 103.12 148.847 103.392C148.847 103.752 148.751 104.064 148.559 104.328C148.367 104.592 148.107 104.796 147.779 104.94C147.451 105.076 147.075 105.144 146.651 105.144ZM152.397 105.144C151.813 105.144 151.361 104.992 151.041 104.688C150.721 104.384 150.561 103.956 150.561 103.404V97.128H151.521V103.308C151.521 103.612 151.601 103.848 151.761 104.016C151.929 104.176 152.161 104.256 152.457 104.256C152.553 104.256 152.645 104.244 152.733 104.22C152.829 104.188 152.953 104.116 153.105 104.004L153.477 104.784C153.269 104.92 153.081 105.012 152.913 105.06C152.745 105.116 152.573 105.144 152.397 105.144ZM149.517 99.852V99H153.321V99.852H149.517ZM159.897 105.144C159.313 105.144 158.861 104.992 158.541 104.688C158.221 104.384 158.061 103.956 158.061 103.404V97.128H159.021V103.308C159.021 103.612 159.101 103.848 159.261 104.016C159.429 104.176 159.661 104.256 159.957 104.256C160.053 104.256 160.145 104.244 160.233 104.22C160.329 104.188 160.453 104.116 160.605 104.004L160.977 104.784C160.769 104.92 160.581 105.012 160.413 105.06C160.245 105.116 160.073 105.144 159.897 105.144ZM157.017 99.852V99H160.821V99.852H157.017ZM164.793 105.144C164.209 105.144 163.689 105.012 163.233 104.748C162.785 104.476 162.433 104.104 162.177 103.632C161.921 103.16 161.793 102.616 161.793 102C161.793 101.384 161.917 100.84 162.165 100.368C162.421 99.896 162.773 99.528 163.221 99.264C163.677 98.992 164.193 98.856 164.769 98.856C165.361 98.856 165.881 98.992 166.329 99.264C166.785 99.528 167.137 99.896 167.385 100.368C167.641 100.84 167.769 101.384 167.769 102C167.769 102.616 167.641 103.16 167.385 103.632C167.137 104.104 166.789 104.476 166.341 104.748C165.893 105.012 165.377 105.144 164.793 105.144ZM164.793 104.256C165.193 104.256 165.541 104.16 165.837 103.968C166.133 103.776 166.365 103.512 166.533 103.176C166.709 102.84 166.797 102.448 166.797 102C166.797 101.552 166.709 101.16 166.533 100.824C166.365 100.488 166.129 100.224 165.825 100.032C165.521 99.84 165.169 99.744 164.769 99.744C164.377 99.744 164.029 99.84 163.725 100.032C163.429 100.224 163.193 100.488 163.017 100.824C162.849 101.16 162.765 101.552 162.765 102C162.765 102.44 162.849 102.832 163.017 103.176C163.193 103.512 163.433 103.776 163.737 103.968C164.049 104.16 164.401 104.256 164.793 104.256ZM172.595 101.748C172.595 101.1 172.719 100.576 172.967 100.176C173.215 99.768 173.531 99.468 173.915 99.276C174.307 99.076 174.719 98.976 175.151 98.976V99.876C174.799 99.876 174.459 99.936 174.131 100.056C173.811 100.168 173.547 100.356 173.339 100.62C173.131 100.884 173.027 101.244 173.027 101.7L172.595 101.748ZM172.067 105V99H173.027V105H172.067ZM178.749 105.144C178.165 105.144 177.649 105.012 177.201 104.748C176.753 104.476 176.401 104.104 176.145 103.632C175.897 103.16 175.773 102.616 175.773 102C175.773 101.384 175.897 100.84 176.145 100.368C176.401 99.896 176.749 99.528 177.189 99.264C177.637 98.992 178.149 98.856 178.725 98.856C179.285 98.856 179.769 98.996 180.177 99.276C180.585 99.548 180.901 99.932 181.125 100.428C181.349 100.924 181.461 101.508 181.461 102.18H176.505L176.745 101.976C176.745 102.456 176.829 102.868 176.997 103.212C177.173 103.556 177.417 103.82 177.729 104.004C178.041 104.18 178.397 104.268 178.797 104.268C179.221 104.268 179.577 104.168 179.865 103.968C180.161 103.768 180.389 103.504 180.549 103.176L181.377 103.596C181.225 103.908 181.021 104.18 180.765 104.412C180.517 104.644 180.221 104.824 179.877 104.952C179.541 105.08 179.165 105.144 178.749 105.144ZM176.805 101.568L176.553 101.376H180.693L180.441 101.58C180.441 101.196 180.365 100.864 180.213 100.584C180.061 100.304 179.857 100.088 179.601 99.936C179.345 99.784 179.049 99.708 178.713 99.708C178.385 99.708 178.073 99.784 177.777 99.936C177.489 100.088 177.253 100.304 177.069 100.584C176.893 100.856 176.805 101.184 176.805 101.568ZM184.772 105.144C184.332 105.144 183.948 105.08 183.62 104.952C183.292 104.816 183.016 104.64 182.792 104.424C182.576 104.208 182.42 103.972 182.324 103.716L183.164 103.368C183.3 103.64 183.504 103.86 183.776 104.028C184.048 104.196 184.348 104.28 184.676 104.28C185.052 104.28 185.368 104.208 185.624 104.064C185.88 103.912 186.008 103.7 186.008 103.428C186.008 103.18 185.912 102.98 185.72 102.828C185.536 102.676 185.26 102.552 184.892 102.456L184.316 102.3C183.772 102.156 183.348 101.94 183.044 101.652C182.74 101.356 182.588 101.024 182.588 100.656C182.588 100.088 182.772 99.648 183.14 99.336C183.516 99.016 184.072 98.856 184.808 98.856C185.16 98.856 185.48 98.908 185.768 99.012C186.056 99.116 186.304 99.264 186.512 99.456C186.72 99.64 186.872 99.86 186.968 100.116L186.128 100.488C186.024 100.216 185.852 100.02 185.612 99.9C185.372 99.78 185.08 99.72 184.736 99.72C184.368 99.72 184.08 99.8 183.872 99.96C183.664 100.112 183.56 100.328 183.56 100.608C183.56 100.768 183.644 100.92 183.812 101.064C183.988 101.2 184.244 101.312 184.58 101.4L185.18 101.556C185.572 101.652 185.9 101.796 186.164 101.988C186.428 102.172 186.628 102.384 186.764 102.624C186.9 102.864 186.968 103.12 186.968 103.392C186.968 103.752 186.872 104.064 186.68 104.328C186.488 104.592 186.228 104.796 185.9 104.94C185.572 105.076 185.196 105.144 184.772 105.144ZM190.914 105.144C190.33 105.144 189.81 105.012 189.354 104.748C188.906 104.476 188.554 104.104 188.298 103.632C188.042 103.16 187.914 102.616 187.914 102C187.914 101.384 188.038 100.84 188.286 100.368C188.542 99.896 188.894 99.528 189.342 99.264C189.798 98.992 190.314 98.856 190.89 98.856C191.482 98.856 192.002 98.992 192.45 99.264C192.906 99.528 193.258 99.896 193.506 100.368C193.762 100.84 193.89 101.384 193.89 102C193.89 102.616 193.762 103.16 193.506 103.632C193.258 104.104 192.91 104.476 192.462 104.748C192.014 105.012 191.498 105.144 190.914 105.144ZM190.914 104.256C191.314 104.256 191.662 104.16 191.958 103.968C192.254 103.776 192.486 103.512 192.654 103.176C192.83 102.84 192.918 102.448 192.918 102C192.918 101.552 192.83 101.16 192.654 100.824C192.486 100.488 192.25 100.224 191.946 100.032C191.642 99.84 191.29 99.744 190.89 99.744C190.498 99.744 190.15 99.84 189.846 100.032C189.55 100.224 189.314 100.488 189.138 100.824C188.97 101.16 188.886 101.552 188.886 102C188.886 102.44 188.97 102.832 189.138 103.176C189.314 103.512 189.554 103.776 189.858 103.968C190.17 104.16 190.522 104.256 190.914 104.256ZM195.223 105V96.6H196.183V105H195.223ZM199.696 105L202.144 99H203.152L200.644 105H199.696ZM199.636 105L197.128 99H198.124L200.572 105H199.636ZM206.581 105.144C205.997 105.144 205.481 105.012 205.033 104.748C204.585 104.476 204.233 104.104 203.977 103.632C203.729 103.16 203.605 102.616 203.605 102C203.605 101.384 203.729 100.84 203.977 100.368C204.233 99.896 204.581 99.528 205.021 99.264C205.469 98.992 205.981 98.856 206.557 98.856C207.117 98.856 207.601 98.996 208.009 99.276C208.417 99.548 208.733 99.932 208.957 100.428C209.181 100.924 209.293 101.508 209.293 102.18H204.337L204.577 101.976C204.577 102.456 204.661 102.868 204.829 103.212C205.005 103.556 205.249 103.82 205.561 104.004C205.873 104.18 206.229 104.268 206.629 104.268C207.053 104.268 207.409 104.168 207.697 103.968C207.993 103.768 208.221 103.504 208.381 103.176L209.209 103.596C209.057 103.908 208.853 104.18 208.597 104.412C208.349 104.644 208.053 104.824 207.709 104.952C207.373 105.08 206.997 105.144 206.581 105.144ZM204.637 101.568L204.385 101.376H208.525L208.273 101.58C208.273 101.196 208.197 100.864 208.045 100.584C207.893 100.304 207.689 100.088 207.433 99.936C207.177 99.784 206.881 99.708 206.545 99.708C206.217 99.708 205.905 99.784 205.609 99.936C205.321 100.088 205.085 100.304 204.901 100.584C204.725 100.856 204.637 101.184 204.637 101.568ZM213.529 105V99H214.489V105H213.529ZM214.021 97.608C213.861 97.608 213.721 97.548 213.601 97.428C213.481 97.308 213.421 97.168 213.421 97.008C213.421 96.84 213.481 96.7 213.601 96.588C213.721 96.468 213.861 96.408 214.021 96.408C214.189 96.408 214.329 96.468 214.441 96.588C214.561 96.7 214.621 96.84 214.621 97.008C214.621 97.168 214.561 97.308 214.441 97.428C214.329 97.548 214.189 97.608 214.021 97.608ZM218.514 105.144C217.93 105.144 217.478 104.992 217.158 104.688C216.838 104.384 216.678 103.956 216.678 103.404V97.128H217.638V103.308C217.638 103.612 217.718 103.848 217.878 104.016C218.046 104.176 218.278 104.256 218.574 104.256C218.67 104.256 218.762 104.244 218.85 104.22C218.946 104.188 219.07 104.116 219.222 104.004L219.594 104.784C219.386 104.92 219.198 105.012 219.03 105.06C218.862 105.116 218.69 105.144 218.514 105.144ZM215.634 99.852V99H219.438V99.852H215.634ZM221.201 105.168C221.017 105.168 220.857 105.104 220.721 104.976C220.593 104.84 220.529 104.684 220.529 104.508C220.529 104.324 220.593 104.168 220.721 104.04C220.857 103.904 221.017 103.836 221.201 103.836C221.385 103.836 221.541 103.904 221.669 104.04C221.797 104.168 221.861 104.324 221.861 104.508C221.861 104.684 221.797 104.84 221.669 104.976C221.541 105.104 221.385 105.168 221.201 105.168Z" fill="#171A16"/>
<rect x="149" y="20" width="127" height="34" rx="8" fill="#D7FAD1"/>
<path d="M164.005 41V32.6H165.013V41H164.005ZM158.233 41V32.6H159.253V41H158.233ZM159.133 37.136V36.212H164.221V37.136H159.133ZM169.597 41.144C169.013 41.144 168.497 41.012 168.049 40.748C167.601 40.476 167.249 40.104 166.993 39.632C166.745 39.16 166.621 38.616 166.621 38C166.621 37.384 166.745 36.84 166.993 36.368C167.249 35.896 167.597 35.528 168.037 35.264C168.485 34.992 168.997 34.856 169.573 34.856C170.133 34.856 170.617 34.996 171.025 35.276C171.433 35.548 171.749 35.932 171.973 36.428C172.197 36.924 172.309 37.508 172.309 38.18H167.353L167.593 37.976C167.593 38.456 167.677 38.868 167.845 39.212C168.021 39.556 168.265 39.82 168.577 40.004C168.889 40.18 169.245 40.268 169.645 40.268C170.069 40.268 170.425 40.168 170.713 39.968C171.009 39.768 171.237 39.504 171.397 39.176L172.225 39.596C172.073 39.908 171.869 40.18 171.613 40.412C171.365 40.644 171.069 40.824 170.725 40.952C170.389 41.08 170.013 41.144 169.597 41.144ZM167.653 37.568L167.401 37.376H171.541L171.289 37.58C171.289 37.196 171.213 36.864 171.061 36.584C170.909 36.304 170.705 36.088 170.449 35.936C170.193 35.784 169.897 35.708 169.561 35.708C169.233 35.708 168.921 35.784 168.625 35.936C168.337 36.088 168.101 36.304 167.917 36.584C167.741 36.856 167.653 37.184 167.653 37.568ZM173.52 41V32.6H174.48V41H173.52ZM176.156 41V32.6H177.116V41H176.156ZM181.445 41.144C180.861 41.144 180.341 41.012 179.885 40.748C179.437 40.476 179.085 40.104 178.829 39.632C178.573 39.16 178.445 38.616 178.445 38C178.445 37.384 178.569 36.84 178.817 36.368C179.073 35.896 179.425 35.528 179.873 35.264C180.329 34.992 180.845 34.856 181.421 34.856C182.013 34.856 182.533 34.992 182.981 35.264C183.437 35.528 183.789 35.896 184.037 36.368C184.293 36.84 184.421 37.384 184.421 38C184.421 38.616 184.293 39.16 184.037 39.632C183.789 40.104 183.441 40.476 182.993 40.748C182.545 41.012 182.029 41.144 181.445 41.144ZM181.445 40.256C181.845 40.256 182.193 40.16 182.489 39.968C182.785 39.776 183.017 39.512 183.185 39.176C183.361 38.84 183.449 38.448 183.449 38C183.449 37.552 183.361 37.16 183.185 36.824C183.017 36.488 182.781 36.224 182.477 36.032C182.173 35.84 181.821 35.744 181.421 35.744C181.029 35.744 180.681 35.84 180.377 36.032C180.081 36.224 179.845 36.488 179.669 36.824C179.501 37.16 179.417 37.552 179.417 38C179.417 38.44 179.501 38.832 179.669 39.176C179.845 39.512 180.085 39.776 180.389 39.968C180.701 40.16 181.053 40.256 181.445 40.256ZM185.394 42.38L186.078 39.848H187.158L186.222 42.38H185.394ZM195.506 41.144C194.65 41.144 193.894 40.96 193.238 40.592C192.582 40.216 192.066 39.704 191.69 39.056C191.322 38.4 191.138 37.652 191.138 36.812C191.138 35.956 191.322 35.204 191.69 34.556C192.066 33.9 192.582 33.388 193.238 33.02C193.894 32.644 194.65 32.456 195.506 32.456C195.954 32.456 196.39 32.532 196.814 32.684C197.238 32.828 197.626 33.028 197.978 33.284C198.33 33.54 198.614 33.832 198.83 34.16L198.026 34.712C197.866 34.456 197.65 34.228 197.378 34.028C197.106 33.82 196.806 33.66 196.478 33.548C196.158 33.436 195.834 33.38 195.506 33.38C194.858 33.38 194.282 33.528 193.778 33.824C193.274 34.112 192.878 34.512 192.59 35.024C192.302 35.536 192.158 36.132 192.158 36.812C192.158 37.468 192.298 38.056 192.578 38.576C192.866 39.088 193.262 39.492 193.766 39.788C194.278 40.084 194.858 40.232 195.506 40.232C196.05 40.232 196.53 40.12 196.946 39.896C197.37 39.664 197.702 39.348 197.942 38.948C198.182 38.54 198.302 38.072 198.302 37.544L199.274 37.472C199.274 38.208 199.114 38.852 198.794 39.404C198.474 39.948 198.03 40.376 197.462 40.688C196.894 40.992 196.242 41.144 195.506 41.144ZM196.238 37.592V36.716H199.274V37.508L198.794 37.592H196.238ZM203.195 41.144C202.611 41.144 202.091 41.012 201.635 40.748C201.187 40.476 200.835 40.104 200.579 39.632C200.323 39.16 200.195 38.616 200.195 38C200.195 37.384 200.319 36.84 200.567 36.368C200.823 35.896 201.175 35.528 201.623 35.264C202.079 34.992 202.595 34.856 203.171 34.856C203.763 34.856 204.283 34.992 204.731 35.264C205.187 35.528 205.539 35.896 205.787 36.368C206.043 36.84 206.171 37.384 206.171 38C206.171 38.616 206.043 39.16 205.787 39.632C205.539 40.104 205.191 40.476 204.743 40.748C204.295 41.012 203.779 41.144 203.195 41.144ZM203.195 40.256C203.595 40.256 203.943 40.16 204.239 39.968C204.535 39.776 204.767 39.512 204.935 39.176C205.111 38.84 205.199 38.448 205.199 38C205.199 37.552 205.111 37.16 204.935 36.824C204.767 36.488 204.531 36.224 204.227 36.032C203.923 35.84 203.571 35.744 203.171 35.744C202.779 35.744 202.431 35.84 202.127 36.032C201.831 36.224 201.595 36.488 201.419 36.824C201.251 37.16 201.167 37.552 201.167 38C201.167 38.44 201.251 38.832 201.419 39.176C201.595 39.512 201.835 39.776 202.139 39.968C202.451 40.16 202.803 40.256 203.195 40.256ZM210.156 41.144C209.572 41.144 209.052 41.012 208.596 40.748C208.148 40.476 207.796 40.104 207.54 39.632C207.284 39.16 207.156 38.616 207.156 38C207.156 37.384 207.28 36.84 207.528 36.368C207.784 35.896 208.136 35.528 208.584 35.264C209.04 34.992 209.556 34.856 210.132 34.856C210.724 34.856 211.244 34.992 211.692 35.264C212.148 35.528 212.5 35.896 212.748 36.368C213.004 36.84 213.132 37.384 213.132 38C213.132 38.616 213.004 39.16 212.748 39.632C212.5 40.104 212.152 40.476 211.704 40.748C211.256 41.012 210.74 41.144 210.156 41.144ZM210.156 40.256C210.556 40.256 210.904 40.16 211.2 39.968C211.496 39.776 211.728 39.512 211.896 39.176C212.072 38.84 212.16 38.448 212.16 38C212.16 37.552 212.072 37.16 211.896 36.824C211.728 36.488 211.492 36.224 211.188 36.032C210.884 35.84 210.532 35.744 210.132 35.744C209.74 35.744 209.392 35.84 209.088 36.032C208.792 36.224 208.556 36.488 208.38 36.824C208.212 37.16 208.128 37.552 208.128 38C208.128 38.44 208.212 38.832 208.38 39.176C208.556 39.512 208.796 39.776 209.1 39.968C209.412 40.16 209.764 40.256 210.156 40.256ZM218.905 41L218.857 39.884V32.6H219.817V41H218.905ZM216.829 41.144C216.293 41.144 215.821 41.012 215.413 40.748C215.005 40.484 214.685 40.116 214.453 39.644C214.229 39.164 214.117 38.616 214.117 38C214.117 37.376 214.229 36.828 214.453 36.356C214.685 35.884 215.005 35.516 215.413 35.252C215.821 34.988 216.293 34.856 216.829 34.856C217.333 34.856 217.773 34.988 218.149 35.252C218.533 35.516 218.829 35.884 219.037 36.356C219.245 36.828 219.349 37.376 219.349 38C219.349 38.616 219.245 39.164 219.037 39.644C218.829 40.116 218.533 40.484 218.149 40.748C217.773 41.012 217.333 41.144 216.829 41.144ZM217.045 40.268C217.397 40.268 217.709 40.172 217.981 39.98C218.253 39.788 218.465 39.52 218.617 39.176C218.777 38.832 218.857 38.44 218.857 38C218.857 37.56 218.777 37.168 218.617 36.824C218.465 36.48 218.253 36.212 217.981 36.02C217.709 35.828 217.393 35.732 217.033 35.732C216.657 35.732 216.321 35.828 216.025 36.02C215.737 36.212 215.509 36.48 215.341 36.824C215.173 37.168 215.089 37.56 215.089 38C215.089 38.44 215.173 38.832 215.341 39.176C215.509 39.52 215.741 39.788 216.037 39.98C216.333 40.172 216.669 40.268 217.045 40.268ZM224.737 41V32.6H225.793L228.697 36.896L231.601 32.6H232.645V41H231.637V34.232L228.697 38.612L225.757 34.256V41H224.737ZM237.262 41.144C236.678 41.144 236.158 41.012 235.702 40.748C235.254 40.476 234.902 40.104 234.646 39.632C234.39 39.16 234.262 38.616 234.262 38C234.262 37.384 234.386 36.84 234.634 36.368C234.89 35.896 235.242 35.528 235.69 35.264C236.146 34.992 236.662 34.856 237.238 34.856C237.83 34.856 238.35 34.992 238.798 35.264C239.254 35.528 239.606 35.896 239.854 36.368C240.11 36.84 240.238 37.384 240.238 38C240.238 38.616 240.11 39.16 239.854 39.632C239.606 40.104 239.258 40.476 238.81 40.748C238.362 41.012 237.846 41.144 237.262 41.144ZM237.262 40.256C237.662 40.256 238.01 40.16 238.306 39.968C238.602 39.776 238.834 39.512 239.002 39.176C239.178 38.84 239.266 38.448 239.266 38C239.266 37.552 239.178 37.16 239.002 36.824C238.834 36.488 238.598 36.224 238.294 36.032C237.99 35.84 237.638 35.744 237.238 35.744C236.846 35.744 236.498 35.84 236.194 36.032C235.898 36.224 235.662 36.488 235.486 36.824C235.318 37.16 235.234 37.552 235.234 38C235.234 38.44 235.318 38.832 235.486 39.176C235.662 39.512 235.902 39.776 236.206 39.968C236.518 40.16 236.87 40.256 237.262 40.256ZM242.098 37.748C242.098 37.1 242.222 36.576 242.47 36.176C242.718 35.768 243.034 35.468 243.418 35.276C243.81 35.076 244.222 34.976 244.654 34.976V35.876C244.302 35.876 243.962 35.936 243.634 36.056C243.314 36.168 243.05 36.356 242.842 36.62C242.634 36.884 242.53 37.244 242.53 37.7L242.098 37.748ZM241.57 41V35H242.53V41H241.57ZM245.625 41V35H246.525L246.585 36.104V41H245.625ZM249.837 41V37.928H250.797V41H249.837ZM249.837 37.928C249.837 37.336 249.769 36.884 249.633 36.572C249.497 36.26 249.309 36.048 249.069 35.936C248.829 35.816 248.557 35.756 248.253 35.756C247.725 35.756 247.313 35.944 247.017 36.32C246.729 36.688 246.585 37.212 246.585 37.892H246.117C246.117 37.26 246.209 36.716 246.393 36.26C246.577 35.804 246.845 35.456 247.197 35.216C247.549 34.976 247.973 34.856 248.469 34.856C248.941 34.856 249.349 34.952 249.693 35.144C250.045 35.328 250.317 35.624 250.509 36.032C250.709 36.44 250.805 36.976 250.797 37.64V37.928H249.837ZM252.377 41V35H253.337V41H252.377ZM252.869 33.608C252.709 33.608 252.569 33.548 252.449 33.428C252.329 33.308 252.269 33.168 252.269 33.008C252.269 32.84 252.329 32.7 252.449 32.588C252.569 32.468 252.709 32.408 252.869 32.408C253.037 32.408 253.177 32.468 253.289 32.588C253.409 32.7 253.469 32.84 253.469 33.008C253.469 33.168 253.409 33.308 253.289 33.428C253.177 33.548 253.037 33.608 252.869 33.608ZM255.106 41V35H256.006L256.066 36.104V41H255.106ZM259.318 41V37.928H260.278V41H259.318ZM259.318 37.928C259.318 37.336 259.25 36.884 259.114 36.572C258.978 36.26 258.79 36.048 258.55 35.936C258.31 35.816 258.038 35.756 257.734 35.756C257.206 35.756 256.794 35.944 256.498 36.32C256.21 36.688 256.066 37.212 256.066 37.892H255.598C255.598 37.26 255.69 36.716 255.874 36.26C256.058 35.804 256.326 35.456 256.678 35.216C257.03 34.976 257.454 34.856 257.95 34.856C258.422 34.856 258.83 34.952 259.174 35.144C259.526 35.328 259.798 35.624 259.99 36.032C260.19 36.44 260.286 36.976 260.278 37.64V37.928H259.318ZM264.197 43.544C263.813 43.544 263.461 43.504 263.141 43.424C262.829 43.352 262.561 43.268 262.337 43.172C262.121 43.084 261.965 43.008 261.869 42.944L262.229 42.164C262.333 42.22 262.481 42.288 262.673 42.368C262.865 42.456 263.089 42.528 263.345 42.584C263.609 42.648 263.889 42.68 264.185 42.68C264.569 42.68 264.913 42.6 265.217 42.44C265.529 42.288 265.769 42.044 265.937 41.708C266.113 41.38 266.201 40.956 266.201 40.436V35H267.161V40.424C267.161 41.112 267.033 41.688 266.777 42.152C266.521 42.616 266.169 42.964 265.721 43.196C265.273 43.428 264.765 43.544 264.197 43.544ZM264.161 40.952C263.625 40.952 263.153 40.824 262.745 40.568C262.337 40.312 262.017 39.956 261.785 39.5C261.561 39.036 261.449 38.508 261.449 37.916C261.449 37.308 261.561 36.776 261.785 36.32C262.017 35.856 262.337 35.496 262.745 35.24C263.153 34.984 263.625 34.856 264.161 34.856C264.665 34.856 265.105 34.984 265.481 35.24C265.857 35.496 266.149 35.856 266.357 36.32C266.573 36.776 266.681 37.308 266.681 37.916C266.681 38.516 266.573 39.044 266.357 39.5C266.149 39.956 265.857 40.312 265.481 40.568C265.105 40.824 264.665 40.952 264.161 40.952ZM264.389 40.124C264.741 40.124 265.053 40.028 265.325 39.836C265.597 39.644 265.809 39.384 265.961 39.056C266.113 38.72 266.189 38.332 266.189 37.892C266.189 37.468 266.109 37.092 265.949 36.764C265.797 36.428 265.585 36.168 265.313 35.984C265.049 35.792 264.737 35.696 264.377 35.696C264.001 35.696 263.665 35.792 263.369 35.984C263.081 36.168 262.853 36.428 262.685 36.764C262.525 37.092 262.445 37.468 262.445 37.892C262.445 38.332 262.529 38.72 262.697 39.056C262.865 39.384 263.093 39.644 263.381 39.836C263.677 40.028 264.013 40.124 264.389 40.124Z" fill="#171A16"/>
</svg>
