<svg width="261" height="80" viewBox="0 0 261 80" fill="none" xmlns="http://www.w3.org/2000/svg">
<rect width="233" height="34" rx="8" fill="white"/>
<path d="M14.888 21V12.6H15.896V21H14.888ZM9.116 21V12.6H10.136V21H9.116ZM10.016 17.136V16.212H15.104V17.136H10.016ZM20.4797 21.144C19.8957 21.144 19.3797 21.012 18.9317 20.748C18.4837 20.476 18.1317 20.104 17.8757 19.632C17.6277 19.16 17.5037 18.616 17.5037 18C17.5037 17.384 17.6277 16.84 17.8757 16.368C18.1317 15.896 18.4797 15.528 18.9197 15.264C19.3677 14.992 19.8797 14.856 20.4557 14.856C21.0157 14.856 21.4997 14.996 21.9077 15.276C22.3157 15.548 22.6317 15.932 22.8557 16.428C23.0797 16.924 23.1917 17.508 23.1917 18.18H18.2357L18.4757 17.976C18.4757 18.456 18.5597 18.868 18.7277 19.212C18.9037 19.556 19.1477 19.82 19.4597 20.004C19.7717 20.18 20.1277 20.268 20.5277 20.268C20.9517 20.268 21.3077 20.168 21.5957 19.968C21.8917 19.768 22.1197 19.504 22.2797 19.176L23.1077 19.596C22.9557 19.908 22.7517 20.18 22.4957 20.412C22.2477 20.644 21.9517 20.824 21.6077 20.952C21.2717 21.08 20.8957 21.144 20.4797 21.144ZM18.5357 17.568L18.2837 17.376H22.4237L22.1717 17.58C22.1717 17.196 22.0957 16.864 21.9437 16.584C21.7917 16.304 21.5877 16.088 21.3317 15.936C21.0757 15.784 20.7797 15.708 20.4437 15.708C20.1157 15.708 19.8037 15.784 19.5077 15.936C19.2197 16.088 18.9837 16.304 18.7997 16.584C18.6237 16.856 18.5357 17.184 18.5357 17.568ZM24.4025 21V12.6H25.3625V21H24.4025ZM27.0392 21V12.6H27.9992V21H27.0392ZM32.3279 21.144C31.7439 21.144 31.2239 21.012 30.7679 20.748C30.3199 20.476 29.9679 20.104 29.7119 19.632C29.4559 19.16 29.3279 18.616 29.3279 18C29.3279 17.384 29.4519 16.84 29.6999 16.368C29.9559 15.896 30.3079 15.528 30.7559 15.264C31.2119 14.992 31.7279 14.856 32.3039 14.856C32.8959 14.856 33.4159 14.992 33.8639 15.264C34.3199 15.528 34.6719 15.896 34.9199 16.368C35.1759 16.84 35.3039 17.384 35.3039 18C35.3039 18.616 35.1759 19.16 34.9199 19.632C34.6719 20.104 34.3239 20.476 33.8759 20.748C33.4279 21.012 32.9119 21.144 32.3279 21.144ZM32.3279 20.256C32.7279 20.256 33.0759 20.16 33.3719 19.968C33.6679 19.776 33.8999 19.512 34.0679 19.176C34.2439 18.84 34.3319 18.448 34.3319 18C34.3319 17.552 34.2439 17.16 34.0679 16.824C33.8999 16.488 33.6639 16.224 33.3599 16.032C33.0559 15.84 32.7039 15.744 32.3039 15.744C31.9119 15.744 31.5639 15.84 31.2599 16.032C30.9639 16.224 30.7279 16.488 30.5519 16.824C30.3839 17.16 30.2999 17.552 30.2999 18C30.2999 18.44 30.3839 18.832 30.5519 19.176C30.7279 19.512 30.9679 19.776 31.2719 19.968C31.5839 20.16 31.9359 20.256 32.3279 20.256ZM36.2769 22.38L36.9609 19.848H38.0409L37.1049 22.38H36.2769ZM47.7568 21L49.7848 15H50.7568L48.7168 21H47.7568ZM43.6768 21L45.7048 15H46.6048L44.6008 21H43.6768ZM43.6288 21L41.5888 15H42.5608L44.5648 21H43.6288ZM47.7568 21L45.7528 15H46.6648L48.6688 21H47.7568ZM51.7189 21V12.6H52.6789V21H51.7189ZM55.9429 21V17.928H56.9029V21H55.9429ZM55.9429 17.928C55.9429 17.336 55.8709 16.884 55.7269 16.572C55.5909 16.26 55.4029 16.048 55.1629 15.936C54.9229 15.816 54.6509 15.756 54.3469 15.756C53.8189 15.756 53.4069 15.944 53.1109 16.32C52.8229 16.688 52.6789 17.212 52.6789 17.892H52.2109C52.2109 17.26 52.3029 16.716 52.4869 16.26C52.6789 15.804 52.9509 15.456 53.3029 15.216C53.6549 14.976 54.0789 14.856 54.5749 14.856C55.0389 14.856 55.4469 14.952 55.7989 15.144C56.1509 15.328 56.4229 15.624 56.6149 16.032C56.8149 16.44 56.9109 16.976 56.9029 17.64V17.928H55.9429ZM62.1063 21L62.0583 20.016V17.832C62.0583 17.36 62.0063 16.972 61.9023 16.668C61.7983 16.356 61.6343 16.12 61.4103 15.96C61.1863 15.8 60.8943 15.72 60.5343 15.72C60.2063 15.72 59.9223 15.788 59.6823 15.924C59.4503 16.052 59.2583 16.26 59.1063 16.548L58.2423 16.212C58.3943 15.932 58.5783 15.692 58.7943 15.492C59.0103 15.284 59.2623 15.128 59.5503 15.024C59.8383 14.912 60.1663 14.856 60.5343 14.856C61.0943 14.856 61.5543 14.968 61.9143 15.192C62.2823 15.408 62.5583 15.732 62.7423 16.164C62.9263 16.588 63.0143 17.116 63.0063 17.748L62.9943 21H62.1063ZM60.3063 21.144C59.6023 21.144 59.0503 20.984 58.6503 20.664C58.2583 20.336 58.0623 19.884 58.0623 19.308C58.0623 18.7 58.2623 18.236 58.6623 17.916C59.0703 17.588 59.6383 17.424 60.3663 17.424H62.0823V18.228H60.5823C60.0223 18.228 59.6223 18.32 59.3823 18.504C59.1503 18.688 59.0343 18.952 59.0343 19.296C59.0343 19.608 59.1503 19.856 59.3823 20.04C59.6143 20.216 59.9383 20.304 60.3543 20.304C60.6983 20.304 60.9983 20.232 61.2543 20.088C61.5103 19.936 61.7063 19.724 61.8423 19.452C61.9863 19.172 62.0583 18.844 62.0583 18.468H62.4663C62.4663 19.284 62.2823 19.936 61.9143 20.424C61.5463 20.904 61.0103 21.144 60.3063 21.144ZM66.7835 21.144C66.1995 21.144 65.7475 20.992 65.4275 20.688C65.1075 20.384 64.9475 19.956 64.9475 19.404V13.128H65.9075V19.308C65.9075 19.612 65.9875 19.848 66.1475 20.016C66.3155 20.176 66.5475 20.256 66.8435 20.256C66.9395 20.256 67.0315 20.244 67.1195 20.22C67.2155 20.188 67.3395 20.116 67.4915 20.004L67.8635 20.784C67.6555 20.92 67.4675 21.012 67.2995 21.06C67.1315 21.116 66.9595 21.144 66.7835 21.144ZM63.9035 15.852V15H67.7075V15.852H63.9035ZM74.7035 21.144C74.1115 21.144 73.5875 21.012 73.1315 20.748C72.6755 20.476 72.3195 20.104 72.0635 19.632C71.8075 19.16 71.6795 18.616 71.6795 18C71.6795 17.384 71.8035 16.84 72.0515 16.368C72.3075 15.896 72.6635 15.528 73.1195 15.264C73.5755 14.992 74.0955 14.856 74.6795 14.856C75.2555 14.856 75.7715 14.988 76.2275 15.252C76.6835 15.516 77.0315 15.888 77.2715 16.368L76.3955 16.764C76.2355 16.444 76.0035 16.196 75.6995 16.02C75.3955 15.836 75.0475 15.744 74.6555 15.744C74.2635 15.744 73.9155 15.84 73.6115 16.032C73.3155 16.224 73.0795 16.492 72.9035 16.836C72.7355 17.172 72.6515 17.56 72.6515 18C72.6515 18.44 72.7355 18.832 72.9035 19.176C73.0795 19.512 73.3195 19.776 73.6235 19.968C73.9355 20.16 74.2875 20.256 74.6795 20.256C75.0715 20.256 75.4195 20.156 75.7235 19.956C76.0355 19.756 76.2715 19.476 76.4315 19.116L77.3075 19.512C77.0675 20.024 76.7195 20.424 76.2635 20.712C75.8075 21 75.2875 21.144 74.7035 21.144ZM82.2157 21L82.1677 20.016V17.832C82.1677 17.36 82.1157 16.972 82.0117 16.668C81.9077 16.356 81.7437 16.12 81.5197 15.96C81.2957 15.8 81.0037 15.72 80.6437 15.72C80.3157 15.72 80.0317 15.788 79.7917 15.924C79.5597 16.052 79.3677 16.26 79.2157 16.548L78.3517 16.212C78.5037 15.932 78.6877 15.692 78.9037 15.492C79.1197 15.284 79.3717 15.128 79.6597 15.024C79.9477 14.912 80.2757 14.856 80.6437 14.856C81.2037 14.856 81.6637 14.968 82.0237 15.192C82.3917 15.408 82.6677 15.732 82.8517 16.164C83.0357 16.588 83.1237 17.116 83.1157 17.748L83.1037 21H82.2157ZM80.4157 21.144C79.7117 21.144 79.1597 20.984 78.7597 20.664C78.3677 20.336 78.1717 19.884 78.1717 19.308C78.1717 18.7 78.3717 18.236 78.7717 17.916C79.1797 17.588 79.7477 17.424 80.4757 17.424H82.1917V18.228H80.6917C80.1317 18.228 79.7317 18.32 79.4917 18.504C79.2597 18.688 79.1437 18.952 79.1437 19.296C79.1437 19.608 79.2597 19.856 79.4917 20.04C79.7237 20.216 80.0477 20.304 80.4637 20.304C80.8077 20.304 81.1077 20.232 81.3637 20.088C81.6197 19.936 81.8157 19.724 81.9517 19.452C82.0957 19.172 82.1677 18.844 82.1677 18.468H82.5757C82.5757 19.284 82.3917 19.936 82.0237 20.424C81.6557 20.904 81.1197 21.144 80.4157 21.144ZM84.6369 21V15H85.5369L85.5969 16.104V21H84.6369ZM88.8489 21V17.928H89.8089V21H88.8489ZM88.8489 17.928C88.8489 17.336 88.7809 16.884 88.6449 16.572C88.5089 16.26 88.3209 16.048 88.0809 15.936C87.8409 15.816 87.5689 15.756 87.2649 15.756C86.7369 15.756 86.3249 15.944 86.0289 16.32C85.7409 16.688 85.5969 17.212 85.5969 17.892H85.1289C85.1289 17.26 85.2209 16.716 85.4049 16.26C85.5889 15.804 85.8569 15.456 86.2089 15.216C86.5609 14.976 86.9849 14.856 87.4809 14.856C87.9529 14.856 88.3609 14.952 88.7049 15.144C89.0569 15.328 89.3289 15.624 89.5209 16.032C89.7209 16.44 89.8169 16.976 89.8089 17.64V17.928H88.8489ZM94.3531 21V15H95.3131V21H94.3531ZM94.8451 13.608C94.6851 13.608 94.5451 13.548 94.4251 13.428C94.3051 13.308 94.2451 13.168 94.2451 13.008C94.2451 12.84 94.3051 12.7 94.4251 12.588C94.5451 12.468 94.6851 12.408 94.8451 12.408C95.0131 12.408 95.1531 12.468 95.2651 12.588C95.3851 12.7 95.4451 12.84 95.4451 13.008C95.4451 13.168 95.3851 13.308 95.2651 13.428C95.1531 13.548 95.0131 13.608 94.8451 13.608ZM103.743 21L103.695 20.016V17.832C103.695 17.36 103.643 16.972 103.539 16.668C103.435 16.356 103.271 16.12 103.047 15.96C102.823 15.8 102.531 15.72 102.171 15.72C101.843 15.72 101.559 15.788 101.319 15.924C101.087 16.052 100.895 16.26 100.743 16.548L99.879 16.212C100.031 15.932 100.215 15.692 100.431 15.492C100.647 15.284 100.899 15.128 101.187 15.024C101.475 14.912 101.803 14.856 102.171 14.856C102.731 14.856 103.191 14.968 103.551 15.192C103.919 15.408 104.195 15.732 104.379 16.164C104.563 16.588 104.651 17.116 104.643 17.748L104.631 21H103.743ZM101.943 21.144C101.239 21.144 100.687 20.984 100.287 20.664C99.895 20.336 99.699 19.884 99.699 19.308C99.699 18.7 99.899 18.236 100.299 17.916C100.707 17.588 101.275 17.424 102.003 17.424H103.719V18.228H102.219C101.659 18.228 101.259 18.32 101.019 18.504C100.787 18.688 100.671 18.952 100.671 19.296C100.671 19.608 100.787 19.856 101.019 20.04C101.251 20.216 101.575 20.304 101.991 20.304C102.335 20.304 102.635 20.232 102.891 20.088C103.147 19.936 103.343 19.724 103.479 19.452C103.623 19.172 103.695 18.844 103.695 18.468H104.103C104.103 19.284 103.919 19.936 103.551 20.424C103.183 20.904 102.647 21.144 101.943 21.144ZM108.264 21.144C107.824 21.144 107.44 21.08 107.112 20.952C106.784 20.816 106.508 20.64 106.284 20.424C106.068 20.208 105.912 19.972 105.816 19.716L106.656 19.368C106.792 19.64 106.996 19.86 107.268 20.028C107.54 20.196 107.84 20.28 108.168 20.28C108.544 20.28 108.86 20.208 109.116 20.064C109.372 19.912 109.5 19.7 109.5 19.428C109.5 19.18 109.404 18.98 109.212 18.828C109.028 18.676 108.752 18.552 108.384 18.456L107.808 18.3C107.264 18.156 106.84 17.94 106.536 17.652C106.232 17.356 106.08 17.024 106.08 16.656C106.08 16.088 106.264 15.648 106.632 15.336C107.008 15.016 107.564 14.856 108.3 14.856C108.652 14.856 108.972 14.908 109.26 15.012C109.548 15.116 109.796 15.264 110.004 15.456C110.212 15.64 110.364 15.86 110.46 16.116L109.62 16.488C109.516 16.216 109.344 16.02 109.104 15.9C108.864 15.78 108.572 15.72 108.228 15.72C107.86 15.72 107.572 15.8 107.364 15.96C107.156 16.112 107.052 16.328 107.052 16.608C107.052 16.768 107.136 16.92 107.304 17.064C107.48 17.2 107.736 17.312 108.072 17.4L108.672 17.556C109.064 17.652 109.392 17.796 109.656 17.988C109.92 18.172 110.12 18.384 110.256 18.624C110.392 18.864 110.46 19.12 110.46 19.392C110.46 19.752 110.364 20.064 110.172 20.328C109.98 20.592 109.72 20.796 109.392 20.94C109.064 21.076 108.688 21.144 108.264 21.144ZM113.854 21.144C113.414 21.144 113.03 21.08 112.702 20.952C112.374 20.816 112.098 20.64 111.874 20.424C111.658 20.208 111.502 19.972 111.406 19.716L112.246 19.368C112.382 19.64 112.586 19.86 112.858 20.028C113.13 20.196 113.43 20.28 113.758 20.28C114.134 20.28 114.45 20.208 114.706 20.064C114.962 19.912 115.09 19.7 115.09 19.428C115.09 19.18 114.994 18.98 114.802 18.828C114.618 18.676 114.342 18.552 113.974 18.456L113.398 18.3C112.854 18.156 112.43 17.94 112.126 17.652C111.822 17.356 111.67 17.024 111.67 16.656C111.67 16.088 111.854 15.648 112.222 15.336C112.598 15.016 113.154 14.856 113.89 14.856C114.242 14.856 114.562 14.908 114.85 15.012C115.138 15.116 115.386 15.264 115.594 15.456C115.802 15.64 115.954 15.86 116.05 16.116L115.21 16.488C115.106 16.216 114.934 16.02 114.694 15.9C114.454 15.78 114.162 15.72 113.818 15.72C113.45 15.72 113.162 15.8 112.954 15.96C112.746 16.112 112.642 16.328 112.642 16.608C112.642 16.768 112.726 16.92 112.894 17.064C113.07 17.2 113.326 17.312 113.662 17.4L114.262 17.556C114.654 17.652 114.982 17.796 115.246 17.988C115.51 18.172 115.71 18.384 115.846 18.624C115.982 18.864 116.05 19.12 116.05 19.392C116.05 19.752 115.954 20.064 115.762 20.328C115.57 20.592 115.31 20.796 114.982 20.94C114.654 21.076 114.278 21.144 113.854 21.144ZM117.404 21V15H118.364V21H117.404ZM117.896 13.608C117.736 13.608 117.596 13.548 117.476 13.428C117.356 13.308 117.296 13.168 117.296 13.008C117.296 12.84 117.356 12.7 117.476 12.588C117.596 12.468 117.736 12.408 117.896 12.408C118.064 12.408 118.204 12.468 118.316 12.588C118.436 12.7 118.496 12.84 118.496 13.008C118.496 13.168 118.436 13.308 118.316 13.428C118.204 13.548 118.064 13.608 117.896 13.608ZM122.233 21.144C121.793 21.144 121.409 21.08 121.081 20.952C120.753 20.816 120.477 20.64 120.253 20.424C120.037 20.208 119.881 19.972 119.785 19.716L120.625 19.368C120.761 19.64 120.965 19.86 121.237 20.028C121.509 20.196 121.809 20.28 122.137 20.28C122.513 20.28 122.829 20.208 123.085 20.064C123.341 19.912 123.469 19.7 123.469 19.428C123.469 19.18 123.373 18.98 123.181 18.828C122.997 18.676 122.721 18.552 122.353 18.456L121.777 18.3C121.233 18.156 120.809 17.94 120.505 17.652C120.201 17.356 120.049 17.024 120.049 16.656C120.049 16.088 120.233 15.648 120.601 15.336C120.977 15.016 121.533 14.856 122.269 14.856C122.621 14.856 122.941 14.908 123.229 15.012C123.517 15.116 123.765 15.264 123.973 15.456C124.181 15.64 124.333 15.86 124.429 16.116L123.589 16.488C123.485 16.216 123.313 16.02 123.073 15.9C122.833 15.78 122.541 15.72 122.197 15.72C121.829 15.72 121.541 15.8 121.333 15.96C121.125 16.112 121.021 16.328 121.021 16.608C121.021 16.768 121.105 16.92 121.273 17.064C121.449 17.2 121.705 17.312 122.041 17.4L122.641 17.556C123.033 17.652 123.361 17.796 123.625 17.988C123.889 18.172 124.089 18.384 124.225 18.624C124.361 18.864 124.429 19.12 124.429 19.392C124.429 19.752 124.333 20.064 124.141 20.328C123.949 20.592 123.689 20.796 123.361 20.94C123.033 21.076 122.657 21.144 122.233 21.144ZM127.979 21.144C127.395 21.144 126.943 20.992 126.623 20.688C126.303 20.384 126.143 19.956 126.143 19.404V13.128H127.103V19.308C127.103 19.612 127.183 19.848 127.343 20.016C127.511 20.176 127.743 20.256 128.039 20.256C128.135 20.256 128.227 20.244 128.315 20.22C128.411 20.188 128.535 20.116 128.687 20.004L129.059 20.784C128.851 20.92 128.663 21.012 128.495 21.06C128.327 21.116 128.155 21.144 127.979 21.144ZM125.099 15.852V15H128.903V15.852H125.099ZM133.763 23.544C133.611 23.544 133.435 23.512 133.235 23.448C133.035 23.392 132.823 23.316 132.599 23.22L132.959 22.416C133.143 22.496 133.303 22.556 133.439 22.596C133.583 22.636 133.695 22.656 133.775 22.656C133.991 22.656 134.167 22.596 134.303 22.476C134.447 22.364 134.567 22.2 134.663 21.984L135.347 20.352L137.567 15H138.599L135.719 21.84C135.567 22.192 135.407 22.496 135.239 22.752C135.079 23.008 134.883 23.204 134.651 23.34C134.419 23.476 134.123 23.544 133.763 23.544ZM135.083 21L132.491 15H133.511L135.743 20.34L136.031 21H135.083ZM142.051 21.144C141.467 21.144 140.947 21.012 140.491 20.748C140.043 20.476 139.691 20.104 139.435 19.632C139.179 19.16 139.051 18.616 139.051 18C139.051 17.384 139.175 16.84 139.423 16.368C139.679 15.896 140.031 15.528 140.479 15.264C140.935 14.992 141.451 14.856 142.027 14.856C142.619 14.856 143.139 14.992 143.587 15.264C144.043 15.528 144.395 15.896 144.643 16.368C144.899 16.84 145.027 17.384 145.027 18C145.027 18.616 144.899 19.16 144.643 19.632C144.395 20.104 144.047 20.476 143.599 20.748C143.151 21.012 142.635 21.144 142.051 21.144ZM142.051 20.256C142.451 20.256 142.799 20.16 143.095 19.968C143.391 19.776 143.623 19.512 143.791 19.176C143.967 18.84 144.055 18.448 144.055 18C144.055 17.552 143.967 17.16 143.791 16.824C143.623 16.488 143.387 16.224 143.083 16.032C142.779 15.84 142.427 15.744 142.027 15.744C141.635 15.744 141.287 15.84 140.983 16.032C140.687 16.224 140.451 16.488 140.275 16.824C140.107 17.16 140.023 17.552 140.023 18C140.023 18.44 140.107 18.832 140.275 19.176C140.451 19.512 140.691 19.776 140.995 19.968C141.307 20.16 141.659 20.256 142.051 20.256ZM150.476 21L150.416 19.896V15H151.376V21H150.476ZM146.204 18.072V15H147.164V18.072H146.204ZM147.164 18.072C147.164 18.664 147.232 19.116 147.368 19.428C147.504 19.74 147.692 19.956 147.932 20.076C148.18 20.188 148.456 20.244 148.76 20.244C149.28 20.244 149.684 20.056 149.972 19.68C150.268 19.304 150.416 18.78 150.416 18.108H150.884C150.884 18.74 150.792 19.284 150.608 19.74C150.424 20.196 150.156 20.544 149.804 20.784C149.46 21.024 149.036 21.144 148.532 21.144C148.068 21.144 147.66 21.052 147.308 20.868C146.956 20.676 146.684 20.376 146.492 19.968C146.3 19.552 146.204 19.016 146.204 18.36V18.072H147.164ZM161.464 21L163.492 15H164.464L162.424 21H161.464ZM157.384 21L159.412 15H160.312L158.308 21H157.384ZM157.336 21L155.296 15H156.268L158.272 21H157.336ZM161.464 21L159.46 15H160.372L162.376 21H161.464ZM165.486 21V15H166.446V21H165.486ZM165.978 13.608C165.818 13.608 165.678 13.548 165.558 13.428C165.438 13.308 165.378 13.168 165.378 13.008C165.378 12.84 165.438 12.7 165.558 12.588C165.678 12.468 165.818 12.408 165.978 12.408C166.146 12.408 166.286 12.468 166.398 12.588C166.518 12.7 166.578 12.84 166.578 13.008C166.578 13.168 166.518 13.308 166.398 13.428C166.286 13.548 166.146 13.608 165.978 13.608ZM170.471 21.144C169.887 21.144 169.435 20.992 169.115 20.688C168.795 20.384 168.635 19.956 168.635 19.404V13.128H169.595V19.308C169.595 19.612 169.675 19.848 169.835 20.016C170.003 20.176 170.235 20.256 170.531 20.256C170.627 20.256 170.719 20.244 170.807 20.22C170.903 20.188 171.027 20.116 171.179 20.004L171.551 20.784C171.343 20.92 171.155 21.012 170.987 21.06C170.819 21.116 170.647 21.144 170.471 21.144ZM167.591 15.852V15H171.395V15.852H167.591ZM172.75 21V12.6H173.71V21H172.75ZM176.974 21V17.928H177.934V21H176.974ZM176.974 17.928C176.974 17.336 176.902 16.884 176.758 16.572C176.622 16.26 176.434 16.048 176.194 15.936C175.954 15.816 175.682 15.756 175.378 15.756C174.85 15.756 174.438 15.944 174.142 16.32C173.854 16.688 173.71 17.212 173.71 17.892H173.242C173.242 17.26 173.334 16.716 173.518 16.26C173.71 15.804 173.982 15.456 174.334 15.216C174.686 14.976 175.11 14.856 175.606 14.856C176.07 14.856 176.478 14.952 176.83 15.144C177.182 15.328 177.454 15.624 177.646 16.032C177.846 16.44 177.942 16.976 177.934 17.64V17.928H176.974ZM184.662 21.144C184.078 21.144 183.626 20.992 183.306 20.688C182.986 20.384 182.826 19.956 182.826 19.404V13.128H183.786V19.308C183.786 19.612 183.866 19.848 184.026 20.016C184.194 20.176 184.426 20.256 184.722 20.256C184.818 20.256 184.91 20.244 184.998 20.22C185.094 20.188 185.218 20.116 185.37 20.004L185.742 20.784C185.534 20.92 185.346 21.012 185.178 21.06C185.01 21.116 184.838 21.144 184.662 21.144ZM181.782 15.852V15H185.586V15.852H181.782ZM189.558 21.144C188.974 21.144 188.454 21.012 187.998 20.748C187.55 20.476 187.198 20.104 186.942 19.632C186.686 19.16 186.558 18.616 186.558 18C186.558 17.384 186.682 16.84 186.93 16.368C187.186 15.896 187.538 15.528 187.986 15.264C188.442 14.992 188.958 14.856 189.534 14.856C190.126 14.856 190.646 14.992 191.094 15.264C191.55 15.528 191.902 15.896 192.15 16.368C192.406 16.84 192.534 17.384 192.534 18C192.534 18.616 192.406 19.16 192.15 19.632C191.902 20.104 191.554 20.476 191.106 20.748C190.658 21.012 190.142 21.144 189.558 21.144ZM189.558 20.256C189.958 20.256 190.306 20.16 190.602 19.968C190.898 19.776 191.13 19.512 191.298 19.176C191.474 18.84 191.562 18.448 191.562 18C191.562 17.552 191.474 17.16 191.298 16.824C191.13 16.488 190.894 16.224 190.59 16.032C190.286 15.84 189.934 15.744 189.534 15.744C189.142 15.744 188.794 15.84 188.49 16.032C188.194 16.224 187.958 16.488 187.782 16.824C187.614 17.16 187.53 17.552 187.53 18C187.53 18.44 187.614 18.832 187.782 19.176C187.958 19.512 188.198 19.776 188.502 19.968C188.814 20.16 189.166 20.256 189.558 20.256ZM198.307 21L198.259 19.884V12.6H199.219V21H198.307ZM196.231 21.144C195.695 21.144 195.223 21.012 194.815 20.748C194.407 20.484 194.087 20.116 193.855 19.644C193.631 19.164 193.519 18.616 193.519 18C193.519 17.376 193.631 16.828 193.855 16.356C194.087 15.884 194.407 15.516 194.815 15.252C195.223 14.988 195.695 14.856 196.231 14.856C196.735 14.856 197.175 14.988 197.551 15.252C197.935 15.516 198.231 15.884 198.439 16.356C198.647 16.828 198.751 17.376 198.751 18C198.751 18.616 198.647 19.164 198.439 19.644C198.231 20.116 197.935 20.484 197.551 20.748C197.175 21.012 196.735 21.144 196.231 21.144ZM196.447 20.268C196.799 20.268 197.111 20.172 197.383 19.98C197.655 19.788 197.867 19.52 198.019 19.176C198.179 18.832 198.259 18.44 198.259 18C198.259 17.56 198.179 17.168 198.019 16.824C197.867 16.48 197.655 16.212 197.383 16.02C197.111 15.828 196.795 15.732 196.435 15.732C196.059 15.732 195.723 15.828 195.427 16.02C195.139 16.212 194.911 16.48 194.743 16.824C194.575 17.168 194.491 17.56 194.491 18C194.491 18.44 194.575 18.832 194.743 19.176C194.911 19.52 195.143 19.788 195.439 19.98C195.735 20.172 196.071 20.268 196.447 20.268ZM204.595 21L204.547 20.016V17.832C204.547 17.36 204.495 16.972 204.391 16.668C204.287 16.356 204.123 16.12 203.899 15.96C203.675 15.8 203.383 15.72 203.023 15.72C202.695 15.72 202.411 15.788 202.171 15.924C201.939 16.052 201.747 16.26 201.595 16.548L200.731 16.212C200.883 15.932 201.067 15.692 201.283 15.492C201.499 15.284 201.751 15.128 202.039 15.024C202.327 14.912 202.655 14.856 203.023 14.856C203.583 14.856 204.043 14.968 204.403 15.192C204.771 15.408 205.047 15.732 205.231 16.164C205.415 16.588 205.503 17.116 205.495 17.748L205.483 21H204.595ZM202.795 21.144C202.091 21.144 201.539 20.984 201.139 20.664C200.747 20.336 200.551 19.884 200.551 19.308C200.551 18.7 200.751 18.236 201.151 17.916C201.559 17.588 202.127 17.424 202.855 17.424H204.571V18.228H203.071C202.511 18.228 202.111 18.32 201.871 18.504C201.639 18.688 201.523 18.952 201.523 19.296C201.523 19.608 201.639 19.856 201.871 20.04C202.103 20.216 202.427 20.304 202.843 20.304C203.187 20.304 203.487 20.232 203.743 20.088C203.999 19.936 204.195 19.724 204.331 19.452C204.475 19.172 204.547 18.844 204.547 18.468H204.955C204.955 19.284 204.771 19.936 204.403 20.424C204.035 20.904 203.499 21.144 202.795 21.144ZM207.462 23.544C207.31 23.544 207.134 23.512 206.934 23.448C206.734 23.392 206.522 23.316 206.298 23.22L206.658 22.416C206.842 22.496 207.002 22.556 207.138 22.596C207.282 22.636 207.394 22.656 207.474 22.656C207.69 22.656 207.866 22.596 208.002 22.476C208.146 22.364 208.266 22.2 208.362 21.984L209.046 20.352L211.266 15H212.298L209.418 21.84C209.266 22.192 209.106 22.496 208.938 22.752C208.778 23.008 208.582 23.204 208.35 23.34C208.118 23.476 207.822 23.544 207.462 23.544ZM208.782 21L206.19 15H207.21L209.442 20.34L209.73 21H208.782ZM214.498 18.744L214.486 16.608L215.11 16.584C215.638 16.576 216.07 16.428 216.406 16.14C216.742 15.844 216.91 15.444 216.91 14.94C216.91 14.484 216.75 14.108 216.43 13.812C216.118 13.508 215.71 13.356 215.206 13.356C214.838 13.356 214.514 13.444 214.234 13.62C213.962 13.788 213.778 14 213.682 14.256L212.782 13.98C212.942 13.532 213.23 13.168 213.646 12.888C214.07 12.6 214.59 12.456 215.206 12.456C215.734 12.456 216.198 12.564 216.598 12.78C216.998 12.988 217.314 13.28 217.546 13.656C217.778 14.032 217.894 14.46 217.894 14.94C217.894 15.396 217.79 15.8 217.582 16.152C217.382 16.504 217.102 16.788 216.742 17.004C216.382 17.212 215.962 17.336 215.482 17.376V18.744H214.498ZM214.99 21.168C214.798 21.168 214.638 21.104 214.51 20.976C214.382 20.848 214.318 20.692 214.318 20.508C214.318 20.316 214.382 20.156 214.51 20.028C214.638 19.9 214.798 19.836 214.99 19.836C215.182 19.836 215.338 19.9 215.458 20.028C215.586 20.156 215.65 20.316 215.65 20.508C215.65 20.692 215.586 20.848 215.458 20.976C215.338 21.104 215.182 21.168 214.99 21.168Z" fill="#171A16"/>
<rect x="177" y="46" width="84" height="34" rx="8" fill="#D7FAD1"/>
<path d="M188.804 67.144C188.34 67.144 187.928 67.096 187.568 67C187.208 66.896 186.896 66.756 186.632 66.58C186.368 66.396 186.152 66.196 185.984 65.98C185.816 65.756 185.692 65.52 185.612 65.272L186.584 64.936C186.704 65.288 186.944 65.596 187.304 65.86C187.672 66.116 188.12 66.244 188.648 66.244C189.296 66.244 189.804 66.116 190.172 65.86C190.54 65.604 190.724 65.264 190.724 64.84C190.724 64.448 190.56 64.132 190.232 63.892C189.904 63.644 189.472 63.452 188.936 63.316L188.012 63.076C187.636 62.98 187.288 62.84 186.968 62.656C186.656 62.464 186.404 62.224 186.212 61.936C186.028 61.64 185.936 61.288 185.936 60.88C185.936 60.12 186.18 59.528 186.668 59.104C187.164 58.672 187.876 58.456 188.804 58.456C189.356 58.456 189.832 58.548 190.232 58.732C190.632 58.908 190.956 59.136 191.204 59.416C191.46 59.688 191.64 59.984 191.744 60.304L190.784 60.64C190.632 60.24 190.376 59.928 190.016 59.704C189.656 59.472 189.22 59.356 188.708 59.356C188.172 59.356 187.744 59.488 187.424 59.752C187.112 60.008 186.956 60.36 186.956 60.808C186.956 61.192 187.08 61.488 187.328 61.696C187.576 61.896 187.9 62.044 188.3 62.14L189.224 62.368C190.04 62.56 190.664 62.88 191.096 63.328C191.536 63.768 191.756 64.244 191.756 64.756C191.756 65.196 191.644 65.6 191.42 65.968C191.196 66.328 190.864 66.616 190.424 66.832C189.992 67.04 189.452 67.144 188.804 67.144ZM195.839 67.144C195.255 67.144 194.739 67.012 194.291 66.748C193.843 66.476 193.491 66.104 193.235 65.632C192.987 65.16 192.863 64.616 192.863 64C192.863 63.384 192.987 62.84 193.235 62.368C193.491 61.896 193.839 61.528 194.279 61.264C194.727 60.992 195.239 60.856 195.815 60.856C196.375 60.856 196.859 60.996 197.267 61.276C197.675 61.548 197.991 61.932 198.215 62.428C198.439 62.924 198.551 63.508 198.551 64.18H193.595L193.835 63.976C193.835 64.456 193.919 64.868 194.087 65.212C194.263 65.556 194.507 65.82 194.819 66.004C195.131 66.18 195.487 66.268 195.887 66.268C196.311 66.268 196.667 66.168 196.955 65.968C197.251 65.768 197.479 65.504 197.639 65.176L198.467 65.596C198.315 65.908 198.111 66.18 197.855 66.412C197.607 66.644 197.311 66.824 196.967 66.952C196.631 67.08 196.255 67.144 195.839 67.144ZM193.895 63.568L193.643 63.376H197.783L197.531 63.58C197.531 63.196 197.455 62.864 197.303 62.584C197.151 62.304 196.947 62.088 196.691 61.936C196.435 61.784 196.139 61.708 195.803 61.708C195.475 61.708 195.163 61.784 194.867 61.936C194.579 62.088 194.343 62.304 194.159 62.584C193.983 62.856 193.895 63.184 193.895 63.568ZM199.762 67V61H200.662L200.722 62.104V67H199.762ZM203.974 67V63.928H204.934V67H203.974ZM203.974 63.928C203.974 63.336 203.906 62.884 203.77 62.572C203.634 62.26 203.446 62.048 203.206 61.936C202.966 61.816 202.694 61.756 202.39 61.756C201.862 61.756 201.45 61.944 201.154 62.32C200.866 62.688 200.722 63.212 200.722 63.892H200.254C200.254 63.26 200.346 62.716 200.53 62.26C200.714 61.804 200.982 61.456 201.334 61.216C201.686 60.976 202.11 60.856 202.606 60.856C203.078 60.856 203.486 60.952 203.83 61.144C204.182 61.328 204.454 61.624 204.646 62.032C204.846 62.44 204.942 62.976 204.934 63.64V63.928H203.974ZM210.893 67L210.845 65.884V58.6H211.805V67H210.893ZM208.817 67.144C208.281 67.144 207.809 67.012 207.401 66.748C206.993 66.484 206.673 66.116 206.441 65.644C206.217 65.164 206.105 64.616 206.105 64C206.105 63.376 206.217 62.828 206.441 62.356C206.673 61.884 206.993 61.516 207.401 61.252C207.809 60.988 208.281 60.856 208.817 60.856C209.321 60.856 209.761 60.988 210.137 61.252C210.521 61.516 210.817 61.884 211.025 62.356C211.233 62.828 211.337 63.376 211.337 64C211.337 64.616 211.233 65.164 211.025 65.644C210.817 66.116 210.521 66.484 210.137 66.748C209.761 67.012 209.321 67.144 208.817 67.144ZM209.033 66.268C209.385 66.268 209.697 66.172 209.969 65.98C210.241 65.788 210.453 65.52 210.605 65.176C210.765 64.832 210.845 64.44 210.845 64C210.845 63.56 210.765 63.168 210.605 62.824C210.453 62.48 210.241 62.212 209.969 62.02C209.697 61.828 209.381 61.732 209.021 61.732C208.645 61.732 208.309 61.828 208.013 62.02C207.725 62.212 207.497 62.48 207.329 62.824C207.161 63.168 207.077 63.56 207.077 64C207.077 64.44 207.161 64.832 207.329 65.176C207.497 65.52 207.729 65.788 208.025 65.98C208.321 66.172 208.657 66.268 209.033 66.268ZM216.449 67V61H217.349L217.397 61.84C217.581 61.52 217.817 61.276 218.105 61.108C218.393 60.94 218.729 60.856 219.113 60.856C219.593 60.856 220.001 60.968 220.337 61.192C220.681 61.416 220.929 61.756 221.081 62.212C221.249 61.772 221.493 61.436 221.813 61.204C222.141 60.972 222.529 60.856 222.977 60.856C223.649 60.856 224.177 61.08 224.561 61.528C224.953 61.976 225.145 62.656 225.137 63.568V67H224.177V63.928C224.177 63.336 224.113 62.884 223.985 62.572C223.865 62.26 223.701 62.048 223.493 61.936C223.285 61.816 223.045 61.756 222.773 61.756C222.301 61.756 221.933 61.944 221.669 62.32C221.405 62.688 221.273 63.212 221.273 63.892V67H220.313V63.928C220.313 63.336 220.249 62.884 220.121 62.572C220.001 62.26 219.833 62.048 219.617 61.936C219.409 61.816 219.169 61.756 218.897 61.756C218.433 61.756 218.069 61.944 217.805 62.32C217.541 62.688 217.409 63.212 217.409 63.892V67H216.449ZM229.308 67.144C228.724 67.144 228.204 67.012 227.748 66.748C227.3 66.476 226.948 66.104 226.692 65.632C226.436 65.16 226.308 64.616 226.308 64C226.308 63.384 226.432 62.84 226.68 62.368C226.936 61.896 227.288 61.528 227.736 61.264C228.192 60.992 228.708 60.856 229.284 60.856C229.876 60.856 230.396 60.992 230.844 61.264C231.3 61.528 231.652 61.896 231.9 62.368C232.156 62.84 232.284 63.384 232.284 64C232.284 64.616 232.156 65.16 231.9 65.632C231.652 66.104 231.304 66.476 230.856 66.748C230.408 67.012 229.892 67.144 229.308 67.144ZM229.308 66.256C229.708 66.256 230.056 66.16 230.352 65.968C230.648 65.776 230.88 65.512 231.048 65.176C231.224 64.84 231.312 64.448 231.312 64C231.312 63.552 231.224 63.16 231.048 62.824C230.88 62.488 230.644 62.224 230.34 62.032C230.036 61.84 229.684 61.744 229.284 61.744C228.892 61.744 228.544 61.84 228.24 62.032C227.944 62.224 227.708 62.488 227.532 62.824C227.364 63.16 227.28 63.552 227.28 64C227.28 64.44 227.364 64.832 227.532 65.176C227.708 65.512 227.948 65.776 228.252 65.968C228.564 66.16 228.916 66.256 229.308 66.256ZM233.617 67V61H234.517L234.577 62.104V67H233.617ZM237.829 67V63.928H238.789V67H237.829ZM237.829 63.928C237.829 63.336 237.761 62.884 237.625 62.572C237.489 62.26 237.301 62.048 237.061 61.936C236.821 61.816 236.549 61.756 236.245 61.756C235.717 61.756 235.305 61.944 235.009 62.32C234.721 62.688 234.577 63.212 234.577 63.892H234.109C234.109 63.26 234.201 62.716 234.385 62.26C234.569 61.804 234.837 61.456 235.189 61.216C235.541 60.976 235.965 60.856 236.461 60.856C236.933 60.856 237.341 60.952 237.685 61.144C238.037 61.328 238.309 61.624 238.501 62.032C238.701 62.44 238.797 62.976 238.789 63.64V63.928H237.829ZM242.937 67.144C242.353 67.144 241.837 67.012 241.389 66.748C240.941 66.476 240.589 66.104 240.333 65.632C240.085 65.16 239.961 64.616 239.961 64C239.961 63.384 240.085 62.84 240.333 62.368C240.589 61.896 240.937 61.528 241.377 61.264C241.825 60.992 242.337 60.856 242.913 60.856C243.473 60.856 243.957 60.996 244.365 61.276C244.773 61.548 245.089 61.932 245.313 62.428C245.537 62.924 245.649 63.508 245.649 64.18H240.693L240.933 63.976C240.933 64.456 241.017 64.868 241.185 65.212C241.361 65.556 241.605 65.82 241.917 66.004C242.229 66.18 242.585 66.268 242.985 66.268C243.409 66.268 243.765 66.168 244.053 65.968C244.349 65.768 244.577 65.504 244.737 65.176L245.565 65.596C245.413 65.908 245.209 66.18 244.953 66.412C244.705 66.644 244.409 66.824 244.065 66.952C243.729 67.08 243.353 67.144 242.937 67.144ZM240.993 63.568L240.741 63.376H244.881L244.629 63.58C244.629 63.196 244.553 62.864 244.401 62.584C244.249 62.304 244.045 62.088 243.789 61.936C243.533 61.784 243.237 61.708 242.901 61.708C242.573 61.708 242.261 61.784 241.965 61.936C241.677 62.088 241.441 62.304 241.257 62.584C241.081 62.856 240.993 63.184 240.993 63.568ZM247.247 69.544C247.095 69.544 246.919 69.512 246.719 69.448C246.519 69.392 246.307 69.316 246.083 69.22L246.443 68.416C246.627 68.496 246.787 68.556 246.923 68.596C247.067 68.636 247.179 68.656 247.259 68.656C247.475 68.656 247.651 68.596 247.787 68.476C247.931 68.364 248.051 68.2 248.147 67.984L248.831 66.352L251.051 61H252.083L249.203 67.84C249.051 68.192 248.891 68.496 248.723 68.752C248.563 69.008 248.367 69.204 248.135 69.34C247.903 69.476 247.607 69.544 247.247 69.544ZM248.567 67L245.975 61H246.995L249.227 66.34L249.515 67H248.567Z" fill="#171A16"/>
</svg>
