<svg width="291" height="137" viewBox="0 0 291 137" fill="none" xmlns="http://www.w3.org/2000/svg">
<rect width="291" height="137" fill="#FAFAFA"/>
<rect x="192" y="29" width="84" height="34" rx="8" fill="#D7FAD1"/>
<path d="M203.804 50.144C203.34 50.144 202.928 50.096 202.568 50C202.208 49.896 201.896 49.756 201.632 49.58C201.368 49.396 201.152 49.196 200.984 48.98C200.816 48.756 200.692 48.52 200.612 48.272L201.584 47.936C201.704 48.288 201.944 48.596 202.304 48.86C202.672 49.116 203.12 49.244 203.648 49.244C204.296 49.244 204.804 49.116 205.172 48.86C205.54 48.604 205.724 48.264 205.724 47.84C205.724 47.448 205.56 47.132 205.232 46.892C204.904 46.644 204.472 46.452 203.936 46.316L203.012 46.076C202.636 45.98 202.288 45.84 201.968 45.656C201.656 45.464 201.404 45.224 201.212 44.936C201.028 44.64 200.936 44.288 200.936 43.88C200.936 43.12 201.18 42.528 201.668 42.104C202.164 41.672 202.876 41.456 203.804 41.456C204.356 41.456 204.832 41.548 205.232 41.732C205.632 41.908 205.956 42.136 206.204 42.416C206.46 42.688 206.64 42.984 206.744 43.304L205.784 43.64C205.632 43.24 205.376 42.928 205.016 42.704C204.656 42.472 204.22 42.356 203.708 42.356C203.172 42.356 202.744 42.488 202.424 42.752C202.112 43.008 201.956 43.36 201.956 43.808C201.956 44.192 202.08 44.488 202.328 44.696C202.576 44.896 202.9 45.044 203.3 45.14L204.224 45.368C205.04 45.56 205.664 45.88 206.096 46.328C206.536 46.768 206.756 47.244 206.756 47.756C206.756 48.196 206.644 48.6 206.42 48.968C206.196 49.328 205.864 49.616 205.424 49.832C204.992 50.04 204.452 50.144 203.804 50.144ZM210.839 50.144C210.255 50.144 209.739 50.012 209.291 49.748C208.843 49.476 208.491 49.104 208.235 48.632C207.987 48.16 207.863 47.616 207.863 47C207.863 46.384 207.987 45.84 208.235 45.368C208.491 44.896 208.839 44.528 209.279 44.264C209.727 43.992 210.239 43.856 210.815 43.856C211.375 43.856 211.859 43.996 212.267 44.276C212.675 44.548 212.991 44.932 213.215 45.428C213.439 45.924 213.551 46.508 213.551 47.18H208.595L208.835 46.976C208.835 47.456 208.919 47.868 209.087 48.212C209.263 48.556 209.507 48.82 209.819 49.004C210.131 49.18 210.487 49.268 210.887 49.268C211.311 49.268 211.667 49.168 211.955 48.968C212.251 48.768 212.479 48.504 212.639 48.176L213.467 48.596C213.315 48.908 213.111 49.18 212.855 49.412C212.607 49.644 212.311 49.824 211.967 49.952C211.631 50.08 211.255 50.144 210.839 50.144ZM208.895 46.568L208.643 46.376H212.783L212.531 46.58C212.531 46.196 212.455 45.864 212.303 45.584C212.151 45.304 211.947 45.088 211.691 44.936C211.435 44.784 211.139 44.708 210.803 44.708C210.475 44.708 210.163 44.784 209.867 44.936C209.579 45.088 209.343 45.304 209.159 45.584C208.983 45.856 208.895 46.184 208.895 46.568ZM214.762 50V44H215.662L215.722 45.104V50H214.762ZM218.974 50V46.928H219.934V50H218.974ZM218.974 46.928C218.974 46.336 218.906 45.884 218.77 45.572C218.634 45.26 218.446 45.048 218.206 44.936C217.966 44.816 217.694 44.756 217.39 44.756C216.862 44.756 216.45 44.944 216.154 45.32C215.866 45.688 215.722 46.212 215.722 46.892H215.254C215.254 46.26 215.346 45.716 215.53 45.26C215.714 44.804 215.982 44.456 216.334 44.216C216.686 43.976 217.11 43.856 217.606 43.856C218.078 43.856 218.486 43.952 218.83 44.144C219.182 44.328 219.454 44.624 219.646 45.032C219.846 45.44 219.942 45.976 219.934 46.64V46.928H218.974ZM225.893 50L225.845 48.884V41.6H226.805V50H225.893ZM223.817 50.144C223.281 50.144 222.809 50.012 222.401 49.748C221.993 49.484 221.673 49.116 221.441 48.644C221.217 48.164 221.105 47.616 221.105 47C221.105 46.376 221.217 45.828 221.441 45.356C221.673 44.884 221.993 44.516 222.401 44.252C222.809 43.988 223.281 43.856 223.817 43.856C224.321 43.856 224.761 43.988 225.137 44.252C225.521 44.516 225.817 44.884 226.025 45.356C226.233 45.828 226.337 46.376 226.337 47C226.337 47.616 226.233 48.164 226.025 48.644C225.817 49.116 225.521 49.484 225.137 49.748C224.761 50.012 224.321 50.144 223.817 50.144ZM224.033 49.268C224.385 49.268 224.697 49.172 224.969 48.98C225.241 48.788 225.453 48.52 225.605 48.176C225.765 47.832 225.845 47.44 225.845 47C225.845 46.56 225.765 46.168 225.605 45.824C225.453 45.48 225.241 45.212 224.969 45.02C224.697 44.828 224.381 44.732 224.021 44.732C223.645 44.732 223.309 44.828 223.013 45.02C222.725 45.212 222.497 45.48 222.329 45.824C222.161 46.168 222.077 46.56 222.077 47C222.077 47.44 222.161 47.832 222.329 48.176C222.497 48.52 222.729 48.788 223.025 48.98C223.321 49.172 223.657 49.268 224.033 49.268ZM231.449 50V44H232.349L232.397 44.84C232.581 44.52 232.817 44.276 233.105 44.108C233.393 43.94 233.729 43.856 234.113 43.856C234.593 43.856 235.001 43.968 235.337 44.192C235.681 44.416 235.929 44.756 236.081 45.212C236.249 44.772 236.493 44.436 236.813 44.204C237.141 43.972 237.529 43.856 237.977 43.856C238.649 43.856 239.177 44.08 239.561 44.528C239.953 44.976 240.145 45.656 240.137 46.568V50H239.177V46.928C239.177 46.336 239.113 45.884 238.985 45.572C238.865 45.26 238.701 45.048 238.493 44.936C238.285 44.816 238.045 44.756 237.773 44.756C237.301 44.756 236.933 44.944 236.669 45.32C236.405 45.688 236.273 46.212 236.273 46.892V50H235.313V46.928C235.313 46.336 235.249 45.884 235.121 45.572C235.001 45.26 234.833 45.048 234.617 44.936C234.409 44.816 234.169 44.756 233.897 44.756C233.433 44.756 233.069 44.944 232.805 45.32C232.541 45.688 232.409 46.212 232.409 46.892V50H231.449ZM244.308 50.144C243.724 50.144 243.204 50.012 242.748 49.748C242.3 49.476 241.948 49.104 241.692 48.632C241.436 48.16 241.308 47.616 241.308 47C241.308 46.384 241.432 45.84 241.68 45.368C241.936 44.896 242.288 44.528 242.736 44.264C243.192 43.992 243.708 43.856 244.284 43.856C244.876 43.856 245.396 43.992 245.844 44.264C246.3 44.528 246.652 44.896 246.9 45.368C247.156 45.84 247.284 46.384 247.284 47C247.284 47.616 247.156 48.16 246.9 48.632C246.652 49.104 246.304 49.476 245.856 49.748C245.408 50.012 244.892 50.144 244.308 50.144ZM244.308 49.256C244.708 49.256 245.056 49.16 245.352 48.968C245.648 48.776 245.88 48.512 246.048 48.176C246.224 47.84 246.312 47.448 246.312 47C246.312 46.552 246.224 46.16 246.048 45.824C245.88 45.488 245.644 45.224 245.34 45.032C245.036 44.84 244.684 44.744 244.284 44.744C243.892 44.744 243.544 44.84 243.24 45.032C242.944 45.224 242.708 45.488 242.532 45.824C242.364 46.16 242.28 46.552 242.28 47C242.28 47.44 242.364 47.832 242.532 48.176C242.708 48.512 242.948 48.776 243.252 48.968C243.564 49.16 243.916 49.256 244.308 49.256ZM248.617 50V44H249.517L249.577 45.104V50H248.617ZM252.829 50V46.928H253.789V50H252.829ZM252.829 46.928C252.829 46.336 252.761 45.884 252.625 45.572C252.489 45.26 252.301 45.048 252.061 44.936C251.821 44.816 251.549 44.756 251.245 44.756C250.717 44.756 250.305 44.944 250.009 45.32C249.721 45.688 249.577 46.212 249.577 46.892H249.109C249.109 46.26 249.201 45.716 249.385 45.26C249.569 44.804 249.837 44.456 250.189 44.216C250.541 43.976 250.965 43.856 251.461 43.856C251.933 43.856 252.341 43.952 252.685 44.144C253.037 44.328 253.309 44.624 253.501 45.032C253.701 45.44 253.797 45.976 253.789 46.64V46.928H252.829ZM257.937 50.144C257.353 50.144 256.837 50.012 256.389 49.748C255.941 49.476 255.589 49.104 255.333 48.632C255.085 48.16 254.961 47.616 254.961 47C254.961 46.384 255.085 45.84 255.333 45.368C255.589 44.896 255.937 44.528 256.377 44.264C256.825 43.992 257.337 43.856 257.913 43.856C258.473 43.856 258.957 43.996 259.365 44.276C259.773 44.548 260.089 44.932 260.313 45.428C260.537 45.924 260.649 46.508 260.649 47.18H255.693L255.933 46.976C255.933 47.456 256.017 47.868 256.185 48.212C256.361 48.556 256.605 48.82 256.917 49.004C257.229 49.18 257.585 49.268 257.985 49.268C258.409 49.268 258.765 49.168 259.053 48.968C259.349 48.768 259.577 48.504 259.737 48.176L260.565 48.596C260.413 48.908 260.209 49.18 259.953 49.412C259.705 49.644 259.409 49.824 259.065 49.952C258.729 50.08 258.353 50.144 257.937 50.144ZM255.993 46.568L255.741 46.376H259.881L259.629 46.58C259.629 46.196 259.553 45.864 259.401 45.584C259.249 45.304 259.045 45.088 258.789 44.936C258.533 44.784 258.237 44.708 257.901 44.708C257.573 44.708 257.261 44.784 256.965 44.936C256.677 45.088 256.441 45.304 256.257 45.584C256.081 45.856 255.993 46.184 255.993 46.568ZM262.247 52.544C262.095 52.544 261.919 52.512 261.719 52.448C261.519 52.392 261.307 52.316 261.083 52.22L261.443 51.416C261.627 51.496 261.787 51.556 261.923 51.596C262.067 51.636 262.179 51.656 262.259 51.656C262.475 51.656 262.651 51.596 262.787 51.476C262.931 51.364 263.051 51.2 263.147 50.984L263.831 49.352L266.051 44H267.083L264.203 50.84C264.051 51.192 263.891 51.496 263.723 51.752C263.563 52.008 263.367 52.204 263.135 52.34C262.903 52.476 262.607 52.544 262.247 52.544ZM263.567 50L260.975 44H261.995L264.227 49.34L264.515 50H263.567Z" fill="#171A16"/>
<rect x="15" y="75" width="135" height="34" rx="8" fill="white"/>
<path d="M27.656 96.144C26.856 96.144 26.148 95.96 25.532 95.592C24.916 95.216 24.432 94.704 24.08 94.056C23.728 93.4 23.552 92.648 23.552 91.8C23.552 90.952 23.724 90.204 24.068 89.556C24.42 88.9 24.9 88.388 25.508 88.02C26.124 87.644 26.828 87.456 27.62 87.456C28.124 87.456 28.608 87.548 29.072 87.732C29.536 87.908 29.952 88.16 30.32 88.488C30.688 88.808 30.972 89.18 31.172 89.604L30.296 90.048C30.136 89.712 29.916 89.42 29.636 89.172C29.356 88.924 29.044 88.732 28.7 88.596C28.356 88.452 27.996 88.38 27.62 88.38C27.036 88.38 26.512 88.528 26.048 88.824C25.584 89.112 25.22 89.512 24.956 90.024C24.7 90.536 24.572 91.128 24.572 91.8C24.572 92.472 24.704 93.068 24.968 93.588C25.232 94.108 25.596 94.516 26.06 94.812C26.532 95.1 27.064 95.244 27.656 95.244C28.04 95.244 28.404 95.168 28.748 95.016C29.092 94.856 29.4 94.64 29.672 94.368C29.952 94.096 30.172 93.784 30.332 93.432L31.22 93.876C31.012 94.316 30.724 94.708 30.356 95.052C29.996 95.396 29.58 95.664 29.108 95.856C28.644 96.048 28.16 96.144 27.656 96.144ZM35.1404 96.144C34.5564 96.144 34.0364 96.012 33.5804 95.748C33.1324 95.476 32.7804 95.104 32.5244 94.632C32.2684 94.16 32.1404 93.616 32.1404 93C32.1404 92.384 32.2644 91.84 32.5124 91.368C32.7684 90.896 33.1204 90.528 33.5684 90.264C34.0244 89.992 34.5404 89.856 35.1164 89.856C35.7084 89.856 36.2284 89.992 36.6764 90.264C37.1324 90.528 37.4844 90.896 37.7324 91.368C37.9884 91.84 38.1164 92.384 38.1164 93C38.1164 93.616 37.9884 94.16 37.7324 94.632C37.4844 95.104 37.1364 95.476 36.6884 95.748C36.2404 96.012 35.7244 96.144 35.1404 96.144ZM35.1404 95.256C35.5404 95.256 35.8884 95.16 36.1844 94.968C36.4804 94.776 36.7124 94.512 36.8804 94.176C37.0564 93.84 37.1444 93.448 37.1444 93C37.1444 92.552 37.0564 92.16 36.8804 91.824C36.7124 91.488 36.4764 91.224 36.1724 91.032C35.8684 90.84 35.5164 90.744 35.1164 90.744C34.7244 90.744 34.3764 90.84 34.0724 91.032C33.7764 91.224 33.5404 91.488 33.3644 91.824C33.1964 92.16 33.1124 92.552 33.1124 93C33.1124 93.44 33.1964 93.832 33.3644 94.176C33.5404 94.512 33.7804 94.776 34.0844 94.968C34.3964 95.16 34.7484 95.256 35.1404 95.256ZM42.1014 96.144C41.5174 96.144 40.9974 96.012 40.5414 95.748C40.0934 95.476 39.7414 95.104 39.4854 94.632C39.2294 94.16 39.1014 93.616 39.1014 93C39.1014 92.384 39.2254 91.84 39.4734 91.368C39.7294 90.896 40.0814 90.528 40.5294 90.264C40.9854 89.992 41.5014 89.856 42.0774 89.856C42.6694 89.856 43.1894 89.992 43.6374 90.264C44.0934 90.528 44.4454 90.896 44.6934 91.368C44.9494 91.84 45.0774 92.384 45.0774 93C45.0774 93.616 44.9494 94.16 44.6934 94.632C44.4454 95.104 44.0974 95.476 43.6494 95.748C43.2014 96.012 42.6854 96.144 42.1014 96.144ZM42.1014 95.256C42.5014 95.256 42.8494 95.16 43.1454 94.968C43.4414 94.776 43.6734 94.512 43.8414 94.176C44.0174 93.84 44.1054 93.448 44.1054 93C44.1054 92.552 44.0174 92.16 43.8414 91.824C43.6734 91.488 43.4374 91.224 43.1334 91.032C42.8294 90.84 42.4774 90.744 42.0774 90.744C41.6854 90.744 41.3374 90.84 41.0334 91.032C40.7374 91.224 40.5014 91.488 40.3254 91.824C40.1574 92.16 40.0734 92.552 40.0734 93C40.0734 93.44 40.1574 93.832 40.3254 94.176C40.5014 94.512 40.7414 94.776 41.0454 94.968C41.3574 95.16 41.7094 95.256 42.1014 95.256ZM46.4103 96V87.6H47.3703V96H46.4103ZM48.687 97.38L49.371 94.848H50.451L49.515 97.38H48.687ZM54.7789 98.4V90H55.6789L55.7389 91.104V98.4H54.7789ZM57.7669 96.144C57.2629 96.144 56.8189 96.012 56.4349 95.748C56.0589 95.484 55.7669 95.116 55.5589 94.644C55.3509 94.164 55.2469 93.616 55.2469 93C55.2469 92.376 55.3509 91.828 55.5589 91.356C55.7669 90.884 56.0589 90.516 56.4349 90.252C56.8189 89.988 57.2629 89.856 57.7669 89.856C58.3029 89.856 58.7749 89.988 59.1829 90.252C59.5909 90.516 59.9069 90.884 60.1309 91.356C60.3629 91.828 60.4789 92.376 60.4789 93C60.4789 93.616 60.3629 94.164 60.1309 94.644C59.9069 95.116 59.5909 95.484 59.1829 95.748C58.7749 96.012 58.3029 96.144 57.7669 96.144ZM57.5509 95.268C57.9269 95.268 58.2589 95.172 58.5469 94.98C58.8429 94.788 59.0749 94.52 59.2429 94.176C59.4189 93.832 59.5069 93.44 59.5069 93C59.5069 92.56 59.4229 92.168 59.2549 91.824C59.0949 91.48 58.8669 91.212 58.5709 91.02C58.2749 90.828 57.9389 90.732 57.5629 90.732C57.2109 90.732 56.8949 90.828 56.6149 91.02C56.3429 91.212 56.1269 91.48 55.9669 91.824C55.8149 92.168 55.7389 92.56 55.7389 93C55.7389 93.44 55.8149 93.832 55.9669 94.176C56.1269 94.52 56.3429 94.788 56.6149 94.98C56.8869 95.172 57.1989 95.268 57.5509 95.268ZM62.3368 92.748C62.3368 92.1 62.4608 91.576 62.7088 91.176C62.9568 90.768 63.2728 90.468 63.6568 90.276C64.0488 90.076 64.4608 89.976 64.8928 89.976V90.876C64.5408 90.876 64.2008 90.936 63.8728 91.056C63.5528 91.168 63.2888 91.356 63.0808 91.62C62.8728 91.884 62.7688 92.244 62.7688 92.7L62.3368 92.748ZM61.8088 96V90H62.7688V96H61.8088ZM68.5154 96.144C67.9314 96.144 67.4114 96.012 66.9554 95.748C66.5074 95.476 66.1554 95.104 65.8994 94.632C65.6434 94.16 65.5154 93.616 65.5154 93C65.5154 92.384 65.6394 91.84 65.8874 91.368C66.1434 90.896 66.4954 90.528 66.9434 90.264C67.3994 89.992 67.9154 89.856 68.4914 89.856C69.0834 89.856 69.6034 89.992 70.0514 90.264C70.5074 90.528 70.8594 90.896 71.1074 91.368C71.3634 91.84 71.4914 92.384 71.4914 93C71.4914 93.616 71.3634 94.16 71.1074 94.632C70.8594 95.104 70.5114 95.476 70.0634 95.748C69.6154 96.012 69.0994 96.144 68.5154 96.144ZM68.5154 95.256C68.9154 95.256 69.2634 95.16 69.5594 94.968C69.8554 94.776 70.0874 94.512 70.2554 94.176C70.4314 93.84 70.5194 93.448 70.5194 93C70.5194 92.552 70.4314 92.16 70.2554 91.824C70.0874 91.488 69.8514 91.224 69.5474 91.032C69.2434 90.84 68.8914 90.744 68.4914 90.744C68.0994 90.744 67.7514 90.84 67.4474 91.032C67.1514 91.224 66.9154 91.488 66.7394 91.824C66.5714 92.16 66.4874 92.552 66.4874 93C66.4874 93.44 66.5714 93.832 66.7394 94.176C66.9154 94.512 67.1554 94.776 67.4594 94.968C67.7714 95.16 68.1234 95.256 68.5154 95.256ZM74.508 96L76.956 90H77.964L75.456 96H74.508ZM74.448 96L71.94 90H72.936L75.384 96H74.448ZM78.9664 96V90H79.9264V96H78.9664ZM79.4584 88.608C79.2984 88.608 79.1584 88.548 79.0384 88.428C78.9184 88.308 78.8584 88.168 78.8584 88.008C78.8584 87.84 78.9184 87.7 79.0384 87.588C79.1584 87.468 79.2984 87.408 79.4584 87.408C79.6264 87.408 79.7664 87.468 79.8784 87.588C79.9984 87.7 80.0584 87.84 80.0584 88.008C80.0584 88.168 79.9984 88.308 79.8784 88.428C79.7664 88.548 79.6264 88.608 79.4584 88.608ZM86.1355 96L86.0875 94.884V87.6H87.0475V96H86.1355ZM84.0595 96.144C83.5235 96.144 83.0515 96.012 82.6435 95.748C82.2355 95.484 81.9155 95.116 81.6835 94.644C81.4595 94.164 81.3475 93.616 81.3475 93C81.3475 92.376 81.4595 91.828 81.6835 91.356C81.9155 90.884 82.2355 90.516 82.6435 90.252C83.0515 89.988 83.5235 89.856 84.0595 89.856C84.5635 89.856 85.0035 89.988 85.3795 90.252C85.7635 90.516 86.0595 90.884 86.2675 91.356C86.4755 91.828 86.5795 92.376 86.5795 93C86.5795 93.616 86.4755 94.164 86.2675 94.644C86.0595 95.116 85.7635 95.484 85.3795 95.748C85.0035 96.012 84.5635 96.144 84.0595 96.144ZM84.2755 95.268C84.6275 95.268 84.9395 95.172 85.2115 94.98C85.4835 94.788 85.6955 94.52 85.8475 94.176C86.0075 93.832 86.0875 93.44 86.0875 93C86.0875 92.56 86.0075 92.168 85.8475 91.824C85.6955 91.48 85.4835 91.212 85.2115 91.02C84.9395 90.828 84.6235 90.732 84.2635 90.732C83.8875 90.732 83.5515 90.828 83.2555 91.02C82.9675 91.212 82.7395 91.48 82.5715 91.824C82.4035 92.168 82.3195 92.56 82.3195 93C82.3195 93.44 82.4035 93.832 82.5715 94.176C82.7395 94.52 82.9715 94.788 83.2675 94.98C83.5635 95.172 83.8995 95.268 84.2755 95.268ZM91.3547 96.144C90.7707 96.144 90.2547 96.012 89.8067 95.748C89.3587 95.476 89.0067 95.104 88.7507 94.632C88.5027 94.16 88.3787 93.616 88.3787 93C88.3787 92.384 88.5027 91.84 88.7507 91.368C89.0067 90.896 89.3547 90.528 89.7947 90.264C90.2427 89.992 90.7547 89.856 91.3307 89.856C91.8907 89.856 92.3747 89.996 92.7827 90.276C93.1907 90.548 93.5067 90.932 93.7307 91.428C93.9547 91.924 94.0667 92.508 94.0667 93.18H89.1107L89.3507 92.976C89.3507 93.456 89.4347 93.868 89.6027 94.212C89.7787 94.556 90.0227 94.82 90.3347 95.004C90.6467 95.18 91.0027 95.268 91.4027 95.268C91.8267 95.268 92.1827 95.168 92.4707 94.968C92.7667 94.768 92.9947 94.504 93.1547 94.176L93.9827 94.596C93.8307 94.908 93.6267 95.18 93.3707 95.412C93.1227 95.644 92.8267 95.824 92.4827 95.952C92.1467 96.08 91.7707 96.144 91.3547 96.144ZM89.4107 92.568L89.1587 92.376H93.2987L93.0467 92.58C93.0467 92.196 92.9707 91.864 92.8187 91.584C92.6667 91.304 92.4627 91.088 92.2067 90.936C91.9507 90.784 91.6547 90.708 91.3187 90.708C90.9907 90.708 90.6787 90.784 90.3827 90.936C90.0947 91.088 89.8587 91.304 89.6747 91.584C89.4987 91.856 89.4107 92.184 89.4107 92.568ZM100.498 96.144C99.9143 96.144 99.4623 95.992 99.1423 95.688C98.8223 95.384 98.6623 94.956 98.6623 94.404V88.128H99.6223V94.308C99.6223 94.612 99.7023 94.848 99.8623 95.016C100.03 95.176 100.262 95.256 100.558 95.256C100.654 95.256 100.746 95.244 100.834 95.22C100.93 95.188 101.054 95.116 101.206 95.004L101.578 95.784C101.37 95.92 101.182 96.012 101.014 96.06C100.846 96.116 100.674 96.144 100.498 96.144ZM97.6183 90.852V90H101.422V90.852H97.6183ZM102.778 96V87.6H103.738V96H102.778ZM107.002 96V92.928H107.962V96H107.002ZM107.002 92.928C107.002 92.336 106.93 91.884 106.786 91.572C106.65 91.26 106.462 91.048 106.222 90.936C105.982 90.816 105.71 90.756 105.406 90.756C104.878 90.756 104.466 90.944 104.17 91.32C103.882 91.688 103.738 92.212 103.738 92.892H103.27C103.27 92.26 103.362 91.716 103.546 91.26C103.738 90.804 104.01 90.456 104.362 90.216C104.714 89.976 105.138 89.856 105.634 89.856C106.098 89.856 106.506 89.952 106.858 90.144C107.21 90.328 107.482 90.624 107.674 91.032C107.874 91.44 107.97 91.976 107.962 92.64V92.928H107.002ZM112.097 96.144C111.513 96.144 110.997 96.012 110.549 95.748C110.101 95.476 109.749 95.104 109.493 94.632C109.245 94.16 109.121 93.616 109.121 93C109.121 92.384 109.245 91.84 109.493 91.368C109.749 90.896 110.097 90.528 110.537 90.264C110.985 89.992 111.497 89.856 112.073 89.856C112.633 89.856 113.117 89.996 113.525 90.276C113.933 90.548 114.249 90.932 114.473 91.428C114.697 91.924 114.809 92.508 114.809 93.18H109.853L110.093 92.976C110.093 93.456 110.177 93.868 110.345 94.212C110.521 94.556 110.765 94.82 111.077 95.004C111.389 95.18 111.745 95.268 112.145 95.268C112.569 95.268 112.925 95.168 113.213 94.968C113.509 94.768 113.737 94.504 113.897 94.176L114.725 94.596C114.573 94.908 114.369 95.18 114.113 95.412C113.865 95.644 113.569 95.824 113.225 95.952C112.889 96.08 112.513 96.144 112.097 96.144ZM110.153 92.568L109.901 92.376H114.041L113.789 92.58C113.789 92.196 113.713 91.864 113.561 91.584C113.409 91.304 113.205 91.088 112.949 90.936C112.693 90.784 112.397 90.708 112.061 90.708C111.733 90.708 111.421 90.784 111.125 90.936C110.837 91.088 110.601 91.304 110.417 91.584C110.241 91.856 110.153 92.184 110.153 92.568ZM125.081 96L121.709 87.6H122.729L126.149 96H125.081ZM118.253 96L121.673 87.6H122.705L119.333 96H118.253ZM119.873 93.612V92.7H124.541V93.612H119.873ZM126.806 96V95.232L130.346 90.84H126.806V90H131.594V90.744L128.042 95.16H131.618V96H126.806ZM136.696 96L136.648 95.016V92.832C136.648 92.36 136.596 91.972 136.492 91.668C136.388 91.356 136.224 91.12 136 90.96C135.776 90.8 135.484 90.72 135.124 90.72C134.796 90.72 134.512 90.788 134.272 90.924C134.04 91.052 133.848 91.26 133.696 91.548L132.832 91.212C132.984 90.932 133.168 90.692 133.384 90.492C133.6 90.284 133.852 90.128 134.14 90.024C134.428 89.912 134.756 89.856 135.124 89.856C135.684 89.856 136.144 89.968 136.504 90.192C136.872 90.408 137.148 90.732 137.332 91.164C137.516 91.588 137.604 92.116 137.596 92.748L137.584 96H136.696ZM134.896 96.144C134.192 96.144 133.64 95.984 133.24 95.664C132.848 95.336 132.652 94.884 132.652 94.308C132.652 93.7 132.852 93.236 133.252 92.916C133.66 92.588 134.228 92.424 134.956 92.424H136.672V93.228H135.172C134.612 93.228 134.212 93.32 133.972 93.504C133.74 93.688 133.624 93.952 133.624 94.296C133.624 94.608 133.74 94.856 133.972 95.04C134.204 95.216 134.528 95.304 134.944 95.304C135.288 95.304 135.588 95.232 135.844 95.088C136.1 94.936 136.296 94.724 136.432 94.452C136.576 94.172 136.648 93.844 136.648 93.468H137.056C137.056 94.284 136.872 94.936 136.504 95.424C136.136 95.904 135.6 96.144 134.896 96.144ZM139.573 93.564L139.537 87.6H140.581L140.557 93.564H139.573ZM140.065 96.168C139.881 96.168 139.721 96.104 139.585 95.976C139.457 95.848 139.393 95.692 139.393 95.508C139.393 95.324 139.457 95.168 139.585 95.04C139.721 94.904 139.881 94.836 140.065 94.836C140.249 94.836 140.405 94.904 140.533 95.04C140.661 95.168 140.725 95.324 140.725 95.508C140.725 95.692 140.661 95.848 140.533 95.976C140.405 96.104 140.249 96.168 140.065 96.168Z" fill="#171A16"/>
</svg>
