<svg width="19" height="17" viewBox="0 0 19 17" fill="none" xmlns="http://www.w3.org/2000/svg">
<path d="M18.6029 2.99845C18.3844 2.01497 17.7407 1.24052 16.9232 0.977678C15.4415 0.500001 9.5 0.5 9.5 0.5C9.5 0.5 3.55854 0.500001 2.07682 0.977678C1.25935 1.24052 0.615509 2.01497 0.397028 2.99845C0 4.78094 0 8.5 0 8.5C0 8.5 0 12.219 0.397028 14.0017C0.615509 14.985 1.25935 15.7595 2.07682 16.0224C3.55854 16.5 9.5 16.5 9.5 16.5C9.5 16.5 15.4415 16.5 16.9232 16.0224C17.7407 15.7595 18.3844 14.985 18.6029 14.0017C19 12.219 19 8.5 19 8.5C19 8.5 19 4.78094 18.6029 2.99845Z" fill="#ED1D24"/>
<path d="M7.5 11.8766L11.6818 8.50018L7.5 5.1234V11.8766Z" fill="white"/>
</svg>
