<svg width="25" height="25" viewBox="0 0 25 25" fill="none" xmlns="http://www.w3.org/2000/svg">
<path fillRule="evenodd" clipRule="evenodd" d="M24.015 1.44638C24.015 0.787603 23.481 0.253555 22.8222 0.253555H16.2616C15.6028 0.253555 15.0605 0.790499 15.1472 1.44354C15.6774 5.43253 18.836 8.59114 22.825 9.12132C23.4781 9.20811 24.015 8.66572 24.015 8.00694V1.44638ZM7.91183 24.1101C8.57061 24.1101 9.113 23.5732 9.02621 22.9201C8.49603 18.9311 5.33742 15.7725 1.34843 15.2424C0.695391 15.1556 0.158447 15.698 0.158447 16.3567V22.9173C0.158447 23.5761 0.692496 24.1101 1.35128 24.1101H7.91183Z" fill="url(#paint0_linear_11471_63762)"/>
<path d="M17.3047 12.1813C17.3047 15.0635 14.9682 17.3999 12.0861 17.3999C9.20389 17.3999 6.86743 15.0635 6.86743 12.1813C6.86743 9.29913 9.20389 6.96268 12.0861 6.96268C14.9682 6.96268 17.3047 9.29913 17.3047 12.1813Z" fill="#1774FD"/>
<defs>
<linearGradient id="paint0_linear_11471_63762" x1="-8.19135" y1="-14.6568" x2="29.9791" y2="35.442" gradientUnits="userSpaceOnUse">
<stop stop-color="#CA62EF"/>
<stop offset="0.345596" stop-color="#4B92FB"/>
<stop offset="0.972916" stop-color="#F6C0D1"/>
</linearGradient>
</defs>
</svg>
