<svg width="19" height="19" viewBox="0 0 19 19" fill="none" xmlns="http://www.w3.org/2000/svg">
<path d="M8.81714 18.2208C8.26485 18.2208 7.81714 17.7731 7.81714 17.2208V1.09863C7.81714 0.546348 8.26485 0.0986328 8.81714 0.0986328H10.497C11.0493 0.0986328 11.497 0.546348 11.497 1.09863V17.2208C11.497 17.7731 11.0493 18.2208 10.497 18.2208H8.81714ZM1.57617 11.0194C1.02389 11.0194 0.576172 10.5717 0.576172 10.0194V8.3396C0.576172 7.78731 1.02389 7.3396 1.57617 7.3396H17.7379C18.2902 7.3396 18.7379 7.78731 18.7379 8.3396V10.0194C18.7379 10.5717 18.2902 11.0194 17.7379 11.0194H1.57617Z" fill="#1774FD"/>
</svg>
