<svg width="65" height="65" viewBox="0 0 65 65" fill="none" xmlns="http://www.w3.org/2000/svg">
<g id="Frame 311">
<rect x="0.8125" y="0.8125" width="63.375" height="63.375" rx="12.1875" fill="white"/>
<rect x="0.8125" y="0.8125" width="63.375" height="63.375" rx="12.1875" stroke="#E5E5E5" strokeWidth="1.625"/>
<path id="Icon" d="M43.3 29.875V27C43.3 25.5999 43.3 24.8998 43.0057 24.365C42.7469 23.8946 42.3338 23.5122 41.8258 23.2725C41.2482 23 40.4921 23 38.98 23H23.32C21.8079 23 21.0518 23 20.4742 23.2725C19.9662 23.5122 19.5531 23.8946 19.2943 24.365C19 24.8998 19 25.5999 19 27V39C19 40.4001 19 41.1002 19.2943 41.635C19.5531 42.1054 19.9662 42.4878 20.4742 42.7275C21.0518 43 21.8079 43 23.32 43L38.98 43C40.4921 43 41.2482 43 41.8258 42.7275C42.3338 42.4878 42.7469 42.1054 43.0057 41.635C43.3 41.1002 43.3 40.4001 43.3 39V36.125M36.55 33C36.55 32.4192 36.55 32.1288 36.6019 31.8873C36.8149 30.8955 37.6522 30.1203 38.7233 29.923C38.9841 29.875 39.2977 29.875 39.925 29.875H42.625C43.2523 29.875 43.5659 29.875 43.8267 29.923C44.8978 30.1203 45.7351 30.8955 45.9481 31.8873C46 32.1288 46 32.4192 46 33C46 33.5808 46 33.8712 45.9481 34.1127C45.7351 35.1045 44.8978 35.8797 43.8267 36.077C43.5659 36.125 43.2523 36.125 42.625 36.125H39.925C39.2977 36.125 38.9841 36.125 38.7233 36.077C37.6522 35.8797 36.8149 35.1045 36.6019 34.1127C36.55 33.8712 36.55 33.5808 36.55 33Z" stroke="#292D32" strokeWidth="2.2" strokeLinecap="round" strokeLinejoin="round"/>
</g>
</svg>
