<svg width="29" height="28" viewBox="0 0 29 28" fill="none" xmlns="http://www.w3.org/2000/svg">
<path d="M13.2028 15.9435L11.2095 17.9616C10.9315 18.2431 10.7925 18.3839 10.673 18.3938C10.5693 18.4024 10.4678 18.3608 10.4001 18.2818C10.3221 18.1908 10.3221 17.9929 10.3221 17.5973V16.5862C10.3221 16.2313 10.0314 15.9744 9.68021 15.923V15.923C8.83019 15.7985 8.16262 15.1309 8.03811 14.2809C8.01758 14.1407 8.01758 13.9735 8.01758 13.639V10.6287C8.01758 9.5397 8.01758 8.9952 8.22951 8.57926C8.41593 8.21339 8.71339 7.91593 9.07926 7.72951C9.4952 7.51758 10.0397 7.51758 11.1287 7.51758H15.925C17.014 7.51758 17.5585 7.51758 17.9744 7.72951C18.3403 7.91593 18.6377 8.21339 18.8242 8.57926C19.0361 8.9952 19.0361 9.5397 19.0361 10.6287V13.3509M19.0361 20.4805L17.6255 19.4998C17.4272 19.362 17.328 19.293 17.2201 19.2442C17.1243 19.2008 17.0237 19.1692 16.9203 19.1502C16.8038 19.1287 16.683 19.1287 16.4415 19.1287H15.2768C14.5508 19.1287 14.1878 19.1287 13.9106 18.9874C13.6666 18.8631 13.4683 18.6648 13.3441 18.4209C13.2028 18.1436 13.2028 17.7806 13.2028 17.0546V15.425C13.2028 14.699 13.2028 14.336 13.3441 14.0587C13.4683 13.8148 13.6666 13.6165 13.9106 13.4922C14.1878 13.3509 14.5508 13.3509 15.2768 13.3509H18.9065C19.6325 13.3509 19.9955 13.3509 20.2728 13.4922C20.5167 13.6165 20.715 13.8148 20.8393 14.0587C20.9805 14.336 20.9805 14.699 20.9805 15.425V17.1842C20.9805 17.7882 20.9805 18.0902 20.8819 18.3285C20.7503 18.6461 20.4979 18.8984 20.1803 19.03C19.9421 19.1287 19.6401 19.1287 19.0361 19.1287V20.4805Z" stroke="#828282" strokeWidth="0.98" strokeLinecap="round" strokeLinejoin="round"/>
<rect x="0.888889" y="0.388889" width="27.2222" height="27.2222" rx="5.83333" stroke="#E5E5E5" strokeWidth="0.777778"/>
</svg>
