<svg width="17" height="17" viewBox="0 0 17 17" fill="none" xmlns="http://www.w3.org/2000/svg">
<rect x="0.265625" y="0.265625" width="16.4688" height="16.4688" rx="8.23438" fill="white"/>
<rect x="0.265625" y="0.265625" width="16.4688" height="16.4688" rx="8.23438" stroke="url(#paint0_linear_12743_3229)" strokeWidth="0.53125"/>
<path d="M8.05277 4.92285C8.25193 6.15335 8.46375 6.79281 9.11574 7.79547C9.80505 8.27821 10.5423 8.4937 11.9884 8.85844C10.564 9.03693 9.85492 9.20703 9.11574 9.9214C8.3598 10.9445 8.15074 11.5827 8.05277 12.794C7.97731 11.7001 7.75689 11.0487 6.98981 9.9214C5.82882 9.1247 5.21037 8.99804 4.11719 8.85844C5.46362 8.74098 6.13004 8.55753 6.98981 7.79547C7.64168 6.91107 7.8378 6.24736 8.05277 4.92285Z" fill="url(#paint1_linear_12743_3229)"/>
<path d="M10.9146 4.20703C11.0142 4.82228 11.1201 5.14201 11.4461 5.64334C11.7908 5.88471 12.1594 5.99245 12.8824 6.17482C12.1702 6.26407 11.8157 6.34912 11.4461 6.70631C11.0682 7.21787 10.9636 7.53695 10.9146 8.14262C10.8769 7.59567 10.7667 7.26997 10.3832 6.70631C9.80267 6.30796 9.49344 6.24463 8.94685 6.17482C9.62007 6.11609 9.95328 6.02437 10.3832 5.64334C10.7091 5.20114 10.8072 4.86928 10.9146 4.20703Z" fill="url(#paint2_linear_12743_3229)"/>
<defs>
<linearGradient id="paint0_linear_12743_3229" x1="8.5" y1="0" x2="8.5" y2="17" gradientUnits="userSpaceOnUse">
<stop stop-color="#CA62EF"/>
<stop offset="0.478125" stop-color="#4B92FB"/>
<stop offset="0.972916" stop-color="#F6C0D1"/>
</linearGradient>
<linearGradient id="paint1_linear_12743_3229" x1="8.05277" y1="4.92285" x2="8.05277" y2="12.794" gradientUnits="userSpaceOnUse">
<stop stop-color="#CA62EF"/>
<stop offset="0.478125" stop-color="#4B92FB"/>
<stop offset="0.972916" stop-color="#F6C0D1"/>
</linearGradient>
<linearGradient id="paint2_linear_12743_3229" x1="10.9146" y1="4.20703" x2="10.9146" y2="8.14262" gradientUnits="userSpaceOnUse">
<stop stop-color="#CA62EF"/>
<stop offset="0.478125" stop-color="#4B92FB"/>
<stop offset="0.972916" stop-color="#F6C0D1"/>
</linearGradient>
</defs>
</svg>
