<svg width="31" height="31" viewBox="0 0 31 31" fill="none" xmlns="http://www.w3.org/2000/svg">
<path d="M21.343 10.1441L21.3071 8.89502C19.3258 8.95207 17.4706 8.29853 15.7851 6.9504C14.5056 5.92682 13.8069 4.86496 13.8022 4.85216L12.7526 5.52898C12.7841 5.57549 13.542 6.74341 14.9675 7.89642C16.874 9.43648 19.0775 10.2093 21.343 10.1441Z" fill="#E35BAD"/>
<path d="M22.27 20.6559L22.2341 19.4068C19.7963 19.477 17.4852 20.6557 15.5602 22.819C14.1279 24.425 13.4145 25.9974 13.3862 26.0629L14.5217 26.5733L13.9538 26.3138L14.5217 26.5733C14.5298 26.5559 15.2031 25.0881 16.5144 23.6192C18.2184 21.7165 20.1596 20.7166 22.27 20.6559Z" fill="#1774FD"/>
<path d="M18.5765 11.2361C17.722 11.0495 17.1702 11.3499 16.7669 11.5641C16.4273 11.7463 16.2193 11.86 15.8159 11.7725C15.4125 11.685 15.2692 11.4994 15.0361 11.1871C14.7626 10.82 14.3861 10.3222 13.5315 10.1355C12.677 9.94893 12.1252 10.2493 11.7219 10.4635C11.3823 10.6457 11.1743 10.7595 10.7709 10.672C10.3675 10.5844 10.2242 10.3989 9.99108 10.0866C9.71756 9.71946 9.34113 9.22164 8.48656 9.03502L8.21978 10.2497C8.62319 10.3372 8.76648 10.5228 8.99962 10.835C9.27314 11.2022 9.64957 11.7 10.5041 11.8866C11.3587 12.0732 11.9105 11.7729 12.3138 11.5586C12.6534 11.3764 12.8614 11.2627 13.2648 11.3502C13.6682 11.4377 13.8115 11.6233 14.0446 11.9356C14.3181 12.3027 14.6946 12.8005 15.5491 12.9872C16.4037 13.1738 16.9555 12.8734 17.3588 12.6592C17.6984 12.477 17.9064 12.3632 18.3098 12.4507L18.5765 11.2361Z" fill="#1774FD"/>
<path d="M17.4787 17.2712L17.1083 16.0835C16.2452 16.3497 15.9032 16.8984 15.6562 17.3021C15.4377 17.6489 15.31 17.8552 14.8872 17.9924C14.4686 18.1251 14.2417 18.0282 13.8619 17.8624C13.4296 17.6722 12.8362 17.4221 11.9731 17.6883C11.11 17.9546 10.768 18.5032 10.5166 18.9028C10.2981 19.2496 10.1704 19.4559 9.74757 19.593C9.32895 19.7258 9.09758 19.6247 8.7222 19.4631C8.28997 19.2729 7.69652 19.0227 6.83343 19.289L7.20386 20.4767C7.62248 20.3439 7.85386 20.445 8.22923 20.6067C8.66146 20.7968 9.25491 21.047 10.118 20.7807C10.9811 20.5145 11.3231 19.9658 11.5745 19.5663C11.793 19.2195 11.9207 19.0132 12.3435 18.876C12.7621 18.7433 12.9891 18.8402 13.3689 19.006C13.8011 19.1961 14.3946 19.4463 15.2577 19.1801C16.1207 18.9138 16.4627 18.3651 16.7097 17.9615C16.9238 17.6104 17.0557 17.3997 17.4787 17.2712Z" fill="#E35BAD"/>
<path d="M12.1101 23.0738C11.8744 23.3234 11.4811 23.3347 11.2314 23.0991C10.9818 22.8634 10.9705 22.47 11.2061 22.2204C11.4418 21.9708 11.8352 21.9595 12.0848 22.1951C12.3344 22.4308 12.3457 22.8241 12.1101 23.0738Z" fill="#CBB2EB"/>
<path d="M19.3073 26.0484C19.0717 26.298 18.6783 26.3093 18.4287 26.0737C18.1791 25.838 18.1678 25.4446 18.4034 25.195C18.639 24.9454 19.0324 24.9341 19.2821 25.1697C19.5317 25.4054 19.543 25.7987 19.3073 26.0484Z" fill="#1774FD"/>
<path d="M11.5261 26.5861C11.2905 26.8357 10.8971 26.847 10.6475 26.6114C10.3978 26.3757 10.3865 25.9824 10.6222 25.7327C10.8578 25.4831 11.2512 25.4718 11.5008 25.7074C11.7504 25.9431 11.7617 26.3365 11.5261 26.5861Z" fill="#A684DA"/>
<path d="M8.75852 16.9936C8.52287 17.2432 8.12949 17.2545 7.87987 17.0189C7.63025 16.7832 7.61893 16.3898 7.85458 16.1402C8.09022 15.8906 8.4836 15.8793 8.73322 16.1149C8.98284 16.3506 8.99417 16.7439 8.75852 16.9936Z" fill="#CBB2EB"/>
<path d="M11.7136 7.17813C11.478 7.42774 11.0846 7.43907 10.8349 7.20342C10.5853 6.96778 10.574 6.57439 10.8097 6.32478C11.0453 6.07516 11.4387 6.06383 11.6883 6.29948C11.9379 6.53512 11.9492 6.92851 11.7136 7.17813Z" fill="#E35BAD"/>
<path d="M12.6609 14.0135C12.4252 14.2631 12.0318 14.2744 11.7822 14.0388C11.5326 13.8031 11.5213 13.4097 11.7569 13.1601C11.9926 12.9105 12.3859 12.8992 12.6356 13.1348C12.8852 13.3705 12.8965 13.7638 12.6609 14.0135Z" fill="#1774FD"/>
<path d="M21.5105 15.875C21.2748 16.1246 20.8814 16.136 20.6318 15.9003C20.3822 15.6647 20.3709 15.2713 20.6065 15.0217C20.8422 14.7721 21.2356 14.7607 21.4852 14.9964C21.7348 15.232 21.7461 15.6254 21.5105 15.875Z" fill="#A684DA"/>
<path d="M18.614 4.17239C18.3783 4.42201 17.985 4.43333 17.7353 4.19769C17.4857 3.96204 17.4744 3.56866 17.71 3.31904C17.9457 3.06942 18.3391 3.05809 18.5887 3.29374C18.8383 3.52939 18.8496 3.92277 18.614 4.17239Z" fill="#F7C9E3"/>
</svg>
