<svg width="31" height="31" viewBox="0 0 31 31" fill="none" xmlns="http://www.w3.org/2000/svg">
<path d="M9.65502 10.1441L9.69099 8.89502C11.6723 8.95207 13.5274 8.29853 15.2129 6.9504C16.4925 5.92682 17.1912 4.86496 17.1959 4.85216L18.2454 5.52898C18.2139 5.57549 17.4561 6.74341 16.0306 7.89642C14.124 9.43648 11.9206 10.2093 9.65502 10.1441Z" fill="#E35BAD"/>
<path d="M8.72802 20.6559L8.76398 19.4068C11.2018 19.477 13.5129 20.6557 15.4378 22.819C16.8701 24.425 17.5835 25.9974 17.6118 26.0629L16.4763 26.5733L17.0442 26.3138L16.4763 26.5733C16.4682 26.5559 15.7949 25.0881 14.4837 23.6192C12.7797 21.7165 10.8385 20.7166 8.72802 20.6559Z" fill="#1774FD"/>
<path d="M12.4215 11.2361C13.2761 11.0495 13.8278 11.3499 14.2312 11.5641C14.5708 11.7463 14.7787 11.86 15.1821 11.7725C15.5855 11.685 15.7288 11.4994 15.962 11.1871C16.2355 10.82 16.6119 10.3222 17.4665 10.1355C18.3211 9.94893 18.8728 10.2493 19.2762 10.4635C19.6158 10.6457 19.8237 10.7595 20.2271 10.672C20.6305 10.5844 20.7738 10.3989 21.007 10.0866C21.2805 9.71946 21.6569 9.22164 22.5115 9.03502L22.7783 10.2497C22.3749 10.3372 22.2316 10.5228 21.9984 10.835C21.7249 11.2022 21.3485 11.7 20.4939 11.8866C19.6393 12.0732 19.0876 11.7729 18.6842 11.5586C18.3446 11.3764 18.1367 11.2627 17.7333 11.3502C17.3299 11.4377 17.1866 11.6233 16.9534 11.9356C16.6799 12.3027 16.3035 12.8005 15.4489 12.9872C14.5943 13.1738 14.0426 12.8734 13.6392 12.6592C13.2996 12.477 13.0917 12.3632 12.6883 12.4507L12.4215 11.2361Z" fill="#1774FD"/>
<path d="M13.5193 17.2712L13.8898 16.0835C14.7528 16.3497 15.0948 16.8984 15.3418 17.3021C15.5603 17.6489 15.688 17.8552 16.1108 17.9924C16.5294 18.1251 16.7564 18.0282 17.1362 17.8624C17.5684 17.6722 18.1619 17.4221 19.025 17.6883C19.8881 17.9546 20.23 18.5032 20.4815 18.9028C20.7 19.2496 20.8277 19.4559 21.2505 19.593C21.6691 19.7258 21.9005 19.6247 22.2758 19.4631C22.7081 19.2729 23.3015 19.0227 24.1646 19.289L23.7942 20.4767C23.3756 20.3439 23.1442 20.445 22.7688 20.6067C22.3366 20.7968 21.7431 21.047 20.88 20.7807C20.017 20.5145 19.675 19.9658 19.4235 19.5663C19.205 19.2195 19.0773 19.0132 18.6545 18.876C18.2359 18.7433 18.009 18.8402 17.6292 19.006C17.1969 19.1961 16.6035 19.4463 15.7404 19.1801C14.8773 18.9138 14.5353 18.3651 14.2883 17.9615C14.0743 17.6104 13.9424 17.3997 13.5193 17.2712Z" fill="#E35BAD"/>
<path d="M18.888 23.0738C19.1236 23.3234 19.517 23.3347 19.7666 23.0991C20.0162 22.8634 20.0276 22.47 19.7919 22.2204C19.5563 21.9708 19.1629 21.9595 18.9133 22.1951C18.6636 22.4308 18.6523 22.8241 18.888 23.0738Z" fill="#CBB2EB"/>
<path d="M11.6907 26.0484C11.9263 26.298 12.3197 26.3093 12.5693 26.0737C12.819 25.838 12.8303 25.4446 12.5946 25.195C12.359 24.9454 11.9656 24.9341 11.716 25.1697C11.4664 25.4054 11.4551 25.7987 11.6907 26.0484Z" fill="#1774FD"/>
<path d="M19.4719 26.5861C19.7076 26.8357 20.101 26.847 20.3506 26.6114C20.6002 26.3757 20.6115 25.9824 20.3759 25.7327C20.1402 25.4831 19.7469 25.4718 19.4972 25.7074C19.2476 25.9431 19.2363 26.3365 19.4719 26.5861Z" fill="#A684DA"/>
<path d="M22.2395 16.9936C22.4752 17.2432 22.8686 17.2545 23.1182 17.0189C23.3678 16.7832 23.3791 16.3898 23.1435 16.1402C22.9078 15.8906 22.5144 15.8793 22.2648 16.1149C22.0152 16.3506 22.0039 16.7439 22.2395 16.9936Z" fill="#CBB2EB"/>
<path d="M19.2844 7.17813C19.5201 7.42774 19.9135 7.43907 20.1631 7.20342C20.4127 6.96778 20.424 6.57439 20.1884 6.32478C19.9527 6.07516 19.5594 6.06383 19.3097 6.29948C19.0601 6.53512 19.0488 6.92851 19.2844 7.17813Z" fill="#E35BAD"/>
<path d="M18.3372 14.0135C18.5728 14.2631 18.9662 14.2744 19.2158 14.0388C19.4654 13.8031 19.4768 13.4097 19.2411 13.1601C19.0055 12.9105 18.6121 12.8992 18.3625 13.1348C18.1129 13.3705 18.1015 13.7638 18.3372 14.0135Z" fill="#1774FD"/>
<path d="M9.48757 15.875C9.72322 16.1246 10.1166 16.136 10.3662 15.9003C10.6158 15.6647 10.6272 15.2713 10.3915 15.0217C10.1559 14.7721 9.76249 14.7607 9.51287 14.9964C9.26325 15.232 9.25193 15.6254 9.48757 15.875Z" fill="#A684DA"/>
<path d="M12.3841 4.17239C12.6197 4.42201 13.0131 4.43333 13.2627 4.19769C13.5123 3.96204 13.5236 3.56866 13.288 3.31904C13.0524 3.06942 12.659 3.05809 12.4094 3.29374C12.1597 3.52939 12.1484 3.92277 12.3841 4.17239Z" fill="#F7C9E3"/>
</svg>
