<svg width="37" height="34" viewBox="0 0 37 34" fill="none" xmlns="http://www.w3.org/2000/svg">
<g clipPath="url(#clip0_11520_32042)">
<path d="M24.643 27.0884L2.59128 33.9385C1.63125 34.2344 0.736191 33.3394 1.03214 32.3794L7.88225 10.3276L24.643 27.0884Z" fill="#1774FD"/>
<path d="M25.3219 26.6987C26.9287 25.0919 24.415 19.9732 19.7075 15.2657C15 10.5582 9.88128 8.0445 8.27452 9.65126C6.66777 11.258 9.18143 16.3767 13.8889 21.0843C18.5965 25.7918 23.7152 28.3054 25.3219 26.6987Z" fill="white"/>
<path d="M21.4826 28.0717L17.2167 29.3998C16.2711 29.0606 15.3399 28.6563 14.4232 28.1799C12.431 27.1477 10.5181 25.7979 8.73523 24.1594C8.4465 23.8923 8.1289 23.5891 7.78964 23.2571C6.91623 22.3837 5.9129 21.2721 4.90234 19.9439L5.77575 17.1144C7.3782 19.5253 9.11058 21.3154 10.3232 22.427C13.7302 25.5525 17.4837 27.4509 21.4826 28.0717Z" fill="white"/>
<path d="M14.3573 30.2793L10.9936 31.326C9.06637 30.3082 7.2185 28.9873 5.48612 27.3992C5.1974 27.1322 4.87979 26.829 4.54054 26.497C4.14353 26.1 3.71766 25.6524 3.27734 25.1544L4.10022 22.4908C5.19739 23.8479 6.25126 24.909 7.07414 25.6669C9.36232 27.7602 11.7949 29.3049 14.3573 30.2793Z" fill="white"/>
<path d="M8.26433 32.178L5.31207 33.0947C4.25821 32.3729 3.226 31.55 2.24432 30.6477C2.0783 30.4962 1.90507 30.3374 1.72461 30.1569L2.5114 27.6161C2.9878 28.1141 3.44255 28.5472 3.83233 28.9082C5.25433 30.2147 6.73407 31.3046 8.26433 32.178Z" fill="white"/>
<path d="M13.8084 13.1221L12.7617 12.0755C14.4219 10.4153 15.3675 8.28593 15.5768 5.73789C15.7356 3.8034 15.3892 2.3381 15.3819 2.32366L16.8184 1.96997C16.8328 2.03493 17.2226 3.63738 17.0566 5.80286C16.8328 8.69737 15.7068 11.2238 13.8084 13.1221Z" fill="#E35BAD"/>
<path d="M22.1091 22.4685L21.0625 21.4218C23.1053 19.3791 25.9998 18.3469 29.4284 18.4479C31.9765 18.5201 33.911 19.1842 33.9904 19.2131L33.5067 20.6062L33.7449 19.906L33.5067 20.6062C33.4851 20.599 31.6733 19.9854 29.3418 19.9205C26.3174 19.8411 23.8776 20.7 22.1091 22.4685Z" fill="#1774FD"/>
<path d="M16.998 11.6269C17.5322 10.739 18.2396 10.5081 18.7521 10.3348C19.1852 10.1904 19.4522 10.1038 19.7049 9.68517C19.9575 9.26651 19.9142 8.99222 19.8348 8.53747C19.741 8.00332 19.6183 7.27428 20.1524 6.38644C20.6866 5.49859 21.394 5.26761 21.9064 5.09437C22.3395 4.95001 22.6066 4.86339 22.8593 4.44473C23.1119 4.02607 23.0686 3.75178 22.9892 3.29703C22.8953 2.76288 22.7726 2.03384 23.3068 1.146L24.57 1.90391C24.3173 2.32257 24.3607 2.59686 24.4401 3.05161C24.5339 3.58576 24.6566 4.3148 24.1224 5.20265C23.5883 6.09049 22.8809 6.32147 22.3684 6.49471C21.9353 6.63908 21.6682 6.72569 21.4156 7.14435C21.163 7.56301 21.2063 7.8373 21.2857 8.29205C21.3795 8.8262 21.5022 9.55524 20.9681 10.4431C20.4339 11.3309 19.7265 11.5619 19.214 11.7352C18.781 11.8795 18.5139 11.9661 18.2612 12.3848L16.998 11.6269Z" fill="#1774FD"/>
<path d="M23.091 15.5898L22.3691 14.3049C23.3003 13.778 24.051 13.9296 24.5996 14.0451C25.076 14.1389 25.3575 14.1967 25.8195 13.944C26.2742 13.6914 26.3753 13.4171 26.5413 12.9551C26.729 12.4282 26.996 11.7136 27.9272 11.1867C28.8583 10.6597 29.609 10.8113 30.1576 10.9196C30.634 11.0134 30.9155 11.0712 31.3775 10.8185C31.8323 10.5659 31.9333 10.2844 32.0993 9.82963C32.287 9.30269 32.5541 8.58809 33.4852 8.06116L34.207 9.346C33.7523 9.59864 33.6512 9.88015 33.4852 10.3349C33.2976 10.8618 33.0305 11.5764 32.0993 12.1034C31.1682 12.6303 30.4175 12.4787 29.8689 12.3704C29.3925 12.2766 29.111 12.2189 28.649 12.4715C28.1943 12.7241 28.0932 12.9984 27.9272 13.4604C27.7395 13.9873 27.4724 14.7019 26.5413 15.2289C25.6101 15.7558 24.8594 15.6042 24.3108 15.4887C23.8344 15.3877 23.5457 15.3299 23.091 15.5898Z" fill="#E35BAD"/>
<path d="M32.4531 15.6828C32.8597 15.6828 33.1893 15.3532 33.1893 14.9466C33.1893 14.54 32.8597 14.2103 32.4531 14.2103C32.0464 14.2103 31.7168 14.54 31.7168 14.9466C31.7168 15.3532 32.0464 15.6828 32.4531 15.6828Z" fill="#CBB2EB"/>
<path d="M29.164 24.3014C29.5706 24.3014 29.9003 23.9717 29.9003 23.5651C29.9003 23.1585 29.5706 22.8289 29.164 22.8289C28.7574 22.8289 28.4277 23.1585 28.4277 23.5651C28.4277 23.9717 28.7574 24.3014 29.164 24.3014Z" fill="#1774FD"/>
<path d="M35.955 18.0373C36.3616 18.0373 36.6913 17.7077 36.6913 17.3011C36.6913 16.8945 36.3616 16.5648 35.955 16.5648C35.5484 16.5648 35.2188 16.8945 35.2188 17.3011C35.2188 17.7077 35.5484 18.0373 35.955 18.0373Z" fill="#A684DA"/>
<path d="M29.9413 7.85179C30.348 7.85179 30.6776 7.52216 30.6776 7.11553C30.6776 6.70891 30.348 6.37927 29.9413 6.37927C29.5347 6.37927 29.2051 6.70891 29.2051 7.11553C29.2051 7.52216 29.5347 7.85179 29.9413 7.85179Z" fill="#CBB2EB"/>
<path d="M19.0839 2.41588C19.4905 2.41588 19.8202 2.08624 19.8202 1.67962C19.8202 1.27299 19.4905 0.943359 19.0839 0.943359C18.6773 0.943359 18.3477 1.27299 18.3477 1.67962C18.3477 2.08624 18.6773 2.41588 19.0839 2.41588Z" fill="#E35BAD"/>
<path d="M24.2031 8.78929C24.6097 8.78929 24.9393 8.45966 24.9393 8.05303C24.9393 7.64641 24.6097 7.31677 24.2031 7.31677C23.7964 7.31677 23.4668 7.64641 23.4668 8.05303C23.4668 8.45966 23.7964 8.78929 24.2031 8.78929Z" fill="#1774FD"/>
<path d="M18.6093 17.928C19.0159 17.928 19.3456 17.5983 19.3456 17.1917C19.3456 16.7851 19.0159 16.4554 18.6093 16.4554C18.2027 16.4554 17.873 16.7851 17.873 17.1917C17.873 17.5983 18.2027 17.928 18.6093 17.928Z" fill="#A684DA"/>
<path d="M10.8847 5.916C11.2913 5.916 11.621 5.58637 11.621 5.17974C11.621 4.77312 11.2913 4.44348 10.8847 4.44348C10.4781 4.44348 10.1484 4.77312 10.1484 5.17974C10.1484 5.58637 10.4781 5.916 10.8847 5.916Z" fill="#F7C9E3"/>
</g>
<defs>
<clipPath id="clip0_11520_32042">
<rect width="35.7158" height="33.0523" fill="white" transform="translate(0.972656 0.942993)"/>
</clipPath>
</defs>
</svg>
