<svg width="14" height="13" viewBox="0 0 14 13" fill="none" xmlns="http://www.w3.org/2000/svg">
<path fillRule="evenodd" clipRule="evenodd" d="M7.47627 8.6585L4.17564 11.4505C3.46306 12.0533 2.39678 11.9643 1.79404 11.2517C1.1913 10.5391 1.28034 9.47271 1.99293 8.86993L5.38038 6.00442L4.81611 5.28987L1.40527 8.17515C0.308997 9.10251 0.172008 10.743 1.0993 11.8394C2.02659 12.9357 3.66702 13.0727 4.7633 12.1453L8.04054 9.37305L7.47627 8.6585ZM9.52396 6.92632L10.0882 7.64088L12.7031 5.4289C13.7994 4.50155 13.9364 2.86102 13.0091 1.76468C12.0818 0.66835 10.4414 0.53137 9.34509 1.45873L6.8638 3.55769L7.42807 4.27225L9.93274 2.15351C10.6453 1.55072 11.7116 1.63976 12.3143 2.35238C12.9171 3.065 12.828 4.13134 12.1155 4.73413L9.52396 6.92632Z" fill="black"/>
</svg>
