<svg width="14" height="14" viewBox="0 0 14 14" fill="none" xmlns="http://www.w3.org/2000/svg">
<g clipPath="url(#clip0_14507_1182)">
<path d="M9.33342 9.33317V10.9665C9.33342 11.6199 9.33342 11.9466 9.20626 12.1962C9.0944 12.4157 8.91593 12.5942 8.6964 12.706C8.44684 12.8332 8.12014 12.8332 7.46675 12.8332H3.03341C2.38002 12.8332 2.05332 12.8332 1.80376 12.706C1.58424 12.5942 1.40576 12.4157 1.29391 12.1962C1.16675 11.9466 1.16675 11.6199 1.16675 10.9665V6.53317C1.16675 5.87978 1.16675 5.55308 1.29391 5.30352C1.40576 5.08399 1.58424 4.90552 1.80376 4.79366C2.05332 4.6665 2.38002 4.6665 3.03342 4.6665H4.66675M6.53341 9.33317H10.9667C11.6201 9.33317 11.9468 9.33317 12.1964 9.20601C12.4159 9.09416 12.5944 8.91568 12.7063 8.69616C12.8334 8.4466 12.8334 8.1199 12.8334 7.4665V3.03317C12.8334 2.37978 12.8334 2.05308 12.7063 1.80352C12.5944 1.58399 12.4159 1.40552 12.1964 1.29366C11.9468 1.1665 11.6201 1.1665 10.9667 1.1665H6.53341C5.88002 1.1665 5.55332 1.1665 5.30376 1.29366C5.08424 1.40552 4.90576 1.58399 4.79391 1.80352C4.66675 2.05308 4.66675 2.37978 4.66675 3.03317V7.4665C4.66675 8.1199 4.66675 8.4466 4.79391 8.69616C4.90576 8.91568 5.08424 9.09416 5.30376 9.20601C5.55332 9.33317 5.88002 9.33317 6.53341 9.33317Z" stroke="#1774FD" strokeWidth="1.2" strokeLinecap="round" strokeLinejoin="round"/>
</g>
<defs>
<clipPath id="clip0_14507_1182">
<rect width="14" height="14" fill="white"/>
</clipPath>
</defs>
</svg>
