<svg width="65" height="65" viewBox="0 0 65 65" fill="none" xmlns="http://www.w3.org/2000/svg">
<g id="Frame 311">
<rect x="0.8125" y="0.8125" width="63.375" height="63.375" rx="12.1875" fill="white"/>
<rect x="0.8125" y="0.8125" width="63.375" height="63.375" rx="12.1875" stroke="#E5E5E5" strokeWidth="1.625"/>
<path id="Icon" d="M46 30.1429H19M31.15 35.8571H24.4M19 27.5714L19 38.4286C19 40.0287 19 40.8288 19.2943 41.44C19.5531 41.9776 19.9662 42.4147 20.4742 42.6886C21.0518 43 21.8079 43 23.32 43L41.68 43C43.1921 43 43.9482 43 44.5258 42.6886C45.0338 42.4147 45.4469 41.9776 45.7057 41.44C46 40.8288 46 40.0287 46 38.4286V27.5714C46 25.9713 46 25.1712 45.7057 24.56C45.4469 24.0224 45.0338 23.5853 44.5258 23.3114C43.9482 23 43.1921 23 41.68 23L23.32 23C21.8079 23 21.0518 23 20.4742 23.3114C19.9662 23.5853 19.5531 24.0224 19.2943 24.56C19 25.1712 19 25.9713 19 27.5714Z" stroke="#292D32" strokeWidth="1.76" strokeLinecap="round" strokeLinejoin="round"/>
</g>
</svg>
