<svg width="16" height="16" viewBox="0 0 16 16" fill="none" xmlns="http://www.w3.org/2000/svg">
<circle cx="8" cy="8" r="8" fill="#121212"/>
<path d="M7.48788 1.57427C8.43672 1.48477 9.39324 1.6226 10.2782 1.97633C11.1632 2.33006 11.9512 2.88951 12.5769 3.60837C13.2027 4.32723 13.6481 5.18481 13.8765 6.1101C14.1049 7.03539 14.1095 8.00177 13.8901 8.92922C13.6707 9.85667 13.2334 10.7185 12.6147 11.4434C11.9959 12.1682 11.2133 12.7352 10.3318 13.0975C9.45025 13.4597 8.49511 13.6067 7.54545 13.5264C6.59579 13.446 5.67893 13.1406 4.8708 12.6354C4.8708 12.6354 8.9605 10.0519 9.5 7.77166C10.0395 5.49147 7.48788 1.57427 7.48788 1.57427Z" fill="white"/>
</svg>
