<svg width="51" height="50" viewBox="0 0 51 50" fill="none" xmlns="http://www.w3.org/2000/svg">
<rect x="1" y="0.5" width="49" height="49" rx="24.5" fill="white"/>
<rect x="1" y="0.5" width="49" height="49" rx="24.5" stroke="url(#paint0_linear_8092_2342)"/>
<path d="M24.6582 18.2653C25.033 20.5815 25.4318 21.7852 26.659 23.6725C27.9566 24.5812 29.3443 24.9869 32.0663 25.6734C29.3851 26.0094 28.0504 26.3296 26.659 27.6743C25.2361 29.6002 24.8426 30.8014 24.6582 33.0816C24.5161 31.0225 24.1012 29.7963 22.6573 27.6743C20.4719 26.1746 19.3078 25.9362 17.25 25.6734C19.7845 25.4523 21.0389 25.107 22.6573 23.6725C23.8843 22.0078 24.2535 20.7584 24.6582 18.2653Z" fill="url(#paint1_linear_8092_2342)"/>
<path d="M30.0459 16.9183C30.2333 18.0765 30.4327 18.6783 31.0463 19.622C31.6951 20.0763 32.3889 20.2791 33.75 20.6224C32.4093 20.7904 31.742 20.9505 31.0463 21.6229C30.3348 22.5858 30.1381 23.1864 30.0459 24.3265C29.9749 23.297 29.7674 22.6839 29.0454 21.6229C27.9527 20.873 27.3707 20.7538 26.3418 20.6224C27.609 20.5119 28.2362 20.3392 29.0454 19.622C29.659 18.7896 29.8436 18.1649 30.0459 16.9183Z" fill="url(#paint2_linear_8092_2342)"/>
<defs>
<linearGradient id="paint0_linear_8092_2342" x1="25.5" y1="0" x2="25.5" y2="50" gradientUnits="userSpaceOnUse">
<stop stop-color="#CA62EF"/>
<stop offset="0.478125" stop-color="#4B92FB"/>
<stop offset="0.972916" stop-color="#F6C0D1"/>
</linearGradient>
<linearGradient id="paint1_linear_8092_2342" x1="24.6582" y1="18.2653" x2="24.6582" y2="33.0816" gradientUnits="userSpaceOnUse">
<stop stop-color="#CA62EF"/>
<stop offset="0.478125" stop-color="#4B92FB"/>
<stop offset="0.972916" stop-color="#F6C0D1"/>
</linearGradient>
<linearGradient id="paint2_linear_8092_2342" x1="30.0459" y1="16.9183" x2="30.0459" y2="24.3265" gradientUnits="userSpaceOnUse">
<stop stop-color="#CA62EF"/>
<stop offset="0.478125" stop-color="#4B92FB"/>
<stop offset="0.972916" stop-color="#F6C0D1"/>
</linearGradient>
</defs>
</svg>
