<svg width="11" height="12" viewBox="0 0 11 12" fill="none" xmlns="http://www.w3.org/2000/svg">
<path d="M7.5 2.6123V2.2123C7.5 1.65225 7.5 1.37223 7.39101 1.15831C7.29513 0.970152 7.14215 0.817172 6.95399 0.721298C6.74008 0.612305 6.46005 0.612305 5.9 0.612305H5.1C4.53995 0.612305 4.25992 0.612305 4.04601 0.721298C3.85785 0.817172 3.70487 0.970152 3.60899 1.15831C3.5 1.37223 3.5 1.65225 3.5 2.2123V2.6123M4.5 5.36231V7.86231M6.5 5.36231V7.86231M1 2.6123H10M9 2.6123V8.21231C9 9.05238 9 9.47242 8.83651 9.79329C8.6927 10.0755 8.46323 10.305 8.18099 10.4488C7.86012 10.6123 7.44008 10.6123 6.6 10.6123H4.4C3.55992 10.6123 3.13988 10.6123 2.81901 10.4488C2.53677 10.305 2.3073 10.0755 2.16349 9.79329C2 9.47242 2 9.05238 2 8.21231V2.6123" stroke="#AF202D" strokeLinecap="round" strokeLinejoin="round"/>
</svg>
