<svg width="11" height="13" viewBox="0 0 11 13" fill="none" xmlns="http://www.w3.org/2000/svg">
<path d="M7.66667 3.2526V2.81927C7.66667 2.21255 7.66667 1.90919 7.54859 1.67745C7.44473 1.47361 7.279 1.30788 7.07516 1.20401C6.84342 1.08594 6.54006 1.08594 5.93333 1.08594H5.06667C4.45994 1.08594 4.15658 1.08594 3.92484 1.20401C3.721 1.30788 3.55527 1.47361 3.45141 1.67745C3.33333 1.90919 3.33333 2.21255 3.33333 2.81927V3.2526M4.41667 6.23177V8.9401M6.58333 6.23177V8.9401M0.625 3.2526H10.375M9.29167 3.2526V9.31927C9.29167 10.2294 9.29167 10.6844 9.11455 11.032C8.95876 11.3378 8.71016 11.5864 8.4044 11.7422C8.0568 11.9193 7.60175 11.9193 6.69167 11.9193H4.30833C3.39825 11.9193 2.94321 11.9193 2.5956 11.7422C2.28984 11.5864 2.04124 11.3378 1.88545 11.032C1.70833 10.6844 1.70833 10.2294 1.70833 9.31927V3.2526" stroke="#AF202D" strokeLinecap="round" strokeLinejoin="round"/>
</svg>
