<svg width="14" height="13" viewBox="0 0 14 13" fill="none" xmlns="http://www.w3.org/2000/svg">
<path fillRule="evenodd" clipRule="evenodd" d="M7.47879 8.65771L4.1776 11.4502C3.46502 12.053 2.39873 11.964 1.79599 11.2514C1.19325 10.5388 1.2823 9.47241 1.99488 8.86962L5.3829 6.00364L4.81863 5.28908L1.40723 8.17484C0.31095 9.1022 0.173961 10.7427 1.10125 11.8391C2.02854 12.9354 3.66897 13.0724 4.76525 12.145L8.04306 9.37226L7.47879 8.65771ZM9.52648 6.92554L10.0908 7.64009L12.7051 5.4286C13.8013 4.50124 13.9383 2.86071 13.011 1.76438C12.0838 0.668045 10.4433 0.531065 9.34705 1.45842L6.86632 3.55691L7.4306 4.27146L9.9347 2.1532C10.6473 1.55042 11.7136 1.63945 12.3163 2.35207C12.919 3.06469 12.83 4.13104 12.1174 4.73382L9.52648 6.92554Z" fill="black"/>
<line x1="5.55687" y1="4.69168e-10" x2="5.55687" y2="2.6" stroke="black" strokeWidth="0.519984"/>
<line x1="3.99609" y1="4.16038" x2="1.39626" y2="4.16038" stroke="black" strokeWidth="0.519984"/>
<line x1="8.93532" y1="12.9941" x2="8.93532" y2="10.3941" stroke="black" strokeWidth="0.519984"/>
<line x1="10.4961" y1="8.83571" x2="13.0959" y2="8.83571" stroke="black" strokeWidth="0.519984"/>
</svg>
