<svg width="14" height="14" viewBox="0 0 14 14" fill="none" xmlns="http://www.w3.org/2000/svg">
<path d="M8.75008 1.16666V1.98332C8.75008 2.31002 8.75008 2.47337 8.6865 2.59815C8.63058 2.70791 8.54134 2.79715 8.43158 2.85308C8.30679 2.91666 8.14345 2.91666 7.81675 2.91666H6.18341C5.85672 2.91666 5.69337 2.91666 5.56859 2.85308C5.45883 2.79715 5.36959 2.70791 5.31366 2.59815C5.25008 2.47337 5.25008 2.31002 5.25008 1.98332V1.16666M4.78341 12.8333H9.21675C9.87014 12.8333 10.1968 12.8333 10.4464 12.7062C10.6659 12.5943 10.8444 12.4158 10.9563 12.1963C11.0834 11.9467 11.0834 11.6201 11.0834 10.9667V3.03332C11.0834 2.37993 11.0834 2.05323 10.9563 1.80367C10.8444 1.58415 10.6659 1.40567 10.4464 1.29382C10.1968 1.16666 9.87014 1.16666 9.21675 1.16666H4.78341C4.13002 1.16666 3.80332 1.16666 3.55376 1.29382C3.33424 1.40567 3.15576 1.58415 3.04391 1.80367C2.91675 2.05323 2.91675 2.37993 2.91675 3.03332V10.9667C2.91675 11.6201 2.91675 11.9467 3.04391 12.1963C3.15576 12.4158 3.33424 12.5943 3.55376 12.7062C3.80332 12.8333 4.13002 12.8333 4.78341 12.8333Z" stroke="#7F7F81" strokeWidth="1.2" strokeLinecap="round" strokeLinejoin="round"/>
</svg>
