<svg width="116" height="38" viewBox="0 0 116 38" fill="none" xmlns="http://www.w3.org/2000/svg">
<path fillRule="evenodd" clipRule="evenodd" d="M3.76807 19.0016C3.76807 21.1224 4.1858 23.2225 4.99741 25.1819C5.80903 27.1413 6.99863 28.9217 8.49829 30.4213C9.99796 31.921 11.7783 33.1106 13.7377 33.9222C15.6971 34.7338 17.7972 35.1516 19.9181 35.1516C22.0389 35.1516 24.139 34.7338 26.0984 33.9222C28.0578 33.1106 29.8382 31.921 31.3378 30.4213C32.8375 28.9217 34.0271 27.1413 34.8387 25.1819C35.6503 23.2225 36.0681 21.1224 36.0681 19.0016C36.0681 14.7183 34.3666 10.6105 31.3378 7.58179C28.3091 4.55308 24.2013 2.85156 19.9181 2.85156C15.6348 2.85156 11.527 4.55308 8.49829 7.58179C5.46958 10.6105 3.76807 14.7183 3.76807 19.0016ZM34.1681 19.0016C34.1681 22.7809 32.6667 26.4054 29.9943 29.0778C27.3219 31.7502 23.6974 33.2516 19.9181 33.2516C16.1387 33.2516 12.5142 31.7502 9.84179 29.0778C7.1694 26.4054 5.66807 22.7809 5.66807 19.0016C5.66807 15.2222 7.1694 11.5977 9.84179 8.92529C12.5142 6.2529 16.1387 4.75156 19.9181 4.75156C23.6974 4.75156 27.3219 6.2529 29.9943 8.92529C32.6667 11.5977 34.1681 15.2222 34.1681 19.0016Z" fill="#7F7F81"/>
<path fillRule="evenodd" clipRule="evenodd" d="M13.2681 19.0008C13.2681 27.3532 16.0079 34.2008 19.9181 34.2008C23.8283 34.2008 26.5681 27.3532 26.5681 19.0008C26.5681 10.6484 23.8283 3.80078 19.9181 3.80078C16.0079 3.80078 13.2681 10.6484 13.2681 19.0008ZM24.6681 19.0008C24.6681 26.3899 22.3026 32.3008 19.9181 32.3008C17.5336 32.3008 15.1681 26.3899 15.1681 19.0008C15.1681 11.6117 17.5336 5.70078 19.9181 5.70078C22.3026 5.70078 24.6681 11.6117 24.6681 19.0008Z" fill="#7F7F81"/>
<path d="M8.01476 10.0934L9.28776 8.68359C9.49106 8.86599 9.70766 9.04459 9.93946 9.21749C12.4437 11.0947 16.3957 12.2385 20.703 12.2385C24.3757 12.2385 27.8033 11.4082 30.3075 9.97749C30.8844 9.65104 31.4296 9.27128 31.9358 8.84319L33.1708 10.2872C32.6046 10.7717 31.9624 11.2182 31.2518 11.6248C28.4455 13.2303 24.693 14.1385 20.703 14.1385C16.01 14.1385 11.6552 12.8788 8.79946 10.7375C8.52812 10.5343 8.26627 10.3207 8.01476 10.0934ZM8.01476 27.9306L9.28776 29.3366C9.49106 29.1542 9.70766 28.9756 9.93946 28.8046C12.4437 26.9274 16.3957 25.7836 20.703 25.7836C24.3757 25.7836 27.8033 26.612 30.3075 28.0446C30.9174 28.3942 31.4627 28.7742 31.9358 29.177L33.1708 27.733C32.5743 27.2282 31.9318 26.7803 31.2518 26.3954C28.4455 24.7918 24.693 23.8836 20.703 23.8836C16.01 23.8836 11.6552 25.1433 8.79946 27.2827C8.52206 27.4917 8.25986 27.7083 8.01476 27.9306ZM4.71826 19.9506V18.0506H35.1183V19.9506H4.71826Z" fill="#7F7F81"/>
<path d="M58.1589 28.0597C57.6067 28.0597 57.1589 27.612 57.1589 27.0597V10.9375C57.1589 10.3852 57.6066 9.9375 58.1589 9.9375H59.8388C60.3911 9.9375 60.8388 10.3852 60.8388 10.9375V27.0597C60.8388 27.612 60.3911 28.0597 59.8388 28.0597H58.1589ZM50.918 20.8583C50.3657 20.8583 49.918 20.4106 49.918 19.8583V18.1785C49.918 17.6262 50.3657 17.1785 50.918 17.1785H67.0797C67.632 17.1785 68.0797 17.6262 68.0797 18.1785V19.8583C68.0797 20.4106 67.632 20.8583 67.0797 20.8583H50.918Z" fill="#1774FD"/>
<rect x="79.0798" y="1" width="36.0021" height="36.0032" rx="18.0011" fill="white"/>
<path d="M95.2447 4C96.0627 9.15906 96.9327 11.8401 99.6107 16.0439C102.442 18.0678 105.47 18.9713 111.41 20.5005C105.559 21.2489 102.647 21.962 99.6107 24.9572C96.5058 29.2467 95.6471 31.9223 95.2447 37.001C94.9347 32.4148 94.0294 29.6836 90.8787 24.9572C86.1101 21.6169 83.5699 21.0858 79.0798 20.5005C84.6101 20.008 87.3473 19.2389 90.8787 16.0439C93.5562 12.3359 94.3617 9.55318 95.2447 4Z" fill="url(#paint0_linear_8761_7345)"/>
<path d="M106.999 1C107.408 3.57953 107.843 4.92005 109.182 7.02194C110.598 8.03391 112.112 8.48565 115.082 9.25026C112.157 9.62444 110.7 9.98102 109.182 11.4786C107.63 13.6234 107.201 14.9612 106.999 17.5005C106.844 15.2074 106.392 13.8418 104.816 11.4786C102.432 9.80844 101.162 9.54292 98.917 9.25026C101.682 9.00402 103.051 8.61946 104.816 7.02194C106.155 5.16795 106.558 3.77659 106.999 1Z" fill="url(#paint1_linear_8761_7345)"/>
<defs>
<linearGradient id="paint0_linear_8761_7345" x1="95.2447" y1="4" x2="95.2447" y2="37.001" gradientUnits="userSpaceOnUse">
<stop stop-color="#CA62EF"/>
<stop offset="0.478125" stop-color="#4B92FB"/>
<stop offset="0.972916" stop-color="#F6C0D1"/>
</linearGradient>
<linearGradient id="paint1_linear_8761_7345" x1="106.999" y1="1" x2="106.999" y2="17.5005" gradientUnits="userSpaceOnUse">
<stop stop-color="#CA62EF"/>
<stop offset="0.478125" stop-color="#4B92FB"/>
<stop offset="0.972916" stop-color="#F6C0D1"/>
</linearGradient>
</defs>
</svg>
