<svg width="14" height="8" viewBox="0 0 14 8" fill="none" xmlns="http://www.w3.org/2000/svg">
<path d="M6.99935 4.31925H7.00227M9.91602 4.31925H9.91893M4.08268 4.31925H4.0856M3.03268 1.40259H10.966C11.6194 1.40259 11.9461 1.40259 12.1957 1.52975C12.4152 1.6416 12.5937 1.82008 12.7055 2.0396C12.8327 2.28916 12.8327 2.61586 12.8327 3.26925V5.36925C12.8327 6.02265 12.8327 6.34935 12.7055 6.59891C12.5937 6.81843 12.4152 6.99691 12.1957 7.10876C11.9461 7.23592 11.6194 7.23592 10.966 7.23592H3.03268C2.37929 7.23592 2.05259 7.23592 1.80303 7.10876C1.5835 6.99691 1.40503 6.81843 1.29317 6.59891C1.16602 6.34935 1.16602 6.02265 1.16602 5.36925V3.26925C1.16602 2.61586 1.16602 2.28916 1.29317 2.0396C1.40503 1.82008 1.5835 1.6416 1.80303 1.52975C2.05259 1.40259 2.37929 1.40259 3.03268 1.40259ZM7.14518 4.31925C7.14518 4.3998 7.07989 4.46509 6.99935 4.46509C6.91881 4.46509 6.85352 4.3998 6.85352 4.31925C6.85352 4.23871 6.91881 4.17342 6.99935 4.17342C7.07989 4.17342 7.14518 4.23871 7.14518 4.31925ZM10.0618 4.31925C10.0618 4.3998 9.99656 4.46509 9.91602 4.46509C9.83547 4.46509 9.77018 4.3998 9.77018 4.31925C9.77018 4.23871 9.83547 4.17342 9.91602 4.17342C9.99656 4.17342 10.0618 4.23871 10.0618 4.31925ZM4.22852 4.31925C4.22852 4.3998 4.16322 4.46509 4.08268 4.46509C4.00214 4.46509 3.93685 4.3998 3.93685 4.31925C3.93685 4.23871 4.00214 4.17342 4.08268 4.17342C4.16322 4.17342 4.22852 4.23871 4.22852 4.31925Z" stroke="#1774FD" strokeLinecap="round" strokeLinejoin="round"/>
</svg>
