<svg width="20" height="21" viewBox="0 0 20 21" fill="none" xmlns="http://www.w3.org/2000/svg">
<path d="M3.31912 2.51329C3.45634 2.8672 3.63799 3.2114 3.89691 3.61787L3.9346 3.67704L3.99167 3.71784C4.32395 3.95538 4.66776 4.12308 5.08898 4.27255C4.66659 4.41888 4.30854 4.63457 3.94797 4.99029L3.92659 5.01139L3.90898 5.03572C3.64104 5.40591 3.44322 5.73138 3.29842 6.06618C3.15637 5.74891 2.96648 5.42292 2.71603 5.04719L2.67828 4.99056L2.62254 4.95151C2.25185 4.69183 1.93581 4.506 1.63287 4.36941C1.99554 4.21753 2.31598 4.00099 2.65771 3.69179L2.68598 3.66621L2.7083 3.63529C2.99094 3.24385 3.17938 2.89551 3.31912 2.51329Z" stroke="#A7A7A7" strokeWidth="0.723738"/>
<path d="M7.73868 9.33333H10.4053M7.73868 11.6667H12.4054M10.7387 16.3333C13.8683 16.3333 16.4053 13.7963 16.4053 10.6667C16.4053 7.53705 13.8683 5 10.7387 5C7.60907 5 5.07202 7.53705 5.07202 10.6667C5.07202 11.3 5.17591 11.9091 5.3676 12.4777C5.43973 12.6917 5.4758 12.7987 5.4823 12.881C5.48873 12.9621 5.48387 13.019 5.46378 13.098C5.44986 13.1527 5.42443 13.2089 5.38096 13.2922C5.35008 13.3514 5.33463 13.381 5.32366 13.4051C5.31311 13.4282 5.3056 13.4464 5.2967 13.4702C5.28745 13.495 5.27925 13.5211 5.26284 13.5732L4.83871 14.9225C4.7246 15.2855 4.66755 15.467 4.70655 15.609C4.74069 15.7332 4.82147 15.8395 4.93204 15.9056C5.0584 15.9812 5.24855 15.9748 5.62886 15.9619L8.15639 15.8767C8.25978 15.866 8.31147 15.8606 8.35859 15.8624C8.40493 15.8642 8.43765 15.8686 8.48284 15.879C8.52878 15.8896 8.58656 15.9118 8.70212 15.9564C9.33415 16.1999 10.0208 16.3333 10.7387 16.3333Z" stroke="#A7A7A7" strokeWidth="1.2" strokeLinecap="round" strokeLinejoin="round"/>
<path d="M17.1119 21L15.5221 16.8477H16.3348L17.972 21H17.1119ZM13.8315 21L15.4688 16.8477H16.2814L14.6917 21H13.8315ZM14.6027 20.0865V19.3687H17.2068V20.0865H14.6027Z" fill="#A7A7A7"/>
<path d="M18.4695 21V16.8477H19.2822V21H18.4695Z" fill="#A7A7A7"/>
</svg>
