<svg width="26" height="26" viewBox="0 0 26 26" fill="none" xmlns="http://www.w3.org/2000/svg">
<path d="M9.65072 20.2381L9.89216 20.4806V20.1384V7.58253C9.89216 7.33269 9.99141 7.09308 10.1681 6.91641C10.3447 6.73975 10.5843 6.6405 10.8342 6.6405C11.084 6.6405 11.3236 6.73975 11.5003 6.91641C11.677 7.09308 11.7762 7.33269 11.7762 7.58253V22.7489C11.7752 22.9347 11.7193 23.1161 11.6154 23.2702C11.5115 23.4245 11.3642 23.5445 11.1922 23.6152L11.1922 23.6152L11.1911 23.6156C11.0195 23.6877 10.8304 23.7075 10.6477 23.6723C10.4651 23.6371 10.297 23.5486 10.1646 23.4181C10.1645 23.418 10.1644 23.4179 10.1643 23.4178L5.8316 19.0851C5.65411 18.9076 5.55439 18.6669 5.55439 18.4159C5.55439 18.1648 5.65411 17.9241 5.8316 17.7466C6.0091 17.5691 6.24983 17.4694 6.50085 17.4694C6.75182 17.4694 6.99251 17.5691 7.17 17.7465C7.17003 17.7465 7.17007 17.7466 7.1701 17.7466L9.65072 20.2381ZM14.8095 2.38324L14.8106 2.38279C14.9822 2.31065 15.1713 2.29094 15.354 2.32615C15.5366 2.36133 15.7047 2.44978 15.8372 2.58034C15.8373 2.58043 15.8373 2.58052 15.8374 2.58061L20.1701 6.91328L20.1705 6.91369C20.2588 7.00127 20.3289 7.10546 20.3767 7.22025C20.4245 7.33504 20.4492 7.45817 20.4492 7.58253C20.4492 7.70689 20.4245 7.83002 20.3767 7.94481C20.3289 8.05961 20.2588 8.1638 20.1705 8.25137L20.1697 8.25219C20.0821 8.34049 19.9779 8.41057 19.8631 8.45839C19.7483 8.50622 19.6252 8.53084 19.5009 8.53084C19.3765 8.53084 19.2534 8.50622 19.1386 8.45839C19.0238 8.41057 18.9196 8.34049 18.832 8.25219L18.8318 8.252L16.351 5.76033L16.1095 5.51784V5.86003V18.4159C16.1095 18.6657 16.0103 18.9053 15.8336 19.082C15.657 19.2586 15.4174 19.3579 15.1675 19.3579C14.9177 19.3579 14.6781 19.2586 14.5014 19.082C14.3247 18.9053 14.2255 18.6657 14.2255 18.4159V3.24953C14.2265 3.06368 14.2824 2.88228 14.3863 2.72815C14.4902 2.57392 14.6375 2.45391 14.8095 2.38324Z" fill="#0359D8" stroke="white" strokeWidth="0.282609"/>
</svg>
