<svg width="17" height="17" viewBox="0 0 17 17" fill="none" xmlns="http://www.w3.org/2000/svg">
<g clipPath="url(#clip0_11682_515)">
<path d="M10.6263 1.74095C9.95548 1.53026 9.24166 1.41667 8.5013 1.41667C4.58928 1.41667 1.41797 4.58799 1.41797 8.5C1.41797 12.412 4.58928 15.5833 8.5013 15.5833C12.4133 15.5833 15.5846 12.412 15.5846 8.5C15.5846 7.28498 15.2787 6.14141 14.7397 5.14211M12.043 4.07292H12.0465M7.43884 15.5042L7.43892 13.9435C7.43892 13.859 7.46916 13.7772 7.52418 13.713L9.28494 11.6587C9.42964 11.4899 9.3848 11.2311 9.19175 11.1208L7.1686 9.96465C7.11363 9.93324 7.06808 9.88767 7.03671 9.83268L5.71788 7.52153C5.64924 7.40125 5.51679 7.33201 5.37885 7.3443L1.46343 7.69303M14.8763 4.25001C14.8763 5.81481 13.4596 7.08334 12.043 8.5C10.6263 7.08334 9.20964 5.81481 9.20964 4.25001C9.20964 2.6852 10.4782 1.41667 12.043 1.41667C13.6078 1.41667 14.8763 2.6852 14.8763 4.25001ZM12.2201 4.07292C12.2201 4.17072 12.1408 4.25001 12.043 4.25001C11.9452 4.25001 11.8659 4.17072 11.8659 4.07292C11.8659 3.97512 11.9452 3.89584 12.043 3.89584C12.1408 3.89584 12.2201 3.97512 12.2201 4.07292Z" stroke="#828282" strokeWidth="1.2" strokeLinecap="round" strokeLinejoin="round"/>
</g>
<defs>
<clipPath id="clip0_11682_515">
<rect width="17" height="17" fill="white"/>
</clipPath>
</defs>
</svg>
