<svg width="33" height="32" viewBox="0 0 33 32" fill="none" xmlns="http://www.w3.org/2000/svg">
<rect x="1" y="0.5" width="31" height="31" rx="15.5" fill="white"/>
<rect x="1" y="0.5" width="31" height="31" rx="15.5" stroke="url(#paint0_linear_12383_9891)"/>
<path d="M15.6582 9.26562C16.033 11.5819 16.4318 12.7856 17.659 14.6729C18.9566 15.5816 20.3443 15.9872 23.0663 16.6738C20.3851 17.0098 19.0504 17.33 17.659 18.6747C16.2361 20.6005 15.8426 21.8018 15.6582 24.082C15.5161 22.0229 15.1012 20.7967 13.6573 18.6747C11.4719 17.175 10.3078 16.9366 8.25 16.6738C10.7845 16.4527 12.0389 16.1074 13.6573 14.6729C14.8843 13.0082 15.2535 11.7588 15.6582 9.26562Z" fill="url(#paint1_linear_12383_9891)"/>
<path d="M21.0478 7.91797C21.2353 9.07609 21.4346 9.67793 22.0483 10.6216C22.697 11.0759 23.3909 11.2788 24.7519 11.6221C23.4113 11.79 22.744 11.9501 22.0483 12.6225C21.3368 13.5854 21.14 14.186 21.0478 15.3261C20.9768 14.2966 20.7694 13.6835 20.0474 12.6225C18.9547 11.8727 18.3726 11.7534 17.3438 11.6221C18.611 11.5115 19.2382 11.3388 20.0474 10.6216C20.6609 9.78924 20.8455 9.16456 21.0478 7.91797Z" fill="url(#paint2_linear_12383_9891)"/>
<defs>
<linearGradient id="paint0_linear_12383_9891" x1="16.5" y1="0" x2="16.5" y2="32" gradientUnits="userSpaceOnUse">
<stop stop-color="#CA62EF"/>
<stop offset="0.478125" stop-color="#4B92FB"/>
<stop offset="0.972916" stop-color="#F6C0D1"/>
</linearGradient>
<linearGradient id="paint1_linear_12383_9891" x1="15.6582" y1="9.26562" x2="15.6582" y2="24.082" gradientUnits="userSpaceOnUse">
<stop stop-color="#CA62EF"/>
<stop offset="0.478125" stop-color="#4B92FB"/>
<stop offset="0.972916" stop-color="#F6C0D1"/>
</linearGradient>
<linearGradient id="paint2_linear_12383_9891" x1="21.0478" y1="7.91797" x2="21.0478" y2="15.3261" gradientUnits="userSpaceOnUse">
<stop stop-color="#CA62EF"/>
<stop offset="0.478125" stop-color="#4B92FB"/>
<stop offset="0.972916" stop-color="#F6C0D1"/>
</linearGradient>
</defs>
</svg>
