<svg width="14" height="14" viewBox="0 0 14 14" fill="none" xmlns="http://www.w3.org/2000/svg">
<path d="M5.30234 5.25002C5.43948 4.86016 5.71018 4.53142 6.06648 4.32201C6.42278 4.11261 6.84169 4.03607 7.24902 4.10594C7.65635 4.1758 8.02581 4.38758 8.29197 4.70375C8.55812 5.01991 8.70379 5.42008 8.70317 5.83335C8.70317 7.00002 6.95317 7.58335 6.95317 7.58335M6.99984 9.91669H7.00567M12.8332 7.00002C12.8332 10.2217 10.2215 12.8334 6.99984 12.8334C3.77818 12.8334 1.1665 10.2217 1.1665 7.00002C1.1665 3.77836 3.77818 1.16669 6.99984 1.16669C10.2215 1.16669 12.8332 3.77836 12.8332 7.00002Z" stroke="#1774FD" strokeWidth="1.2" strokeLinecap="round" strokeLinejoin="round"/>
</svg>
