<svg width="36" height="29" viewBox="0 0 36 29" fill="none" xmlns="http://www.w3.org/2000/svg">
<path d="M5.27225 2.83275C3.9545 2.83275 2.887 3.8775 2.887 5.16725V23.8328C2.887 25.1225 3.9545 26.1672 5.27225 26.1672H30.7278C32.0455 26.1672 33.113 25.1225 33.113 23.8328V5.16725C33.113 3.8775 32.0455 2.83275 30.7278 2.83275H5.27225ZM30.7278 0.5C33.3633 0.5 35.5 2.5895 35.5 5.16725V23.8328C35.5 26.4105 33.3633 28.5 30.7278 28.5H5.27225C2.63675 28.5 0.5 26.4105 0.5 23.8328V5.16725C0.5 2.5895 2.63675 0.5 5.27225 0.5H30.7278ZM14.7922 19.9827H7.5C7.34496 19.9809 7.19107 20.0096 7.04715 20.0673C6.90322 20.125 6.77208 20.2105 6.66123 20.3189C6.55038 20.4273 6.46199 20.5565 6.40112 20.6991C6.34025 20.8417 6.3081 20.995 6.3065 21.15C6.3065 21.794 6.84025 22.3172 7.5 22.3172H14.7922C14.9471 22.3189 15.1008 22.29 15.2446 22.2322C15.3883 22.1744 15.5192 22.0889 15.6299 21.9805C15.7406 21.8721 15.8288 21.7429 15.8895 21.6005C15.9503 21.458 15.9824 21.3049 15.984 21.15C15.9824 20.9951 15.9503 20.842 15.8895 20.6995C15.8288 20.5571 15.7406 20.4279 15.6299 20.3195C15.5192 20.2111 15.3883 20.1256 15.2446 20.0678C15.1008 20.01 14.9471 19.9811 14.7922 19.9827ZM24.5625 6.33275C21.8955 6.33275 19.7237 8.417 19.7237 11C19.7237 12.3527 20.3188 13.569 21.2708 14.4212C19.4683 15.4852 18.266 17.4015 18.266 19.5908C18.266 20.2155 18.364 20.8298 18.5548 21.416C18.756 22.0285 19.428 22.368 20.0545 22.172C20.2024 22.1277 20.3399 22.0544 20.4591 21.9564C20.5783 21.8583 20.6768 21.7375 20.7488 21.601C20.8208 21.4645 20.8649 21.315 20.8785 21.1612C20.8921 21.0075 20.8749 20.8525 20.828 20.7055C20.711 20.3455 20.652 19.9693 20.653 19.5908C20.653 17.5345 22.3978 15.858 24.5625 15.858C26.7272 15.858 28.4737 17.5345 28.4737 19.5908C28.4737 19.8935 28.437 20.1892 28.3635 20.4762C28.3266 20.6262 28.3199 20.7821 28.3438 20.9347C28.3676 21.0873 28.4216 21.2336 28.5025 21.3652C28.5835 21.4968 28.6897 21.611 28.8152 21.7011C28.9406 21.7912 29.0827 21.8555 29.2333 21.8902C29.5376 21.9666 29.8598 21.9202 30.1302 21.7611C30.4007 21.602 30.5977 21.3429 30.6788 21.0398C30.7995 20.5673 30.859 20.0825 30.859 19.5908C30.859 17.4015 29.6567 15.4853 27.8542 14.4178C28.8062 13.569 29.4012 12.3527 29.4012 11C29.4012 8.417 27.2313 6.33275 24.5625 6.33275ZM14.7922 13.8578H7.5C7.34496 13.8559 7.19107 13.8846 7.04715 13.9423C6.90322 14 6.77208 14.0855 6.66123 14.1939C6.55038 14.3023 6.46199 14.4315 6.40112 14.5741C6.34025 14.7167 6.3081 14.87 6.3065 15.025C6.3065 15.669 6.84025 16.1923 7.5 16.1923H14.7922C14.9471 16.1939 15.1008 16.165 15.2446 16.1072C15.3883 16.0494 15.5192 15.9639 15.6299 15.8555C15.7406 15.7471 15.8288 15.6179 15.8895 15.4755C15.9503 15.333 15.9824 15.1799 15.984 15.025C15.9824 14.8701 15.9503 14.717 15.8895 14.5745C15.8288 14.4321 15.7406 14.3029 15.6299 14.1945C15.5192 14.0861 15.3883 14.0006 15.2446 13.9428C15.1008 13.885 14.9471 13.8561 14.7922 13.8578ZM24.5625 8.66725C25.9223 8.66725 27.016 9.71725 27.016 11C27.016 12.2845 25.9223 13.3328 24.5625 13.3328C23.2027 13.3328 22.109 12.2828 22.109 11C22.109 9.7155 23.2027 8.66725 24.5625 8.66725ZM14.7922 7.73275H7.5C7.34496 7.7309 7.19107 7.75964 7.04715 7.81732C6.90322 7.87501 6.77208 7.9605 6.66123 8.06891C6.55038 8.17733 6.46199 8.30653 6.40112 8.44914C6.34025 8.59175 6.3081 8.74496 6.3065 8.9C6.3065 9.544 6.84025 10.0673 7.5 10.0673H14.7922C14.9471 10.0689 15.1008 10.04 15.2446 9.98217C15.3883 9.92439 15.5192 9.83885 15.6299 9.73046C15.7406 9.62207 15.8288 9.49294 15.8895 9.35045C15.9503 9.20796 15.9824 9.0549 15.984 8.9C15.9824 8.7451 15.9503 8.59204 15.8895 8.44955C15.8288 8.30705 15.7406 8.17793 15.6299 8.06954C15.5192 7.96115 15.3883 7.87562 15.2446 7.81783C15.1008 7.76004 14.9471 7.73113 14.7922 7.73275Z" fill="url(#paint0_linear_11119_8244)"/>
<defs>
<linearGradient id="paint0_linear_11119_8244" x1="18" y1="0.5" x2="18" y2="28.5" gradientUnits="userSpaceOnUse">
<stop stop-color="#CA62EF"/>
<stop offset="0.478125" stop-color="#4B92FB"/>
<stop offset="0.972916" stop-color="#F6C0D1"/>
</linearGradient>
</defs>
</svg>
