<svg width="24" height="24" viewBox="0 0 24 24" fill="none" xmlns="http://www.w3.org/2000/svg">
<path fillRule="evenodd" clipRule="evenodd" d="M1.80078 11.9998C1.80078 13.3393 2.06461 14.6657 2.57721 15.9032C3.08981 17.1407 3.84113 18.2651 4.78829 19.2123C5.73545 20.1595 6.85989 20.9108 8.09741 21.4234C9.33493 21.936 10.6613 22.1998 12.0008 22.1998C13.3403 22.1998 14.6666 21.936 15.9042 21.4234C17.1417 20.9108 18.2661 20.1595 19.2133 19.2123C20.1604 18.2651 20.9118 17.1407 21.4244 15.9032C21.9369 14.6657 22.2008 13.3393 22.2008 11.9998C22.2008 9.2946 21.1261 6.70019 19.2133 4.78732C17.3004 2.87444 14.706 1.7998 12.0008 1.7998C9.29557 1.7998 6.70116 2.87444 4.78829 4.78732C2.87542 6.70019 1.80078 9.2946 1.80078 11.9998ZM21.0008 11.9998C21.0008 14.3868 20.0526 16.6759 18.3647 18.3638C16.6769 20.0516 14.3877 20.9998 12.0008 20.9998C9.61383 20.9998 7.32465 20.0516 5.63682 18.3638C3.94899 16.6759 3.00078 14.3868 3.00078 11.9998C3.00078 9.61286 3.94899 7.32367 5.63682 5.63584C7.32465 3.94802 9.61383 2.9998 12.0008 2.9998C14.3877 2.9998 16.6769 3.94802 18.3647 5.63584C20.0526 7.32367 21.0008 9.61286 21.0008 11.9998Z" fill="#7F7F81"/>
<path fillRule="evenodd" clipRule="evenodd" d="M7.80078 11.9999C7.80078 17.2751 9.53118 21.5999 12.0008 21.5999C14.4704 21.5999 16.2008 17.2751 16.2008 11.9999C16.2008 6.7247 14.4704 2.3999 12.0008 2.3999C9.53118 2.3999 7.80078 6.7247 7.80078 11.9999ZM15.0008 11.9999C15.0008 16.6667 13.5068 20.3999 12.0008 20.3999C10.4948 20.3999 9.00078 16.6667 9.00078 11.9999C9.00078 7.3331 10.4948 3.5999 12.0008 3.5999C13.5068 3.5999 15.0008 7.3331 15.0008 11.9999Z" fill="#7F7F81"/>
<path d="M4.48239 6.37429L5.28639 5.48389C5.41479 5.59909 5.55159 5.71189 5.69799 5.82109C7.27959 7.00669 9.77559 7.72909 12.496 7.72909C14.8156 7.72909 16.9804 7.20469 18.562 6.30109C18.9264 6.0949 19.2707 5.85506 19.5904 5.58469L20.3704 6.49669C20.0128 6.80269 19.6072 7.08469 19.1584 7.34149C17.386 8.35549 15.016 8.92909 12.496 8.92909C9.53199 8.92909 6.78159 8.13349 4.97799 6.78109C4.80661 6.65277 4.64124 6.51782 4.48239 6.37429ZM4.48239 17.6399L5.28639 18.5279C5.41479 18.4127 5.55159 18.2999 5.69799 18.1919C7.27959 17.0063 9.77559 16.2839 12.496 16.2839C14.8156 16.2839 16.9804 16.8071 18.562 17.7119C18.9472 17.9327 19.2916 18.1727 19.5904 18.4271L20.3704 17.5151C19.9937 17.1962 19.5879 16.9134 19.1584 16.6703C17.386 15.6575 15.016 15.0839 12.496 15.0839C9.53199 15.0839 6.78159 15.8795 4.97799 17.2307C4.80279 17.3627 4.63719 17.4995 4.48239 17.6399ZM2.40039 12.5999V11.3999H21.6004V12.5999H2.40039Z" fill="#7F7F81"/>
</svg>
