<svg width="86" height="87" viewBox="0 0 86 87" fill="none" xmlns="http://www.w3.org/2000/svg">
<path d="M38.4117 8.81158C38.4485 8.5869 38.7764 8.58792 38.8135 8.81256C40.7113 20.3212 42.8584 26.6255 49.02 36.3051C49.0337 36.3267 49.0519 36.346 49.0727 36.3609C55.6637 41.0636 62.7105 43.2314 76.212 46.7231C76.4253 46.7782 76.4064 47.0899 76.1879 47.1185C62.9085 48.8597 56.1193 50.6527 49.053 57.6186C49.0452 57.6264 49.0377 57.6351 49.0312 57.6441C42.1961 67.0905 39.9224 73.2618 38.8569 83.6837C38.8317 83.9302 38.4131 83.93 38.3888 83.6834C37.464 74.3049 35.0711 67.9691 28.2046 57.6622C28.1908 57.6415 28.1724 57.6227 28.1521 57.6084C17.4374 50.1078 11.4327 48.5497 1.80925 47.226C1.57245 47.1934 1.58238 46.837 1.82023 46.8134C13.8211 45.6231 20.1365 43.6143 28.1676 36.3526C28.178 36.3432 28.1877 36.3323 28.1959 36.321C34.3786 27.7531 36.3778 21.2492 38.4117 8.81158Z" fill="url(#paint0_linear_11534_3122)"/>
<path d="M66.4697 1.64209C66.5077 1.41761 66.84 1.41822 66.8787 1.64257C67.803 7.00189 68.9065 10.0972 71.8666 14.7506C71.8804 14.7722 71.8985 14.7915 71.9194 14.8063C75.1272 17.0906 78.5553 18.1776 84.9682 19.8452C85.1814 19.9007 85.1623 20.2132 84.944 20.2427C78.6464 21.0929 75.3377 22.0315 71.8997 25.418C71.8918 25.4258 71.8843 25.4345 71.8778 25.4435C68.7701 29.7399 67.55 32.6819 66.9545 37.1046C66.9215 37.3502 66.4356 37.349 66.401 37.1036C65.8407 33.1242 64.5654 30.0954 61.4801 25.4616C61.4663 25.4409 61.4479 25.4221 61.4276 25.4079C56.4226 21.9066 53.473 21.0007 49.1746 20.3569C48.9382 20.3215 48.9449 19.9525 49.1825 19.9258C54.6016 19.3161 57.6381 18.2362 61.4431 14.7981C61.4535 14.7887 61.4632 14.7778 61.4714 14.7664C64.4532 10.6318 65.4867 7.45657 66.4697 1.64209Z" fill="url(#paint1_linear_11534_3122)"/>
<defs>
<linearGradient id="paint0_linear_11534_3122" x1="38.6122" y1="7.56766" x2="38.6122" y2="86.401" gradientUnits="userSpaceOnUse">
<stop stop-color="#CA62EF"/>
<stop offset="0.478125" stop-color="#4B92FB"/>
<stop offset="0.972916" stop-color="#F6C0D1"/>
</linearGradient>
<linearGradient id="paint1_linear_11534_3122" x1="66.6733" y1="0.398438" x2="66.6733" y2="39.8151" gradientUnits="userSpaceOnUse">
<stop stop-color="#CA62EF"/>
<stop offset="0.478125" stop-color="#4B92FB"/>
<stop offset="0.972916" stop-color="#F6C0D1"/>
</linearGradient>
</defs>
</svg>
