<svg width="14" height="14" viewBox="0 0 14 14" fill="none" xmlns="http://www.w3.org/2000/svg">
<path d="M12.2501 9.33334V4.20001C12.2501 3.54662 12.2501 3.21992 12.1229 2.97035C12.0111 2.75083 11.8326 2.57235 11.6131 2.4605C11.3635 2.33334 11.0368 2.33334 10.3834 2.33334H3.61675C2.96335 2.33334 2.63666 2.33334 2.38709 2.4605C2.16757 2.57235 1.98909 2.75083 1.87724 2.97035C1.75008 3.21992 1.75008 3.54662 1.75008 4.20001V9.33334M2.7223 11.6667H11.2779C11.6395 11.6667 11.8203 11.6667 11.9687 11.6269C12.3713 11.519 12.6858 11.2046 12.7937 10.802C12.8334 10.6536 12.8334 10.4728 12.8334 10.1111C12.8334 9.93029 12.8334 9.83988 12.8135 9.7657C12.7596 9.5644 12.6024 9.40716 12.4011 9.35322C12.3269 9.33334 12.2365 9.33334 12.0556 9.33334H1.94453C1.7637 9.33334 1.67328 9.33334 1.5991 9.35322C1.3978 9.40716 1.24056 9.5644 1.18662 9.7657C1.16675 9.83988 1.16675 9.93029 1.16675 10.1111C1.16675 10.4728 1.16675 10.6536 1.2065 10.802C1.31438 11.2046 1.62885 11.519 2.03146 11.6269C2.17982 11.6667 2.36065 11.6667 2.7223 11.6667Z" stroke="#121212" strokeWidth="1.2" strokeLinecap="round" strokeLinejoin="round"/>
</svg>
