<svg width="12" height="12" viewBox="0 0 12 12" fill="none" xmlns="http://www.w3.org/2000/svg">
<circle cx="6" cy="6" r="2" fill="#121212"/>
<path d="M6.65583 11.9641C6.22913 12.011 5.79864 12.012 5.37174 11.967L5.74762 8.39701C5.91911 8.41507 6.09205 8.41467 6.26345 8.39582L6.65583 11.9641Z" fill="#121212"/>
<path d="M10.6887 9.74377C10.4209 10.0792 10.1178 10.385 9.78473 10.6557L7.52037 7.87026C7.65417 7.76148 7.77592 7.63867 7.88351 7.50391L10.6887 9.74377Z" fill="#121212"/>
<path d="M11.991 5.67175C12.0145 6.10037 11.9919 6.53027 11.9237 6.95407L8.3796 6.38326C8.40702 6.21302 8.41609 6.04032 8.40666 5.86814L11.991 5.67175Z" fill="#121212"/>
<path d="M10.5326 2.0686C10.8138 2.39287 11.0595 2.7464 11.2653 3.1231L8.11513 4.84432C8.03245 4.69299 7.93376 4.55098 7.82078 4.42071L10.5326 2.0686Z" fill="#121212"/>
<path d="M5.47406 0.0230956C5.90167 -0.0145322 6.33208 -0.00616246 6.75791 0.048061L6.30446 3.60904C6.1334 3.58726 5.9605 3.5839 5.78872 3.59901L5.47406 0.0230956Z" fill="#121212"/>
<path d="M1.22435 2.36776C1.48422 2.02609 1.78 1.71329 2.10662 1.43474L4.43599 4.16609C4.30478 4.27798 4.18596 4.40364 4.08157 4.54089L1.22435 2.36776Z" fill="#121212"/>
<path d="M0.0430669 6.7176C-0.00827297 6.29142 -0.0137288 5.86095 0.0267932 5.43361L3.6005 5.77247C3.58422 5.94414 3.58641 6.11706 3.60704 6.28827L0.0430669 6.7176Z" fill="#121212"/>
<path d="M2.42095 10.8156C2.07642 10.5596 1.76036 10.2673 1.47821 9.94378L4.18355 7.58426C4.29689 7.71422 4.42386 7.83163 4.56226 7.9345L2.42095 10.8156Z" fill="#121212"/>
</svg>
