<svg width="17" height="16" viewBox="0 0 17 16" fill="none" xmlns="http://www.w3.org/2000/svg">
<path d="M7.16699 8.66599C7.45329 9.04874 7.81856 9.36545 8.23803 9.59462C8.65749 9.82379 9.12133 9.96007 9.59809 9.99421C10.0749 10.0284 10.5534 9.95957 11.0012 9.79251C11.4491 9.62546 11.8557 9.36404 12.1937 9.02599L14.1937 7.02599C14.8009 6.39732 15.1368 5.55531 15.1292 4.68132C15.1216 3.80733 14.7711 2.97129 14.1531 2.35326C13.535 1.73524 12.699 1.38467 11.825 1.37708C10.951 1.36948 10.109 1.70547 9.48033 2.31266L8.33366 3.45266" stroke="#828282" strokeWidth="1.5" strokeLinecap="round" strokeLinejoin="round"/>
<path d="M9.83347 7.33283C9.54716 6.95008 9.18189 6.63338 8.76243 6.40421C8.34297 6.17503 7.87913 6.03875 7.40237 6.00461C6.9256 5.97047 6.44707 6.03925 5.99924 6.20631C5.5514 6.37337 5.14472 6.63479 4.8068 6.97283L2.8068 8.97283C2.19961 9.60151 1.86363 10.4435 1.87122 11.3175C1.87881 12.1915 2.22938 13.0275 2.8474 13.6456C3.46543 14.2636 4.30147 14.6142 5.17546 14.6217C6.04945 14.6293 6.89146 14.2934 7.52013 13.6862L8.66013 12.5462" stroke="#828282" strokeWidth="1.5" strokeLinecap="round" strokeLinejoin="round"/>
</svg>
