<svg width="33" height="30" viewBox="0 0 33 30" fill="none" xmlns="http://www.w3.org/2000/svg">
<path fillRule="evenodd" clipRule="evenodd" d="M17.9879 13.9189C17.6833 14.0354 17.5494 14.378 17.6496 14.6884L21.3932 26.2822C21.8004 27.5433 21.1082 28.8958 19.8471 29.3029C19.7431 29.3366 19.6384 29.3627 19.5338 29.3816C19.3511 29.4146 19.1669 29.4418 18.9875 29.4897C15.5313 30.4134 11.7347 30.1108 8.29792 28.3552C4.08032 26.2007 1.31805 22.3245 0.430197 18.021C0.0487659 16.1721 2.06763 15.0546 3.81783 15.762C6.83649 16.9822 10.1161 17.5862 12.8029 16.3258C12.9722 16.2465 13.0466 16.0508 12.9891 15.8729L9.05717 3.69568C8.68671 2.54839 9.22619 1.32551 10.2761 0.807538C10.2762 0.807639 10.2763 0.807486 10.2761 0.807538C10.2761 0.807429 10.2762 0.807002 10.2763 0.806962C10.2774 0.806599 10.2785 0.806236 10.2795 0.805874C10.3827 0.755198 10.4907 0.711317 10.6033 0.674969C10.7287 0.634461 10.855 0.604835 10.9813 0.585567C14.5094 -0.428263 18.4154 -0.156887 21.9424 1.6448C26.2906 3.866 29.092 7.9173 29.8872 12.3801C30.2153 14.2218 28.1989 15.2936 26.4642 14.5933C23.6432 13.4545 20.6231 12.9117 17.9879 13.9189Z" fill="#1774FD"/>
<path fillRule="evenodd" clipRule="evenodd" d="M17.9879 13.9189C17.6833 14.0354 17.5494 14.378 17.6496 14.6884L21.3932 26.2822C21.8004 27.5433 21.1082 28.8958 19.8471 29.3029C19.7431 29.3366 19.6384 29.3627 19.5338 29.3816C19.3511 29.4146 19.1669 29.4418 18.9875 29.4897C15.5313 30.4134 11.7347 30.1108 8.29792 28.3552C4.08032 26.2007 1.31805 22.3245 0.430197 18.021C0.0487659 16.1721 2.06763 15.0546 3.81783 15.762C6.83649 16.9822 10.1161 17.5862 12.8029 16.3258C12.9722 16.2465 13.0466 16.0508 12.9891 15.8729L9.05717 3.69568C8.68671 2.54839 9.22619 1.32551 10.2761 0.807538C10.2762 0.807639 10.2763 0.807486 10.2761 0.807538C10.2761 0.807429 10.2762 0.807002 10.2763 0.806962C10.2774 0.806599 10.2785 0.806236 10.2795 0.805874C10.3827 0.755198 10.4907 0.711317 10.6033 0.674969C10.7287 0.634461 10.855 0.604835 10.9813 0.585567C14.5094 -0.428263 18.4154 -0.156887 21.9424 1.6448C26.2906 3.866 29.092 7.9173 29.8872 12.3801C30.2153 14.2218 28.1989 15.2936 26.4642 14.5933C23.6432 13.4545 20.6231 12.9117 17.9879 13.9189Z" fill="url(#paint0_linear_10541_73301)"/>
<path d="M28.582 26.7017L26.21 20.5061H27.4225L29.8653 26.7017H28.582ZM23.6875 26.7017L26.1303 20.5061H27.3429L24.9709 26.7017H23.6875ZM24.8381 25.3386V24.2677H28.7236V25.3386H24.8381ZM30.6076 26.7017V20.5061H31.8202V26.7017H30.6076Z" fill="#1774FD"/>
<defs>
<linearGradient id="paint0_linear_10541_73301" x1="15.153" y1="0" x2="15.153" y2="30" gradientUnits="userSpaceOnUse">
<stop stop-color="#CA62EF"/>
<stop offset="0.478125" stop-color="#4B92FB"/>
<stop offset="0.972916" stop-color="#F6C0D1"/>
</linearGradient>
</defs>
</svg>
