<svg width="17" height="17" viewBox="0 0 17 17" fill="none" xmlns="http://www.w3.org/2000/svg">
<path d="M1.41797 4.95834L7.20145 9.00678C7.66978 9.33461 7.90395 9.49853 8.15866 9.56202C8.38364 9.6181 8.61896 9.6181 8.84395 9.56202C9.09866 9.49853 9.33282 9.33461 9.80115 9.00678L15.5846 4.95834M4.81797 14.1667H12.1846C13.3747 14.1667 13.9698 14.1667 14.4244 13.9351C14.8242 13.7313 15.1493 13.4063 15.353 13.0064C15.5846 12.5518 15.5846 11.9568 15.5846 10.7667V6.23334C15.5846 5.04323 15.5846 4.44818 15.353 3.99361C15.1493 3.59377 14.8242 3.26869 14.4244 3.06495C13.9698 2.83334 13.3747 2.83334 12.1846 2.83334H4.81797C3.62786 2.83334 3.0328 2.83334 2.57824 3.06495C2.17839 3.26869 1.85331 3.59377 1.64958 3.99361C1.41797 4.44818 1.41797 5.04323 1.41797 6.23334V10.7667C1.41797 11.9568 1.41797 12.5518 1.64958 13.0064C1.85331 13.4063 2.17839 13.7313 2.57824 13.9351C3.0328 14.1667 3.62786 14.1667 4.81797 14.1667Z" stroke="#828282" strokeWidth="1.2" strokeLinecap="round" strokeLinejoin="round"/>
</svg>
