<svg width="12" height="12" viewBox="0 0 12 12" fill="none" xmlns="http://www.w3.org/2000/svg">
<path d="M1.00697 4C1.00883 2 2.00977 1.00093 4.00976 1.0028L8.00976 1.00653C10.0098 1.0084 11.0088 2.00933 11.007 4.00933L11.0046 6.50933C11.0028 8.50933 10.0018 9.50839 8.00183 9.50653L7.75183 9.50629C7.59683 9.50615 7.44676 9.58101 7.35165 9.70592L6.60071 10.7052C6.2703 11.1449 5.7303 11.1444 5.40071 10.7041L4.65165 9.7034C4.57175 9.59333 4.38683 9.50315 4.25183 9.50303L4.00183 9.50279C2.00183 9.50093 1.0023 9 1.00463 6.5L1.0051 6" stroke="#828282" stroke-miterlimit="10" strokeLinecap="round" strokeLinejoin="round"/>
<path d="M8.00195 4.00635L8.50695 4.00682" stroke="#828282" strokeLinecap="round" strokeLinejoin="round"/>
<path d="M3.50684 4.00244L6.26183 4.00501" stroke="#828282" strokeLinecap="round" strokeLinejoin="round"/>
<path d="M3.50488 6.50244L6.50488 6.50524" stroke="#828282" strokeLinecap="round" strokeLinejoin="round"/>
</svg>
