<svg width="12" height="12" viewBox="0 0 12 12" fill="none" xmlns="http://www.w3.org/2000/svg">
<path d="M0.817514 3.64892C0.81938 1.64893 1.82031 0.649859 3.82031 0.651725L7.82031 0.655457C9.82031 0.657323 10.8194 1.65826 10.8175 3.65825L10.8152 6.15825C10.8133 8.15825 9.81238 9.15732 7.81238 9.15545L7.56238 9.15522C7.40738 9.15507 7.25731 9.22993 7.16219 9.35485L6.41126 10.3541C6.08085 10.7938 5.54085 10.7933 5.21126 10.353L4.46219 9.35233C4.3823 9.24225 4.19738 9.15208 4.06238 9.15195L3.81238 9.15172C1.81238 9.14985 0.812849 8.64892 0.815181 6.14892L0.815648 5.64892" stroke="#FEFEFE" stroke-miterlimit="10" strokeLinecap="round" strokeLinejoin="round"/>
<path d="M7.8125 3.65527L8.3175 3.65574" stroke="#FEFEFE" strokeLinecap="round" strokeLinejoin="round"/>
<path d="M3.31738 3.65137L6.07238 3.65394" stroke="#FEFEFE" strokeLinecap="round" strokeLinejoin="round"/>
<path d="M3.31543 6.15137L6.31543 6.15417" stroke="#FEFEFE" strokeLinecap="round" strokeLinejoin="round"/>
</svg>
