<svg width="14" height="15" viewBox="0 0 14 15" fill="none" xmlns="http://www.w3.org/2000/svg">
<g clipPath="url(#clip0_9273_2867)">
<path d="M8.74935 1.48608V2.30275C8.74935 2.62945 8.74935 2.7928 8.68577 2.91758C8.62984 3.02734 8.54061 3.11658 8.43084 3.1725C8.30606 3.23608 8.14271 3.23608 7.81602 3.23608H6.18268C5.85599 3.23608 5.69264 3.23608 5.56785 3.1725C5.45809 3.11658 5.36885 3.02734 5.31293 2.91758C5.24935 2.7928 5.24935 2.62945 5.24935 2.30275V1.48608M4.78268 13.1528H9.21602C9.86941 13.1528 10.1961 13.1528 10.4457 13.0256C10.6652 12.9137 10.8437 12.7353 10.9555 12.5157C11.0827 12.2662 11.0827 11.9395 11.0827 11.2861V3.35275C11.0827 2.69936 11.0827 2.37266 10.9555 2.1231C10.8437 1.90357 10.6652 1.7251 10.4457 1.61324C10.1961 1.48608 9.86941 1.48608 9.21602 1.48608H4.78268C4.12929 1.48608 3.80259 1.48608 3.55303 1.61324C3.3335 1.7251 3.15503 1.90357 3.04317 2.1231C2.91602 2.37266 2.91602 2.69936 2.91602 3.35275V11.2861C2.91602 11.9395 2.91602 12.2662 3.04317 12.5157C3.15503 12.7353 3.3335 12.9137 3.55303 13.0256C3.80259 13.1528 4.12929 13.1528 4.78268 13.1528Z" stroke="#1774FD" strokeLinecap="round" strokeLinejoin="round"/>
</g>
<defs>
<clipPath id="clip0_9273_2867">
<rect width="14" height="14" fill="white" transform="translate(0 0.319336)"/>
</clipPath>
</defs>
</svg>
