<svg width="20" height="20" viewBox="0 0 20 20" fill="none" xmlns="http://www.w3.org/2000/svg">
<path d="M6.97966 7.37779C7.55966 8.58581 8.35031 9.71801 9.35163 10.7193C10.3529 11.7206 11.4851 12.5113 12.6932 13.0913C12.7971 13.1412 12.849 13.1661 12.9148 13.1853C13.1484 13.2534 13.4353 13.2045 13.6331 13.0628C13.6888 13.0229 13.7364 12.9753 13.8317 12.88C14.123 12.5887 14.2687 12.443 14.4152 12.3478C14.9676 11.9886 15.6797 11.9886 16.2322 12.3478C16.3786 12.443 16.5243 12.5887 16.8156 12.88L16.978 13.0424C17.4209 13.4853 17.6423 13.7067 17.7626 13.9446C18.0019 14.4175 18.0019 14.9761 17.7626 15.449C17.6423 15.6869 17.4209 15.9083 16.978 16.3512L16.8467 16.4825C16.4053 16.9239 16.1846 17.1446 15.8846 17.3131C15.5517 17.5001 15.0346 17.6346 14.6528 17.6334C14.3086 17.6324 14.0735 17.5657 13.6031 17.4322C11.0753 16.7147 8.68996 15.361 6.69998 13.371C4.70999 11.381 3.35627 8.99569 2.63879 6.46786C2.50528 5.99749 2.43853 5.7623 2.43751 5.41818C2.43637 5.03633 2.57084 4.51925 2.75786 4.18633C2.9264 3.88631 3.14707 3.66563 3.58842 3.22428L3.71979 3.09292C4.16266 2.65005 4.38409 2.42861 4.62191 2.30833C5.09488 2.0691 5.65343 2.0691 6.1264 2.30832C6.36421 2.42861 6.58565 2.65005 7.02852 3.09291L7.19091 3.25531C7.48225 3.54665 7.62792 3.69231 7.72315 3.8388C8.08232 4.3912 8.08232 5.10336 7.72315 5.65576C7.62792 5.80225 7.48225 5.94791 7.19091 6.23925C7.09565 6.33451 7.04802 6.38214 7.00815 6.43782C6.86647 6.63568 6.81756 6.92256 6.88566 7.15619C6.90482 7.22193 6.92977 7.27389 6.97966 7.37779Z" stroke="#1774FD" strokeWidth="1.2" strokeLinecap="round" strokeLinejoin="round"/>
</svg>
