<svg width="17" height="17" viewBox="0 0 17 17" fill="none" xmlns="http://www.w3.org/2000/svg">
<path d="M5.93505 6.27103C6.42805 7.29785 7.10011 8.26022 7.95123 9.11134C8.80235 9.96245 9.76472 10.6345 10.7915 11.1275C10.8799 11.1699 10.924 11.1911 10.9799 11.2074C11.1785 11.2653 11.4223 11.2237 11.5905 11.1033C11.6378 11.0694 11.6783 11.0289 11.7593 10.9479C12.0069 10.7003 12.1307 10.5765 12.2553 10.4955C12.7248 10.1903 13.3301 10.1903 13.7997 10.4955C13.9242 10.5765 14.048 10.7003 14.2956 10.9479L14.4337 11.086C14.8101 11.4624 14.9983 11.6506 15.1006 11.8528C15.3039 12.2548 15.3039 12.7296 15.1006 13.1316C14.9983 13.3337 14.8101 13.522 14.4337 13.8984L14.322 14.0101C13.9469 14.3852 13.7593 14.5728 13.5043 14.716C13.2213 14.875 12.7818 14.9893 12.4572 14.9883C12.1647 14.9875 11.9648 14.9307 11.565 14.8172C9.41632 14.2074 7.38881 13.0567 5.69732 11.3652C4.00584 9.67375 2.85517 7.64625 2.24532 5.49759C2.13184 5.09778 2.07509 4.89787 2.07422 4.60536C2.07326 4.28079 2.18756 3.84127 2.34652 3.55829C2.48978 3.30327 2.67736 3.11569 3.0525 2.74054L3.16416 2.62889C3.5406 2.25245 3.72882 2.06423 3.93096 1.96198C4.33299 1.75864 4.80776 1.75864 5.20978 1.96198C5.41193 2.06423 5.60014 2.25245 5.97658 2.62889L6.11462 2.76692C6.36225 3.01456 6.48607 3.13838 6.56703 3.26288C6.87231 3.73243 6.87231 4.33776 6.56702 4.80731C6.48607 4.93182 6.36225 5.05564 6.11462 5.30327C6.03364 5.38424 5.99316 5.42473 5.95927 5.47206C5.83885 5.64024 5.79727 5.88409 5.85515 6.08267C5.87144 6.13855 5.89265 6.18271 5.93505 6.27103Z" stroke="#828282" strokeWidth="1.2" strokeLinecap="round" strokeLinejoin="round"/>
</svg>
