<svg width="16" height="16" viewBox="0 0 16 16" fill="none" xmlns="http://www.w3.org/2000/svg">
<g clipPath="url(#clip0_12487_21433)">
<path d="M5.0026 2.9987C5.0026 2.07822 5.7488 1.33203 6.66927 1.33203C7.58975 1.33203 8.33594 2.07822 8.33594 2.9987V3.9987H9.0026C9.93449 3.9987 10.4004 3.9987 10.768 4.15094C11.258 4.35393 11.6474 4.74327 11.8504 5.23333C12.0026 5.60087 12.0026 6.06681 12.0026 6.9987H13.0026C13.9231 6.9987 14.6693 7.74489 14.6693 8.66536C14.6693 9.58584 13.9231 10.332 13.0026 10.332H12.0026V11.4654C12.0026 12.5855 12.0026 13.1455 11.7846 13.5733C11.5929 13.9497 11.2869 14.2556 10.9106 14.4474C10.4828 14.6654 9.92271 14.6654 8.8026 14.6654H8.33594V13.4987C8.33594 12.6703 7.66436 11.9987 6.83594 11.9987C6.00751 11.9987 5.33594 12.6703 5.33594 13.4987V14.6654H4.53594C3.41583 14.6654 2.85578 14.6654 2.42796 14.4474C2.05163 14.2556 1.74567 13.9497 1.55392 13.5733C1.33594 13.1455 1.33594 12.5855 1.33594 11.4654V10.332H2.33594C3.25641 10.332 4.0026 9.58584 4.0026 8.66536C4.0026 7.74489 3.25641 6.9987 2.33594 6.9987H1.33594C1.33594 6.06681 1.33594 5.60087 1.48818 5.23333C1.69117 4.74327 2.08051 4.35393 2.57057 4.15094C2.93811 3.9987 3.40405 3.9987 4.33594 3.9987H5.0026V2.9987Z" stroke="#1774FD" strokeWidth="1.2" strokeLinecap="round" strokeLinejoin="round"/>
</g>
<defs>
<clipPath id="clip0_12487_21433">
<rect width="16" height="16" fill="white"/>
</clipPath>
</defs>
</svg>
