<svg width="28" height="28" viewBox="0 0 28 28" fill="none" xmlns="http://www.w3.org/2000/svg">
<path d="M20.4862 11.7339H7.51953M7.51953 14.3272H9.81896C10.1692 14.3272 10.3443 14.3272 10.5136 14.3574C10.6639 14.3842 10.8105 14.4286 10.9505 14.4897C11.1081 14.5585 11.2538 14.6556 11.5452 14.8499L11.9222 15.1012C12.2136 15.2955 12.3593 15.3927 12.5169 15.4615C12.6569 15.5225 12.8035 15.5669 12.9538 15.5937C13.1231 15.6239 13.2982 15.6239 13.6484 15.6239H14.3573C14.7075 15.6239 14.8826 15.6239 15.052 15.5937C15.2023 15.5669 15.3489 15.5225 15.4888 15.4615C15.6464 15.3927 15.7921 15.2955 16.0835 15.1012L16.4605 14.8499C16.7519 14.6556 16.8976 14.5585 17.0553 14.4897C17.1952 14.4286 17.3418 14.3842 17.4921 14.3574C17.6614 14.3272 17.8365 14.3272 18.1868 14.3272H20.4862M7.51953 10.8911L7.51953 17.1151C7.51953 17.8413 7.51953 18.2044 7.66086 18.4817C7.78518 18.7257 7.98354 18.9241 8.22752 19.0484C8.5049 19.1897 8.868 19.1897 9.5942 19.1897L18.4115 19.1897C19.1377 19.1897 19.5008 19.1897 19.7782 19.0484C20.0222 18.9241 20.2206 18.7257 20.3449 18.4817C20.4862 18.2044 20.4862 17.8413 20.4862 17.1151V10.8911C20.4862 10.1649 20.4862 9.80177 20.3449 9.5244C20.2206 9.28042 20.0222 9.08205 19.7782 8.95774C19.5008 8.81641 19.1377 8.81641 18.4115 8.81641L9.5942 8.81641C8.868 8.81641 8.5049 8.81641 8.22752 8.95773C7.98354 9.08205 7.78518 9.28041 7.66086 9.5244C7.51953 9.80177 7.51953 10.1649 7.51953 10.8911Z" stroke="#828282" strokeWidth="0.98" strokeLinecap="round" strokeLinejoin="round"/>
<rect x="0.388889" y="0.388889" width="27.2267" height="27.2267" rx="5.83333" stroke="#E5E5E5" strokeWidth="0.777778"/>
</svg>
