<svg width="18" height="18" viewBox="0 0 18 18" fill="none" xmlns="http://www.w3.org/2000/svg">
<path d="M15.3221 0.367188C12.4505 0.367188 8.6002 2.33651 6.01372 5.72223H3.86902C2.32007 5.72223 1.43247 6.87892 0.820661 8.10121L0 9.73852H3.86902L5.87716 11.7467L7.88531 13.7548V17.6225L9.52261 16.8032C10.7449 16.1927 11.9016 15.3038 11.9016 13.7548V11.6101C15.2873 9.02362 17.2566 5.172 17.2566 2.3017V0.367188H15.3221ZM11.9016 4.38347C12.2567 4.38347 12.5972 4.52452 12.8482 4.77559C13.0993 5.02665 13.2404 5.36717 13.2404 5.72223C13.2404 6.0773 13.0993 6.41781 12.8482 6.66888C12.5972 6.91995 12.2567 7.061 11.9016 7.061C11.5465 7.061 11.206 6.91995 10.9549 6.66888C10.7039 6.41781 10.5628 6.0773 10.5628 5.72223C10.5628 5.36717 10.7039 5.02665 10.9549 4.77559C11.206 4.52452 11.5465 4.38347 11.9016 4.38347ZM3.19964 12.416L2.53026 13.0854C1.56367 14.052 1.1915 16.4323 1.1915 16.4323C1.1915 16.4323 3.46472 16.1673 4.5384 15.0936L5.20778 14.4242L3.19964 12.416Z" fill="#1774FD"/>
</svg>
