<svg width="32" height="32" viewBox="0 0 32 32" fill="none" xmlns="http://www.w3.org/2000/svg">
<rect x="0.3915" y="1.03164" width="30.537" height="30.537" rx="5.8725" fill="#1774FD" fill-opacity="0.11"/>
<rect x="0.3915" y="1.03164" width="30.537" height="30.537" rx="5.8725" stroke="#E5E5E5" strokeWidth="0.783"/>
<path fillRule="evenodd" clipRule="evenodd" d="M26 7.72021C26 7.16793 25.5523 6.72021 25 6.72021H19.5C18.9477 6.72021 18.493 7.17036 18.5658 7.71783C19.0102 11.062 21.6582 13.71 25.0024 14.1544C25.5499 14.2272 26 13.7725 26 13.2202V7.72021ZM12.5 26.7202C13.0523 26.7202 13.507 26.2701 13.4342 25.7226C12.9898 22.3785 10.3418 19.7305 6.99761 19.286C6.45014 19.2132 6 19.6679 6 20.2202V25.7202C6 26.2725 6.44772 26.7202 7 26.7202H12.5Z" fill="url(#paint0_linear_6511_5968)"/>
<path d="M20.375 16.7202C20.375 19.1365 18.4162 21.0952 16 21.0952C13.5838 21.0952 11.625 19.1365 11.625 16.7202C11.625 14.304 13.5838 12.3452 16 12.3452C18.4162 12.3452 20.375 14.304 20.375 16.7202Z" fill="#1774FD"/>
<defs>
<linearGradient id="paint0_linear_6511_5968" x1="-1" y1="-5.77978" x2="31" y2="36.2202" gradientUnits="userSpaceOnUse">
<stop stop-color="#CA62EF"/>
<stop offset="0.345596" stop-color="#4B92FB"/>
<stop offset="0.972916" stop-color="#F6C0D1"/>
</linearGradient>
</defs>
</svg>
