<svg width="65" height="65" viewBox="0 0 65 65" fill="none" xmlns="http://www.w3.org/2000/svg">
<g id="Frame 311">
<rect x="0.8125" y="0.8125" width="63.375" height="63.375" rx="12.1875" fill="white"/>
<rect x="0.8125" y="0.8125" width="63.375" height="63.375" rx="12.1875" stroke="#E5E5E5" strokeWidth="1.625"/>
<path id="Icon" d="M23.0499 33.7778C23.0499 29.5436 26.6764 26.1111 31.1499 26.1111M23.0499 33.7778C23.0499 35.884 23.9473 37.7919 25.3999 39.1776C25.54 39.3113 25.61 39.3781 25.6514 39.4423C25.6909 39.5036 25.7138 39.5564 25.7314 39.6262C25.7499 39.6994 25.7499 39.7827 25.7499 39.9492V42.9778C25.7499 43.3356 25.7499 43.5145 25.8235 43.6512C25.8882 43.7714 25.9915 43.8691 26.1185 43.9304C26.2629 44 26.4519 44 26.8299 44H29.3949C29.7729 44 29.962 44 30.1064 43.9304C30.2334 43.8691 30.3366 43.7714 30.4013 43.6512C30.4749 43.5145 30.4749 43.3356 30.4749 42.9778V42.4667C30.4749 42.1089 30.4749 41.93 30.5485 41.7933C30.6132 41.6731 30.7165 41.5753 30.8435 41.5141C30.9879 41.4444 31.1769 41.4444 31.5549 41.4444H33.4449C33.8229 41.4444 34.012 41.4444 34.1564 41.5141C34.2834 41.5753 34.3866 41.6731 34.4513 41.7933C34.5249 41.93 34.5249 42.1089 34.5249 42.4667V42.9778C34.5249 43.3356 34.5249 43.5145 34.5985 43.6512C34.6632 43.7714 34.7665 43.8691 34.8935 43.9304C35.0379 44 35.2269 44 35.6049 44H38.17C38.548 44 38.7371 44 38.8814 43.9304C39.0085 43.8691 39.1117 43.7714 39.1764 43.6512C39.25 43.5145 39.25 43.3356 39.25 42.9778V41.7311C39.25 41.4729 39.25 41.3438 39.2888 41.2402C39.3261 41.1408 39.3729 41.0713 39.4525 40.9975C39.5354 40.9206 39.6759 40.8588 39.957 40.7353C41.283 40.1526 42.4145 39.2404 43.234 38.1097C43.3781 37.9108 43.4502 37.8114 43.5271 37.7527C43.6007 37.6965 43.6668 37.6636 43.7573 37.6379C43.852 37.6111 43.9644 37.6111 44.1893 37.6111H44.92C45.298 37.6111 45.4871 37.6111 45.6314 37.5415C45.7585 37.4802 45.8617 37.3825 45.9264 37.2623C46 37.1256 46 36.9467 46 36.5889V32.2262C46 31.8856 46 31.7153 45.9331 31.5839C45.8668 31.4535 45.7557 31.3483 45.6179 31.2855C45.4791 31.2222 45.2991 31.2222 44.9392 31.2222C44.6787 31.2222 44.5485 31.2222 44.4436 31.1887C44.3304 31.1527 44.2511 31.1046 44.169 31.0226C44.0929 30.9465 44.0308 30.8193 43.9065 30.5648C43.5076 29.748 42.9614 29.0088 42.3 28.3779C42.1599 28.2443 42.0899 28.1775 42.0485 28.1132C42.0091 28.0519 41.9861 27.9991 41.9685 27.9293C41.95 27.8561 41.95 27.7729 41.95 27.6063V26.1885C41.95 25.7285 41.95 25.4984 41.8488 25.3438C41.7601 25.2084 41.6212 25.1092 41.4592 25.0657C41.2743 25.016 41.0407 25.0792 40.5733 25.2056L37.3703 26.0718C37.3159 26.0865 37.2887 26.0939 37.261 26.099C37.2365 26.1036 37.2116 26.1069 37.1867 26.1089C37.1586 26.1111 37.13 26.1111 37.073 26.1111H31.1499M23.0499 33.7778H21.7C20.2088 33.7778 19 32.6336 19 31.2222C19 30.2763 19.543 29.4504 20.35 29.0086M31.1499 26.1111H36.5022C36.5337 25.9024 36.55 25.6891 36.55 25.4722C36.55 23.0023 34.4345 21 31.825 21C29.2155 21 27.1 23.0023 27.1 25.4722C27.1 26.0053 27.1985 26.5166 27.3793 26.9907C28.5055 26.429 29.7885 26.1111 31.1499 26.1111Z" stroke="#292D32" strokeWidth="2.2" strokeLinecap="round" strokeLinejoin="round"/>
</g>
</svg>
