<svg width="32" height="32" viewBox="0 0 32 32" fill="none" xmlns="http://www.w3.org/2000/svg">
<rect width="32" height="32" rx="4" fill="#FE6997"/>
<path d="M20 6C20.2449 6.00003 20.4813 6.08996 20.6644 6.25272C20.8474 6.41547 20.9643 6.63975 20.993 6.883L21 7V8H22C22.7652 7.99996 23.5015 8.29233 24.0583 8.81728C24.615 9.34224 24.9501 10.0601 24.995 10.824L25 11V23C25 23.7652 24.7077 24.5015 24.1827 25.0583C23.6578 25.615 22.9399 25.9501 22.176 25.995L22 26H10C9.23479 26 8.49849 25.7077 7.94174 25.1827C7.38499 24.6578 7.04989 23.9399 7.005 23.176L7 23V11C6.99996 10.2348 7.29233 9.49849 7.81728 8.94174C8.34224 8.38499 9.06011 8.04989 9.824 8.005L10 8H11V7C11.0003 6.74512 11.0979 6.49997 11.2728 6.31463C11.4478 6.1293 11.687 6.01777 11.9414 6.00283C12.1958 5.98789 12.4464 6.07067 12.6418 6.23426C12.8373 6.39786 12.9629 6.6299 12.993 6.883L13 7V8H19V7C19 6.73478 19.1054 6.48043 19.2929 6.29289C19.4804 6.10536 19.7348 6 20 6ZM23 13H9V22.625C9 23.33 9.386 23.911 9.883 23.991L10 24H22C22.513 24 22.936 23.47 22.993 22.785L23 22.625V13Z" fill="white"/>
<path d="M16 16C16.2449 16 16.4813 16.09 16.6644 16.2527C16.8474 16.4155 16.9643 16.6397 16.993 16.883L17 17V20C16.9997 20.2549 16.9021 20.5 16.7271 20.6854C16.5522 20.8707 16.313 20.9822 16.0586 20.9972C15.8042 21.0121 15.5536 20.9293 15.3582 20.7657C15.1627 20.6021 15.0371 20.3701 15.007 20.117L15 20V18C14.7451 17.9997 14.5 17.9021 14.3146 17.7272C14.1293 17.5522 14.0178 17.313 14.0028 17.0586C13.9879 16.8042 14.0707 16.5536 14.2343 16.3582C14.3978 16.1627 14.6299 16.0371 14.883 16.007L15 16H16Z" fill="white"/>
</svg>
