<svg width="18" height="7" viewBox="0 0 18 7" fill="none" xmlns="http://www.w3.org/2000/svg">
<path d="M17.9571 2.94113H14.7259C14.5626 2.14059 14.1244 1.4224 13.4872 0.911007C12.85 0.399619 12.054 0.127261 11.2371 0.14113H6.84111C6.02611 0.129894 5.23274 0.403456 4.59788 0.914622C3.96301 1.42579 3.52645 2.14251 3.36351 2.94113H0.0371094V4.06113H3.35791C3.51799 4.86222 3.95455 5.58156 4.59126 6.09339C5.22798 6.60522 6.02433 6.87697 6.84111 6.86113H11.2371C12.0539 6.87697 12.8502 6.60522 13.487 6.09339C14.1237 5.58156 14.5602 4.86222 14.7203 4.06113H17.9571V2.94113ZM8.48191 5.74113H6.84111C6.22449 5.76234 5.62453 5.53866 5.17229 5.11895C4.72006 4.69924 4.4523 4.11762 4.42751 3.50113C4.4523 2.88464 4.72006 2.30301 5.17229 1.88331C5.62453 1.4636 6.22449 1.23992 6.84111 1.26113H8.48751L8.48191 5.74113ZM11.2371 5.74113H9.55711V1.26113H11.2371C11.8537 1.23992 12.4537 1.4636 12.9059 1.88331C13.3582 2.30301 13.6259 2.88464 13.6507 3.50113C13.6259 4.11762 13.3582 4.69924 12.9059 5.11895C12.4537 5.53866 11.8537 5.76234 11.2371 5.74113Z" fill="white"/>
</svg>
