<svg width="42" height="42" viewBox="0 0 42 42" fill="none" xmlns="http://www.w3.org/2000/svg">
<path d="M18.8571 3.42773C19.8114 9.32362 20.8263 12.3876 23.9503 17.1917C27.2531 19.5047 30.7854 20.5372 37.7143 22.2849C30.8893 23.1401 27.492 23.9551 23.9503 27.378C20.3282 32.2802 19.3265 35.338 18.8571 41.142C18.4956 35.9007 17.4394 32.7795 13.764 27.378C8.20118 23.5607 5.23792 22.9538 0 22.2849C6.45135 21.7221 9.64446 20.8431 13.764 17.1917C16.8874 12.9542 17.8271 9.77403 18.8571 3.42773Z" fill="url(#paint0_linear_12267_31643)"/>
<path d="M32.5692 0C33.0463 2.94794 33.5538 4.47991 35.1158 6.882C36.7672 8.0385 38.5333 8.55476 41.9978 9.42857C38.5853 9.85619 36.8866 10.2637 35.1158 11.9751C33.3047 14.4263 32.8039 15.9551 32.5692 18.8571C32.3884 16.2365 31.8603 14.6759 30.0226 11.9751C27.2412 10.0665 25.7596 9.76302 23.1406 9.42857C26.3663 9.14716 27.9629 8.70768 30.0226 6.882C31.5843 4.76322 32.0542 3.17315 32.5692 0Z" fill="url(#paint1_linear_12267_31643)"/>
<defs>
<linearGradient id="paint0_linear_12267_31643" x1="18.8571" y1="3.42773" x2="18.8571" y2="41.142" gradientUnits="userSpaceOnUse">
<stop stop-color="#CA62EF"/>
<stop offset="0.478125" stop-color="#4B92FB"/>
<stop offset="0.972916" stop-color="#F6C0D1"/>
</linearGradient>
<linearGradient id="paint1_linear_12267_31643" x1="32.5692" y1="0" x2="32.5692" y2="18.8571" gradientUnits="userSpaceOnUse">
<stop stop-color="#CA62EF"/>
<stop offset="0.478125" stop-color="#4B92FB"/>
<stop offset="0.972916" stop-color="#F6C0D1"/>
</linearGradient>
</defs>
</svg>
