<svg width="37" height="37" viewBox="0 0 37 37" fill="none" xmlns="http://www.w3.org/2000/svg">
<rect x="0.738281" y="0.157959" width="36.0021" height="36.0032" rx="18.0011" fill="white"/>
<path d="M16.9032 3.15869C17.7212 8.31775 18.5912 10.9988 21.2691 15.2026C24.1004 17.2265 27.1284 18.13 33.068 19.6592C27.2175 20.4076 24.3052 21.1207 21.2691 24.1159C18.1642 28.4054 17.3055 31.081 16.9032 36.1597C16.5932 31.5734 15.6879 28.8423 12.5372 24.1159C7.76856 20.7756 5.22837 20.2445 0.738281 19.6592C6.26856 19.1667 9.00579 18.3976 12.5372 15.2026C15.2146 11.4946 16.0202 8.71187 16.9032 3.15869Z" fill="url(#paint0_linear_9273_2857)"/>
<path d="M28.6586 0.157959C29.0676 2.73749 29.5026 4.07801 30.8416 6.1799C32.2572 7.19187 33.7712 7.64361 36.741 8.40822C33.8158 8.7824 32.3596 9.13898 30.8416 10.6365C29.2891 12.7813 28.8598 14.1191 28.6586 16.6585C28.5036 14.3653 28.051 12.9998 26.4756 10.6365C24.0913 8.9664 22.8212 8.70087 20.5762 8.40822C23.3413 8.16198 24.7099 7.77742 26.4756 6.1799C27.8143 4.32591 28.2171 2.93455 28.6586 0.157959Z" fill="url(#paint1_linear_9273_2857)"/>
<defs>
<linearGradient id="paint0_linear_9273_2857" x1="16.9032" y1="3.15869" x2="16.9032" y2="36.1597" gradientUnits="userSpaceOnUse">
<stop stop-color="#CA62EF"/>
<stop offset="0.478125" stop-color="#4B92FB"/>
<stop offset="0.972916" stop-color="#F6C0D1"/>
</linearGradient>
<linearGradient id="paint1_linear_9273_2857" x1="28.6586" y1="0.157959" x2="28.6586" y2="16.6585" gradientUnits="userSpaceOnUse">
<stop stop-color="#CA62EF"/>
<stop offset="0.478125" stop-color="#4B92FB"/>
<stop offset="0.972916" stop-color="#F6C0D1"/>
</linearGradient>
</defs>
</svg>
