<svg width="20" height="19" viewBox="0 0 20 19" fill="none" xmlns="http://www.w3.org/2000/svg">
<path d="M9.31687 1.66016C9.74446 4.35661 10.1992 5.75789 11.5991 7.95506C13.079 9.0129 14.6618 9.48512 17.7666 10.2844C14.7084 10.6755 13.1861 11.0483 11.5991 12.6137C9.97605 14.8557 9.5272 16.2542 9.31687 18.9086C9.15485 16.5115 8.68162 15.0841 7.03469 12.6137C4.54205 10.8679 3.21424 10.5903 0.867188 10.2844C3.75797 10.027 5.18877 9.62499 7.03469 7.95506C8.43425 6.01704 8.85533 4.56261 9.31687 1.66016Z" fill="url(#paint0_linear_11644_4334)"/>
<path d="M15.4592 0.0917969C15.673 1.44002 15.9004 2.14067 16.6003 3.23925C17.3403 3.76817 18.1317 4.00428 19.6841 4.40391C18.155 4.59948 17.3938 4.78585 16.6003 5.56858C15.7888 6.68958 15.5644 7.3888 15.4592 8.71603C15.3782 7.51749 15.1416 6.80376 14.3181 5.56858C13.0718 4.69565 12.4079 4.55687 11.2344 4.40391C12.6798 4.27521 13.3952 4.07422 14.3181 3.23925C15.0179 2.27024 15.2284 1.54302 15.4592 0.0917969Z" fill="url(#paint1_linear_11644_4334)"/>
<defs>
<linearGradient id="paint0_linear_11644_4334" x1="-9.71223" y1="-12.5445" x2="23.7471" y2="-12.7567" gradientUnits="userSpaceOnUse">
<stop offset="0.2257" stop-color="#BF1DF8"/>
<stop offset="0.566764" stop-color="#1A74F9"/>
<stop offset="0.899478" stop-color="#FE87AC"/>
</linearGradient>
<linearGradient id="paint1_linear_11644_4334" x1="5.94466" y1="-7.01053" x2="22.6743" y2="-7.11664" gradientUnits="userSpaceOnUse">
<stop offset="0.2257" stop-color="#BF1DF8"/>
<stop offset="0.566764" stop-color="#1A74F9"/>
<stop offset="0.899478" stop-color="#FE87AC"/>
</linearGradient>
</defs>
</svg>
