<svg width="60" height="13" viewBox="0 0 60 13" fill="none" xmlns="http://www.w3.org/2000/svg">
<path d="M4.09359 10.1682C3.57093 10.1682 3.09493 10.1076 2.66559 9.98624C2.24559 9.86491 1.87693 9.70158 1.55959 9.49624C1.25159 9.28158 0.994927 9.04358 0.789594 8.78224C0.58426 8.52091 0.439594 8.24558 0.355594 7.95624L1.68559 7.52224C1.82559 7.90491 2.09159 8.23624 2.48359 8.51624C2.87559 8.79624 3.35626 8.94091 3.92559 8.95024C4.61626 8.95024 5.15759 8.81491 5.54959 8.54424C5.95093 8.26424 6.15159 7.89558 6.15159 7.43824C6.15159 7.01824 5.97893 6.67758 5.63359 6.41624C5.28826 6.14558 4.83093 5.94024 4.26159 5.80024L3.12759 5.50624C2.67959 5.38491 2.26893 5.21224 1.89559 4.98824C1.53159 4.76424 1.24226 4.47958 1.02759 4.13424C0.812927 3.78891 0.705594 3.37358 0.705594 2.88824C0.705594 1.99224 0.994927 1.29224 1.57359 0.788243C2.16159 0.284244 3.00626 0.032244 4.10759 0.032244C4.74226 0.032244 5.29293 0.13491 5.75959 0.340243C6.22626 0.536244 6.60893 0.797577 6.90759 1.12424C7.21559 1.45091 7.43493 1.81024 7.56559 2.20224L6.23559 2.65024C6.07693 2.23024 5.80626 1.89424 5.42359 1.64224C5.04093 1.38091 4.56959 1.25024 4.00959 1.25024C3.42159 1.25024 2.95493 1.39024 2.60959 1.67024C2.27359 1.95024 2.10559 2.33291 2.10559 2.81824C2.10559 3.22891 2.23626 3.54624 2.49759 3.77024C2.76826 3.98491 3.12759 4.14824 3.57559 4.26024L4.70959 4.54024C5.62426 4.76424 6.32893 5.13758 6.82359 5.66024C7.32759 6.17358 7.57959 6.73824 7.57959 7.35424C7.57959 7.88624 7.44426 8.36691 7.17359 8.79624C6.91226 9.21624 6.52026 9.55224 5.99759 9.80424C5.48426 10.0469 4.84959 10.1682 4.09359 10.1682ZM13.9399 10.0002L13.8559 8.71224V3.00024H15.1719V10.0002H13.9399ZM9.01186 6.58424V3.00024H10.3419V6.58424H9.01186ZM10.3419 6.58424C10.3419 7.20958 10.4119 7.69024 10.5519 8.02624C10.7012 8.36224 10.9065 8.59558 11.1679 8.72624C11.4292 8.85691 11.7232 8.92691 12.0499 8.93624C12.6192 8.93624 13.0625 8.73558 13.3799 8.33424C13.6972 7.93291 13.8559 7.36824 13.8559 6.64024H14.4299C14.4299 7.37758 14.3179 8.01224 14.0939 8.54424C13.8792 9.06691 13.5712 9.46824 13.1699 9.74824C12.7685 10.0282 12.2785 10.1682 11.6999 10.1682C11.1585 10.1682 10.6825 10.0562 10.2719 9.83224C9.87053 9.60824 9.55786 9.25824 9.33386 8.78224C9.11919 8.30624 9.01186 7.69024 9.01186 6.93424V6.58424H10.3419ZM17.0275 10.0002V3.00024H18.2735L18.3295 3.96624C18.5535 3.59291 18.8335 3.31291 19.1695 3.12624C19.5055 2.93024 19.8928 2.83224 20.3315 2.83224C20.8915 2.83224 21.3675 2.96291 21.7595 3.22424C22.1515 3.47624 22.4362 3.86358 22.6135 4.38624C22.8188 3.88224 23.1082 3.49958 23.4815 3.23824C23.8548 2.96758 24.2982 2.83224 24.8115 2.83224C25.6048 2.83224 26.2255 3.09358 26.6735 3.61624C27.1215 4.12958 27.3408 4.92291 27.3315 5.99624V10.0002H26.0155V6.41624C26.0155 5.78158 25.9455 5.30091 25.8055 4.97424C25.6748 4.63824 25.4975 4.40491 25.2735 4.27424C25.0495 4.14358 24.7882 4.07358 24.4895 4.06424C23.9668 4.06424 23.5608 4.26491 23.2715 4.66624C22.9915 5.06758 22.8515 5.63224 22.8515 6.36024V10.0002H21.5215V6.41624C21.5215 5.78158 21.4562 5.30091 21.3255 4.97424C21.1948 4.63824 21.0128 4.40491 20.7795 4.27424C20.5555 4.14358 20.2942 4.07358 19.9955 4.06424C19.4728 4.06424 19.0668 4.26491 18.7775 4.66624C18.4975 5.06758 18.3575 5.63224 18.3575 6.36024V10.0002H17.0275ZM29.0314 10.0002V3.00024H30.2774L30.3334 3.96624C30.5574 3.59291 30.8374 3.31291 31.1734 3.12624C31.5094 2.93024 31.8968 2.83224 32.3354 2.83224C32.8954 2.83224 33.3714 2.96291 33.7634 3.22424C34.1554 3.47624 34.4401 3.86358 34.6174 4.38624C34.8228 3.88224 35.1121 3.49958 35.4854 3.23824C35.8588 2.96758 36.3021 2.83224 36.8154 2.83224C37.6088 2.83224 38.2294 3.09358 38.6774 3.61624C39.1254 4.12958 39.3448 4.92291 39.3354 5.99624V10.0002H38.0194V6.41624C38.0194 5.78158 37.9494 5.30091 37.8094 4.97424C37.6788 4.63824 37.5014 4.40491 37.2774 4.27424C37.0534 4.14358 36.7921 4.07358 36.4934 4.06424C35.9708 4.06424 35.5648 4.26491 35.2754 4.66624C34.9954 5.06758 34.8554 5.63224 34.8554 6.36024V10.0002H33.5254V6.41624C33.5254 5.78158 33.4601 5.30091 33.3294 4.97424C33.1988 4.63824 33.0168 4.40491 32.7834 4.27424C32.5594 4.14358 32.2981 4.07358 31.9994 4.06424C31.4768 4.06424 31.0708 4.26491 30.7814 4.66624C30.5014 5.06758 30.3614 5.63224 30.3614 6.36024V10.0002H29.0314ZM45.3333 10.0002L45.2773 8.78224V6.34624C45.2773 5.83291 45.2167 5.40358 45.0953 5.05824C44.9833 4.71291 44.806 4.45158 44.5633 4.27424C44.33 4.09691 44.0173 4.00824 43.6253 4.00824C43.2613 4.00824 42.944 4.08291 42.6733 4.23224C42.412 4.38158 42.1927 4.61491 42.0153 4.93224L40.8393 4.48424C41.0073 4.16691 41.2173 3.88691 41.4693 3.64424C41.7213 3.39224 42.0247 3.19624 42.3793 3.05624C42.734 2.90691 43.1493 2.83224 43.6253 2.83224C44.288 2.83224 44.8387 2.96291 45.2773 3.22424C45.716 3.48558 46.0427 3.86358 46.2573 4.35824C46.4813 4.85291 46.5887 5.46424 46.5793 6.19224L46.5653 10.0002H45.3333ZM43.2753 10.1682C42.4447 10.1682 41.796 9.98158 41.3293 9.60824C40.872 9.22558 40.6433 8.69824 40.6433 8.02624C40.6433 7.30758 40.8813 6.76158 41.3573 6.38824C41.8427 6.00558 42.5147 5.81424 43.3733 5.81424H45.3193V6.86424H43.7373C43.0933 6.86424 42.6407 6.96691 42.3793 7.17224C42.118 7.36824 41.9873 7.64358 41.9873 7.99824C41.9873 8.32491 42.1087 8.58158 42.3513 8.76824C42.6033 8.94558 42.9487 9.03424 43.3873 9.03424C43.77 9.03424 44.1013 8.95491 44.3813 8.79624C44.6613 8.62824 44.8807 8.39491 45.0393 8.09624C45.198 7.79758 45.2773 7.45691 45.2773 7.07424H45.7393C45.7393 8.02624 45.534 8.78224 45.1233 9.34224C44.722 9.89291 44.106 10.1682 43.2753 10.1682ZM49.0661 6.23424C49.0661 5.47824 49.2107 4.86224 49.5001 4.38624C49.7894 3.91024 50.1627 3.55558 50.6201 3.32224C51.0774 3.08891 51.5581 2.97224 52.0621 2.97224V4.23224C51.6421 4.23224 51.2407 4.29758 50.8581 4.42824C50.4847 4.54958 50.1767 4.75491 49.9341 5.04424C49.7007 5.32424 49.5841 5.70691 49.5841 6.19224L49.0661 6.23424ZM48.2541 10.0002V3.00024H49.5841V10.0002H48.2541ZM53.9889 12.9682C53.7836 12.9682 53.5549 12.9309 53.3029 12.8562C53.0603 12.7816 52.8083 12.6836 52.5469 12.5622L53.0369 11.4702C53.2423 11.5636 53.4196 11.6336 53.5689 11.6802C53.7276 11.7269 53.8536 11.7502 53.9469 11.7502C54.1803 11.7502 54.3763 11.6849 54.5349 11.5542C54.7029 11.4236 54.8383 11.2416 54.9409 11.0082L55.7529 9.09024L58.2449 3.00024H59.6729L56.3549 10.8682C56.1776 11.2976 55.9909 11.6709 55.7949 11.9882C55.5989 12.3056 55.3563 12.5482 55.0669 12.7162C54.7869 12.8842 54.4276 12.9682 53.9889 12.9682ZM55.3889 10.0002L52.3229 3.00024H53.7369L56.2709 9.07624L56.6769 10.0002H55.3889Z" fill="url(#paint0_linear_11644_4337)"/>
<defs>
<linearGradient id="paint0_linear_11644_4337" x1="-38.5039" y1="-16.9998" x2="82.2108" y2="-19.804" gradientUnits="userSpaceOnUse">
<stop offset="0.2257" stop-color="#BF1DF8"/>
<stop offset="0.566764" stop-color="#1A74F9"/>
<stop offset="0.899478" stop-color="#FE87AC"/>
</linearGradient>
</defs>
</svg>
