<svg width="15" height="18" viewBox="0 0 15 18" fill="none" xmlns="http://www.w3.org/2000/svg">
<path d="M7.50016 0.666748C5.19891 0.666748 3.3335 2.53216 3.3335 4.83341C3.3335 7.13466 5.19891 9.00008 7.50016 9.00008C9.80141 9.00008 11.6668 7.13466 11.6668 4.83341C11.6668 2.53216 9.80141 0.666748 7.50016 0.666748ZM4.37516 4.83341C4.37516 4.00461 4.7044 3.20976 5.29045 2.62371C5.8765 2.03765 6.67136 1.70841 7.50016 1.70841C8.32896 1.70841 9.12382 2.03765 9.70987 2.62371C10.2959 3.20976 10.6252 4.00461 10.6252 4.83341C10.6252 5.66222 10.2959 6.41468 9.70987 7.00073C9.12382 7.58678 8.32896 7.95841 7.50016 7.95841C6.67136 7.95841 5.8765 7.62917 5.29045 7.04312C4.7044 6.45707 4.37516 5.66222 4.37516 4.83341ZM2.60433 10.6667C2.13475 10.6667 1.68439 10.8533 1.35231 11.1853C1.02022 11.5173 0.833607 11.9676 0.833496 12.4372V12.7501C0.833496 14.3147 1.64266 15.4863 2.8835 16.2417C4.10433 16.9847 5.74433 17.3334 7.50016 17.3334C9.256 17.3334 10.896 16.9847 12.1168 16.2417C13.3577 15.4863 14.1668 14.3147 14.1668 12.7501V12.4372C14.1668 12.2046 14.121 11.9744 14.032 11.7596C13.943 11.5447 13.8126 11.3495 13.6481 11.1851C13.4837 11.0207 13.2885 10.8903 13.0736 10.8014C12.8588 10.7124 12.6285 10.6667 12.396 10.6667H2.60433ZM1.87516 12.4372C1.87527 12.2438 1.95214 12.0585 2.08888 11.9218C2.22561 11.7852 2.41101 11.7084 2.60433 11.7084H12.396C12.7989 11.7084 13.1252 12.0347 13.1252 12.4372V12.7501C13.1252 13.8934 12.5585 14.7534 11.5752 15.3522C10.571 15.9634 9.1385 16.2917 7.50016 16.2917C5.86183 16.2917 4.42933 15.9634 3.42516 15.3522C2.44183 14.7534 1.87516 13.8938 1.87516 12.7501V12.4372Z" fill="#7F7F81"/>
</svg>
