<svg width="14" height="16" viewBox="0 0 14 16" fill="none" xmlns="http://www.w3.org/2000/svg">
<path d="M8.33073 7.33203H4.33073M5.66406 9.9987H4.33073M9.66406 4.66536H4.33073M12.3307 4.53203V11.4654C12.3307 12.5855 12.3307 13.1455 12.1127 13.5733C11.921 13.9497 11.615 14.2556 11.2387 14.4474C10.8109 14.6654 10.2508 14.6654 9.13073 14.6654H4.86406C3.74396 14.6654 3.1839 14.6654 2.75608 14.4474C2.37976 14.2556 2.0738 13.9497 1.88205 13.5733C1.66406 13.1455 1.66406 12.5855 1.66406 11.4654V4.53203C1.66406 3.41193 1.66406 2.85187 1.88205 2.42405C2.0738 2.04773 2.37976 1.74176 2.75608 1.55002C3.1839 1.33203 3.74396 1.33203 4.86406 1.33203H9.13073C10.2508 1.33203 10.8109 1.33203 11.2387 1.55002C11.615 1.74176 11.921 2.04773 12.1127 2.42405C12.3307 2.85187 12.3307 3.41193 12.3307 4.53203Z" stroke="#0359D8" strokeWidth="1.5" strokeLinecap="round" strokeLinejoin="round"/>
</svg>
