<svg width="29" height="28" viewBox="0 0 29 28" fill="none" xmlns="http://www.w3.org/2000/svg">
<path d="M19.0406 19.838V15.948M17.0956 17.893H20.9856M14.5022 15.948H11.9089C10.7005 15.948 10.0964 15.948 9.6198 16.1454C8.98436 16.4086 8.4795 16.9134 8.2163 17.5489C8.01889 18.0255 8.01889 18.6296 8.01889 19.838M16.7714 8.35648C17.7218 8.74119 18.3922 9.67295 18.3922 10.7613C18.3922 11.8497 17.7218 12.7814 16.7714 13.1661M15.4747 10.7613C15.4747 12.1936 14.3136 13.3546 12.8814 13.3546C11.4491 13.3546 10.2881 12.1936 10.2881 10.7613C10.2881 9.32904 11.4491 8.16797 12.8814 8.16797C14.3136 8.16797 15.4747 9.32904 15.4747 10.7613Z" stroke="#828282" strokeWidth="0.98" strokeLinecap="round" strokeLinejoin="round"/>
<rect x="0.888889" y="0.388889" width="27.2267" height="27.2267" rx="5.83333" stroke="#E5E5E5" strokeWidth="0.777778"/>
</svg>
