<svg width="22" height="18" viewBox="0 0 22 18" fill="none" xmlns="http://www.w3.org/2000/svg">
<path d="M17.7998 16.5332C18.9199 16.5332 19.4799 16.5332 19.9077 16.3152C20.2841 16.1235 20.59 15.8175 20.7818 15.4412C20.9998 15.0134 20.9998 14.4533 20.9998 13.3332V3.7332C20.9998 2.6131 20.9998 2.05305 20.7818 1.62522C20.59 1.2489 20.2841 0.942938 19.9077 0.751192C19.4799 0.533205 18.9199 0.533205 17.7998 0.533205L4.19976 0.533203C3.07965 0.533203 2.5196 0.533203 2.09178 0.75119C1.71545 0.942937 1.40949 1.2489 1.21774 1.62522C0.999756 2.05305 0.999756 2.6131 0.999756 3.7332L0.999756 13.3332C0.999756 14.4533 0.999756 15.0134 1.21774 15.4412C1.40949 15.8175 1.71545 16.1235 2.09177 16.3152C2.5196 16.5332 3.07965 16.5332 4.19975 16.5332H17.7998Z" fill="url(#paint0_linear_12743_3116)"/>
<path d="M20.9998 5.0332H0.999756M0.999756 9.0332H4.54643C5.08662 9.0332 5.35672 9.0332 5.61789 9.07976C5.84971 9.12108 6.07586 9.18955 6.29166 9.28376C6.53479 9.3899 6.75953 9.53972 7.20899 9.83936L7.79052 10.227C8.23998 10.5267 8.46472 10.6765 8.70785 10.7826C8.92365 10.8769 9.1498 10.9453 9.38162 10.9866C9.64279 11.0332 9.91289 11.0332 10.4531 11.0332H11.5464C12.0866 11.0332 12.3567 11.0332 12.6179 10.9866C12.8497 10.9453 13.0759 10.8769 13.2917 10.7826C13.5348 10.6765 13.7595 10.5267 14.209 10.227L14.7905 9.83936C15.24 9.53972 15.4647 9.3899 15.7078 9.28376C15.9237 9.18955 16.1498 9.12108 16.3816 9.07976C16.6428 9.0332 16.9129 9.0332 17.4531 9.0332H20.9998M0.999756 3.7332L0.999756 13.3332C0.999756 14.4533 0.999756 15.0134 1.21774 15.4412C1.40949 15.8175 1.71545 16.1235 2.09177 16.3152C2.5196 16.5332 3.07965 16.5332 4.19975 16.5332H17.7998C18.9199 16.5332 19.4799 16.5332 19.9077 16.3152C20.2841 16.1235 20.59 15.8175 20.7818 15.4412C20.9998 15.0134 20.9998 14.4533 20.9998 13.3332V3.7332C20.9998 2.6131 20.9998 2.05305 20.7818 1.62522C20.59 1.2489 20.2841 0.942938 19.9077 0.751192C19.4799 0.533205 18.9199 0.533205 17.7998 0.533205L4.19976 0.533203C3.07965 0.533203 2.5196 0.533203 2.09178 0.75119C1.71545 0.942937 1.40949 1.2489 1.21774 1.62522C0.999756 2.05305 0.999756 2.6131 0.999756 3.7332Z" stroke="white" strokeWidth="0.98" strokeLinecap="round" strokeLinejoin="round"/>
<defs>
<linearGradient id="paint0_linear_12743_3116" x1="2.68807" y1="8.48605" x2="19.1369" y2="0.667872" gradientUnits="userSpaceOnUse">
<stop stop-color="#CA62EF"/>
<stop offset="0.478125" stop-color="#4B92FB"/>
<stop offset="0.972916" stop-color="#F6C0D1"/>
</linearGradient>
</defs>
</svg>
