<svg width="40" height="40" viewBox="0 0 40 40" fill="none" xmlns="http://www.w3.org/2000/svg">
<rect x="0.48" y="0.48" width="39.04" height="39.04" rx="5.92" fill="white"/>
<rect x="0.48" y="0.48" width="39.04" height="39.04" rx="5.92" stroke="#D0D5DD" strokeWidth="0.96" strokeDasharray="6.4 6.4"/>
<path fillRule="evenodd" clipRule="evenodd" d="M22.938 19.4332C22.6622 19.5372 22.541 19.8432 22.6317 20.1205L26.0209 30.4768C26.3895 31.6033 25.7629 32.8114 24.6212 33.1751C24.527 33.2051 24.4322 33.2284 24.3375 33.2453C24.1721 33.2748 24.0053 33.2991 23.8429 33.3419C20.7139 34.167 17.2767 33.8967 14.1653 32.3285C10.347 30.404 7.84625 26.9415 7.04246 23.0974C6.69714 21.4459 8.52487 20.4476 10.1094 21.0795C12.8423 22.1695 15.8114 22.709 18.2438 21.5832C18.3971 21.5123 18.4644 21.3375 18.4124 21.1786L14.8527 10.3012C14.5173 9.27637 15.0057 8.18403 15.9563 7.72134C15.9563 7.72143 15.9564 7.72129 15.9563 7.72134C15.9562 7.72124 15.9563 7.72086 15.9565 7.72082C15.9574 7.7205 15.9584 7.72018 15.9593 7.71985C16.0527 7.67459 16.1505 7.63539 16.2524 7.60292C16.366 7.56674 16.4804 7.54027 16.5947 7.52306C19.7887 6.61745 23.325 6.85986 26.5181 8.46923C30.4547 10.4533 32.9908 14.0722 33.7107 18.0586C34.0078 19.7037 32.1823 20.6611 30.6118 20.0356C28.0579 19.0184 25.3237 18.5335 22.938 19.4332Z" fill="#1774FD"/>
</svg>
