<svg width="32" height="31" viewBox="0 0 32 31" fill="none" xmlns="http://www.w3.org/2000/svg">
<path fillRule="evenodd" clipRule="evenodd" d="M0.699219 15.5C0.699219 17.5355 1.10014 19.551 1.87909 21.4316C2.65803 23.3121 3.79976 25.0208 5.23906 26.4602C6.67837 27.8995 8.38708 29.0412 10.2676 29.8201C12.1482 30.5991 14.1637 31 16.1992 31C18.2347 31 20.2503 30.5991 22.1308 29.8201C24.0114 29.0412 25.7201 27.8995 27.1594 26.4602C28.5987 25.0208 29.7404 23.3121 30.5194 21.4316C31.2983 19.551 31.6992 17.5355 31.6992 15.5C31.6992 11.3891 30.0662 7.44666 27.1594 4.53984C24.2526 1.63303 20.3101 0 16.1992 0C12.0884 0 8.14588 1.63303 5.23906 4.53984C2.33225 7.44666 0.699219 11.3891 0.699219 15.5ZM29.8757 15.5C29.8757 19.1272 28.4348 22.6059 25.8699 25.1707C23.3051 27.7356 19.8264 29.1765 16.1992 29.1765C12.572 29.1765 9.09333 27.7356 6.52849 25.1707C3.96366 22.6059 2.52275 19.1272 2.52275 15.5C2.52275 11.8728 3.96366 8.39411 6.52849 5.82927C9.09333 3.26444 12.572 1.82353 16.1992 1.82353C19.8264 1.82353 23.3051 3.26444 25.8699 5.82927C28.4348 8.39411 29.8757 11.8728 29.8757 15.5Z" fill="#7F7F81"/>
<path fillRule="evenodd" clipRule="evenodd" d="M9.81641 15.5013C9.81641 23.5176 12.4459 30.0896 16.1988 30.0896C19.9516 30.0896 22.5811 23.5176 22.5811 15.5013C22.5811 7.48509 19.9516 0.913086 16.1988 0.913086C12.4459 0.913086 9.81641 7.48509 9.81641 15.5013ZM20.7576 15.5013C20.7576 22.593 18.4873 28.266 16.1988 28.266C13.9102 28.266 11.6399 22.593 11.6399 15.5013C11.6399 8.40962 13.9102 2.73662 16.1988 2.73662C18.4873 2.73662 20.7576 8.40962 20.7576 15.5013Z" fill="#7F7F81"/>
<path d="M4.77515 6.9512L5.99692 5.59814C6.19203 5.7732 6.39992 5.94461 6.62239 6.11056C9.0258 7.9122 12.8187 9.00997 16.9527 9.00997C20.4776 9.00997 23.7672 8.21309 26.1706 6.83997C26.7244 6.52665 27.2476 6.16218 27.7334 5.75132L28.9187 7.1372C28.3753 7.6022 27.7589 8.03073 27.0769 8.42097C24.3836 9.96185 20.7821 10.8335 16.9527 10.8335C12.4486 10.8335 8.26903 9.6245 5.52827 7.56938C5.26784 7.37439 5.01654 7.16932 4.77515 6.9512ZM4.77515 24.0705L5.99692 25.4199C6.19203 25.2449 6.39992 25.0734 6.62239 24.9093C9.0258 23.1077 12.8187 22.0099 16.9527 22.0099C20.4776 22.0099 23.7672 22.805 26.1706 24.1799C26.756 24.5154 27.2793 24.8801 27.7334 25.2667L28.9187 23.8808C28.3462 23.3963 27.7296 22.9665 27.0769 22.5971C24.3836 21.058 20.7821 20.1864 16.9527 20.1864C12.4486 20.1864 8.26903 21.3954 5.52827 23.4487C5.26203 23.6493 5.01039 23.8571 4.77515 24.0705ZM1.61133 16.4117V14.5881H30.7878V16.4117H1.61133Z" fill="#7F7F81"/>
</svg>
