<svg width="34" height="34" viewBox="0 0 34 34" fill="none" xmlns="http://www.w3.org/2000/svg">
<g clipPath="url(#clip0_12267_42820)">
<path d="M33.5994 25.073C33.5994 25.2571 33.5936 25.6541 33.5821 25.9647C33.5534 26.7184 33.4958 27.6907 33.4038 28.1337C33.2657 28.8011 33.0643 29.4282 32.7939 29.9518C32.4775 30.5732 32.0748 31.1255 31.5915 31.603C31.114 32.0805 30.5616 32.4833 29.9403 32.7997C29.4167 33.0701 28.7839 33.2715 28.1107 33.4095C27.6735 33.4958 26.7069 33.5591 25.959 33.5821C25.6483 33.5936 25.2513 33.5994 25.0672 33.5994H8.52067C8.33656 33.5994 7.93958 33.5936 7.62891 33.5821C6.87522 33.5534 5.90291 33.4958 5.4599 33.4038C4.79252 33.2657 4.16541 33.0643 3.64185 32.7939C3.02049 32.4775 2.46817 32.0748 1.99065 31.5915C1.51312 31.114 1.11039 30.5616 0.793958 29.9403C0.523552 29.4167 0.322186 28.7839 0.184106 28.1107C0.0978065 27.6735 0.0345199 26.7069 0.0115066 25.959C0.00575332 25.6541 0 25.2571 0 25.073V8.52642C0 8.34232 0.00575332 7.94534 0.01726 7.63466C0.0460266 6.88097 0.10356 5.90866 0.195613 5.46566C0.333693 4.79827 0.535059 4.17116 0.805465 3.64761C1.1219 3.02625 1.52463 2.47393 2.00216 1.9964C2.47968 1.51888 3.032 1.11614 3.65336 0.799712C4.17691 0.529306 4.80978 0.327939 5.48292 0.18986C5.92017 0.10356 6.88673 0.0402733 7.63466 0.01726C7.94534 0.00575332 8.34232 0 8.52642 0H25.073C25.2571 0 25.6541 0.00575332 25.9647 0.01726C26.7184 0.0460266 27.6907 0.10356 28.1337 0.195613C28.8011 0.333693 29.4282 0.535059 29.9518 0.805465C30.5732 1.1219 31.1255 1.52463 31.603 2.00791C32.0805 2.48544 32.4833 3.03775 32.7997 3.65911C33.0701 4.18266 33.2715 4.81553 33.4095 5.48867C33.4958 5.92592 33.5591 6.89248 33.5821 7.64041C33.5936 7.95109 33.5994 8.34807 33.5994 8.53218V25.073Z" fill="url(#paint0_linear_12267_42820)"/>
<path fillRule="evenodd" clipRule="evenodd" d="M25.6368 8.04078C23.3757 5.77972 20.3668 4.53125 17.1622 4.53125C10.5573 4.53125 5.1895 9.90485 5.18374 16.5039C5.18374 18.6154 5.73606 20.6751 6.78317 22.4874L5.08594 28.6952L11.4376 27.0325C13.1866 27.9875 15.1542 28.4881 17.1622 28.4881H17.1679C23.767 28.4881 29.1406 23.1145 29.1463 16.5154C29.1463 13.3108 27.8979 10.3018 25.6368 8.04078ZM17.1679 26.4629C15.3786 26.4629 13.6239 25.9796 12.0992 25.0764L11.7368 24.8635L7.96835 25.8531L8.97518 22.1824L8.7393 21.8085C7.74397 20.2263 7.21467 18.391 7.21467 16.5097C7.21467 11.021 11.685 6.55642 17.1737 6.55642C19.8317 6.55642 22.3344 7.59202 24.21 9.47335C26.0913 11.3547 27.1269 13.8574 27.1212 16.5154C27.1154 21.9983 22.6508 26.4629 17.1679 26.4629ZM22.6278 19.0124C22.3286 18.8628 20.8558 18.1379 20.5854 18.04C20.3092 17.9422 20.1136 17.8905 19.9122 18.1896C19.7109 18.4888 19.1413 19.1619 18.9629 19.3633C18.7903 19.5647 18.612 19.5877 18.3128 19.4381C18.0136 19.2885 17.0471 18.9721 15.9079 17.9537C15.0162 17.1598 14.4178 16.1817 14.2452 15.8826C14.0726 15.5834 14.228 15.4223 14.3776 15.2727C14.5099 15.1404 14.6767 14.9217 14.8263 14.7491C14.9759 14.5765 15.0277 14.45 15.1255 14.2486C15.2233 14.0472 15.1773 13.8746 15.1025 13.7251C15.0277 13.5755 14.4293 12.1026 14.1819 11.5043C13.9403 10.9232 13.6929 10.998 13.5088 10.9922C13.3362 10.9807 13.1348 10.9807 12.9335 10.9807C12.7321 10.9807 12.4099 11.0555 12.1338 11.3547C11.8576 11.6539 11.0867 12.3788 11.0867 13.8516C11.0867 15.3245 12.1568 16.7456 12.3064 16.9469C12.4559 17.1483 14.4178 20.1688 17.4211 21.4633C18.1345 21.774 18.6925 21.9581 19.1298 22.0961C19.849 22.3263 20.4991 22.2918 21.0169 22.217C21.5922 22.1307 22.7889 21.492 23.0363 20.7959C23.2837 20.0997 23.2837 19.4956 23.2089 19.3748C23.1226 19.2367 22.927 19.1619 22.6278 19.0124Z" fill="white"/>
</g>
<defs>
<linearGradient id="paint0_linear_12267_42820" x1="16.801" y1="33.602" x2="16.801" y2="0" gradientUnits="userSpaceOnUse">
<stop stop-color="#25CF43"/>
<stop offset="1" stop-color="#61FD7D"/>
</linearGradient>
<clipPath id="clip0_12267_42820">
<rect width="33.5994" height="33.5994" fill="white"/>
</clipPath>
</defs>
</svg>
