<svg width="48" height="47" viewBox="0 0 48 47" fill="none" xmlns="http://www.w3.org/2000/svg">
<path fillRule="evenodd" clipRule="evenodd" d="M40.5733 6.88948C36.1991 2.51534 30.378 0.100098 24.1786 0.100098C11.4012 0.100098 1.01675 10.4956 1.00562 23.2619C1.00562 27.3467 2.07411 31.3313 4.0998 34.8373L0.816406 46.8467L13.1041 43.6301C16.4876 45.4777 20.2941 46.446 24.1786 46.446H24.1897C36.956 46.446 47.3515 36.0504 47.3626 23.2842C47.3626 17.0847 44.9474 11.2636 40.5733 6.88948ZM24.1897 42.5282C20.7282 42.5282 17.3335 41.5932 14.384 39.8458L13.6828 39.434L6.3926 41.3484L8.34038 34.2474L7.88404 33.5239C5.95853 30.4631 4.93456 26.9126 4.93456 23.273C4.93456 12.6549 13.5827 4.01791 24.2008 4.01791C29.3429 4.01791 34.1846 6.02133 37.813 9.66088C41.4525 13.3004 43.456 18.142 43.4448 23.2842C43.4337 33.8912 34.7967 42.5282 24.1897 42.5282ZM34.7522 28.1147C34.1734 27.8253 31.3241 26.4229 30.801 26.2337C30.2667 26.0444 29.8883 25.9443 29.4988 26.523C29.1092 27.1018 28.0073 28.404 27.6623 28.7936C27.3284 29.1831 26.9834 29.2277 26.4046 28.9383C25.8258 28.6489 23.956 28.0367 21.7522 26.0667C20.027 24.5307 18.8695 22.6386 18.5356 22.0599C18.2017 21.4811 18.5022 21.1694 18.7916 20.8801C19.0476 20.6241 19.3703 20.2011 19.6597 19.8672C19.9491 19.5333 20.0493 19.2885 20.2385 18.8989C20.4277 18.5093 20.3387 18.1754 20.194 17.8861C20.0493 17.5967 18.8917 14.7474 18.4132 13.5898C17.9457 12.4657 17.4671 12.6104 17.1109 12.5992C16.777 12.577 16.3875 12.577 15.9979 12.577C15.6084 12.577 14.9851 12.7217 14.4508 13.3004C13.9166 13.8792 12.4251 15.2816 12.4251 18.1309C12.4251 20.9802 14.4953 23.7294 14.7847 24.1189C15.0741 24.5085 18.8695 30.3518 24.6794 32.8561C26.0596 33.4571 27.1392 33.8133 27.9851 34.0804C29.3763 34.5256 30.634 34.4588 31.6358 34.3141C32.7488 34.1472 35.0638 32.9117 35.5424 31.565C36.021 30.2183 36.021 29.0496 35.8763 28.8159C35.7094 28.5487 35.331 28.404 34.7522 28.1147Z" fill="white"/>
</svg>
