<svg width="24" height="24" viewBox="0 0 24 24" fill="none" xmlns="http://www.w3.org/2000/svg">
<g clipPath="url(#clip0_4991_53590)">
<path d="M23.9996 17.9093C23.9996 18.0408 23.9955 18.3243 23.9872 18.5462C23.9667 19.0846 23.9256 19.7791 23.8598 20.0955C23.7612 20.5722 23.6174 21.0202 23.4242 21.3941C23.1982 21.838 22.9105 22.2325 22.5653 22.5736C22.2243 22.9147 21.8297 23.2023 21.3859 23.4283C21.012 23.6215 20.5599 23.7653 20.0791 23.864C19.7668 23.9256 19.0764 23.9708 18.5421 23.9872C18.3202 23.9955 18.0367 23.9996 17.9052 23.9996H6.08619C5.95469 23.9996 5.67113 23.9955 5.44922 23.9872C4.91087 23.9667 4.21636 23.9256 3.89993 23.8598C3.42323 23.7612 2.97529 23.6174 2.60132 23.4242C2.1575 23.1982 1.76298 22.9105 1.42189 22.5653C1.0808 22.2243 0.793137 21.8297 0.567113 21.3859C0.373966 21.012 0.230133 20.5599 0.131505 20.0791C0.0698618 19.7668 0.0246571 19.0764 0.00821903 18.5421C0.00410952 18.3243 0 18.0408 0 17.9093V6.0903C0 5.9588 0.00410952 5.67524 0.0123285 5.45333C0.0328761 4.91498 0.0739713 4.22047 0.139724 3.90404C0.238352 3.42734 0.382185 2.9794 0.575332 2.60543C0.801356 2.16161 1.08902 1.76709 1.43011 1.426C1.7712 1.08491 2.16571 0.797246 2.60954 0.571223C2.98351 0.378075 3.43556 0.234242 3.91637 0.135614C4.22869 0.0739713 4.91909 0.0287666 5.45333 0.0123285C5.67524 0.00410952 5.9588 0 6.0903 0H17.9093C18.0408 0 18.3243 0.00410952 18.5462 0.0123285C19.0846 0.0328761 19.7791 0.0739713 20.0955 0.139724C20.5722 0.238352 21.0202 0.382185 21.3941 0.575332C21.838 0.801356 22.2325 1.08902 22.5736 1.43422C22.9147 1.77531 23.2023 2.16982 23.4283 2.61365C23.6215 2.98762 23.7653 3.43966 23.864 3.92048C23.9256 4.2328 23.9708 4.9232 23.9872 5.45744C23.9955 5.67935 23.9996 5.96291 23.9996 6.09441V17.9093Z" fill="url(#paint0_linear_4991_53590)"/>
<path fillRule="evenodd" clipRule="evenodd" d="M18.312 5.74509C16.697 4.13005 14.5477 3.23828 12.2587 3.23828C7.54096 3.23828 3.70678 7.07657 3.70267 11.7902C3.70267 13.2984 4.09719 14.7696 4.84512 16.0641L3.63281 20.4982L8.16972 19.3106C9.41901 19.9928 10.8245 20.3503 12.2587 20.3503H12.2628C16.9764 20.3503 20.8147 16.512 20.8188 11.7984C20.8188 9.5094 19.927 7.36013 18.312 5.74509ZM12.2628 18.9038C10.9847 18.9038 9.73133 18.5586 8.64231 17.9134L8.38341 17.7613L5.69168 18.4681L6.41084 15.8463L6.24235 15.5792C5.53141 14.449 5.15333 13.1381 5.15333 11.7943C5.15333 7.87381 8.34643 4.68483 12.2669 4.68483C14.1655 4.68483 15.9531 5.42454 17.2928 6.76835C18.6367 8.11217 19.3764 9.89981 19.3723 11.7984C19.3681 15.7148 16.1792 18.9038 12.2628 18.9038ZM16.1627 13.5819C15.949 13.4751 14.897 12.9573 14.7038 12.8874C14.5066 12.8176 14.3669 12.7806 14.223 12.9943C14.0792 13.208 13.6724 13.6888 13.545 13.8326C13.4217 13.9764 13.2943 13.9929 13.0806 13.886C12.8669 13.7792 12.1765 13.5532 11.3628 12.8258C10.7258 12.2587 10.2984 11.5601 10.1752 11.3464C10.0519 11.1327 10.1628 11.0176 10.2697 10.9107C10.3642 10.8162 10.4834 10.6601 10.5902 10.5368C10.6971 10.4135 10.7341 10.3231 10.8039 10.1793C10.8738 10.0354 10.8409 9.91213 10.7875 9.80529C10.7341 9.69844 10.3067 8.6464 10.13 8.21901C9.95736 7.80395 9.78065 7.85738 9.64914 7.85327C9.52586 7.84505 9.38202 7.84505 9.23819 7.84505C9.09436 7.84505 8.86422 7.89847 8.66697 8.11217C8.46971 8.32586 7.91904 8.84366 7.91904 9.8957C7.91904 10.9477 8.68341 11.9628 8.79025 12.1066C8.8971 12.2504 10.2984 14.4079 12.4436 15.3326C12.9532 15.5545 13.3518 15.686 13.6641 15.7846C14.1778 15.949 14.6422 15.9244 15.0121 15.8709C15.423 15.8093 16.2778 15.3531 16.4545 14.8559C16.6312 14.3586 16.6312 13.9271 16.5778 13.8408C16.5161 13.7422 16.3764 13.6888 16.1627 13.5819Z" fill="white"/>
</g>
<defs>
<linearGradient id="paint0_linear_4991_53590" x1="12.0007" y1="24.0014" x2="12.0007" y2="0" gradientUnits="userSpaceOnUse">
<stop stop-color="#25CF43"/>
<stop offset="1" stop-color="#61FD7D"/>
</linearGradient>
<clipPath id="clip0_4991_53590">
<rect width="23.9996" height="23.9996" fill="white"/>
</clipPath>
</defs>
</svg>
