<svg width="32" height="32" viewBox="0 0 32 32" fill="none" xmlns="http://www.w3.org/2000/svg">
<g clipPath="url(#clip0_8826_14395)">
<path d="M31.6994 23.283C31.6994 23.454 31.6941 23.8226 31.6834 24.1111C31.6567 24.8109 31.6033 25.7138 31.5178 26.1252C31.3896 26.7449 31.2026 27.3272 30.9515 27.8134C30.6577 28.3903 30.2837 28.9032 29.835 29.3466C29.3915 29.79 28.8787 30.164 28.3017 30.4578C27.8155 30.7089 27.2279 30.8959 26.6028 31.0241C26.1968 31.1043 25.2993 31.163 24.6048 31.1844C24.3163 31.1951 23.9477 31.2004 23.7767 31.2004H8.41205C8.2411 31.2004 7.87247 31.1951 7.58398 31.1844C6.88413 31.1577 5.98127 31.1043 5.56991 31.0188C4.95019 30.8906 4.36788 30.7036 3.88172 30.4525C3.30474 30.1587 2.79188 29.7847 2.34846 29.3359C1.90504 28.8925 1.53108 28.3796 1.23725 27.8027C0.986156 27.3165 0.799173 26.7289 0.670956 26.1038C0.59082 25.6978 0.532054 24.8003 0.510685 24.1058C0.505342 23.8226 0.5 23.454 0.5 23.283V7.91837C0.5 7.74741 0.505342 7.37879 0.516027 7.0903C0.542739 6.39045 0.596163 5.48759 0.681641 5.07623C0.809857 4.45651 0.99684 3.8742 1.24793 3.38804C1.54176 2.81106 1.91573 2.2982 2.35914 1.85478C2.80256 1.41136 3.31543 1.0374 3.89241 0.743566C4.37856 0.492475 4.96622 0.305492 5.59128 0.177275C5.9973 0.0971392 6.89482 0.0383732 7.58932 0.0170037C7.87781 0.00631893 8.24644 0.000976562 8.41739 0.000976562H23.782C23.953 0.000976562 24.3216 0.00631893 24.6101 0.0170037C25.31 0.0437155 26.2128 0.0971392 26.6242 0.182617C27.2439 0.310834 27.8262 0.497817 28.3124 0.748908C28.8894 1.04274 29.4022 1.4167 29.8456 1.86546C30.2891 2.30888 30.663 2.82175 30.9569 3.39872C31.2079 3.88488 31.3949 4.47254 31.5231 5.0976C31.6033 5.50362 31.662 6.40114 31.6834 7.09564C31.6941 7.38413 31.6994 7.75276 31.6994 7.92371V23.283Z" fill="url(#paint0_linear_8826_14395)"/>
<path fillRule="evenodd" clipRule="evenodd" d="M24.3056 7.47125C22.2061 5.3717 19.412 4.2124 16.4363 4.2124C10.3032 4.2124 5.31882 9.20218 5.31348 15.3299C5.31348 17.2905 5.82634 19.2031 6.79866 20.8859L5.22266 26.6504L11.1206 25.1064C12.7447 25.9932 14.5718 26.458 16.4363 26.458H16.4416C22.5693 26.458 27.5591 21.4683 27.5644 15.3406C27.5644 12.3649 26.4052 9.5708 24.3056 7.47125ZM16.4416 24.5775C14.7802 24.5775 13.1507 24.1288 11.735 23.29L11.3984 23.0923L7.89918 24.0112L8.8341 20.6028L8.61506 20.2555C7.69083 18.7864 7.19933 17.0822 7.19933 15.3352C7.19933 10.2386 11.3504 6.09292 16.447 6.09292C18.9152 6.09292 21.2391 7.05454 22.9807 8.8015C24.7276 10.5485 25.6893 12.8724 25.6839 15.3406C25.6786 20.4318 21.5329 24.5775 16.4416 24.5775ZM21.5115 17.6591C21.2337 17.5202 19.8661 16.8471 19.615 16.7563C19.3586 16.6655 19.1769 16.6174 18.9899 16.8952C18.803 17.173 18.2741 17.798 18.1085 17.985C17.9482 18.172 17.7826 18.1934 17.5048 18.0545C17.227 17.9156 16.3294 17.6218 15.2717 16.6762C14.4436 15.9389 13.888 15.0307 13.7277 14.7529C13.5674 14.4751 13.7117 14.3255 13.8506 14.1866C13.9735 14.0637 14.1284 13.8607 14.2673 13.7005C14.4062 13.5402 14.4543 13.4226 14.5451 13.2357C14.6359 13.0487 14.5932 12.8884 14.5237 12.7495C14.4543 12.6106 13.8987 11.243 13.6689 10.6874C13.4446 10.1478 13.2148 10.2172 13.0439 10.2119C12.8836 10.2012 12.6966 10.2012 12.5096 10.2012C12.3227 10.2012 12.0235 10.2706 11.7671 10.5485C11.5106 10.8263 10.7947 11.4994 10.7947 12.867C10.7947 14.2347 11.7884 15.5543 11.9273 15.7412C12.0662 15.9282 13.888 18.733 16.6767 19.935C17.3392 20.2235 17.8574 20.3944 18.2634 20.5227C18.9312 20.7364 19.5349 20.7043 20.0157 20.6348C20.5499 20.5547 21.6611 19.9617 21.8909 19.3153C22.1206 18.6689 22.1206 18.1079 22.0511 17.9957C21.971 17.8675 21.7893 17.798 21.5115 17.6591Z" fill="white"/>
</g>
<defs>
<linearGradient id="paint0_linear_8826_14395" x1="16.1009" y1="31.2028" x2="16.1009" y2="0.000976562" gradientUnits="userSpaceOnUse">
<stop stop-color="#25CF43"/>
<stop offset="1" stop-color="#61FD7D"/>
</linearGradient>
<clipPath id="clip0_8826_14395">
<rect width="31.1994" height="31.1994" fill="white" transform="translate(0.5)"/>
</clipPath>
</defs>
</svg>
