<svg width="15" height="15" viewBox="0 0 15 15" fill="none" xmlns="http://www.w3.org/2000/svg">
<path d="M9.83317 9.83317V11.4665C9.83317 12.1199 9.83317 12.4466 9.70601 12.6962C9.59416 12.9157 9.41568 13.0942 9.19616 13.206C8.9466 13.3332 8.6199 13.3332 7.9665 13.3332H3.53317C2.87978 13.3332 2.55308 13.3332 2.30352 13.206C2.08399 13.0942 1.90552 12.9157 1.79366 12.6962C1.6665 12.4466 1.6665 12.1199 1.6665 11.4665V7.03317C1.6665 6.37978 1.6665 6.05308 1.79366 5.80352C1.90552 5.58399 2.08399 5.40552 2.30352 5.29366C2.55308 5.1665 2.87978 5.1665 3.53317 5.1665H5.1665M7.03317 9.83317H11.4665C12.1199 9.83317 12.4466 9.83317 12.6962 9.70601C12.9157 9.59416 13.0942 9.41568 13.206 9.19616C13.3332 8.9466 13.3332 8.6199 13.3332 7.9665V3.53317C13.3332 2.87978 13.3332 2.55308 13.206 2.30352C13.0942 2.08399 12.9157 1.90552 12.6962 1.79366C12.4466 1.6665 12.1199 1.6665 11.4665 1.6665H7.03317C6.37978 1.6665 6.05308 1.6665 5.80352 1.79366C5.58399 1.90552 5.40552 2.08399 5.29366 2.30352C5.1665 2.55308 5.1665 2.87978 5.1665 3.53317V7.9665C5.1665 8.6199 5.1665 8.9466 5.29366 9.19616C5.40552 9.41568 5.58399 9.59416 5.80352 9.70601C6.05308 9.83317 6.37978 9.83317 7.03317 9.83317Z" stroke="white" strokeWidth="1.2" strokeLinecap="round" strokeLinejoin="round"/>
</svg>
